<?xml version="1.0" encoding="UTF-8"?><svg id="Layer_2" xmlns="http://www.w3.org/2000/svg" viewBox="0 0 17.2792 16.1039"><g id="svg5369"><g id="layer1"><g id="airfield-18"><g id="g12538"><path id="path15781" d="m3.7309,1c-.249,0-.4494.2004-.4494.4495,0,.2489.2004.4494.4494.4494h3.5951l-.4494,2.6273v1.106l-5.8766,1.7976v1.7977h5.8766v4.0099l-2.3506.9679v.8987h8.2273v-.8987l-2.3506-.9679v-4.0099h5.8766v-1.7977l-5.8766-1.7976v-1.106l-.4494-2.6273h3.5951c.249,0,.4494-.2004.4494-.4494,0-.2491-.2004-.4495-.4494-.4495H3.7309Z" fill="#fff" isolation="isolate" opacity=".3" stroke="#fff" stroke-linejoin="round" stroke-width="2"/><path id="path6220" d="m3.7309,1c-.249,0-.4494.2004-.4494.4495,0,.2489.2004.4494.4494.4494h3.5951l-.4494,2.6273v1.106l-5.8766,1.7976v1.7977h5.8766v4.0099l-2.3506.9679v.8987h8.2273v-.8987l-2.3506-.9679v-4.0099h5.8766v-1.7977l-5.8766-1.7976v-1.106l-.4494-2.6273h3.5951c.249,0,.4494-.2004.4494-.4494,0-.2491-.2004-.4495-.4494-.4495H3.7309Z" fill="#747474"/></g></g></g></g></svg>