<?xml version="1.0" encoding="UTF-8"?><svg id="Layer_1" xmlns="http://www.w3.org/2000/svg" viewBox="0 0 18 17.3719"><g opacity=".3"><path d="M12.6362,15.6651h.1474c1.2583,0,2.5167,.0004,3.775-.0004,.1853-.0001,.3281,.0624,.4025,.2076,.0666,.13,.0486,.2588-.0604,.3724-.0811,.0846-.1904,.1187-.314,.1262-.0317,.0019-.0637,.0004-.0955,.0004-4.9975,0-9.995,0-14.9925-.0005-.0593,0-.1199-.0019-.1775-.0123-.2153-.0389-.3361-.1861-.3196-.3831,.0137-.1636,.1777-.2977,.3799-.3096,.0357-.0021,.0716-.0006,.1075-.0006,1.2424,0,2.4848,0,3.7272,0h.1334v-.2686c0-4.1547,0-8.3094,0-12.4641,0-.0407-.0029-.0819,.0033-.122,.013-.0844,.0726-.1336,.1714-.1447,.0392-.0044,.0795-.0022,.1193-.0022,2.2379,0,4.4758,0,6.7138,0,.2383,0,.288,.0417,.288,.2423,0,4.1955,0,8.3909-.0003,12.5864,0,.0537-.0053,.1074-.0087,.173Zm-4.7778-.0063h2.2778v-.2585c0-.6415,.0002-1.2829-.0001-1.9244,0-.1491-.0605-.2004-.2363-.2005-.5972-.0003-1.1945-.0002-1.7917,0-.1931,0-.2495,.0474-.2496,.21-.0002,.6482-.0001,1.2965-.0001,1.9447v.2286Zm-1.6327-11.0524h.0005c0,.1932-.0034,.3864,.0012,.5795,.0032,.1344,.0742,.1893,.2309,.1897,.3141,.0007,.6282,.0007,.9423,0,.1645-.0004,.2465-.0737,.2463-.2147-.0005-.366-.0005-.7319,0-1.0979,.0002-.1411-.0813-.2142-.2458-.2147-.3061-.0008-.6123-.0003-.9184-.0002-.1927,0-.2548,.052-.2565,.2193-.0018,.1796-.0004,.3592-.0004,.5388Zm1.4214,2.8239c0-.19,.0003-.3799-.0001-.5699-.0003-.1294-.0752-.197-.2245-.1976-.3224-.0013-.6448-.0012-.9672,0-.1454,.0005-.2246,.0547-.2261,.1736-.0051,.3935-.005,.7871-.0003,1.1806,.0014,.1206,.0775,.1724,.2242,.1728,.3184,.0007,.6369,.0009,.9553,0,.158-.0005,.2386-.073,.2385-.2097-.0002-.1832,0-.3664,.0002-.5496Zm-.0002,2.813c0-.1831-.0014-.3663,.0004-.5494,.0015-.149-.067-.2129-.2408-.2135-.3144-.0011-.6287-.001-.9431,0-.1628,.0005-.2355,.0575-.2366,.1962-.003,.3799-.0032,.7598,.0002,1.1397,.0012,.1339,.0737,.1902,.2301,.1908,.3144,.0011,.6287,.0012,.9431,0,.1669-.0006,.247-.0728,.2464-.2143-.0008-.1831-.0002-.3663,.0001-.5494Zm4.1218-5.6298c0-.1932,.0028-.3864-.001-.5795-.0025-.1277-.0745-.1853-.2226-.1857-.3061-.0008-.6122-.0008-.9183,0-.1449,.0004-.2209,.061-.2264,.1844-.003,.0675,.0068,.1353,.0065,.2029-.0017,.3015-.0044,.6029-.0078,.9044-.0018,.1611,.078,.2352,.2595,.2355,.2902,.0005,.5804,.0004,.8706,0,.1696-.0003,.2377-.0567,.2393-.2029,.002-.1864,.0005-.3728,.0003-.5591Zm.0002,2.813c0-.1865,.0017-.373-.0005-.5594-.0017-.1455-.0716-.2041-.2393-.2045-.2903-.0007-.5807-.0008-.8711,0-.1737,.0005-.2577,.0698-.2583,.2171-.0015,.3659-.0014,.7319,0,1.0978,.0006,.1427,.0829,.2118,.2488,.2122,.2903,.0008,.5807,.0004,.8711,.0001,.1864-.0002,.2478-.0522,.249-.2141,.0014-.1831,.0003-.3662,.0003-.5492Zm0,2.8171c0-.1864,.0017-.3729-.0005-.5593-.0017-.1467-.0688-.2034-.2387-.204-.2903-.001-.5805-.001-.8708,0-.1795,.0006-.2596,.0717-.2596,.2258,0,.3591,0,.7181,0,1.0772,0,.1534,.0801,.2233,.261,.2238,.2863,.0009,.5726,.0007,.8589,0,.1868-.0004,.2482-.0526,.2495-.2146,.0015-.183,.0004-.3661,.0003-.5491Zm-2.1876-2.8118c0-.1931,.0004-.3863-.0002-.5794-.0004-.1215-.0768-.1885-.2205-.1895-.2186-.0016-.4373-.0017-.656,0-.1528,.0012-.2407,.0807-.2406,.2122,0,.3691-.0003,.7383,.0003,1.1074,.0002,.1331,.0859,.2064,.2429,.2072,.2186,.001,.4373,.0011,.656,0,.147-.0008,.2177-.0633,.2178-.1885,.0002-.1898,0-.3795,.0003-.5693Zm-.0018-2.8283h.0012c0-.1865-.0003-.3731,0-.5596,.0003-.1303-.0717-.1948-.2234-.1955-.2149-.001-.4297-.0009-.6446,0-.1633,.0006-.2492,.0763-.2489,.2141,.0006,.366,.0007,.732,0,1.0981-.0003,.1367,.087,.2144,.2483,.2151,.2069,.0008,.4138,.0007,.6207,0,.1686-.0006,.247-.069,.2468-.2125-.0003-.1865,0-.3731,0-.5596Zm.0012,5.6492h-.0008c0-.1897-.0009-.3794,.0003-.5691,.0009-.1375-.0671-.2016-.2264-.2029-.2146-.0018-.4292-.0017-.6438,0-.1619,.0013-.2467,.0795-.2463,.2167,.0011,.3656,.0006,.7312,.0002,1.0969-.0001,.1345,.0823,.2113,.2377,.2127,.2185,.0021,.4372,.0018,.6557,.0001,.1536-.0012,.2238-.0651,.2234-.1955-.0005-.1863-.0001-.3726-.0001-.5589Z" fill="none" stroke="#fff" stroke-miterlimit="10" stroke-width="2"/><path d="M8.9935,1.9439c-1.3776,0-2.7551,0-4.1327,0-.2391,0-.3156-.0645-.3158-.2659-.0002-.1459-.001-.2919,.0002-.4378,.0014-.1614,.0905-.2399,.2765-.2399,2.787-.0004,5.574-.0004,8.3609,0,.1717,0,.2649,.0801,.2667,.2268,.002,.1527,.0007,.3054,.0004,.4582-.0003,.1909-.0784,.2585-.2997,.2585-1.3855,.0001-2.771,0-4.1566,0Z" fill="none" stroke="#fff" stroke-miterlimit="10" stroke-width="2"/></g><g><path d="M12.6362,15.6651h.1474c1.2583,0,2.5167,.0004,3.775-.0004,.1853-.0001,.3281,.0624,.4025,.2076,.0666,.13,.0486,.2588-.0604,.3724-.0811,.0846-.1904,.1187-.314,.1262-.0317,.0019-.0637,.0004-.0955,.0004-4.9975,0-9.995,0-14.9925-.0005-.0593,0-.1199-.0019-.1775-.0123-.2153-.0389-.3361-.1861-.3196-.3831,.0137-.1636,.1777-.2977,.3799-.3096,.0357-.0021,.0716-.0006,.1075-.0006,1.2424,0,2.4848,0,3.7272,0h.1334v-.2686c0-4.1547,0-8.3094,0-12.4641,0-.0407-.0029-.0819,.0033-.122,.013-.0844,.0726-.1336,.1714-.1447,.0392-.0044,.0795-.0022,.1193-.0022,2.2379,0,4.4758,0,6.7138,0,.2383,0,.288,.0417,.288,.2423,0,4.1955,0,8.3909-.0003,12.5864,0,.0537-.0053,.1074-.0087,.173Zm-4.7778-.0063h2.2778v-.2585c0-.6415,.0002-1.2829-.0001-1.9244,0-.1491-.0605-.2004-.2363-.2005-.5972-.0003-1.1945-.0002-1.7917,0-.1931,0-.2495,.0474-.2496,.21-.0002,.6482-.0001,1.2965-.0001,1.9447v.2286Zm-1.6327-11.0524h.0005c0,.1932-.0034,.3864,.0012,.5795,.0032,.1344,.0742,.1893,.2309,.1897,.3141,.0007,.6282,.0007,.9423,0,.1645-.0004,.2465-.0737,.2463-.2147-.0005-.366-.0005-.7319,0-1.0979,.0002-.1411-.0813-.2142-.2458-.2147-.3061-.0008-.6123-.0003-.9184-.0002-.1927,0-.2548,.052-.2565,.2193-.0018,.1796-.0004,.3592-.0004,.5388Zm1.4214,2.8239c0-.19,.0003-.3799-.0001-.5699-.0003-.1294-.0752-.197-.2245-.1976-.3224-.0013-.6448-.0012-.9672,0-.1454,.0005-.2246,.0547-.2261,.1736-.0051,.3935-.005,.7871-.0003,1.1806,.0014,.1206,.0775,.1724,.2242,.1728,.3184,.0007,.6369,.0009,.9553,0,.158-.0005,.2386-.073,.2385-.2097-.0002-.1832,0-.3664,.0002-.5496Zm-.0002,2.813c0-.1831-.0014-.3663,.0004-.5494,.0015-.149-.067-.2129-.2408-.2135-.3144-.0011-.6287-.001-.9431,0-.1628,.0005-.2355,.0575-.2366,.1962-.003,.3799-.0032,.7598,.0002,1.1397,.0012,.1339,.0737,.1902,.2301,.1908,.3144,.0011,.6287,.0012,.9431,0,.1669-.0006,.247-.0728,.2464-.2143-.0008-.1831-.0002-.3663,.0001-.5494Zm4.1218-5.6298c0-.1932,.0028-.3864-.001-.5795-.0025-.1277-.0745-.1853-.2226-.1857-.3061-.0008-.6122-.0008-.9183,0-.1449,.0004-.2209,.061-.2264,.1844-.003,.0675,.0068,.1353,.0065,.2029-.0017,.3015-.0044,.6029-.0078,.9044-.0018,.1611,.078,.2352,.2595,.2355,.2902,.0005,.5804,.0004,.8706,0,.1696-.0003,.2377-.0567,.2393-.2029,.002-.1864,.0005-.3728,.0003-.5591Zm.0002,2.813c0-.1865,.0017-.373-.0005-.5594-.0017-.1455-.0716-.2041-.2393-.2045-.2903-.0007-.5807-.0008-.8711,0-.1737,.0005-.2577,.0698-.2583,.2171-.0015,.3659-.0014,.7319,0,1.0978,.0006,.1427,.0829,.2118,.2488,.2122,.2903,.0008,.5807,.0004,.8711,.0001,.1864-.0002,.2478-.0522,.249-.2141,.0014-.1831,.0003-.3662,.0003-.5492Zm0,2.8171c0-.1864,.0017-.3729-.0005-.5593-.0017-.1467-.0688-.2034-.2387-.204-.2903-.001-.5805-.001-.8708,0-.1795,.0006-.2596,.0717-.2596,.2258,0,.3591,0,.7181,0,1.0772,0,.1534,.0801,.2233,.261,.2238,.2863,.0009,.5726,.0007,.8589,0,.1868-.0004,.2482-.0526,.2495-.2146,.0015-.183,.0004-.3661,.0003-.5491Zm-2.1876-2.8118c0-.1931,.0004-.3863-.0002-.5794-.0004-.1215-.0768-.1885-.2205-.1895-.2186-.0016-.4373-.0017-.656,0-.1528,.0012-.2407,.0807-.2406,.2122,0,.3691-.0003,.7383,.0003,1.1074,.0002,.1331,.0859,.2064,.2429,.2072,.2186,.001,.4373,.0011,.656,0,.147-.0008,.2177-.0633,.2178-.1885,.0002-.1898,0-.3795,.0003-.5693Zm-.0018-2.8283h.0012c0-.1865-.0003-.3731,0-.5596,.0003-.1303-.0717-.1948-.2234-.1955-.2149-.001-.4297-.0009-.6446,0-.1633,.0006-.2492,.0763-.2489,.2141,.0006,.366,.0007,.732,0,1.0981-.0003,.1367,.087,.2144,.2483,.2151,.2069,.0008,.4138,.0007,.6207,0,.1686-.0006,.247-.069,.2468-.2125-.0003-.1865,0-.3731,0-.5596Zm.0012,5.6492h-.0008c0-.1897-.0009-.3794,.0003-.5691,.0009-.1375-.0671-.2016-.2264-.2029-.2146-.0018-.4292-.0017-.6438,0-.1619,.0013-.2467,.0795-.2463,.2167,.0011,.3656,.0006,.7312,.0002,1.0969-.0001,.1345,.0823,.2113,.2377,.2127,.2185,.0021,.4372,.0018,.6557,.0001,.1536-.0012,.2238-.0651,.2234-.1955-.0005-.1863-.0001-.3726-.0001-.5589Z" fill="#747474"/><path d="M8.9935,1.9439c-1.3776,0-2.7551,0-4.1327,0-.2391,0-.3156-.0645-.3158-.2659-.0002-.1459-.001-.2919,.0002-.4378,.0014-.1614,.0905-.2399,.2765-.2399,2.787-.0004,5.574-.0004,8.3609,0,.1717,0,.2649,.0801,.2667,.2268,.002,.1527,.0007,.3054,.0004,.4582-.0003,.1909-.0784,.2585-.2997,.2585-1.3855,.0001-2.771,0-4.1566,0Z" fill="#747474"/></g></svg>