<?xml version="1.0" encoding="UTF-8"?><svg id="Layer_2" xmlns="http://www.w3.org/2000/svg" viewBox="0 0 18.0155 18.0209"><g id="Layer_1-2"><g opacity=".3"><g><path d="M8.8,12.6155l-2.6-2.8s0-.1,.1-.1c2.4-2.5,4.9-4.9,7.6-7.1,.6-.5,1.3-.9,1.9-1.4,.2-.1,.3-.2,.5-.2,.4-.1,.8,.3,.7,.7-.1,.3-.2,.6-.4,.9-.9,1.5-1.9,2.8-3,4.2-1.5,1.9-3.1,3.7-4.7,5.6,0,.1-.1,.1-.1,.2h0Z" fill="none" stroke="#fff" stroke-miterlimit="10" stroke-width="2"/><path d="M3.6,17.0155c-.7,0-1.5-.2-2.3-.5-.2-.1-.3-.3-.3-.5s.2-.4,.4-.4c.4-.1,.7-.3,.8-.8,.2-.6,.3-1.2,.4-1.8,.3-1.4,1.2-2.2,2.5-2.4,.1,0,.2,0,.2,.1,.8,.9,1.7,1.8,2.5,2.7l.1,.2c-.4,2.2-2,3.5-4.3,3.4h0Z" fill="none" stroke="#fff" stroke-miterlimit="10" stroke-width="2"/></g></g><g><path d="M8.8,12.6155l-2.6-2.8s0-.1,.1-.1c2.4-2.5,4.9-4.9,7.6-7.1,.6-.5,1.3-.9,1.9-1.4,.2-.1,.3-.2,.5-.2,.4-.1,.8,.3,.7,.7-.1,.3-.2,.6-.4,.9-.9,1.5-1.9,2.8-3,4.2-1.5,1.9-3.1,3.7-4.7,5.6,0,.1-.1,.1-.1,.2h0Z" fill="#747474"/><path d="M3.6,17.0155c-.7,0-1.5-.2-2.3-.5-.2-.1-.3-.3-.3-.5s.2-.4,.4-.4c.4-.1,.7-.3,.8-.8,.2-.6,.3-1.2,.4-1.8,.3-1.4,1.2-2.2,2.5-2.4,.1,0,.2,0,.2,.1,.8,.9,1.7,1.8,2.5,2.7l.1,.2c-.4,2.2-2,3.5-4.3,3.4h0Z" fill="#747474"/></g></g></svg>