<?xml version="1.0" encoding="UTF-8"?><svg id="Layer_2" xmlns="http://www.w3.org/2000/svg" viewBox="0 0 18 14"><g id="svg6"><path id="path2" d="m1,1v12h16V1H1Zm3,2h2v1c.3046.3836.8318.6848,1,1.125v.875c-.3837-.3046-.6848-.8319-1.125-1h-1.875l3,3v1c-.3046.3836-.8318.6848-1,1.125v.875h-2v-1c-.3046-.3836-.8318-.6848-1-1.125v-.875c.3837.3046.6848.8319,1.125,1h1.875l-3-3v-1c.3046-.3836.8318-.6848,1-1.125v-.875Zm6,0h5v2h-5v-2Zm0,3h1v1h-1v-1Zm2,0h1v1h-1v-1Zm2,0h1v1h-1v-1Zm-4,2h1v1h-1v-1Zm2,0h1v1h-1v-1Zm2,0h1v1h-1v-1Zm-4,2h1v1h-1v-1Zm2,0h1v1h-1v-1Zm2,0h1v1h-1v-1Z" fill="none" isolation="isolate" opacity=".3" stroke="#fff" stroke-linejoin="round" stroke-width="2"/><path id="path4" d="m1,1v12h16V1H1Zm3,2h2v1c.3046.3836.8318.6848,1,1.125v.875c-.3837-.3046-.6848-.8319-1.125-1h-1.875v1l2,1,1,1v1c-.3046.3836-.8318.6848-1,1.125v.875h-2v-1c-.3046-.3836-.8318-.6848-1-1.125v-.875c.3837.3046.6848.8319,1.125,1h1.875v-1l-2-1-1-1v-1c.3046-.3836.8318-.6848,1-1.125v-.875Zm6,0h5v2h-5v-2Zm0,3h1v1h-1v-1Zm2,0h1v1h-1v-1Zm2,0h1v1h-1v-1Zm-4,2h1v1h-1v-1Zm2,0h1v1h-1v-1Zm2,0h1v1h-1v-1Zm-4,2h1v1h-1v-1Zm2,0h1v1h-1v-1Zm2,0h1v1h-1v-1Z" fill="#747474"/></g></svg>