<?xml version="1.0" encoding="UTF-8"?><svg id="Layer_1" xmlns="http://www.w3.org/2000/svg" viewBox="0 0 17 9.2517"><g opacity=".3"><path d="M16,8.2517H1v-.5277c.2125,0,.4213-.005,.6297,.002,.1114,.0038,.1559-.0255,.1547-.1467-.0104-1.1003,.2927-2.1211,.8085-3.0826,.2316-.4317,.5216-.8243,.8399-1.1989,.4551-.5357,.9928-.9724,1.5862-1.3357,.6228-.3813,1.2999-.6408,2.0143-.8078,.6634-.1551,1.3364-.178,2.0068-.1353,.7525,.048,1.4768,.2461,2.1708,.5527,.534,.2359,1.0293,.5345,1.4801,.8997,.7217,.5846,1.3055,1.2862,1.7422,2.1119,.2996,.5664,.505,1.164,.6489,1.7833,.0573,.2465,.0697,.5039,.096,.757,.02,.1923,.0297,.3856,.0456,.6003h.7763v.5277ZM7.7143,3.8607v3.8511h1.5352V3.8607h-1.5352Zm2.8331,2.0335h1.319c0-.4829-.001-.9605,.0009-1.438,.0003-.0884-.0465-.1044-.1209-.1041-.3613,.0017-.7226,.0026-1.0839-.0005-.0924-.0008-.1165,.0401-.1161,.1245,.0022,.4686,.0011,.9373,.0011,1.4182Zm-5.417,.0017h1.2717v-1.5351h-1.2717v1.5351Z" fill="none" stroke="#fff" stroke-miterlimit="10" stroke-width="2"/><path d="M16,8.2517H1v-.5277c.2125,0,.4213-.005,.6297,.002,.1114,.0038,.1559-.0255,.1547-.1467-.0104-1.1003,.2927-2.1211,.8085-3.0826,.2316-.4317,.5216-.8243,.8399-1.1989,.4551-.5357,.9928-.9724,1.5862-1.3357,.6228-.3813,1.2999-.6408,2.0143-.8078,.6634-.1551,1.3364-.178,2.0068-.1353,.7525,.048,1.4768,.2461,2.1708,.5527,.534,.2359,1.0293,.5345,1.4801,.8997,.7217,.5846,1.3055,1.2862,1.7422,2.1119,.2996,.5664,.505,1.164,.6489,1.7833,.0573,.2465,.0697,.5039,.096,.757,.02,.1923,.0297,.3856,.0456,.6003h.7763v.5277ZM7.7143,3.8607v3.8511h1.5352V3.8607h-1.5352Zm2.8331,2.0335h1.319c0-.4829-.001-.9605,.0009-1.438,.0003-.0884-.0465-.1044-.1209-.1041-.3613,.0017-.7226,.0026-1.0839-.0005-.0924-.0008-.1165,.0401-.1161,.1245,.0022,.4686,.0011,.9373,.0011,1.4182Zm-5.417,.0017h1.2717v-1.5351h-1.2717v1.5351Z" fill="none" stroke="#fff" stroke-miterlimit="10" stroke-width="2"/></g><g><path d="M16,8.2517H1v-.5277c.2125,0,.4213-.005,.6297,.002,.1114,.0038,.1559-.0255,.1547-.1467-.0104-1.1003,.2927-2.1211,.8085-3.0826,.2316-.4317,.5216-.8243,.8399-1.199,.4551-.5357,.9928-.9724,1.5862-1.3357,.6228-.3813,1.2999-.6408,2.0143-.8078,.6634-.1551,1.3364-.178,2.0068-.1353,.7525,.048,1.4768,.2461,2.1708,.5527,.534,.2359,1.0293,.5345,1.4801,.8997,.7217,.5846,1.3055,1.2862,1.7422,2.1119,.2996,.5664,.505,1.164,.6489,1.7833,.0573,.2465,.0697,.5039,.096,.757,.02,.1923,.0297,.3856,.0456,.6003h.7763v.5277ZM7.7143,3.8607v3.8511h1.5352V3.8607h-1.5352Zm2.8331,2.0335h1.319c0-.4829-.001-.9605,.0009-1.438,.0003-.0884-.0465-.1044-.1209-.1041-.3613,.0017-.7226,.0026-1.0839-.0005-.0924-.0008-.1165,.0401-.1161,.1245,.0022,.4686,.0011,.9373,.0011,1.4182Zm-5.4171,.0017h1.2717v-1.5351h-1.2717v1.5351Z" fill="#747474"/><path d="M16,8.2517H1v-.5277c.2125,0,.4213-.005,.6297,.002,.1114,.0038,.1559-.0255,.1547-.1467-.0104-1.1003,.2927-2.1211,.8085-3.0826,.2316-.4317,.5216-.8243,.8399-1.199,.4551-.5357,.9928-.9724,1.5862-1.3357,.6228-.3813,1.2999-.6408,2.0143-.8078,.6634-.1551,1.3364-.178,2.0068-.1353,.7525,.048,1.4768,.2461,2.1708,.5527,.534,.2359,1.0293,.5345,1.4801,.8997,.7217,.5846,1.3055,1.2862,1.7422,2.1119,.2996,.5664,.505,1.164,.6489,1.7833,.0573,.2465,.0697,.5039,.096,.757,.02,.1923,.0297,.3856,.0456,.6003h.7763v.5277ZM7.7143,3.8607v3.8511h1.5352V3.8607h-1.5352Zm2.8331,2.0335h1.319c0-.4829-.001-.9605,.0009-1.438,.0003-.0884-.0465-.1044-.1209-.1041-.3613,.0017-.7226,.0026-1.0839-.0005-.0924-.0008-.1165,.0401-.1161,.1245,.0022,.4686,.0011,.9373,.0011,1.4182Zm-5.4171,.0017h1.2717v-1.5351h-1.2717v1.5351Z" fill="#747474"/></g></svg>