<?xml version="1.0" encoding="UTF-8"?><svg id="Layer_2" xmlns="http://www.w3.org/2000/svg" viewBox="0 0 18 14"><g id="svg6"><path id="path2" d="m1,1v12h16V1H1Zm2,2h2v1c.3046.3836.8318.6848,1,1.125v.875c-.3837-.3046-.6848-.8319-1.125-1h-1.875v1l2,1,1,1v1c-.3046.3836-.8318.6848-1,1.125v.875h-2v-1c-.3046-.3836-.8318-.6848-1-1.125v-.875c.3837.3046.6848.8319,1.125,1h1.875v-1l-2-1-1-1v-1c.3046-.3836.8318-.6848,1-1.125v-.875Zm10,0h2l1,1v1l-1-1h-1l-1,1v1h1l1,2h-2v1l1,1h1l1-1v1l-1,1h-2l-1-2v-1h-1v-2h1v-1l1-2Zm-6,3h2.9688v1h-2.9688v-1Zm0,2h3v1h-3v-1Z" fill="none" isolation="isolate" opacity=".3" stroke="#fff" stroke-linejoin="round" stroke-width="2"/><path id="path4" d="m1,1v12h16V1H1Zm2,2h2v1c.3046.3836.8318.6848,1,1.125v.875c-.3837-.3046-.6848-.8319-1.125-1h-1.875v1l2,1,1,1v1c-.3046.3836-.8318.6848-1,1.125v.875h-2v-1c-.3046-.3836-.8318-.6848-1-1.125v-.875c.3837.3046.6848.8319,1.125,1h1.875v-1l-2-1-1-1v-1c.3046-.3836.8318-.6848,1-1.125v-.875Zm10,0h2l1,1v1l-1-1h-1l-1,1v1h1l1,2h-2v1l1,1h1l1-1v1l-1,1h-2l-1-2v-1h-1v-2h1v-1l1-2Zm-6,3h2.9688v1h-2.9688v-1Zm0,2h3v1h-3v-1Z" fill="#747474"/></g></svg>