<?xml version="1.0" encoding="UTF-8"?><svg id="Layer_1" xmlns="http://www.w3.org/2000/svg" viewBox="0 0 7 7"><circle cx="3.5" cy="3.5" r="3" fill="#fff" stroke="#747474" stroke-miterlimit="10"/><path d="M4.2269,2.5467l1.1225,.1656c.093,.0133,.1711,.0789,.2008,.1687,.0297,.0906,.0055,.189-.0617,.2562l-.814,.7983,.1922,1.1452c.0156,.0937-.0227,.189-.1008,.2445-.0773,.0555-.1797,.0625-.2632,.018l-1.003-.5351-1.0022,.5351c-.0844,.0445-.1867,.0375-.264-.018-.0773-.0555-.1164-.1508-.1-.2445l.1922-1.1452-.8141-.7983c-.0673-.0672-.0912-.1656-.0616-.2562,.0294-.0898,.1073-.1554,.201-.1687l1.1216-.1656,.5031-1.0337c.0414-.0861,.1289-.1407,.2242-.1407,.0961,0,.1836,.0546,.225,.1407l.5023,1.0337Z" fill="#747474"/></svg>