<?xml version="1.0" encoding="UTF-8"?><svg id="Layer_2" xmlns="http://www.w3.org/2000/svg" viewBox="0 0 16.9308 17.334"><g id="svg5369"><g id="layer1"><g id="cinema-18"><g id="g23200"><path id="path14712" d="m13.904,1l-1.9762.5764.9606,2.6075,1.8938-.549-.8783-2.6348Zm-3.1838.9057l-2.5799.741.9881,2.6073,2.5799-.741-.9881-2.6073Zm-3.7601,1.0704l-2.278.6587.9881,2.6073,2.2781-.6587-.9882-2.6073Zm-3.4582.9881l-2.5018.8845,1.1485,2.297,2.3139-.5743-.9606-2.6073Zm-1.3533,3.1816v8.0397c0,.5743.5743,1.1485,1.1485,1.1485h11.4852c.5743,0,1.1485-.5743,1.1485-1.1485V7.1458H2.1485Zm2.297,2.297h9.1882v2.297H4.4456v-2.297Z" fill="#fff" isolation="isolate" opacity=".3" stroke="#fff" stroke-linecap="round" stroke-linejoin="round" stroke-width="2"/><path id="rect7568-8-4-7" d="m13.904,1l-1.9762.5764.9606,2.6075,1.8938-.549-.8783-2.6348Zm-3.1838.9057l-2.5799.741.9881,2.6073,2.5799-.741-.9881-2.6073Zm-3.7601,1.0704l-2.278.6587.9881,2.6073,2.2781-.6587-.9882-2.6073Zm-3.4582.9881l-2.5018.8845,1.1485,2.297,2.3139-.5743-.9606-2.6073Zm-1.3533,3.1816v8.0397c0,.5743.5743,1.1485,1.1485,1.1485h11.4852c.5743,0,1.1485-.5743,1.1485-1.1485V7.1458H2.1485Zm2.297,2.297h9.1882v2.297H4.4456v-2.297Z" fill="#747474"/></g></g></g></g></svg>