<?xml version="1.0" encoding="UTF-8"?><svg id="Layer_2" xmlns="http://www.w3.org/2000/svg" viewBox="0 0 17.624 17.6243"><g id="svg6"><g id="computer-18"><path id="path16553" d="m14.4287.9609H3.1973c-.4121,0-1.1145.7132-1.1145,1.1219v7.851c0,.4088.7022,1.1586,1.1143,1.1586h11.2315c.4121,0,1.1129-.7497,1.1129-1.1586V2.0829c.0002-.4088-.7006-1.1219-1.1127-1.1219Zm-1.1304,7.8514H4.3257V3.2044h8.9726v5.6079Zm2.2432,7.851H2.0825s-1.1216,0-1.1216-1.1216l2.2432-3.3647h11.2158l2.2432,3.3647c0,1.1216-1.1216,1.1216-1.1216,1.1216Z" fill="none" isolation="isolate" opacity=".3" stroke="#fff" stroke-width="1.9219"/><path id="path6551" d="m14.4287.9609H3.1973c-.4121,0-1.1145.7132-1.1145,1.1219v7.851c0,.4088.7022,1.1586,1.1143,1.1586h11.2315c.4121,0,1.1129-.7497,1.1129-1.1586V2.0829c.0002-.4088-.7006-1.1219-1.1127-1.1219Zm-1.1304,7.8514H4.3257V3.2044h8.9726v5.6079Zm2.2432,7.851H2.0825s-1.1216,0-1.1216-1.1216l2.2432-3.3647h11.2158l2.2432,3.3647c0,1.1216-1.1216,1.1216-1.1216,1.1216Z" fill="#747474"/></g></g></svg>