<?xml version="1.0" encoding="UTF-8"?><svg id="Layer_2" xmlns="http://www.w3.org/2000/svg" viewBox="0 0 13.8429 17.7186"><g id="svg6"><path id="path2" d="m6.9218,9.5078c1.1761,0,1.7216.8927,1.8364,2.1605.0273.3034-.0012.7455-.0401,1.2577-.1322,1.7015-.2842,3.7925.8488,3.7925.9582,0,1.4505-1.8383,1.7345-3.9339.2743-2.0744-.0162-3.1068.1267-4.0279.2724-1.7452,1.7958-3.31,1.3252-5.5352-.2606-1.2344-.9403-1.815-1.6136-2.0591-1.5511-.5646-2.5526.5233-4.218.5233s-2.6668-1.0879-4.2187-.5233c-.6728.2441-1.3525.8248-1.6136,2.0591-.47,2.2251,1.0528,3.79,1.3259,5.5352.1427.9211-.1476,1.9534.1267,4.0279.284,2.0955.7765,3.9339,1.7345,3.9339,1.1325,0,.9812-2.091.8488-3.7924-.039-.5121-.0673-.9543-.0401-1.2577.1143-1.268.6671-2.1606,1.8366-2.1606h0Z" fill="none" isolation="isolate" opacity=".3" stroke="#fff" stroke-linejoin="round" stroke-width="2"/><path id="path4" d="m6.9218,9.5126c1.1761,0,1.7216.8927,1.8364,2.1605.0273.3034-.0012.7455-.0401,1.2577-.1322,1.7015-.2842,3.7925.8488,3.7925.9582,0,1.4505-1.8383,1.7345-3.9339.2743-2.0744-.0162-3.1068.1267-4.0279.2724-1.7452,1.7958-3.31,1.3252-5.5352-.2606-1.2344-.9403-1.815-1.6136-2.0591-1.5511-.5646-2.5526.5233-4.218.5233s-2.6668-1.0879-4.2187-.5233c-.6728.2441-1.3525.8248-1.6136,2.0591-.47,2.2251,1.0528,3.79,1.3259,5.5352.1427.9211-.1476,1.9534.1267,4.0279.284,2.0955.7765,3.9339,1.7345,3.9339,1.1325,0,.9812-2.091.8488-3.7924-.039-.5121-.0673-.9543-.0401-1.2577.1143-1.268.6671-2.1606,1.8366-2.1606h0Z" fill="#747474"/></g></svg>