<?xml version="1.0" encoding="UTF-8"?><svg id="Layer_2" xmlns="http://www.w3.org/2000/svg" viewBox="0 0 13.0863 15.4656"><g id="svg5369"><g id="layer1"><g id="fuel-18"><path id="rect7223-2-4-9-4-2-3" d="m1.1897,0C.5948,0,0,.5948,0,1.1897v13.0863c0,.5948.5948,1.1897,1.1897,1.1897h7.138c.5948,0,1.1897-.5948,1.1897-1.1897v-3.569h.2974c.1628,0,.2974.1141.2974.2974v.8922c0,.5948.5948,1.1897,1.1897,1.1897h.5948c.5948,0,1.1897-.4845,1.1897-1.1897v-4.1638c0-1.1897-1.1897-1.1897-1.1897-2.379v-1.7845h-1.1897l-1.1897-1.1899v-1.1894C9.5173.5951,8.9224.0003,8.3276.0003l-7.138-.0003Zm0,1.7845h7.138v2.9741H1.1897V1.7845Zm8.3276,4.1638h1.1897c0,1.1897,1.1897,1.1897,1.1897,2.3793v3.2716c0,.2974-.2974.2974-.2974.2974,0,0-.2974,0-.2974-.2974v-.8922c0-.7026-.5941-1.1913-1.1897-1.1897l-.5949-.0003v-3.5687Z" fill="#747474"/></g></g></g></svg>