<?xml version="1.0" encoding="UTF-8"?><svg id="Layer_2" xmlns="http://www.w3.org/2000/svg" viewBox="0 0 17.4043 17.4043"><g id="svg2"><g id="gambling-18"><g id="g15545" opacity=".3"><path id="path15547" d="m4.8511,1c-2.5674,0-3.8511,1.2837-3.8511,3.8511v7.7021c0,2.5674,1.2837,3.8511,3.8511,3.8511h7.7021c2.5674,0,3.8511-1.2837,3.8511-3.8511v-7.7021c0-2.5674-1.2837-3.8511-3.8511-3.8511h-7.7021Zm7.7021,2.5674c1.0634,0,1.2837.2202,1.2837,1.2837s-.2202,1.2837-1.2837,1.2837-1.2837-.2202-1.2837-1.2837.2202-1.2837,1.2837-1.2837Zm-3.8511,3.8511c1.0634,0,1.2837.2202,1.2837,1.2837s-.2202,1.2837-1.2837,1.2837-1.2837-.2202-1.2837-1.2837.2202-1.2837,1.2837-1.2837Zm-3.8511,3.8511c1.0634,0,1.2837.2202,1.2837,1.2837s-.2202,1.2837-1.2837,1.2837-1.2837-.2202-1.2837-1.2837.2202-1.2837,1.2837-1.2837Z" fill="none" stroke="#fff" stroke-linejoin="round" stroke-width="2"/></g><g id="g6463"><path id="rect11273" d="m4.8511,1c-2.5674,0-3.8511,1.2837-3.8511,3.8511v7.7021c0,2.5674,1.2837,3.8511,3.8511,3.8511h7.7021c2.5674,0,3.8511-1.2837,3.8511-3.8511v-7.7021c0-2.5674-1.2837-3.8511-3.8511-3.8511h-7.7021Zm7.7021,2.5674c1.0634,0,1.2837.2202,1.2837,1.2837s-.2202,1.2837-1.2837,1.2837-1.2837-.2202-1.2837-1.2837.2202-1.2837,1.2837-1.2837Zm-3.8511,3.8511c1.0634,0,1.2837.2202,1.2837,1.2837s-.2202,1.2837-1.2837,1.2837-1.2837-.2202-1.2837-1.2837.2202-1.2837,1.2837-1.2837Zm-3.8511,3.8511c1.0634,0,1.2837.2202,1.2837,1.2837s-.2202,1.2837-1.2837,1.2837-1.2837-.2202-1.2837-1.2837.2202-1.2837,1.2837-1.2837Z" fill="#747474"/></g></g></g></svg>