<?xml version="1.0" encoding="UTF-8"?><svg id="Layer_1" xmlns="http://www.w3.org/2000/svg" viewBox="0 0 16.474 17"><g opacity=".3"><path d="M10.331,15.9072c-.1064-.0238-.2144-.0419-.319-.0722-.8076-.2338-1.3815-.9707-1.3913-1.8104-.0067-.5759,.2307-1.0403,.7169-1.3585,.1918-.1255,.4031-.2213,.6057-.3302,.0221-.0119,.0458-.0207,.0845-.0379-.0719-.0686-.1375-.1294-.2011-.1923-.3328-.3292-.6663-.658-.9533-1.0296-.185-.2396-.338-.4959-.4106-.7943-.0061-.0251-.0367-.0517-.0623-.0636-.8974-.4157-1.7955-.8297-2.6935-1.2439-.86-.3966-1.7209-.7915-2.5798-1.1906-.296-.1375-.4796-.3845-.6132-.6721-.1645-.354-.2193-.7184-.0979-1.0994,.0677-.2126,.2314-.2914,.435-.2001,1.4948,.67,2.9895,1.3404,4.4842,2.0106,.0247,.0111,.0499,.021,.0908,.0382-.0256-.058-.0446-.1017-.0641-.1453-.6607-1.4762-1.3216-2.9523-1.9822-4.4285-.0948-.2119-.0182-.3758,.2068-.4399,.5813-.1654,1.0842,.0032,1.5301,.3767,.0909,.0761,.1626,.1881,.2131,.2975,.8197,1.772,1.6345,3.5463,2.4516,5.3195,.0111,.0242,.0357,.0534,.059,.059,.295,.0701,.545,.2244,.7779,.4106,.3905,.3123,.7285,.6794,1.0761,1.0364,.0373,.0383,.0748,.0766,.1126,.1145l.0138,.0063c.0574-.1113,.1104-.2251,.1733-.3331,.0749-.1286,.154-.2552,.2387-.3775,.4578-.6609,1.212-.8361,1.8709-.617,.7856,.2613,1.2394,.8165,1.3566,1.6405,.0026,.0181,.0089,.0356,.0135,.0533v.2376c-.005,.027-.0121,.0537-.0148,.0809-.0622,.6252-.5013,1.1639-1.107,1.3299-.673,.1843-1.2617,.0023-1.7686-.4586-.298-.271-.5823-.5569-.8733-.8356-.2574-.2466-.5399-.4574-.8696-.5988-.1686-.0723-.3429-.1197-.5289-.1059-.1605,.0119-.2501,.1014-.2636,.262-.0138,.1638,.0219,.3197,.0804,.4709,.1333,.3441,.3434,.6387,.5952,.9044,.2803,.2958,.5653,.5873,.8467,.8821,.3329,.3488,.5159,.7632,.5421,1.2464,.0406,.7473-.4387,1.4115-1.1609,1.6045-.0758,.0203-.1528,.0357-.2293,.0534h-.3913Zm3.2504-6.2814c-.2924,.0017-.5552,.0889-.7516,.3097-.2448,.2753-.427,.5912-.543,.9433-.0141,.0428-.0021,.067,.0282,.0958,.2039,.1942,.4031,.3935,.6101,.5844,.0986,.0909,.2035,.1797,.3186,.2471,.3118,.1827,.6456,.2337,.9932,.1141,.4523-.1557,.7089-.5961,.6531-1.1101-.0693-.6383-.6748-1.1862-1.3087-1.1843Zm-3.0682,5.713c.5219,.0005,.9344-.3372,1.0152-.8471,.0659-.4152-.0743-.7714-.3548-1.0745-.1977-.2135-.4037-.4193-.6037-.6307-.032-.0338-.0599-.0403-.1036-.0285-.3075,.0828-.5832,.2296-.8434,.4096-.2961,.2049-.4319,.4949-.4339,.8464-.0039,.6974,.6266,1.324,1.3241,1.3247Zm-1.2684-5.3255c.2054-.001,.3725-.1703,.3701-.3747-.0025-.2048-.1732-.3719-.377-.3691-.2023,.0028-.3652,.1691-.3652,.3727,0,.2071,.1655,.3722,.3721,.3712Z" fill="none" stroke="#fff" stroke-miterlimit="10" stroke-width="2"/><path d="M13.1354,1c.1302,.0314,.2209,.1191,.3119,.2106,.4827,.4857,.9678,.969,1.452,1.4533,.5624,.5624,.5637,1.4178-.0001,1.9839-.7561,.7591-1.5143,1.5161-2.2716,2.2739-.3095,.3097-.6191,.6194-.9288,.929-.0129,.0129-.0269,.0245-.0287,.0261-.1907-.0948-.3742-.1844-.5554-.2783-.0253-.0131-.0452-.0448-.0582-.0724-.3042-.6439-.6072-1.2883-.9101-1.9328-.0384-.0816-.0753-.164-.1052-.2522,.0139,.0127,.0284,.0248,.0417,.0381,.3162,.3162,.6318,.6331,.9491,.9481,.0287,.0285,.0655,.0544,.1034,.0666,.0691,.0222,.1423-.0133,.1797-.0754,.0362-.0602,.0301-.1392-.0207-.1942-.0569-.0615-.1175-.1196-.1768-.1789-.4295-.4302-.8594-.86-1.2884-1.2907-.1196-.12-.1492-.2792-.0825-.4234,.0626-.1353,.2054-.22,.357-.21,.1,.0066,.1809,.052,.2512,.1225,.4687,.4701,.9381,.9394,1.4074,1.4089,.0181,.0181,.0355,.0372,.0549,.0537,.0668,.0569,.1605,.0545,.2221-.0047,.0621-.0597,.07-.1534,.0155-.2217-.026-.0326-.0574-.061-.087-.0906-.4627-.4628-.9259-.9251-1.3882-1.3884-.1166-.1169-.1461-.2751-.0821-.4178,.0605-.135,.1976-.2213,.3465-.2159,.1054,.0038,.1907,.0499,.2648,.1242,.4568,.4589,.9146,.9167,1.3722,1.3749,.023,.0231,.0458,.0465,.0694,.069,.0788,.0751,.1725,.0795,.2426,.012,.0709-.0683,.0692-.1686-.0089-.2476-.1768-.1789-.3556-.3559-.5334-.5337-.303-.303-.6061-.606-.9089-.9092-.158-.1581-.1645-.3888-.0157-.5362,.1511-.1496,.3749-.1427,.5361,.0184,.4613,.4609,.9221,.9225,1.3831,1.3838,.0198,.0198,.0392,.0399,.0594,.0592,.078,.0747,.1735,.0786,.2424,.01,.0694-.069,.0675-.1656-.0072-.242-.1026-.1048-.2067-.2083-.3104-.3122-.3802-.3806-.7605-.7612-1.1409-1.1417-.1111-.1112-.1459-.2438-.0955-.391,.0498-.1454,.1594-.2267,.3122-.2427,.1244-.0131,.2255,.0371,.3127,.1246,.4389,.4406,.8788,.8801,1.3184,1.32,.0379,.0379,.0756,.0759,.1137,.1136,.0845,.0838,.1793,.0896,.252,.0156,.0702-.0715,.065-.1656-.0161-.2469-.3748-.3762-.7502-.7519-1.1254-1.1277-.1037-.1038-.2063-.2087-.3115-.311-.108-.105-.15-.2306-.1102-.3752,.0399-.1449,.1402-.232,.2878-.2637,.0087-.0019,.0166-.0078,.0249-.0118h.0839Z" fill="none" stroke="#fff" stroke-miterlimit="10" stroke-width="2"/><path d="M1,13.974c.1238-.4525,.4504-.7314,.8308-.9602,.4108-.2472,.8557-.4207,1.3075-.5745,.5967-.2032,1.1986-.3924,1.7703-.6613,.4504-.2118,.8971-.4313,1.3465-.6453,.0251-.0119,.0641-.0156,.0884-.0047,.2525,.1134,.5034,.2302,.754,.3477,.0211,.0099,.0432,.0288,.0533,.0493,.0942,.1916,.1858,.3845,.2835,.5882-.0013,.0014-.0139,.0173-.0281,.0316-1.0563,1.0575-2.1123,2.1154-3.1697,3.1718-.1851,.1849-.3892,.3466-.6194,.4736-.5279,.2911-1.0491,.28-1.5624-.036-.2945-.1813-.543-.4161-.7616-.6817-.1511-.1835-.2322-.4013-.2763-.6334-.0038-.0202-.0111-.0398-.0168-.0596v-.4053Zm1.5865,1.0649c.3623,.0005,.659-.2939,.6611-.656,.0021-.3607-.2947-.6606-.6553-.6622-.3664-.0017-.6635,.2941-.6629,.66,.0006,.364,.2938,.6578,.6571,.6583Z" fill="none" stroke="#fff" stroke-miterlimit="10" stroke-width="2"/></g><g><path d="M10.331,15.9072c-.1064-.0238-.2144-.0419-.319-.0722-.8076-.2338-1.3815-.9707-1.3913-1.8104-.0067-.5759,.2307-1.0403,.7169-1.3585,.1918-.1255,.4031-.2213,.6057-.3302,.0221-.0119,.0458-.0207,.0845-.0379-.0719-.0686-.1375-.1294-.2011-.1923-.3328-.3292-.6663-.658-.9533-1.0296-.185-.2396-.338-.4959-.4106-.7943-.0061-.0251-.0367-.0517-.0623-.0636-.8974-.4157-1.7955-.8297-2.6935-1.2439-.86-.3966-1.7209-.7915-2.5798-1.1906-.296-.1375-.4796-.3845-.6132-.6721-.1645-.354-.2193-.7184-.0979-1.0994,.0677-.2126,.2314-.2914,.435-.2001,1.4948,.67,2.9895,1.3404,4.4842,2.0106,.0247,.0111,.0499,.021,.0908,.0382-.0256-.058-.0446-.1017-.0641-.1453-.6607-1.4762-1.3216-2.9523-1.9822-4.4285-.0948-.2119-.0182-.3758,.2068-.4399,.5813-.1654,1.0842,.0032,1.5301,.3767,.0909,.0761,.1626,.1881,.2131,.2975,.8197,1.772,1.6345,3.5463,2.4516,5.3195,.0111,.0242,.0357,.0534,.059,.059,.295,.0701,.545,.2244,.7779,.4106,.3905,.3123,.7285,.6794,1.0761,1.0364,.0373,.0383,.0748,.0766,.1126,.1145l.0138,.0063c.0574-.1113,.1104-.2251,.1733-.3331,.0749-.1286,.154-.2552,.2387-.3775,.4578-.6609,1.212-.8361,1.8709-.617,.7856,.2613,1.2394,.8165,1.3566,1.6405,.0026,.0181,.0089,.0356,.0135,.0533v.2376c-.005,.027-.0121,.0537-.0148,.0809-.0622,.6252-.5013,1.1639-1.107,1.3299-.673,.1843-1.2617,.0023-1.7686-.4586-.298-.271-.5823-.5569-.8733-.8356-.2574-.2466-.5399-.4574-.8696-.5988-.1686-.0723-.3429-.1197-.5289-.1059-.1605,.0119-.2501,.1014-.2636,.262-.0138,.1638,.0219,.3197,.0804,.4709,.1333,.3441,.3434,.6387,.5952,.9044,.2803,.2958,.5653,.5873,.8467,.8821,.3329,.3488,.5159,.7632,.5421,1.2464,.0406,.7473-.4387,1.4115-1.1609,1.6045-.0758,.0203-.1528,.0357-.2293,.0534h-.3913Zm3.2504-6.2814c-.2924,.0017-.5552,.0889-.7516,.3097-.2448,.2753-.427,.5912-.543,.9433-.0141,.0428-.0021,.067,.0282,.0958,.2039,.1942,.4031,.3935,.6101,.5844,.0986,.0909,.2035,.1797,.3186,.2471,.3118,.1827,.6456,.2337,.9932,.1141,.4523-.1557,.7089-.5961,.6531-1.1101-.0693-.6383-.6748-1.1862-1.3087-1.1843Zm-3.0682,5.713c.5219,.0005,.9344-.3372,1.0152-.8471,.0659-.4152-.0743-.7714-.3548-1.0745-.1977-.2135-.4037-.4193-.6037-.6307-.032-.0338-.0599-.0403-.1036-.0285-.3075,.0828-.5832,.2296-.8434,.4096-.2961,.2049-.4319,.4949-.4339,.8464-.0039,.6974,.6266,1.324,1.3241,1.3247Zm-1.2684-5.3255c.2054-.001,.3725-.1703,.3701-.3747-.0025-.2048-.1732-.3719-.377-.3691-.2023,.0028-.3652,.1691-.3652,.3727,0,.2071,.1655,.3722,.3721,.3712Z" fill="#747474"/><path d="M13.1354,1c.1302,.0314,.2209,.1191,.3119,.2106,.4827,.4857,.9678,.969,1.452,1.4533,.5624,.5624,.5637,1.4178-.0001,1.9839-.7561,.7591-1.5143,1.5161-2.2716,2.2739-.3095,.3097-.6191,.6194-.9288,.929-.0129,.0129-.0269,.0245-.0287,.0261-.1907-.0948-.3742-.1844-.5554-.2783-.0253-.0131-.0452-.0448-.0582-.0724-.3042-.6439-.6072-1.2883-.9101-1.9328-.0384-.0816-.0753-.164-.1052-.2522,.0139,.0127,.0284,.0248,.0417,.0381,.3162,.3162,.6318,.6331,.9491,.9481,.0287,.0285,.0655,.0544,.1034,.0666,.0691,.0222,.1423-.0133,.1797-.0754,.0362-.0602,.0301-.1392-.0207-.1942-.0569-.0615-.1175-.1196-.1768-.1789-.4295-.4302-.8594-.86-1.2884-1.2907-.1196-.12-.1492-.2792-.0825-.4234,.0626-.1353,.2054-.22,.357-.21,.1,.0066,.1809,.052,.2512,.1225,.4687,.4701,.9381,.9394,1.4074,1.4089,.0181,.0181,.0355,.0372,.0549,.0537,.0668,.0569,.1605,.0545,.2221-.0047,.0621-.0597,.07-.1534,.0155-.2217-.026-.0326-.0574-.061-.087-.0906-.4627-.4628-.9259-.9251-1.3882-1.3884-.1166-.1169-.1461-.2751-.0821-.4178,.0605-.135,.1976-.2213,.3465-.2159,.1054,.0038,.1907,.0499,.2648,.1242,.4568,.4589,.9146,.9167,1.3722,1.3749,.023,.0231,.0458,.0465,.0694,.069,.0788,.0751,.1725,.0795,.2426,.012,.0709-.0683,.0692-.1686-.0089-.2476-.1768-.1789-.3556-.3559-.5334-.5337-.303-.303-.6061-.606-.9089-.9092-.158-.1581-.1645-.3888-.0157-.5362,.1511-.1496,.3749-.1427,.5361,.0184,.4613,.4609,.9221,.9225,1.3831,1.3838,.0198,.0198,.0392,.0399,.0594,.0592,.078,.0747,.1735,.0786,.2424,.01,.0694-.069,.0675-.1656-.0072-.242-.1026-.1048-.2067-.2083-.3104-.3122-.3802-.3806-.7605-.7612-1.1409-1.1417-.1111-.1112-.1459-.2438-.0955-.391,.0498-.1454,.1594-.2267,.3122-.2427,.1244-.0131,.2255,.0371,.3127,.1246,.4389,.4406,.8788,.8801,1.3184,1.32,.0379,.0379,.0756,.0759,.1137,.1136,.0845,.0838,.1793,.0896,.252,.0156,.0702-.0715,.065-.1656-.0161-.2469-.3748-.3762-.7502-.7519-1.1254-1.1277-.1037-.1038-.2063-.2087-.3115-.311-.108-.105-.15-.2306-.1102-.3752,.0399-.1449,.1402-.232,.2878-.2637,.0087-.0019,.0166-.0078,.0249-.0118h.0839Z" fill="#747474"/><path d="M1,13.974c.1238-.4525,.4504-.7314,.8308-.9602,.4108-.2472,.8557-.4207,1.3075-.5745,.5967-.2032,1.1986-.3924,1.7703-.6613,.4504-.2118,.8971-.4313,1.3465-.6453,.0251-.0119,.0641-.0156,.0884-.0047,.2525,.1134,.5034,.2302,.754,.3477,.0211,.0099,.0432,.0288,.0533,.0493,.0942,.1916,.1858,.3845,.2835,.5882-.0013,.0014-.0139,.0173-.0281,.0316-1.0563,1.0575-2.1123,2.1154-3.1697,3.1718-.1851,.1849-.3892,.3466-.6194,.4736-.5279,.2911-1.0491,.28-1.5624-.036-.2945-.1813-.543-.4161-.7616-.6817-.1511-.1835-.2322-.4013-.2763-.6334-.0038-.0202-.0111-.0398-.0168-.0596v-.4053Zm1.5865,1.0649c.3623,.0005,.659-.2939,.6611-.656,.0021-.3607-.2947-.6606-.6553-.6622-.3664-.0017-.6635,.2941-.6629,.66,.0006,.364,.2938,.6578,.6571,.6583Z" fill="#747474"/></g></svg>