<?xml version="1.0" encoding="UTF-8"?><svg id="Layer_2" xmlns="http://www.w3.org/2000/svg" viewBox="0 0 17.6596 17.6596"><g id="svg6"><path id="path846" d="m8.8298,1C4.5542,1,1,4.455,1,8.8298s3.5542,7.8298,7.8298,7.8298,7.8298-3.455,7.8298-7.8298S13.1054,1,8.8298,1Zm0,1.1832c3.7912,0,6.7765,3.0263,6.7765,6.6466s-2.9853,6.6466-6.7765,6.6466-6.7765-3.0263-6.7765-6.6466,2.9853-6.6466,6.7765-6.6466Zm-2.2471,1.0788v3.3407h-3.3707v4.4543h3.3707v3.3407h4.4942v-3.3407h3.3707v-4.4543h-3.3707v-3.3407h-4.4942Z" fill="#747474" isolation="isolate" opacity=".3" stroke="#fff" stroke-width="2"/><path id="hospital" d="m8.8298,1C4.5542,1,1,4.455,1,8.8298s3.5542,7.8298,7.8298,7.8298,7.8298-3.455,7.8298-7.8298S13.1054,1,8.8298,1Zm0,1.1832c3.7912,0,6.7765,3.0263,6.7765,6.6466s-2.9853,6.6466-6.7765,6.6466-6.7765-3.0263-6.7765-6.6466,2.9853-6.6466,6.7765-6.6466Zm-2.2471,1.0788v3.3407h-3.3707v4.4543h3.3707v3.3407h4.4942v-3.3407h3.3707v-4.4543h-3.3707v-3.3407h-4.4942Z" fill="#747474"/></g></svg>