<?xml version="1.0" encoding="UTF-8"?><svg id="Layer_2" xmlns="http://www.w3.org/2000/svg" viewBox="0 0 14.0001 18.0001"><g id="svg4"><g id="kindergarten-18"><g id="g6304"><path id="path6300" d="m4.6202,11.1358l1.7966,1.7965-1.3154,1.3154,1.352,1.3523c.7947.7963-.305,1.9366-1.1256,1.1163l-2.1416-2.2232c-.4571-.4702-.5838-1.3344-.0906-1.8238,0-.004,1.5245-1.5334,1.5245-1.5334h0Zm2.38-.8894h-2.3542v-1.7336l-2.145,1.8422c-.8812.8264-2.074-.2317-1.1901-1.0616l3.2218-3.0309c.2631-.2413.5493-.3962,1.0064-.3995h2.8931c.4514.003.7578.1536,1.0255.3995l3.2607,3.067c.8388.7833-.3862,1.8517-1.1901,1.0525l-2.2032-1.8782v1.7424h-2.3249Zm0-4.7279c1.2474-.002,2.2593-1.0128,2.2593-2.2593,0-1.2502-1.0118-2.2619-2.2593-2.2592-1.249-.003-2.2606,1.009-2.2597,2.2592-.0009,1.2466,1.0107,2.2581,2.2597,2.2593Zm2.3748,5.6172l-1.7963,1.7965,1.3245,1.3154-1.3517,1.3523c-.8002.7963.2997,1.9366,1.1246,1.1163l2.1325-2.2232c.4619-.4702.5885-1.3344.1002-1.8238-.0049-.004-1.5338-1.5334-1.5338-1.5334h0Z" fill="#fff" isolation="isolate" opacity=".3" stroke="#fff" stroke-linejoin="round" stroke-width="2"/><path id="path6241" d="m4.6202,11.1358l1.7966,1.7965-1.3154,1.3154,1.352,1.3523c.7947.7963-.305,1.9366-1.1256,1.1163l-2.1416-2.2232c-.4571-.4702-.5838-1.3344-.0906-1.8238,0-.004,1.5245-1.5334,1.5245-1.5334h0Zm2.38-.8894h-2.3542v-1.7336l-2.145,1.8422c-.8812.8264-2.074-.2317-1.1901-1.0616l3.2218-3.0309c.2631-.2413.5493-.3962,1.0064-.3995h2.8931c.4514.003.7578.1536,1.0255.3995l3.2607,3.067c.8388.7833-.3862,1.8517-1.1901,1.0525l-2.2032-1.8782v1.7424h-2.3249Zm0-4.7279c1.2474-.002,2.2593-1.0128,2.2593-2.2593,0-1.2502-1.0118-2.2619-2.2593-2.2592-1.249-.003-2.2606,1.009-2.2597,2.2592-.0009,1.2466,1.0107,2.2581,2.2597,2.2593Zm2.3748,5.6172l-1.7963,1.7965,1.3245,1.3154-1.3517,1.3523c-.8002.7963.2997,1.9366,1.1246,1.1163l2.1325-2.2232c.4619-.4702.5885-1.3344.1002-1.8238-.0049-.004-1.5338-1.5334-1.5338-1.5334h0Z" fill="#747474"/></g></g></g></svg>