<?xml version="1.0" encoding="UTF-8"?><svg id="Layer_1" xmlns="http://www.w3.org/2000/svg" viewBox="0 0 18 15.0213"><path d="M15.8624,11.2336c-.4141-.6988-.8259-1.3989-1.2419-2.0966-1.4625-2.4529-2.9323-4.9016-4.3844-7.3606-.2543-.4306-.6102-.6667-1.0775-.7764h-.3626c-.5698,.1162-.9052,.4864-1.1924,.9747C5.482,5.5809,3.3407,9.1756,1.2076,12.7751c-.0796,.1343-.1388,.2805-.2076,.4211v.1807c.2149,.5381,.3615,.6368,.9472,.6368,3.9838,0,7.9675,0,11.9513,0,.7167,0,1.434-.0178,2.1499,.0065,.4525,.0153,.7746-.1285,.9516-.553v-.3162c-.3792-.6391-.7587-1.2781-1.1376-1.9174Zm-3.1351-1.9126c-.2436,.2129-.4631,.453-.6941,.6803-.1755,.1726-.2613,.1738-.4336,.0031-.5194-.5144-1.0296-1.0383-1.5583-1.5429-.5652-.5394-1.489-.6054-2.091-.0142-.3334,.3274-.6673,.6544-.9941,.9883-.1276,.1303-.2251,.0893-.2728-.0481-.1921-.5529-.3564-1.1158-.5589-1.6647-.0971-.2631,.0509-.43,.1609-.6177,.3847-.6567,.7801-1.3072,1.1628-1.9651,.5019-.8628,.9956-1.7304,1.527-2.6552,.2808,.4702,.5268,.881,.7717,1.2925,.4112,.691,.8247,1.3807,1.2319,2.074,.4427,.7538,.877,1.5125,1.3198,2.2662,.1546,.2631,.3217,.5189,.4865,.7759,.1034,.1613,.1023,.2879-.0575,.4276Z" fill="none" opacity=".3" stroke="#fff" stroke-miterlimit="10" stroke-width="2"/><path d="M15.8624,11.2336c-.4141-.6988-.8259-1.3989-1.2419-2.0966-1.4625-2.4529-2.9323-4.9016-4.3844-7.3606-.2543-.4306-.6102-.6667-1.0775-.7764h-.3626c-.5698,.1162-.9052,.4864-1.1924,.9747C5.482,5.5809,3.3407,9.1756,1.2076,12.7751c-.0796,.1343-.1388,.2805-.2076,.4211v.1807c.2149,.5381,.3615,.6368,.9472,.6368,3.9838,0,7.9675,0,11.9513,0,.7167,0,1.434-.0178,2.1499,.0065,.4525,.0153,.7746-.1285,.9516-.553v-.3162c-.3792-.6391-.7587-1.2781-1.1376-1.9174Zm-3.1351-1.9126c-.2436,.2129-.4631,.453-.6941,.6803-.1755,.1726-.2613,.1738-.4336,.0031-.5194-.5144-1.0296-1.0383-1.5583-1.5429-.5652-.5394-1.489-.6054-2.091-.0142-.3334,.3274-.6673,.6544-.9941,.9883-.1276,.1303-.2251,.0893-.2728-.0481-.1921-.5529-.3564-1.1158-.5589-1.6647-.0971-.2631,.0509-.43,.1609-.6177,.3847-.6567,.7801-1.3072,1.1628-1.9651,.5019-.8628,.9956-1.7304,1.527-2.6552,.2808,.4702,.5268,.881,.7717,1.2925,.4112,.691,.8247,1.3807,1.2319,2.074,.4427,.7538,.877,1.5125,1.3198,2.2662,.1546,.2631,.3217,.5189,.4865,.7759,.1034,.1613,.1023,.2879-.0575,.4276Z" fill="#747474"/></svg>