<?xml version="1.0" encoding="UTF-8"?><svg id="Layer_2" xmlns="http://www.w3.org/2000/svg" viewBox="0 0 17.5107 13.0789"><g id="svg6"><path id="path2" d="m6.5374,1l-1.1067,2.2138h-2.2134c-1.1067,0-2.2134,1.1069-2.2134,2.2138.0042,2.3847-.0106,2.2849,0,4.4276,0,1.1069,1.1067,2.2138,2.2134,2.2138,4.2827,0,6.7845.0222,11.0669,0,1.1067,0,2.2134-1.1069,2.2134-2.2138.0345-7.368-.0113-1.9383,0-4.4276,0-1.1069-1.1067-2.2138-2.2134-2.2138h-2.2134l-1.1067-2.2138h-4.4267Zm2.2134,3.3207c1.528,0,2.7668,1.239,2.7668,2.7673s-1.2387,2.7673-2.7668,2.7673-2.7668-1.239-2.7668-2.7673,1.2387-2.7673,2.7668-2.7673Z" fill="none" isolation="isolate" opacity=".3" stroke="#fff" stroke-linejoin="round" stroke-width="2"/><path id="path4" d="m6.5374,1l-1.1067,2.2138h-2.2134c-1.1067,0-2.2134,1.1069-2.2134,2.2138.0042,2.3847-.0106,2.2849,0,4.4276,0,1.1069,1.1067,2.2138,2.2134,2.2138,4.2827,0,6.7845.0222,11.0669,0,1.1067,0,2.2134-1.1069,2.2134-2.2138.0345-7.368-.0113-1.9383,0-4.4276,0-1.1069-1.1067-2.2138-2.2134-2.2138h-2.2134l-1.1067-2.2138h-4.4267Zm2.2134,3.3207c1.528,0,2.7668,1.239,2.7668,2.7673s-1.2387,2.7673-2.7668,2.7673-2.7668-1.239-2.7668-2.7673,1.2387-2.7673,2.7668-2.7673Z" fill="#747474"/></g></svg>