<?xml version="1.0" encoding="UTF-8"?><svg id="Layer_2" xmlns="http://www.w3.org/2000/svg" viewBox="0 0 9.4894 11.6292"><g id="svg5369"><g id="g21526"><path id="rect7805-5-1" d="m3.1398,2.0699h3.2097v-1.0699h-3.2097v1.0699Zm0,.8024c0,1.0341.5708,1.8723,1.6049,1.8723s1.6049-.8382,1.6049-1.8723v-.2675h-3.2097v.2675Zm-1.0699,2.4073c-.535,0-1.0699,1.6049-1.0699,2.1398v3.2097h1.7052l3.6443-5.3495H2.0699Zm5.3495,0l-3.6443,5.3495h4.7142v-3.2097c0-.535-.535-2.1398-1.0699-2.1398Z" fill="#fff" isolation="isolate" opacity=".3" stroke="#fff" stroke-linecap="round" stroke-linejoin="round" stroke-width="2"/><path id="path5442" d="m3.1398,2.0699h3.2097v-1.0699h-3.2097v1.0699Zm0,.8024c0,1.0341.5708,1.8723,1.6049,1.8723s1.6049-.8382,1.6049-1.8723v-.2675h-3.2097v.2675Zm-1.0699,2.4073c-.535,0-1.0699,1.6049-1.0699,2.1398v3.2097h1.7052l3.6443-5.3495H2.0699Zm5.3495,0l-3.6443,5.3495h4.7142v-3.2097c0-.535-.535-2.1398-1.0699-2.1398Z" fill="#525252"/></g></g></svg>