<?xml version="1.0" encoding="UTF-8"?><svg id="Layer_2" xmlns="http://www.w3.org/2000/svg" viewBox="0 0 12 11.5"><g id="svg5369"><g id="g21610"><path id="path10199" d="m7,1c-.5523,0-1,.4478-1,1s.4477,1,1,1,1-.4478,1-1-.4477-1-1-1Zm-4,1c-.5523,0-1,.4478-1,1s.4477,1,1,1,1-.4478,1-1-.4477-1-1-1Zm4.5,1.5h-.5l-2,1v1l2-1v2.5625l-1,3.4375h1l1-3.5s.25,1.4999,1.25,1.5c.6009.0001,1.4167,0,1.75,0v-.75c-.25,0-1.25-.0001-1.5,0-.5336.0002-.5-.8011-.5-1.25,0-.7501-.5-2-.5-2l1.5.9375c.4532.3021.8458-.2329.4062-.5625l-1.6562-1.125c-.3018-.2148-.3984-.2499-.75-.25h-.5001Zm-4.75,1c-.25,0-.3682.1183-.5.25l-1.0625,1.0625c-.1368.1368-.1875.2593-.1875.4375,0,.25.3822.3678.5938.1562l.9062-.9062h.5v1l-1,2.75c-.2022.556.5721.7242.75.25l.5046-1.3h2.7454v-.7h-1.5v-2c0-.5-.5-1-1-1h-.75Z" fill="none" isolation="isolate" opacity=".3" stroke="#fff" stroke-linecap="round" stroke-linejoin="round" stroke-width="2"/><path id="path17501" d="m7,1c-.5523,0-1,.4478-1,1s.4477,1,1,1,1-.4478,1-1-.4477-1-1-1Zm-4,1c-.5523,0-1,.4478-1,1s.4477,1,1,1,1-.4478,1-1-.4477-1-1-1Zm4.5,1.5h-.5l-2,1v1l2-1v2.5625l-1,3.4375h1l1-3.5s.25,1.4999,1.25,1.5c.6009.0001,1.4167,0,1.75,0v-.75c-.25,0-1.25-.0001-1.5,0-.5336.0002-.5-.8011-.5-1.25,0-.7501-.5-2-.5-2l1.5.9375c.4532.3021.8458-.2329.4062-.5625l-1.6562-1.125c-.3018-.2148-.3984-.2499-.75-.25h-.5001Zm-4.75,1c-.25,0-.3682.1183-.5.25l-1.0625,1.0625c-.1368.1368-.1875.2593-.1875.4375,0,.25.3822.3678.5938.1562l.9062-.9062h.5v1l-1,2.75c-.2022.556.5721.7242.75.25l.5046-1.3h2.7454v-.7h-1.5v-2c0-.5-.5-1-1-1h-.75Z" fill="#525252"/></g></g></svg>