<?xml version="1.0" encoding="UTF-8"?><svg id="Layer_2" xmlns="http://www.w3.org/2000/svg" viewBox="0 0 12 11.8326"><g id="svg5369"><path id="path15974" d="m10,5l-.7255-1.7094c-.1518-.4233-.6421-1.2926-1.2745-1.2906h-1v-1h-2v1h-1c-.6294-.002-1.1196.8672-1.2745,1.2906l-.7255,1.7094c-.3239.0416-.9971.2377-1,1v3h1v1c-.0022,1.1167,2.0017,1.1036,2,0v-1h4v1c.0018,1.1036,1.9996,1.1167,2,0v-1h1v-3c.0006-.7623-.6731-.9584-1-1Zm-7,3c-.4714,0-1-.5286-1-1s.5286-1,1-1,1,.5286,1,1-.5286,1-1,1Zm.3-3l.7-2h4l.7,2H3.3Zm5.7,3c-.4714,0-1-.5286-1-1s.5286-1,1-1,1,.5286,1,1-.5286,1-1,1Z" fill="none" isolation="isolate" opacity=".3" stroke="#fff" stroke-linejoin="round" stroke-width="2"/><path id="path15963" d="m10,5l-.7255-1.7094c-.1518-.4233-.6421-1.2926-1.2745-1.2906h-1v-1h-2v1h-1c-.6294-.002-1.1196.8672-1.2745,1.2906l-.7255,1.7094c-.3239.0416-.9971.2377-1,1v3h1v1c-.0022,1.1167,2.0017,1.1036,2,0v-1h4v1c.0018,1.1036,1.9996,1.1167,2,0v-1h1v-3c.0006-.7623-.6731-.9584-1-1Zm-7,3c-.4714,0-1-.5286-1-1s.5286-1,1-1,1,.5286,1,1-.5286,1-1,1Zm.3-3l.7-2h4l.7,2H3.3Zm5.7,3c-.4714,0-1-.5286-1-1s.5286-1,1-1,1,.5286,1,1-.5286,1-1,1Z" fill="#525252"/></g></svg>