<?xml version="1.0" encoding="UTF-8"?><svg id="Layer_2" xmlns="http://www.w3.org/2000/svg" viewBox="0 0 11.5842 9.9868"><g id="svg5369"><path id="path5396" d="m5.7921,1L1,3.6623l4.7921,2.6623,2.6623-1.5974v1.3311l-2.6623,1.3311-2.6623-1.3311v1.3311l2.6623,1.5974,2.6623-1.5974c0,.5325,1.0649.5325,1.0649.5325v-.5325s-.5325-.0309-.5325-.5325v-2.1298l1.5974-1.0649L5.7921,1Z" fill="none" isolation="isolate" opacity=".3" stroke="#fff" stroke-linecap="round" stroke-linejoin="round" stroke-width="2"/><path id="path7442-3" d="m5.7921,1L1,3.6623l4.7921,2.6623,2.6623-1.5974v1.3311l-2.6623,1.3311-2.6623-1.3311v1.3311l2.6623,1.5974,2.6623-1.5974c0,.5325,1.0649.5325,1.0649.5325v-.5325s-.5325-.0309-.5325-.5325v-2.1298l1.5974-1.0649L5.7921,1Z" fill="#525252"/></g></svg>