<?xml version="1.0" encoding="UTF-8"?><svg id="Layer_2" xmlns="http://www.w3.org/2000/svg" viewBox="0 0 17.6596 17.6596"><g id="svg5369"><path id="path6955" d="m1,1v15.6596h6.7112v-2.5866l-5.6626-5.6626c.1024-.155.1781-.3179.3146-.4544s.2994-.2123.4544-.3146l5.4529,5.4529V2.2233c.182-.0373.3662-.0699.5593-.0699s.3772.0326.5593.0699v10.8709l5.4529-5.4529c.1551.1023.3179.178.4544.3146s.2122.2994.3146.4544l-5.6626,5.6626v2.5866h6.7112V1H1Zm6.3617,1.5729v4.7538c-.8003-.492-1.3283-1.3686-1.3283-2.3769s.528-1.8849,1.3283-2.3769Zm2.9362,0c.8003.492,1.3283,1.3686,1.3283,2.3769s-.528,1.8849-1.3283,2.3769V2.5729Zm-5.9072,4.5791c.6982.0112,1.4227.2692,1.9574.804.713.7129.9521,1.7078.734,2.6216l-3.3556-3.3556c.2284-.0545.4314-.0733.6641-.0699h0Zm8.8784,0c.2327-.0033.4357.0154.6641.0699l-3.3556,3.3556c-.218-.9137.0211-1.9086.734-2.6216.5347-.5348,1.2591-.7928,1.9574-.804h0ZM1.6295,9.3191l3.3556,3.3556c-.9138.218-1.9086-.021-2.6216-.734-.713-.7129-.9521-1.7078-.734-2.6216h0Zm14.4012,0c.218.9137-.0211,1.9086-.734,2.6216-.713.713-1.7078.952-2.6216.734l3.3557-3.3557Z" fill="none" isolation="isolate" opacity=".3" stroke="#fff" stroke-linejoin="round" stroke-width="2"/><path id="rect6949" d="m1,1v15.6596h6.7112v-2.5866l-5.6626-5.6626c.1024-.155.1781-.3179.3146-.4544s.2994-.2123.4544-.3146l5.4529,5.4529V2.2233c.182-.0373.3662-.0699.5593-.0699s.3772.0326.5593.0699v10.8709l5.4529-5.4529c.1551.1023.3179.178.4544.3146s.2122.2994.3146.4544l-5.6626,5.6626v2.5866h6.7112V1H1Zm6.3617,1.5729v4.7538c-.8003-.492-1.3283-1.3686-1.3283-2.3769s.528-1.8849,1.3283-2.3769Zm2.9362,0c.8003.492,1.3283,1.3686,1.3283,2.3769s-.528,1.8849-1.3283,2.3769V2.5729Zm-5.9072,4.5791c.6982.0112,1.4227.2692,1.9574.804.713.7129.9521,1.7078.734,2.6216l-3.3556-3.3556c.2284-.0545.4314-.0733.6641-.0699h0Zm8.8784,0c.2327-.0033.4357.0154.6641.0699l-3.3556,3.3556c-.218-.9137.0211-1.9086.734-2.6216.5347-.5348,1.2591-.7928,1.9574-.804h0ZM1.6295,9.3191l3.3556,3.3556c-.9138.218-1.9086-.021-2.6216-.734-.713-.7129-.9521-1.7078-.734-2.6216h0Zm14.4012,0c.218.9137-.0211,1.9086-.734,2.6216-.713.713-1.7078.952-2.6216.734l3.3557-3.3557Z" fill="#747474"/></g></svg>