<?xml version="1.0" encoding="UTF-8"?><svg id="Layer_2" xmlns="http://www.w3.org/2000/svg" viewBox="0 0 17.6571 17.6571"><g id="svg5369"><g id="layer1"><g id="airport-18"><g id="g21737"><path id="path14268" d="m16.6571,10.6351v1.2044l-6.6241-1.2044v3.6132l2.4088,1.472v.9368h-7.2263v-.9368l2.4088-1.472v-3.6132l-6.6241,1.2044v-1.2044l6.6241-3.6132v-3.6132c0-.9367.2676-2.4088,1.2044-2.4088s1.2044,1.4721,1.2044,2.4088v3.6132l6.6241,3.6132Z" fill="none" isolation="isolate" opacity=".3" stroke="#fff" stroke-linecap="round" stroke-linejoin="round" stroke-width="2"/><path id="path7712-0" d="m16.6571,10.6351v1.2044l-6.6241-1.2044v3.6132l2.4088,1.472v.9368h-7.2263v-.9368l2.4088-1.472v-3.6132l-6.6241,1.2044v-1.2044l6.6241-3.6132v-3.6132c0-.9367.2676-2.4088,1.2044-2.4088s1.2044,1.4721,1.2044,2.4088v3.6132l6.6241,3.6132Z" fill="#747474"/></g></g></g></g></svg>