<?xml version="1.0" encoding="UTF-8"?><svg id="Layer_2" xmlns="http://www.w3.org/2000/svg" viewBox="0 0 16.9999 13.4999"><g id="svg5369"><g id="layer1"><path id="path14399" d="m7.4999,1C3.6111,1,1,4.4444,1,6c0,1.5,1,2.5,2.5,2.5,1.5556,0,3,.3333,3,1.5,0,1.5556,1.4444,2.5,3,2.5,4.5,0,6.4999-2.7778,6.4999-5.5C15.9999,1.5,11.3659,1,7.4999,1Zm-1.5,1.5c.5523,0,1,.4477,1,1s-.4477,1-1,1-1-.4477-1-1,.4477-1,1-1Zm3,0c.5523,0,1,.4477,1,1s-.4477,1-1,1-1-.4477-1-1,.4477-1,1-1Zm3,1.5c.5446,0,.9687.4554.9687,1s-.4241.9687-.9687.9687-1-.4241-1-.9687.4554-1,1-1Zm-7.9999,1c.5523,0,1,.4477,1,1s-.4477,1-1,1-1-.4477-1-1,.4477-1,1-1Z" fill="#fff" isolation="isolate" opacity=".3" stroke="#fff" stroke-linecap="round" stroke-linejoin="round" stroke-width="2"/><path id="path6511-1" d="m7.4999,1C3.6111,1,1,4.4444,1,6c0,1.5,1,2.5,2.5,2.5,1.5556,0,3,.3333,3,1.5,0,1.5556,1.4444,2.5,3,2.5,4.5,0,6.4999-2.7778,6.4999-5.5C15.9999,1.5,11.3659,1,7.4999,1Zm-1.5,1.5c.5523,0,1,.4477,1,1s-.4477,1-1,1-1-.4477-1-1,.4477-1,1-1Zm3,0c.5523,0,1,.4477,1,1s-.4477,1-1,1-1-.4477-1-1,.4477-1,1-1Zm3,1.5c.5446,0,.9687.4554.9687,1s-.4241.9687-.9687.9687-1-.4241-1-.9687.4554-1,1-1Zm-7.9999,1c.5523,0,1,.4477,1,1s-.4477,1-1,1-1-.4477-1-1,.4477-1,1-1Zm5.25,3.5c.6903,0,1.25.5596,1.25,1.25s-.5597,1.25-1.25,1.25-1.25-.5596-1.25-1.25.5597-1.25,1.25-1.25Z" fill="#747474"/></g></g></svg>