<?xml version="1.0" encoding="UTF-8"?><svg id="Layer_2" xmlns="http://www.w3.org/2000/svg" viewBox="0 0 17.4 17.4"><g id="svg5369"><g id="layer1"><g id="bar-18"><path id="path15230" d="m2.2,1c-.5,0-1.2.1-1.2.3,0,.2.4.7.6.9l6.5,7.1v4.7l-3.3,1.4c-.5.2-.8.4-.8,1h9.5c0-.6-.5-.8-1-1l-3.2-1.4v-4.7l6.5-7.1c.2-.2.6-.6.6-.9,0-.2-.7-.3-1.2-.3H2.2Z" fill="none" isolation="isolate" opacity=".3" stroke="#fff" stroke-linecap="round" stroke-linejoin="round" stroke-width="2"/><path id="path15601-4-0" d="m2.2,1c-.5,0-1.2.1-1.2.3,0,.2.4.7.6.9l6.5,7.1v4.7l-3.3,1.4c-.5.2-.8.4-.8,1h9.5c0-.6-.5-.8-1-1l-3.2-1.4v-4.7l6.5-7.1c.2-.2.6-.6.6-.9,0-.2-.7-.3-1.2-.3H2.2Z" fill="#747474"/></g></g></g></svg>