<?xml version="1.0" encoding="UTF-8"?><svg id="Layer_2" xmlns="http://www.w3.org/2000/svg" viewBox="0 0 18 18"><g id="svg6"><g id="beach_resort-18"><rect id="rect5912" width="18" height="18" fill="none"/><path id="path5944" d="m15.75,1.06l-1.5938,1.5938s-.284.2698-.5625.6875-.5938.9896-.5938,1.6562v4h-3l2,8h3l2-8h-3v-4c0-.3333.1847-.7614.4062-1.0938s.4375-.5625.4375-.5625l1.5938-1.5938-.6875-.6874Zm-4.75,8.9375h2v2h-1.5l-.5-2Zm3,0h2l-.4062,2h-1.5938v-2ZM4.4062,3.7163l-.8125.5625.1875.25-2.7812,6.4688,4.9688-3.1562,2.0312,2.6562v6.5h1v-7l-2.1875-2.6875,5.1875-3.3125h-7.4062l-.1876-.2813Z" fill="none" isolation="isolate" opacity=".3" stroke="#fff" stroke-linejoin="round" stroke-width="2"/><path id="path5916" d="m15.75,1.06l-1.5938,1.5938s-.284.2698-.5625.6875-.5938.9896-.5938,1.6562v4h-3l2,8h3l2-8h-3v-4c0-.3333.1847-.7614.4062-1.0938s.4375-.5625.4375-.5625l1.5938-1.5938-.6875-.6874Zm-4.75,8.9375h2v2h-1.5l-.5-2Zm3,0h2l-.4062,2h-1.5938v-2ZM4.4062,3.7163l-.8125.5625.1875.25-2.7812,6.4688,4.9688-3.1562,2.0312,2.6562v6.5h1v-7l-2.1875-2.6875,5.1875-3.3125h-7.4062l-.1876-.2813Z" fill="#747474"/></g></g></svg>