<?xml version="1.0" encoding="UTF-8"?><svg id="Layer_2" xmlns="http://www.w3.org/2000/svg" viewBox="0 0 18 12"><g id="svg2"><g id="bench-18"><g id="g9165" opacity=".3"><path id="path9167" d="m4,1v1H1v4h3v1.0312H1v1.9688h3v2h1v-2h8v2h1v-2h3v-1.9688h-3v-1.0312h3V2h-3v-1h-1v1H5v-1h-1Zm1,5h8v1.0312H5v-1.0312Z" fill="none" stroke="#fff" stroke-linejoin="round" stroke-width="2"/></g><g id="g9145"><path id="path5375" d="m4,1v1H1v4h3v1.0312H1v1.9688h3v2h1v-2h8v2h1v-2h3v-1.9688h-3v-1.0312h3V2h-3v-1h-1v1H5v-1h-1Zm1,5h8v1.0312H5v-1.0312Z" fill="#747474"/></g></g></g></svg>