<?xml version="1.0" encoding="UTF-8"?><svg id="Layer_2" xmlns="http://www.w3.org/2000/svg" viewBox="0 0 17.8 13.4"><g id="svg5369"><path id="path5766" d="m11.5,1v1l1,.5v1.6h-5.2v-1h1v-.5h-3.1v.5h1v1l-1.3,1.6c-.2,0-.3-.1-.5-.1-1.9,0-3.4,1.5-3.4,3.4s1.5,3.4,3.4,3.4c1.8,0,3.2-1.4,3.4-3.1h1.1v-.3c0-1.7,1-3.2,2.4-3.9h1.3v.6c-1.5.4-2.6,1.7-2.6,3.3,0,1.9,1.5,3.4,3.4,3.4s3.4-1.5,3.4-3.4c0-1.5-.9-2.7-2.3-3.2l-.9-1.8v-1.9l-2.1-1.1Zm-4.7,4.2h2.6l-1.8,2.6c-.3-.7-.8-1.3-1.4-1.6l.6-1Zm-2.4,2.1c1,0,1.8.8,1.8,1.8s-.8,1.8-1.8,1.8-1.8-.8-1.8-1.8.8-1.8,1.8-1.8Zm8.9,0c1,0,1.8.8,1.8,1.8s-.8,1.8-1.8,1.8-1.8-.8-1.8-1.8.8-1.8,1.8-1.8Z" fill="#fff" isolation="isolate" opacity=".3" stroke="#fff" stroke-linejoin="round" stroke-width="2"/><path id="path5430" d="m11.5,1v1l1,.5v1.6h-5.2v-1h1v-.5h-3.1v.5h1v1l-1.3,1.6c-.2,0-.3-.1-.5-.1-1.9,0-3.4,1.5-3.4,3.4s1.5,3.4,3.4,3.4c1.8,0,3.2-1.4,3.4-3.1h1.1v-.3c0-1.7,1-3.2,2.4-3.9h1.3v.6c-1.5.4-2.6,1.7-2.6,3.3,0,1.9,1.5,3.4,3.4,3.4s3.4-1.5,3.4-3.4c0-1.5-.9-2.7-2.3-3.2l-.9-1.8v-1.9l-2.1-1.1Zm-4.7,4.2h2.6l-1.8,2.6c-.3-.7-.8-1.3-1.4-1.6l.6-1Zm-2.4,2.1c1,0,1.8.8,1.8,1.8s-.8,1.8-1.8,1.8-1.8-.8-1.8-1.8.8-1.8,1.8-1.8Zm8.9,0c1,0,1.8.8,1.8,1.8s-.8,1.8-1.8,1.8-1.8-.8-1.8-1.8.8-1.8,1.8-1.8Z" fill="#747474"/></g></svg>