<?xml version="1.0" encoding="UTF-8"?><svg id="Layer_1" xmlns="http://www.w3.org/2000/svg" viewBox="0 0 18 10.0306"><path d="M5.7086,1.502c0-.1035-.0007-.1908,.0001-.2781,.0019-.1978,.0265-.2234,.2208-.2237,.4124-.0006,.8248,.0002,1.2372,.0002,3.1933,0,6.3867,0,9.58,0,.2432,0,.2537,.0089,.2523,.2568-.0035,.6217,.0624,.4744-.4764,.683-1.2258,.4746-2.3945,1.0577-3.4327,1.8746-.4056,.3192-.7598,.6926-.9876,1.1626-.0699,.1443-.1041,.3157-.1141,.4772-.0179,.2887-.0016,.5793-.0067,.869-.0022,.123,.057,.2388,.1558,.3122,.5508,.409,1.0948,.8275,1.6501,1.2303,.1393,.101,.2182,.2659,.2045,.4375-.0141,.1772-.0071,.3566-.0017,.5347,.004,.1337-.0479,.1925-.1859,.1917-.613-.0034-1.2261-.0008-1.8391-.0031-.0471-.0002-.1059-.0072-.1395-.035-.5184-.4295-1.1339-.6088-1.7851-.6808-.9264-.1024-1.8317,.0074-2.6768,.4951-.0253,.0146-.0491,.0336-.0705,.0535-.1343,.1249-.2515,.1723-.4111,.1708-.5684-.0051-1.1369-.0017-1.7053-.0025-.1983-.0003-.2185-.0215-.2194-.2227-.0009-.2042,.0066-.4086-.0039-.6123-.0054-.1043,.0446-.2035,.1286-.2656,.5692-.4204,1.1317-.85,1.701-1.2704,.1631-.1205,.2132-.2633,.1683-.5074-.0495-.2691-.0366-.5448-.0022-.8162,.088-.6949-.2109-1.0394-.8212-1.0726-1.8821-.1026-3.5124-.7897-4.84-2.1467-.0877-.0897-.163-.1928-.2336-.2986-.1166-.1748-.0402-.314,.1699-.3134h.0033c1.41-.0001,2.82,0,4.2299,0,.0768,0,.1535,0,.251,0Z" fill="none" opacity=".3" stroke="#fff" stroke-miterlimit="10" stroke-width="2"/><path d="M5.7086,1.502c0-.1035-.0007-.1908,.0001-.2781,.0019-.1978,.0265-.2234,.2208-.2237,.4124-.0006,.8248,.0002,1.2372,.0002,3.1933,0,6.3867,0,9.58,0,.2432,0,.2537,.0089,.2523,.2568-.0035,.6217,.0624,.4744-.4764,.683-1.2258,.4746-2.3945,1.0577-3.4327,1.8746-.4056,.3192-.7598,.6926-.9876,1.1626-.0699,.1443-.1041,.3157-.1141,.4772-.0179,.2887-.0016,.5793-.0067,.869-.0022,.123,.057,.2388,.1558,.3122,.5508,.409,1.0948,.8275,1.6501,1.2303,.1393,.101,.2182,.2659,.2045,.4375-.0141,.1772-.0071,.3566-.0017,.5347,.004,.1337-.0479,.1925-.1859,.1917-.613-.0034-1.2261-.0008-1.8391-.0031-.0471-.0002-.1059-.0072-.1395-.035-.5184-.4295-1.1339-.6088-1.7851-.6808-.9264-.1024-1.8317,.0074-2.6768,.4951-.0253,.0146-.0491,.0336-.0705,.0535-.1343,.1249-.2515,.1723-.4111,.1708-.5684-.0051-1.1369-.0017-1.7053-.0025-.1983-.0003-.2185-.0215-.2194-.2227-.0009-.2042,.0066-.4086-.0039-.6123-.0054-.1043,.0446-.2035,.1286-.2656,.5692-.4204,1.1317-.85,1.701-1.2704,.1631-.1205,.2132-.2633,.1683-.5074-.0495-.2691-.0366-.5448-.0022-.8162,.088-.6949-.2109-1.0394-.8212-1.0726-1.8821-.1026-3.5124-.7897-4.84-2.1467-.0877-.0897-.163-.1928-.2336-.2986-.1166-.1748-.0402-.314,.1699-.3134h.0033c1.41-.0001,2.82,0,4.2299,0,.0768,0,.1535,0,.251,0Z" fill="#747474"/></svg>