<?xml version="1.0" encoding="UTF-8"?><svg id="Layer_1" xmlns="http://www.w3.org/2000/svg" viewBox="0 0 48.3087 24.3877"><g opacity=".3"><path d="M47.3087,23.3877H1v-1.6291c.6561,0,1.3007-.0155,1.9441,.0063,.3439,.0116,.4812-.0789,.4777-.4529-.032-3.3968,.9035-6.5484,2.496-9.5168,.715-1.3328,1.6104-2.5447,2.5931-3.7015,1.405-1.654,3.0649-3.002,4.8971-4.1237,1.9228-1.1772,4.0133-1.9783,6.2185-2.4938,2.048-.4787,4.1259-.5496,6.1954-.4176,2.3233,.1482,4.5592,.7597,6.7017,1.7064,1.6485,.7284,3.1777,1.6502,4.5694,2.7776,2.2282,1.8049,4.0304,3.9707,5.3786,6.5201,.9248,1.7487,1.559,3.5935,2.0033,5.5056,.1768,.7611,.2151,1.5557,.2963,2.3372,.0617,.5936,.0917,1.1905,.1408,1.8531h2.3967v1.6291ZM21.7288,9.8318v11.8894h4.7395V9.8318h-4.7395Zm8.7464,6.2778h4.072c0-1.4909-.003-2.9652,.0027-4.4395,.001-.273-.1436-.3224-.3733-.3214-1.1154,.0051-2.2309,.0081-3.3463-.0016-.2854-.0025-.3596,.1239-.3584,.3842,.0069,1.4468,.0033,2.8937,.0033,4.3783Zm-16.7238,.0052h3.9262v-4.7393h-3.9262v4.7393Z" fill="none" stroke="#fff" stroke-miterlimit="10" stroke-width="2"/><path d="M47.3087,23.3877H1v-1.6291c.6561,0,1.3007-.0155,1.9441,.0063,.3439,.0116,.4812-.0789,.4777-.4529-.032-3.3968,.9035-6.5484,2.496-9.5168,.715-1.3328,1.6104-2.5447,2.5931-3.7015,1.405-1.654,3.0649-3.002,4.8971-4.1237,1.9228-1.1772,4.0133-1.9783,6.2185-2.4938,2.048-.4787,4.1259-.5496,6.1954-.4176,2.3233,.1482,4.5592,.7597,6.7017,1.7064,1.6485,.7284,3.1777,1.6502,4.5694,2.7776,2.2282,1.8049,4.0304,3.9707,5.3786,6.5201,.9248,1.7487,1.559,3.5935,2.0033,5.5056,.1768,.7611,.2151,1.5557,.2963,2.3372,.0617,.5936,.0917,1.1905,.1408,1.8531h2.3967v1.6291ZM21.7288,9.8318v11.8894h4.7395V9.8318h-4.7395Zm8.7464,6.2778h4.072c0-1.4909-.003-2.9652,.0027-4.4395,.001-.273-.1436-.3224-.3733-.3214-1.1154,.0051-2.2309,.0081-3.3463-.0016-.2854-.0025-.3596,.1239-.3584,.3842,.0069,1.4468,.0033,2.8937,.0033,4.3783Zm-16.7238,.0052h3.9262v-4.7393h-3.9262v4.7393Z" fill="none" stroke="#fff" stroke-miterlimit="10" stroke-width="2"/></g><g><path d="M47.3087,23.3878H1v-1.6291c.6561,0,1.3007-.0155,1.9441,.0063,.3439,.0116,.4812-.0789,.4777-.4529-.032-3.3968,.9035-6.5484,2.496-9.5168,.715-1.3328,1.6104-2.5447,2.5931-3.7015,1.405-1.654,3.0649-3.002,4.8971-4.1237,1.9228-1.1772,4.0133-1.9783,6.2185-2.4938,2.048-.4787,4.1259-.5496,6.1954-.4176,2.3233,.1482,4.5592,.7597,6.7017,1.7064,1.6485,.7284,3.1777,1.6502,4.5695,2.7776,2.2282,1.8049,4.0304,3.9707,5.3786,6.5201,.9248,1.7487,1.559,3.5935,2.0033,5.5056,.1768,.7611,.2151,1.5557,.2963,2.3372,.0617,.5936,.0917,1.1905,.1408,1.8531h2.3967v1.6291ZM21.7288,9.8318v11.8894h4.7396V9.8318h-4.7396Zm8.7464,6.2778h4.072c0-1.4909-.003-2.9652,.0027-4.4395,.001-.273-.1436-.3224-.3733-.3214-1.1154,.0051-2.231,.0081-3.3463-.0016-.2854-.0025-.3596,.1239-.3584,.3842,.0069,1.4468,.0033,2.8937,.0033,4.3783Zm-16.7238,.0052h3.9262v-4.7393h-3.9262v4.7393Z" fill="#747474"/><path d="M47.3087,23.3878H1v-1.6291c.6561,0,1.3007-.0155,1.9441,.0063,.3439,.0116,.4812-.0789,.4777-.4529-.032-3.3968,.9035-6.5484,2.496-9.5168,.715-1.3328,1.6104-2.5447,2.5931-3.7015,1.405-1.654,3.0649-3.002,4.8971-4.1237,1.9228-1.1772,4.0133-1.9783,6.2185-2.4938,2.048-.4787,4.1259-.5496,6.1954-.4176,2.3233,.1482,4.5592,.7597,6.7017,1.7064,1.6485,.7284,3.1777,1.6502,4.5695,2.7776,2.2282,1.8049,4.0304,3.9707,5.3786,6.5201,.9248,1.7487,1.559,3.5935,2.0033,5.5056,.1768,.7611,.2151,1.5557,.2963,2.3372,.0617,.5936,.0917,1.1905,.1408,1.8531h2.3967v1.6291ZM21.7288,9.8318v11.8894h4.7396V9.8318h-4.7396Zm8.7464,6.2778h4.072c0-1.4909-.003-2.9652,.0027-4.4395,.001-.273-.1436-.3224-.3733-.3214-1.1154,.0051-2.231,.0081-3.3463-.0016-.2854-.0025-.3596,.1239-.3584,.3842,.0069,1.4468,.0033,2.8937,.0033,4.3783Zm-16.7238,.0052h3.9262v-4.7393h-3.9262v4.7393Z" fill="#747474"/></g></svg>