<?xml version="1.0" encoding="UTF-8"?><svg id="Layer_2" xmlns="http://www.w3.org/2000/svg" viewBox="0 0 15.0074 17.3723"><g id="svg5369"><path id="path14104" d="m3.9562,1v1.1825h-1.7737c-.5912,0-1.1825.5912-1.1825,1.1825v11.8249h1.1825v1.1825h2.365v-1.1825h5.9124v1.1825h2.365v-1.1825h1.1825V3.365c0-.5912-.5912-1.1825-1.1825-1.1825h-1.7737v-1.1825H3.9562Z" fill="#fff" isolation="isolate" opacity=".3" stroke="#fff" stroke-linecap="round" stroke-linejoin="round" stroke-width="2"/><path id="path8522-6-8-58" d="m3.9562,1v1.1825h-1.7737c-.5912,0-1.1825.5912-1.1825,1.1825v11.8249h1.1825v1.1825h2.365v-1.1825h5.9124v1.1825h2.365v-1.1825h1.1825V3.365c0-.5912-.5912-1.1825-1.1825-1.1825h-1.7737v-1.1825H3.9562Zm-.5912,2.365h8.2774v4.73H3.365V3.365Zm.8869,7.6862c.4898,0,.8869.3971.8869.8869s-.3971.8869-.8869.8869-.8869-.3971-.8869-.8869.3971-.8869.8869-.8869Zm6.5037,0c.4898,0,.8869.3971.8869.8869s-.3971.8869-.8869.8869-.8869-.3971-.8869-.8869.3971-.8869.8869-.8869Z" fill="#747474"/></g></svg>