<?xml version="1.0" encoding="UTF-8"?><svg id="Layer_2" xmlns="http://www.w3.org/2000/svg" viewBox="0 0 15.2861 17.568"><g id="svg6"><path id="path4212" d="m11.1461,1c-1.0158,0-2.0315.3038-2.6581.9303-1.0024,1.0024-.3179,3.047-1.0632,4.253-1.6665,2.6966-5.8716,1.124-6.3795,4.253-.4014,2.4737,1.9377,4.3572,4.253,5.3162,1.9647.8138,4.7207,1.3305,6.3795,0,2.5488-2.0446,1.77-6.3212,2.1265-9.5692.1547-1.4092,1.0024-3.2505,0-4.253-.6265-.6265-1.6423-.9303-2.6581-.9303Zm0,1.1961c.5314,0,1.0627.2653,1.5949.7974.8514.8515.1314,1.9928,0,3.1897-.3029,2.7588,1.0632,6.3795-2.1265,8.5059-1.5028,1.0019-3.6476.6912-5.3162,0-1.9666-.8145-3.5307-2.1519-3.1897-4.253,1.0632-2.1266,5.3162-1.0632,6.3795-4.253.3808-1.1422.2119-2.3383,1.0632-3.1897.5322-.5322,1.0635-.7974,1.5949-.7974Zm0,.6313c-.1985.0053-.3879.0625-.5316.1661-.847.6105-.1413,1.0202-.8971,2.791l1.9604.7974c.0021-.132-.0085-.265,0-.3987.066-1.0612.7518-2.4379,0-3.1897-.1253-.1253-.3331-.1716-.5316-.1661h0Zm-1.9271,3.9207c-2.2051,3.5784-6.0472,2.7274-6.0472,4.7514,0,2.1265,5.3162,4.253,7.4427,2.1265,1.7278-1.7278,1.2476-3.6805,1.0964-5.881l-2.4919-.9969Z" fill="none" isolation="isolate" opacity=".3" stroke="#fff" stroke-linejoin="round" stroke-width="2"/><path id="path3385-7" d="m11.1461,1c-1.0158,0-2.0315.3038-2.6581.9303-1.0024,1.0024-.3179,3.047-1.0632,4.253-1.6665,2.6966-5.8716,1.124-6.3795,4.253-.4014,2.4737,1.9377,4.3572,4.253,5.3162,1.9647.8138,4.7207,1.3305,6.3795,0,2.5488-2.0446,1.77-6.3212,2.1265-9.5692.1547-1.4092,1.0024-3.2505,0-4.253-.6265-.6265-1.6423-.9303-2.6581-.9303Zm0,1.1961c.5314,0,1.0627.2653,1.5949.7974.8514.8515.1314,1.9928,0,3.1897-.3029,2.7588,1.0632,6.3795-2.1265,8.5059-1.5028,1.0019-3.6476.6912-5.3162,0-1.9666-.8145-3.5307-2.1519-3.1897-4.253,1.0632-2.1266,5.3162-1.0632,6.3795-4.253.3808-1.1422.2119-2.3383,1.0632-3.1897.5322-.5322,1.0635-.7974,1.5949-.7974Zm0,.6313c-.1985.0053-.3879.0625-.5316.1661-.847.6105-.1413,1.0202-.8971,2.791l1.9604.7974c.0021-.132-.0085-.265,0-.3987.066-1.0612.7518-2.4379,0-3.1897-.1253-.1253-.3331-.1716-.5316-.1661h0Zm-1.9271,3.9207c-2.2051,3.5784-6.0472,2.7274-6.0472,4.7514,0,2.1265,5.3162,4.253,7.4427,2.1265,1.7278-1.7278,1.2476-3.6805,1.0964-5.881l-2.4919-.9969Z" fill="#747474"/></g></svg>