<?xml version="1.0" encoding="UTF-8"?><svg id="Layer_2" xmlns="http://www.w3.org/2000/svg" viewBox="0 0 24.7498 11.3907"><g id="Layer_2-2"><g id="g15" opacity=".3"><path id="path9" d="m7.6266,8.6634c.1458-1.0955-.2031-1.9781-1.1788-2.5358-.818-.4675-1.6669-.4327-2.4501.0903-.8737.5836-1.1767,1.4351-1.0232,2.4663l-.006.0049c-.2846.0012-.5712.0232-.8535-.0022-.4179-.0377-.7225-.3772-.7316-.7967-.0151-.6971-.0156-1.3947.0491-2.0899.0264-.2826.0988-.5537.209-.8172.1586-.3784.4294-.6381.8115-.7671.3608-.1218.7314-.2149,1.0978-.32.2934-.0842.5877-.1649.8803-.2514.3711-.1097.6943-.3105,1.0058-.5344.2788-.2005.5683-.3864.8458-.5886.5039-.3672,1.0625-.6172,1.6562-.7967.6169-.1865,1.2476-.2998,1.89-.3322,1.8303-.0924,3.6092.1779,5.3279.811.6639.2444,1.3075.5401,1.889.9537.3067.2182.616.433.9223.6518.0597.0426.1128.095.1665.1455.1772.1663.3858.2489.6284.2794.4263.0537.8522.1165,1.2738.1991.4987.0976.9955.2091,1.4876.336.3423.0883.6665.2305.9769.4058.3773.213.6106.5269.7245.9395.1383.5014.1627,1.013.1432,1.5289-.0106.2809-.0374.558-.1511.8206-.0802.1851-.1261.2144-.3278.2123-.4072-.0042-.8144-.0032-1.2217-.0041h-.0957c.1423-.8948-.0916-1.6594-.766-2.2636-.4809-.4309-1.0574-.6213-1.7017-.5829-1.3878.0823-2.4514,1.3624-2.1764,2.8381H7.6266v-.0004Zm7.165-4.4352c.3197.0121.9453.0359,1.571.0595.1425.0054.2848.0105.4272.0156.0565.0021.1097-.0188.1181-.0741.0062-.0404-.0177-.0883-.0372-.1286-.0111-.0234-.0398-.0384-.0607-.057-.415-.3749-.8839-.6683-1.3843-.9137-.9388-.4605-1.9294-.7443-2.9667-.8669-.1718-.0204-.3442-.0352-.5167-.0476-.0921-.0066-.1361.0442-.1297.1358.0018.0253.0052.0506.0086.0759.0691.5041.1389,1.0081.2074,1.5124.0242.1779.0323.1879.2141.1949.7476.0279,1.4953.0551,2.5489.0938Zm-6.153-.1879v.0242c.0688,0,.1374-.0005.2061,0,.715.0072,1.4299.0146,2.1449.0216.1159.0011.1453-.0282.1332-.1291-.0649-.543-.1297-1.0862-.1943-1.6292-.0128-.1078-.0321-.1258-.1395-.1263-.6055-.003-1.2022.0678-1.794.197-.8948.1955-1.7115.5515-2.4163,1.1448-.1263.1065-.2475.2195-.3658.3348-.0258.0253-.0491.0823-.0374.109.0119.0277.0675.037.1046.0526.0086.0037.02.0005.0302.0005h2.3283,0Z" fill="none" stroke="#fff" stroke-miterlimit="10" stroke-width="2.75"/><path id="path11" d="m3.4669,8.152c.0307-1.0309.8695-1.8289,1.8889-1.7968,1.0164.0321,1.805.88,1.7712,1.9047-.0328.9934-.8796,1.7827-1.8829,1.7552-.9978-.0274-1.8064-.8751-1.7769-1.8631,0,0-.0003,0-.0003,0Z" fill="none" stroke="#fff" stroke-miterlimit="10" stroke-width="2.75"/><path id="path13" d="m21.0815,8.1827c.0029,1.002-.8177,1.8304-1.8154,1.8328-1.0172.0025-1.8421-.8095-1.8454-1.8168-.0033-1.0189.8109-1.8415,1.8256-1.8443,1.0101-.0028,1.8324.8164,1.8352,1.8282v.0002h0Z" fill="none" stroke="#fff" stroke-miterlimit="10" stroke-width="2.75"/></g><g id="g23"><path id="path17" d="m7.6266,8.6634c.1458-1.0955-.2031-1.9781-1.1788-2.5358-.818-.4675-1.6669-.4327-2.4501.0903-.8737.5836-1.1767,1.4351-1.0232,2.4663l-.006.0049c-.2846.0012-.5712.0232-.8535-.0022-.4179-.0377-.7225-.3772-.7316-.7967-.0151-.6971-.0156-1.3947.0491-2.0899.0264-.2826.0988-.5537.209-.8172.1586-.3784.4294-.6381.8115-.7671.3608-.1218.7314-.2149,1.0978-.32.2934-.0842.5877-.1649.8803-.2514.3711-.1097.6943-.3105,1.0058-.5344.2788-.2005.5683-.3864.8458-.5886.5039-.3672,1.0625-.6172,1.6562-.7967.6169-.1865,1.2476-.2998,1.89-.3322,1.8303-.0924,3.6092.1779,5.3279.811.6639.2444,1.3075.5401,1.889.9537.3067.2182.616.433.9223.6518.0597.0426.1128.095.1665.1455.1772.1663.3858.2489.6284.2794.4263.0537.8522.1165,1.2738.1991.4987.0976.9955.2091,1.4876.336.3423.0883.6665.2305.9769.4058.3773.213.6106.5269.7245.9395.1383.5014.1627,1.013.1432,1.5289-.0106.2809-.0374.558-.1511.8206-.0802.1851-.1261.2144-.3278.2123-.4072-.0042-.8144-.0032-1.2217-.0041h-.0957c.1423-.8948-.0916-1.6594-.766-2.2636-.4809-.4309-1.0574-.6213-1.7017-.5829-1.3878.0823-2.4514,1.3624-2.1764,2.8381H7.6266v-.0004Zm7.165-4.4352c.3197.0121.9453.0359,1.571.0595.1425.0054.2848.0105.4272.0156.0565.0021.1097-.0188.1181-.0741.0062-.0404-.0177-.0883-.0372-.1286-.0111-.0234-.0398-.0384-.0607-.057-.415-.3749-.8839-.6683-1.3843-.9137-.9388-.4605-1.9294-.7443-2.9667-.8669-.1718-.0204-.3442-.0352-.5167-.0476-.0921-.0066-.1361.0442-.1297.1358.0018.0253.0052.0506.0086.0759.0691.5041.1389,1.0081.2074,1.5124.0242.1779.0323.1879.2141.1949.7476.0279,1.4953.0551,2.5489.0938Zm-6.153-.1879v.0242c.0688,0,.1374-.0005.2061,0,.715.0072,1.4299.0146,2.1449.0216.1159.0011.1453-.0282.1332-.1291-.0649-.543-.1297-1.0862-.1943-1.6292-.0128-.1078-.0321-.1258-.1395-.1263-.6055-.003-1.2022.0678-1.794.197-.8948.1955-1.7115.5515-2.4163,1.1448-.1263.1065-.2475.2195-.3658.3348-.0258.0253-.0491.0823-.0374.109.0119.0277.0675.037.1046.0526.0086.0037.02.0005.0302.0005h2.3283,0Z" fill="#747474"/><path id="path19" d="m3.4669,8.152c.0307-1.0309.8695-1.8289,1.8889-1.7968,1.0164.0321,1.805.88,1.7712,1.9047-.0328.9934-.8796,1.7827-1.8829,1.7552-.9978-.0274-1.8064-.8751-1.7769-1.8631,0,0-.0003,0-.0003,0Z" fill="#747474"/><path id="path21" d="m21.0815,8.1827c.0029,1.002-.8177,1.8304-1.8154,1.8328-1.0172.0025-1.8421-.8095-1.8454-1.8168-.0033-1.0189.8109-1.8415,1.8256-1.8443,1.0101-.0028,1.8324.8164,1.8352,1.8282v.0002h0Z" fill="#747474"/></g></g></svg>