<?xml version="1.0" encoding="UTF-8"?><svg id="Layer_1" xmlns="http://www.w3.org/2000/svg" viewBox="0 0 28.6432 13.1826"><g opacity=".3"><path d="M8.8263,10.0261c.1687-1.2678-.235-2.2893-1.3642-2.9347-.9467-.541-1.9291-.5008-2.8355,.1045-1.0111,.6754-1.3618,1.6608-1.1841,2.8542l-.007,.0057c-.3294,.0014-.661,.0269-.9877-.0025-.4836-.0436-.8361-.4365-.8467-.922-.0175-.8068-.0181-1.6141,.0568-2.4186,.0306-.327,.1143-.6408,.2419-.9457,.1835-.4379,.497-.7385,.9392-.8878,.4176-.141,.8464-.2487,1.2705-.3703,.3396-.0974,.6801-.1908,1.0188-.2909,.4295-.127,.8035-.3593,1.164-.6185,.3227-.232,.6577-.4472,.9788-.6812,.5832-.425,1.2296-.7143,1.9167-.922,.7139-.2158,1.4438-.3469,2.1873-.3845,2.1182-.1069,4.1769,.2059,6.166,.9386,.7683,.2829,1.5132,.6251,2.1861,1.1037,.355,.2525,.7129,.5011,1.0674,.7543,.0691,.0493,.1306,.11,.1927,.1684,.2051,.1925,.4465,.288,.7272,.3234,.4933,.0622,.9863,.1348,1.4742,.2304,.5772,.113,1.1521,.242,1.7216,.3888,.3962,.1022,.7713,.2667,1.1306,.4696,.4367,.2465,.7067,.6098,.8385,1.0873,.1601,.5803,.1883,1.1723,.1657,1.7694-.0123,.3251-.0433,.6458-.1749,.9497-.0928,.2142-.1459,.2481-.3794,.2457-.4712-.0049-.9425-.0037-1.4139-.0048h-.1108c.1647-1.0356-.106-1.9204-.8865-2.6196-.5566-.4987-1.2237-.719-1.9694-.6746-1.6061,.0953-2.837,1.5767-2.5187,3.2845H8.8263v-.0003Zm8.292-5.1328c.37,.014,1.094,.0415,1.8181,.0689,.1649,.0062,.3296,.0121,.4944,.0181,.0654,.0024,.127-.0218,.1367-.0858,.0072-.0468-.0205-.1022-.043-.1488-.0129-.0271-.0461-.0444-.0702-.066-.4803-.4339-1.0229-.7734-1.602-1.0574-1.0865-.5329-2.2329-.8614-3.4334-1.0033-.1988-.0236-.3983-.0407-.598-.0551-.1066-.0076-.1575,.0511-.1501,.1572,.0021,.0293,.006,.0586,.01,.0878,.08,.5834,.1607,1.1667,.24,1.7503,.028,.2059,.0374,.2175,.2478,.2255,.8652,.0323,1.7305,.0638,2.9498,.1085h-.0002Zm-7.1208-.2175v.028c.0796,0,.159-.0006,.2385,0,.8275,.0083,1.6548,.0169,2.4823,.025,.1341,.0013,.1682-.0326,.1542-.1494-.0751-.6284-.1501-1.257-.2249-1.8855-.0148-.1248-.0372-.1456-.1614-.1462-.7008-.0035-1.3913,.0785-2.0762,.228-1.0356,.2263-1.9807,.6383-2.7964,1.3249-.1462,.1232-.2864,.254-.4233,.3875-.0299,.0293-.0568,.0952-.0433,.1262,.0138,.032,.0781,.0428,.1211,.0609,.01,.0043,.0232,.0006,.035,.0006h2.6942Z" fill="none" stroke="#fff" stroke-miterlimit="10" stroke-width="3.1826"/><path d="M4.0122,9.4343c.0355-1.193,1.0063-2.1166,2.186-2.0794,1.1763,.0371,2.0889,1.0184,2.0498,2.2043-.038,1.1497-1.018,2.0631-2.1791,2.0313-1.1548-.0317-2.0905-1.0127-2.0564-2.1562h-.0002Z" fill="none" stroke="#fff" stroke-miterlimit="10" stroke-width="3.1826"/><path d="M24.3977,9.4698c.0033,1.1596-.9463,2.1183-2.101,2.1211-1.1772,.0029-2.1319-.9368-2.1357-2.1026-.0038-1.1792,.9384-2.1312,2.1128-2.1344,1.169-.0032,2.1206,.9448,2.1239,2.1158v.0002Z" fill="none" stroke="#fff" stroke-miterlimit="10" stroke-width="3.1826"/></g><g><path d="M8.8263,10.0261c.1687-1.2678-.235-2.2893-1.3642-2.9347-.9467-.541-1.9291-.5008-2.8355,.1045-1.0111,.6754-1.3618,1.6608-1.1841,2.8542l-.007,.0057c-.3294,.0014-.661,.0269-.9877-.0025-.4836-.0436-.8361-.4365-.8467-.922-.0175-.8068-.0181-1.6141,.0568-2.4186,.0306-.327,.1143-.6408,.2419-.9457,.1835-.4379,.497-.7385,.9392-.8878,.4176-.141,.8464-.2487,1.2705-.3703,.3396-.0974,.6801-.1908,1.0188-.2909,.4295-.127,.8035-.3593,1.164-.6185,.3227-.232,.6577-.4472,.9788-.6812,.5832-.425,1.2296-.7143,1.9167-.922,.7139-.2158,1.4438-.3469,2.1873-.3845,2.1182-.1069,4.1769,.2059,6.166,.9386,.7683,.2829,1.5132,.6251,2.1861,1.1037,.355,.2525,.7129,.5011,1.0674,.7543,.0691,.0493,.1306,.11,.1927,.1684,.2051,.1925,.4465,.288,.7272,.3234,.4933,.0622,.9863,.1348,1.4742,.2304,.5772,.113,1.1521,.242,1.7216,.3888,.3962,.1022,.7713,.2667,1.1306,.4696,.4367,.2465,.7067,.6098,.8385,1.0873,.1601,.5803,.1883,1.1723,.1657,1.7694-.0123,.3251-.0433,.6458-.1749,.9497-.0928,.2142-.1459,.2481-.3794,.2457-.4712-.0049-.9425-.0037-1.4139-.0048h-.1108c.1647-1.0356-.106-1.9204-.8865-2.6196-.5566-.4987-1.2237-.719-1.9694-.6746-1.6061,.0953-2.837,1.5767-2.5187,3.2845H8.8263v-.0003Zm8.292-5.1328c.37,.014,1.094,.0415,1.8181,.0689,.1649,.0062,.3296,.0121,.4944,.0181,.0654,.0024,.127-.0218,.1367-.0858,.0072-.0468-.0205-.1022-.043-.1488-.0129-.0271-.0461-.0444-.0702-.066-.4803-.4339-1.0229-.7734-1.602-1.0574-1.0865-.5329-2.2329-.8614-3.4334-1.0033-.1988-.0236-.3983-.0407-.598-.0551-.1066-.0076-.1575,.0511-.1501,.1572,.0021,.0293,.006,.0586,.01,.0878,.08,.5834,.1607,1.1667,.24,1.7503,.028,.2059,.0374,.2175,.2478,.2255,.8652,.0323,1.7305,.0638,2.9498,.1085h-.0002Zm-7.1208-.2175v.028c.0796,0,.159-.0006,.2385,0,.8275,.0083,1.6548,.0169,2.4823,.025,.1341,.0013,.1682-.0326,.1542-.1494-.0751-.6284-.1501-1.257-.2249-1.8855-.0148-.1248-.0372-.1456-.1614-.1462-.7008-.0035-1.3913,.0785-2.0762,.228-1.0356,.2263-1.9807,.6383-2.7964,1.3249-.1462,.1232-.2864,.254-.4233,.3875-.0299,.0293-.0568,.0952-.0433,.1262,.0138,.032,.0781,.0428,.1211,.0609,.01,.0043,.0232,.0006,.035,.0006h2.6942Z" fill="#747474"/><path d="M4.0122,9.4343c.0355-1.193,1.0063-2.1166,2.186-2.0794,1.1763,.0371,2.0889,1.0184,2.0498,2.2043-.038,1.1497-1.018,2.0631-2.1791,2.0313-1.1548-.0317-2.0905-1.0127-2.0564-2.1562h-.0002Z" fill="#747474"/><path d="M24.3977,9.4698c.0033,1.1596-.9463,2.1183-2.101,2.1211-1.1772,.0029-2.1319-.9368-2.1357-2.1026-.0038-1.1792,.9384-2.1312,2.1128-2.1344,1.169-.0032,2.1206,.9448,2.1239,2.1158v.0002Z" fill="#747474"/></g></svg>