<?xml version="1.0" encoding="utf-8"?>
<!-- Generator: Adobe Illustrator 27.2.0, SVG Export Plug-In . SVG Version: 6.00 Build 0)  -->
<svg version="1.1" id="svg5" xmlns="http://www.w3.org/2000/svg" xmlns:xlink="http://www.w3.org/1999/xlink" x="0px" y="0px"
	 viewBox="0 0 24.7 24.7" style="enable-background:new 0 0 24.7 24.7;" xml:space="preserve">
<style type="text/css">
	.st0{opacity:0.3;}
	.st1{fill:none;stroke:#FFFFFF;stroke-width:2.75;stroke-miterlimit:10;}
	.st2{fill:#747474;}
</style>
<g id="layer1">
	<g id="Layer_1-2">
		<g id="g15" class="st0">
			<path id="path9" class="st1" d="M7.6,22c0.1-1.1-0.2-2-1.2-2.5C5.6,19,4.8,19.1,4,19.6C3.1,20.2,2.8,21,3,22l0,0
				c-0.3,0-0.6,0-0.9,0c-0.4,0-0.7-0.4-0.7-0.8c0-0.7,0-1.4,0-2.1c0-0.3,0.1-0.6,0.2-0.8c0.2-0.4,0.4-0.6,0.8-0.8
				c0.4-0.1,0.7-0.2,1.1-0.3c0.3-0.1,0.6-0.2,0.9-0.3c0.4-0.1,0.7-0.3,1-0.5c0.3-0.2,0.6-0.4,0.8-0.6c0.5-0.4,1.1-0.6,1.7-0.8
				c0.6-0.2,1.2-0.3,1.9-0.3c1.8-0.1,3.6,0.2,5.3,0.8c0.7,0.2,1.3,0.5,1.9,1c0.3,0.2,0.6,0.4,0.9,0.7c0.1,0,0.1,0.1,0.2,0.1
				c0.2,0.2,0.4,0.2,0.6,0.3c0.4,0.1,0.9,0.1,1.3,0.2c0.5,0.1,1,0.2,1.5,0.3c0.3,0.1,0.7,0.2,1,0.4c0.4,0.2,0.6,0.5,0.7,0.9
				c0.1,0.5,0.2,1,0.1,1.5c0,0.3,0,0.6-0.2,0.8C23.1,22,23.1,22,22.9,22c-0.4,0-0.8,0-1.2,0h-0.1c0.1-0.9-0.1-1.7-0.8-2.3
				c-0.5-0.4-1.1-0.6-1.7-0.6c-1.4,0.1-2.5,1.4-2.2,2.8L7.6,22L7.6,22z M14.8,17.6c0.3,0,0.9,0,1.6,0.1c0.1,0,0.3,0,0.4,0
				c0.1,0,0.1,0,0.1-0.1c0,0,0-0.1,0-0.1c0,0,0,0-0.1-0.1c-0.4-0.4-0.9-0.7-1.4-0.9c-0.9-0.5-1.9-0.7-3-0.9c-0.2,0-0.3,0-0.5,0
				c-0.1,0-0.1,0-0.1,0.1c0,0,0,0.1,0,0.1c0.1,0.5,0.1,1,0.2,1.5c0,0.2,0,0.2,0.2,0.2C13,17.5,13.7,17.5,14.8,17.6z M8.6,17.4
				L8.6,17.4c0.1,0,0.1,0,0.2,0c0.7,0,1.4,0,2.1,0c0.1,0,0.1,0,0.1-0.1c-0.1-0.5-0.1-1.1-0.2-1.6c0-0.1,0-0.1-0.1-0.1
				c-0.6,0-1.2,0.1-1.8,0.2c-0.9,0.2-1.7,0.6-2.4,1.1c-0.1,0.1-0.2,0.2-0.4,0.3c0,0,0,0.1,0,0.1c0,0,0.1,0,0.1,0.1c0,0,0,0,0,0
				L8.6,17.4L8.6,17.4z"/>
			<path id="path11" class="st1" d="M3.5,21.5c0-1,0.9-1.8,1.9-1.8c1,0,1.8,0.9,1.8,1.9c0,1-0.9,1.8-1.9,1.8
				C4.2,23.3,3.4,22.5,3.5,21.5C3.5,21.5,3.5,21.5,3.5,21.5z"/>
			<path id="path13" class="st1" d="M21.1,21.5c0,1-0.8,1.8-1.8,1.8c-1,0-1.8-0.8-1.8-1.8c0-1,0.8-1.8,1.8-1.8
				C20.3,19.7,21.1,20.5,21.1,21.5L21.1,21.5L21.1,21.5L21.1,21.5z"/>
		</g>
		<g id="g23">
			<path id="path17" class="st2" d="M7.6,22c0.1-1.1-0.2-2-1.2-2.5C5.6,19,4.8,19.1,4,19.6C3.1,20.2,2.8,21,3,22l0,0
				c-0.3,0-0.6,0-0.9,0c-0.4,0-0.7-0.4-0.7-0.8c0-0.7,0-1.4,0-2.1c0-0.3,0.1-0.6,0.2-0.8c0.2-0.4,0.4-0.6,0.8-0.8
				c0.4-0.1,0.7-0.2,1.1-0.3c0.3-0.1,0.6-0.2,0.9-0.3c0.4-0.1,0.7-0.3,1-0.5c0.3-0.2,0.6-0.4,0.8-0.6c0.5-0.4,1.1-0.6,1.7-0.8
				c0.6-0.2,1.2-0.3,1.9-0.3c1.8-0.1,3.6,0.2,5.3,0.8c0.7,0.2,1.3,0.5,1.9,1c0.3,0.2,0.6,0.4,0.9,0.7c0.1,0,0.1,0.1,0.2,0.1
				c0.2,0.2,0.4,0.2,0.6,0.3c0.4,0.1,0.9,0.1,1.3,0.2c0.5,0.1,1,0.2,1.5,0.3c0.3,0.1,0.7,0.2,1,0.4c0.4,0.2,0.6,0.5,0.7,0.9
				c0.1,0.5,0.2,1,0.1,1.5c0,0.3,0,0.6-0.2,0.8C23.1,22,23.1,22,22.9,22c-0.4,0-0.8,0-1.2,0h-0.1c0.1-0.9-0.1-1.7-0.8-2.3
				c-0.5-0.4-1.1-0.6-1.7-0.6c-1.4,0.1-2.5,1.4-2.2,2.8L7.6,22L7.6,22z M14.8,17.6c0.3,0,0.9,0,1.6,0.1c0.1,0,0.3,0,0.4,0
				c0.1,0,0.1,0,0.1-0.1c0,0,0-0.1,0-0.1c0,0,0,0-0.1-0.1c-0.4-0.4-0.9-0.7-1.4-0.9c-0.9-0.5-1.9-0.7-3-0.9c-0.2,0-0.3,0-0.5,0
				c-0.1,0-0.1,0-0.1,0.1c0,0,0,0.1,0,0.1c0.1,0.5,0.1,1,0.2,1.5c0,0.2,0,0.2,0.2,0.2C13,17.5,13.7,17.5,14.8,17.6z M8.6,17.4
				L8.6,17.4c0.1,0,0.1,0,0.2,0c0.7,0,1.4,0,2.1,0c0.1,0,0.1,0,0.1-0.1c-0.1-0.5-0.1-1.1-0.2-1.6c0-0.1,0-0.1-0.1-0.1
				c-0.6,0-1.2,0.1-1.8,0.2c-0.9,0.2-1.7,0.6-2.4,1.1c-0.1,0.1-0.2,0.2-0.4,0.3c0,0,0,0.1,0,0.1c0,0,0.1,0,0.1,0.1c0,0,0,0,0,0
				L8.6,17.4L8.6,17.4z"/>
			<path id="path19" class="st2" d="M3.5,21.5c0-1,0.9-1.8,1.9-1.8c1,0,1.8,0.9,1.8,1.9c0,1-0.9,1.8-1.9,1.8
				C4.2,23.3,3.4,22.5,3.5,21.5C3.5,21.5,3.5,21.5,3.5,21.5z"/>
			<path id="path21" class="st2" d="M21.1,21.5c0,1-0.8,1.8-1.8,1.8c-1,0-1.8-0.8-1.8-1.8c0-1,0.8-1.8,1.8-1.8
				C20.3,19.7,21.1,20.5,21.1,21.5L21.1,21.5L21.1,21.5L21.1,21.5z"/>
		</g>
	</g>
</g>
</svg>
