<?xml version="1.0" encoding="UTF-8" standalone="no"?>
<!-- Created with Inkscape (http://www.inkscape.org/) -->

<svg
   width="24.748346"
   height="24.748346"
   viewBox="0 0 6.5479999 6.5480001"
   version="1.1"
   id="svg5"
   xml:space="preserve"
   inkscape:version="1.2.2 (732a01da63, 2022-12-09)"
   sodipodi:docname="car-18.svg"
   xmlns:inkscape="http://www.inkscape.org/namespaces/inkscape"
   xmlns:sodipodi="http://sodipodi.sourceforge.net/DTD/sodipodi-0.dtd"
   xmlns="http://www.w3.org/2000/svg"
   xmlns:svg="http://www.w3.org/2000/svg"><sodipodi:namedview
     id="namedview7"
     pagecolor="#ffffff"
     bordercolor="#999999"
     borderopacity="1"
     inkscape:showpageshadow="0"
     inkscape:pageopacity="0"
     inkscape:pagecheckerboard="0"
     inkscape:deskcolor="#d1d1d1"
     inkscape:document-units="mm"
     showgrid="false"
     inkscape:zoom="23.860606"
     inkscape:cx="16.764034"
     inkscape:cy="9.7650496"
     inkscape:window-width="1920"
     inkscape:window-height="1017"
     inkscape:window-x="-8"
     inkscape:window-y="-8"
     inkscape:window-maximized="1"
     inkscape:current-layer="layer1" /><defs
     id="defs2" /><g
     inkscape:label="Layer 1"
     inkscape:groupmode="layer"
     id="layer1"
     transform="translate(-39.736532,-192.94473)"><g
       id="Layer_1-2"
       transform="matrix(0.26458333,0,0,0.26458333,39.736567,196.47868)"><g
         opacity="0.3"
         id="g15"><path
           d="M 7.6266,8.6634 C 7.7724,7.5679 7.4235,6.6853 6.4478,6.1276 5.6298,5.6601 4.7809,5.6949 3.9977,6.2179 3.124,6.8015 2.821,7.653 2.9745,8.6842 L 2.9685,8.6891 C 2.6839,8.6903 2.3973,8.7123 2.115,8.6869 1.6971,8.6492 1.3925,8.3097 1.3834,7.8902 1.3683,7.1931 1.3678,6.4955 1.4325,5.8003 1.4589,5.5177 1.5313,5.2466 1.6415,4.9831 1.8001,4.6047 2.0709,4.345 2.453,4.216 2.8138,4.0942 3.1844,4.0011 3.5508,3.896 3.8442,3.8118 4.1385,3.7311 4.4311,3.6446 4.8022,3.5349 5.1254,3.3341 5.4369,3.1102 5.7157,2.9097 6.0052,2.7238 6.2827,2.5216 6.7866,2.1544 7.3452,1.9044 7.9389,1.7249 8.5558,1.5384 9.1865,1.4251 9.8289,1.3927 c 1.8303,-0.0924 3.6092,0.1779 5.3279,0.811 0.6639,0.2444 1.3075,0.5401 1.889,0.9537 0.3067,0.2182 0.616,0.433 0.9223,0.6518 0.0597,0.0426 0.1128,0.095 0.1665,0.1455 0.1772,0.1663 0.3858,0.2489 0.6284,0.2794 0.4263,0.0537 0.8522,0.1165 1.2738,0.1991 0.4987,0.0976 0.9955,0.2091 1.4876,0.336 0.3423,0.0883 0.6665,0.2305 0.9769,0.4058 0.3773,0.213 0.6106,0.5269 0.7245,0.9395 0.1383,0.5014 0.1627,1.013 0.1432,1.5289 C 23.3584,7.9243 23.3316,8.2014 23.2179,8.464 23.1377,8.6491 23.0918,8.6784 22.8901,8.6763 22.4829,8.6721 22.0757,8.6731 21.6684,8.6722 H 21.5727 C 21.715,7.7774 21.4811,7.0128 20.8067,6.4086 20.3258,5.9777 19.7493,5.7873 19.105,5.8257 17.7172,5.908 16.6536,7.1881 16.9286,8.6638 h -9.302 z m 7.165,-4.4352 c 0.3197,0.0121 0.9453,0.0359 1.571,0.0595 0.1425,0.0054 0.2848,0.0105 0.4272,0.0156 0.0565,0.0021 0.1097,-0.0188 0.1181,-0.0741 C 16.9141,4.1888 16.8902,4.1409 16.8707,4.1006 16.8596,4.0772 16.8309,4.0622 16.81,4.0436 16.395,3.6687 15.9261,3.3753 15.4257,3.1299 14.4869,2.6694 13.4963,2.3856 12.459,2.263 12.2872,2.2426 12.1148,2.2278 11.9423,2.2154 11.8502,2.2088 11.8062,2.2596 11.8126,2.3512 c 0.0018,0.0253 0.0052,0.0506 0.0086,0.0759 0.0691,0.5041 0.1389,1.0081 0.2074,1.5124 0.0242,0.1779 0.0323,0.1879 0.2141,0.1949 0.7476,0.0279 1.4953,0.0551 2.5489,0.0938 z M 8.6386,4.0403 v 0.0242 c 0.0688,0 0.1374,-5e-4 0.2061,0 0.715,0.0072 1.4299,0.0146 2.1449,0.0216 C 11.1055,4.0872 11.1349,4.0579 11.1228,3.957 11.0579,3.414 10.9931,2.8708 10.9285,2.3278 10.9157,2.22 10.8964,2.202 10.789,2.2015 10.1835,2.1985 9.5868,2.2693 8.995,2.3985 8.1002,2.594 7.2835,2.95 6.5787,3.5433 6.4524,3.6498 6.3312,3.7628 6.2129,3.8781 6.1871,3.9034 6.1638,3.9604 6.1755,3.9871 c 0.0119,0.0277 0.0675,0.037 0.1046,0.0526 0.0086,0.0037 0.02,5e-4 0.0302,5e-4 h 2.3283 z"
           fill="none"
           stroke="#ffffff"
           stroke-miterlimit="10"
           stroke-width="2.75"
           id="path9" /><path
           d="M 3.4668,8.152 C 3.4975,7.1211 4.3363,6.3231 5.3557,6.3552 6.3721,6.3873 7.1607,7.2352 7.1269,8.2599 7.0941,9.2533 6.2473,10.0426 5.244,10.0151 4.2462,9.9877 3.4376,9.14 3.4671,8.152 Z"
           fill="none"
           stroke="#ffffff"
           stroke-miterlimit="10"
           stroke-width="2.75"
           id="path11" /><path
           d="m 21.0815,8.1827 c 0.0029,1.002 -0.8177,1.8304 -1.8154,1.8328 C 18.2489,10.018 17.424,9.206 17.4207,8.1987 17.4174,7.1798 18.2316,6.3572 19.2463,6.3544 c 1.0101,-0.0028 1.8324,0.8164 1.8352,1.8282 v 2e-4 0 z"
           fill="none"
           stroke="#ffffff"
           stroke-miterlimit="10"
           stroke-width="2.75"
           id="path13" /></g><g
         id="g23"><path
           d="M 7.6266,8.6634 C 7.7724,7.5679 7.4235,6.6853 6.4478,6.1276 5.6298,5.6601 4.7809,5.6949 3.9977,6.2179 3.124,6.8015 2.821,7.653 2.9745,8.6842 L 2.9685,8.6891 C 2.6839,8.6903 2.3973,8.7123 2.115,8.6869 1.6971,8.6492 1.3925,8.3097 1.3834,7.8902 1.3683,7.1931 1.3678,6.4955 1.4325,5.8003 1.4589,5.5177 1.5313,5.2466 1.6415,4.9831 1.8001,4.6047 2.0709,4.345 2.453,4.216 2.8138,4.0942 3.1844,4.0011 3.5508,3.896 3.8442,3.8118 4.1385,3.7311 4.4311,3.6446 4.8022,3.5349 5.1254,3.3341 5.4369,3.1102 5.7157,2.9097 6.0052,2.7238 6.2827,2.5216 6.7866,2.1544 7.3452,1.9044 7.9389,1.7249 8.5558,1.5384 9.1865,1.4251 9.8289,1.3927 c 1.8303,-0.0924 3.6092,0.1779 5.3279,0.811 0.6639,0.2444 1.3075,0.5401 1.889,0.9537 0.3067,0.2182 0.616,0.433 0.9223,0.6518 0.0597,0.0426 0.1128,0.095 0.1665,0.1455 0.1772,0.1663 0.3858,0.2489 0.6284,0.2794 0.4263,0.0537 0.8522,0.1165 1.2738,0.1991 0.4987,0.0976 0.9955,0.2091 1.4876,0.336 0.3423,0.0883 0.6665,0.2305 0.9769,0.4058 0.3773,0.213 0.6106,0.5269 0.7245,0.9395 0.1383,0.5014 0.1627,1.013 0.1432,1.5289 C 23.3584,7.9243 23.3316,8.2014 23.2179,8.464 23.1377,8.6491 23.0918,8.6784 22.8901,8.6763 22.4829,8.6721 22.0757,8.6731 21.6684,8.6722 H 21.5727 C 21.715,7.7774 21.4811,7.0128 20.8067,6.4086 20.3258,5.9777 19.7493,5.7873 19.105,5.8257 17.7172,5.908 16.6536,7.1881 16.9286,8.6638 h -9.302 z m 7.165,-4.4352 c 0.3197,0.0121 0.9453,0.0359 1.571,0.0595 0.1425,0.0054 0.2848,0.0105 0.4272,0.0156 0.0565,0.0021 0.1097,-0.0188 0.1181,-0.0741 C 16.9141,4.1888 16.8902,4.1409 16.8707,4.1006 16.8596,4.0772 16.8309,4.0622 16.81,4.0436 16.395,3.6687 15.9261,3.3753 15.4257,3.1299 14.4869,2.6694 13.4963,2.3856 12.459,2.263 12.2872,2.2426 12.1148,2.2278 11.9423,2.2154 11.8502,2.2088 11.8062,2.2596 11.8126,2.3512 c 0.0018,0.0253 0.0052,0.0506 0.0086,0.0759 0.0691,0.5041 0.1389,1.0081 0.2074,1.5124 0.0242,0.1779 0.0323,0.1879 0.2141,0.1949 0.7476,0.0279 1.4953,0.0551 2.5489,0.0938 z M 8.6386,4.0403 v 0.0242 c 0.0688,0 0.1374,-5e-4 0.2061,0 0.715,0.0072 1.4299,0.0146 2.1449,0.0216 C 11.1055,4.0872 11.1349,4.0579 11.1228,3.957 11.0579,3.414 10.9931,2.8708 10.9285,2.3278 10.9157,2.22 10.8964,2.202 10.789,2.2015 10.1835,2.1985 9.5868,2.2693 8.995,2.3985 8.1002,2.594 7.2835,2.95 6.5787,3.5433 6.4524,3.6498 6.3312,3.7628 6.2129,3.8781 6.1871,3.9034 6.1638,3.9604 6.1755,3.9871 c 0.0119,0.0277 0.0675,0.037 0.1046,0.0526 0.0086,0.0037 0.02,5e-4 0.0302,5e-4 h 2.3283 z"
           fill="#747474"
           id="path17" /><path
           d="M 3.4668,8.152 C 3.4975,7.1211 4.3363,6.3231 5.3557,6.3552 6.3721,6.3873 7.1607,7.2352 7.1269,8.2599 7.0941,9.2533 6.2473,10.0426 5.244,10.0151 4.2462,9.9877 3.4376,9.14 3.4671,8.152 Z"
           fill="#747474"
           id="path19" /><path
           d="m 21.0815,8.1827 c 0.0029,1.002 -0.8177,1.8304 -1.8154,1.8328 C 18.2489,10.018 17.424,9.206 17.4207,8.1987 17.4174,7.1798 18.2316,6.3572 19.2463,6.3544 c 1.0101,-0.0028 1.8324,0.8164 1.8352,1.8282 v 2e-4 0 z"
           fill="#747474"
           id="path21" /></g></g></g></svg>
