<?xml version="1.0" encoding="UTF-8"?><svg id="Layer_1" xmlns="http://www.w3.org/2000/svg" viewBox="0 0 57.5742 41.2633"><g opacity=".3"><path d="M20.7508,34.1373c-.2448,.4536-.5721,.8403-1.1622,1.0431-.0877,.0301-.1539,.1663-.1704,.2604-.0968,.5524-.1827,1.1063-.2594,1.6608-.123,.8889-.7533,1.3965-1.8577,1.4492-.5924,.0282-1.1878,.0215-1.7818,.0213-3.6243-.001-7.2486,.0062-10.8726-.0197-.4996-.0035-1.0162-.1337-1.4907-.2797-.4928-.1516-.7329-.5024-.7874-.9404-.0705-.5674-.1725-1.1323-.2499-1.6993-.0345-.2523-.1179-.4311-.441-.5636-.7175-.2943-1.0395-.9177-.8918-1.5678,.1296-.5704,.7511-1.0592,1.4495-1.1401,.821-.095,1.5508,.2131,1.9054,.8226,.3178,.5462,.6165,1.0998,.9349,1.6705,3.783-.882,7.5453-.9155,11.3318-.0011,.2602-.4669,.53-.9112,.758-1.3692,.343-.6893,.8712-1.1614,1.8535-1.132,.9553,.0286,1.4586,.5075,1.7318,1.2014v.5833h0v.0002Z" fill="none" stroke="#fff" stroke-miterlimit="10" stroke-width="1.5016"/><path d="M19.1599,31.5753c-1.521-.0333-2.3894,.6333-2.9218,1.6975-.2585,.5167-.2814,.5102-.9319,.4252-3.1352-.4095-6.2671-.4042-9.393,.0613-.2652,.0395-.4185-.0057-.5226-.2117-.1188-.2352-.2631-.462-.3994-.6912-.4701-.7901-1.2401-1.2263-2.3139-1.2674-.3231-.0124-.4038-.0908-.3574-.3501,.2912-1.6283,1.7568-2.7155,3.774-2.7261,3.1478-.0165,6.296-.0194,9.4438,.0048,1.9656,.0151,3.5837,1.3225,3.6373,2.8721,.0017,.048-.0074,.0962-.0149,.1857h0Z" fill="none" stroke="#fff" stroke-miterlimit="10" stroke-width="1.5016"/><path d="M2.5571,39.0515l1.8844,.2657c-.0107,.2383,.0162,.508-.043,.7572-.0904,.3805-.5376,.506-1.3396,.4043-.3262-.0414-.4824-.2646-.4984-.576-.0155-.3017-.0034-.6048-.0034-.8512h0Z" fill="none" stroke="#fff" stroke-miterlimit="10" stroke-width="1.5016"/><path d="M17.0641,39.3154l1.8721-.2599c-.0547,.4024,.2613,1.0097-.2563,1.2854-.3526,.1878-.8848,.117-1.3181,.0468-.2846-.0461-.3535-.4496-.2978-1.0724h0Z" fill="none" stroke="#fff" stroke-miterlimit="10" stroke-width="1.5016"/></g><g><path d="M20.7508,34.1373c-.2448,.4536-.5721,.8403-1.1622,1.0431-.0877,.0301-.1539,.1663-.1704,.2604-.0968,.5524-.1827,1.1063-.2594,1.6608-.123,.8889-.7533,1.3965-1.8577,1.4492-.5924,.0282-1.1878,.0215-1.7818,.0213-3.6243-.001-7.2486,.0062-10.8726-.0197-.4996-.0035-1.0162-.1337-1.4907-.2797-.4928-.1516-.7329-.5024-.7874-.9404-.0705-.5674-.1725-1.1323-.2499-1.6993-.0345-.2523-.1179-.4311-.441-.5636-.7175-.2943-1.0395-.9177-.8918-1.5678,.1296-.5704,.7511-1.0592,1.4495-1.1401,.821-.095,1.5508,.2131,1.9054,.8226,.3178,.5462,.6165,1.0998,.9349,1.6705,3.783-.882,7.5453-.9155,11.3318-.0011,.2602-.4669,.53-.9112,.758-1.3692,.343-.6893,.8712-1.1614,1.8535-1.132,.9553,.0286,1.4586,.5075,1.7318,1.2014v.5833h0v.0002Z" fill="#747474"/><path d="M19.1599,31.5753c-1.521-.0333-2.3894,.6333-2.9218,1.6975-.2585,.5167-.2814,.5102-.9319,.4252-3.1352-.4095-6.2671-.4042-9.393,.0613-.2652,.0395-.4185-.0057-.5226-.2117-.1188-.2352-.2631-.462-.3994-.6912-.4701-.7901-1.2401-1.2263-2.3139-1.2674-.3231-.0124-.4038-.0908-.3574-.3501,.2912-1.6283,1.7568-2.7155,3.774-2.7261,3.1478-.0165,6.296-.0194,9.4438,.0048,1.9656,.0151,3.5837,1.3225,3.6373,2.8721,.0017,.048-.0074,.0962-.0149,.1857h0Z" fill="#747474"/><path d="M2.5571,39.0515l1.8844,.2657c-.0107,.2383,.0162,.508-.043,.7572-.0904,.3805-.5376,.506-1.3396,.4043-.3262-.0414-.4824-.2646-.4984-.576-.0155-.3017-.0034-.6048-.0034-.8512h0Z" fill="#747474"/><path d="M17.0641,39.3154l1.8721-.2599c-.0547,.4024,.2613,1.0097-.2563,1.2854-.3526,.1878-.8848,.117-1.3181,.0468-.2846-.0461-.3535-.4496-.2978-1.0724h0Z" fill="#747474"/></g><g id="car_repair-18" transform="translate(-36 -812.36)"><g id="g9271" opacity=".3"><path id="path9273" d="M13.0008,3.82c-.8369,0-1.5,.6631-1.5,1.5,0,.0735,.0211,.148,.0312,.2188l-2.2812,1.5-2,3v5h2v-5l2.7188-3.625c.2713,.2559,.6288,.4375,1.0312,.4375,.8369,0,1.5312-.6944,1.5312-1.5312s-.6944-1.5-1.5312-1.5h0Zm2.25-2.7812l-1,1,7,5-9,2v2c-1,0-1,2,0,2h2q1-2,3-2t3,2h3V5.0388l-1.0132,1.2401L15.2508,1.0388Zm4.1562,12.922c0,1.1477-.9304,2.0781-2.0781,2.0781s-2.0781-.9304-2.0781-2.0781,.9304-2.0781,2.0781-2.0781,2.0781,.9304,2.0781,2.0781Z" fill="#747474" stroke="#fff" stroke-linejoin="round" stroke-width="2"/></g><g id="g7621"><path id="path4902" d="M13.0008,3.82c-.8369,0-1.5,.6631-1.5,1.5,0,.0735,.0211,.148,.0312,.2188l-2.2812,1.5-2,3v5h2v-5l2.7188-3.625c.2713,.2559,.6288,.4375,1.0312,.4375,.8369,0,1.5312-.6944,1.5312-1.5312s-.6944-1.5-1.5312-1.5h0Zm2.25-2.7812l-1,1,7,5-9,2v2c-1,0-1,2,0,2h2q1-2,3-2t3,2h3V5.0388l-1.0132,1.2401L15.2508,1.0388Zm4.1562,12.922c0,1.1477-.9304,2.0781-2.0781,2.0781s-2.0781-.9304-2.0781-2.0781,.9304-2.0781,2.0781-2.0781,2.0781,.9304,2.0781,2.0781Z" fill="#747474"/></g><path id="rect7646" d="M6.748,0H23.7535c.2746,0,.4972,.0148,.4972,.033V17.967c0,.0182-.2226,.033-.4972,.033H6.748c-.2746,0-.4972-.0148-.4972-.033V.033c0-.0182,.2226-.033,.4972-.033Z" fill="none"/></g><g opacity=".3"><path d="M40.4508,37.033c.1458-1.0955-.2031-1.9781-1.1788-2.5358-.818-.4675-1.6669-.4327-2.4501,.0903-.8737,.5836-1.1767,1.4351-1.0232,2.4663l-.006,.0049c-.2846,.0012-.5712,.0232-.8535-.0022-.4179-.0377-.7225-.3772-.7316-.7967-.0151-.6971-.0156-1.3947,.0491-2.0899,.0264-.2826,.0988-.5537,.209-.8172,.1586-.3784,.4294-.6381,.8115-.7671,.3608-.1218,.7314-.2149,1.0978-.32,.2934-.0842,.5877-.1649,.8803-.2514,.3711-.1097,.6943-.3105,1.0058-.5344,.2788-.2005,.5683-.3864,.8458-.5886,.5039-.3672,1.0625-.6172,1.6562-.7967,.6169-.1865,1.2476-.2998,1.89-.3322,1.8303-.0924,3.6092,.1779,5.3279,.811,.6639,.2444,1.3075,.5401,1.889,.9537,.3067,.2182,.616,.433,.9223,.6518,.0597,.0426,.1128,.095,.1665,.1455,.1772,.1663,.3858,.2489,.6284,.2794,.4263,.0537,.8522,.1165,1.2738,.1991,.4987,.0976,.9955,.2091,1.4876,.336,.3423,.0883,.6665,.2305,.9769,.4058,.3773,.213,.6106,.5269,.7245,.9395,.1383,.5014,.1627,1.013,.1432,1.5289-.0106,.2809-.0374,.558-.1511,.8206-.0802,.1851-.1261,.2144-.3278,.2123-.4072-.0042-.8144-.0032-1.2217-.0041h-.0957c.1423-.8948-.0916-1.6594-.766-2.2636-.4809-.4309-1.0574-.6213-1.7017-.5829-1.3878,.0823-2.4514,1.3624-2.1764,2.8381h-9.302v-.0004Zm7.165-4.4352c.3197,.0121,.9453,.0359,1.571,.0595,.1425,.0054,.2848,.0105,.4272,.0156,.0565,.0021,.1097-.0188,.1181-.0741,.0062-.0404-.0177-.0883-.0372-.1286-.0111-.0234-.0398-.0384-.0607-.057-.415-.3749-.8839-.6683-1.3843-.9137-.9388-.4605-1.9294-.7443-2.9667-.8669-.1718-.0204-.3442-.0352-.5167-.0476-.0921-.0066-.1361,.0442-.1297,.1358,.0018,.0253,.0052,.0506,.0086,.0759,.0691,.5041,.1389,1.0081,.2074,1.5124,.0242,.1779,.0323,.1879,.2141,.1949,.7476,.0279,1.4953,.0551,2.5489,.0938h0Zm-6.153-.1879v.0242c.0688,0,.1374-.0005,.2061,0,.715,.0072,1.4299,.0146,2.1449,.0216,.1159,.0011,.1453-.0282,.1332-.1291-.0649-.543-.1297-1.0862-.1943-1.6292-.0128-.1078-.0321-.1258-.1395-.1263-.6055-.003-1.2022,.0678-1.794,.197-.8948,.1955-1.7115,.5515-2.4163,1.1448-.1263,.1065-.2475,.2195-.3658,.3348-.0258,.0253-.0491,.0823-.0374,.109,.0119,.0277,.0675,.037,.1046,.0526,.0086,.0037,.02,.0005,.0302,.0005h2.3282Z" fill="none" stroke="#fff" stroke-miterlimit="10" stroke-width="2.75"/><path d="M36.291,36.5216c.0307-1.0309,.8695-1.8289,1.8889-1.7968,1.0164,.0321,1.805,.88,1.7712,1.9047-.0328,.9934-.8796,1.7827-1.8829,1.7552-.9978-.0274-1.8064-.8751-1.7769-1.8631h-.0003Z" fill="none" stroke="#fff" stroke-miterlimit="10" stroke-width="2.75"/><path d="M53.9057,36.5523c.0029,1.002-.8177,1.8304-1.8154,1.8328-1.0172,.0025-1.8421-.8095-1.8454-1.8168-.0033-1.0189,.8109-1.8415,1.8256-1.8443,1.0101-.0028,1.8324,.8164,1.8352,1.8282v.0002h0Z" fill="none" stroke="#fff" stroke-miterlimit="10" stroke-width="2.75"/></g><g><path d="M40.4508,37.033c.1458-1.0955-.2031-1.9781-1.1788-2.5358-.818-.4675-1.6669-.4327-2.4501,.0903-.8737,.5836-1.1767,1.4351-1.0232,2.4663l-.006,.0049c-.2846,.0012-.5712,.0232-.8535-.0022-.4179-.0377-.7225-.3772-.7316-.7967-.0151-.6971-.0156-1.3947,.0491-2.0899,.0264-.2826,.0988-.5537,.209-.8172,.1586-.3784,.4294-.6381,.8115-.7671,.3608-.1218,.7314-.2149,1.0978-.32,.2934-.0842,.5877-.1649,.8803-.2514,.3711-.1097,.6943-.3105,1.0058-.5344,.2788-.2005,.5683-.3864,.8458-.5886,.5039-.3672,1.0625-.6172,1.6562-.7967,.6169-.1865,1.2476-.2998,1.89-.3322,1.8303-.0924,3.6092,.1779,5.3279,.811,.6639,.2444,1.3075,.5401,1.889,.9537,.3067,.2182,.616,.433,.9223,.6518,.0597,.0426,.1128,.095,.1665,.1455,.1772,.1663,.3858,.2489,.6284,.2794,.4263,.0537,.8522,.1165,1.2738,.1991,.4987,.0976,.9955,.2091,1.4876,.336,.3423,.0883,.6665,.2305,.9769,.4058,.3773,.213,.6106,.5269,.7245,.9395,.1383,.5014,.1627,1.013,.1432,1.5289-.0106,.2809-.0374,.558-.1511,.8206-.0802,.1851-.1261,.2144-.3278,.2123-.4072-.0042-.8144-.0032-1.2217-.0041h-.0957c.1423-.8948-.0916-1.6594-.766-2.2636-.4809-.4309-1.0574-.6213-1.7017-.5829-1.3878,.0823-2.4514,1.3624-2.1764,2.8381h-9.302v-.0004Zm7.165-4.4352c.3197,.0121,.9453,.0359,1.571,.0595,.1425,.0054,.2848,.0105,.4272,.0156,.0565,.0021,.1097-.0188,.1181-.0741,.0062-.0404-.0177-.0883-.0372-.1286-.0111-.0234-.0398-.0384-.0607-.057-.415-.3749-.8839-.6683-1.3843-.9137-.9388-.4605-1.9294-.7443-2.9667-.8669-.1718-.0204-.3442-.0352-.5167-.0476-.0921-.0066-.1361,.0442-.1297,.1358,.0018,.0253,.0052,.0506,.0086,.0759,.0691,.5041,.1389,1.0081,.2074,1.5124,.0242,.1779,.0323,.1879,.2141,.1949,.7476,.0279,1.4953,.0551,2.5489,.0938h0Zm-6.153-.1879v.0242c.0688,0,.1374-.0005,.2061,0,.715,.0072,1.4299,.0146,2.1449,.0216,.1159,.0011,.1453-.0282,.1332-.1291-.0649-.543-.1297-1.0862-.1943-1.6292-.0128-.1078-.0321-.1258-.1395-.1263-.6055-.003-1.2022,.0678-1.794,.197-.8948,.1955-1.7115,.5515-2.4163,1.1448-.1263,.1065-.2475,.2195-.3658,.3348-.0258,.0253-.0491,.0823-.0374,.109,.0119,.0277,.0675,.037,.1046,.0526,.0086,.0037,.02,.0005,.0302,.0005h2.3282Z" fill="#747474"/><path d="M36.291,36.5216c.0307-1.0309,.8695-1.8289,1.8889-1.7968,1.0164,.0321,1.805,.88,1.7712,1.9047-.0328,.9934-.8796,1.7827-1.8829,1.7552-.9978-.0274-1.8064-.8751-1.7769-1.8631h-.0003Z" fill="#747474"/><path d="M53.9057,36.5523c.0029,1.002-.8177,1.8304-1.8154,1.8328-1.0172,.0025-1.8421-.8095-1.8454-1.8168-.0033-1.0189,.8109-1.8415,1.8256-1.8443,1.0101-.0028,1.8324,.8164,1.8352,1.8282v.0002h0Z" fill="#747474"/></g></svg>