<?xml version="1.0" encoding="UTF-8"?><svg id="Layer_2" xmlns="http://www.w3.org/2000/svg" viewBox="0 0 18 17.0001"><g id="svg2"><g id="car_repair-18"><g id="g9271" opacity=".3"><path id="path9273" d="m6.75,3.7812c-.8369,0-1.5.6631-1.5,1.5,0,.0735.0211.148.0312.2188l-2.2812,1.5-2,3v5h2v-5l2.7188-3.625c.2713.2559.6288.4375,1.0312.4375.8369,0,1.5312-.6944,1.5312-1.5312s-.6944-1.5-1.5312-1.5h0Zm2.25-2.7812l-1,1,7,5-9,2v2c-1,0-1,2,0,2h2q1-2,3-2t3,2h3V5l-1.0132,1.2401L9,1Zm4.1562,12.922c0,1.1477-.9304,2.0781-2.0781,2.0781s-2.0781-.9304-2.0781-2.0781.9304-2.0781,2.0781-2.0781,2.0781.9304,2.0781,2.0781Z" fill="#747474" stroke="#fff" stroke-linejoin="round" stroke-width="2"/></g><g id="g7621"><path id="path4902" d="m6.75,3.7812c-.8369,0-1.5.6631-1.5,1.5,0,.0735.0211.148.0312.2188l-2.2812,1.5-2,3v5h2v-5l2.7188-3.625c.2713.2559.6288.4375,1.0312.4375.8369,0,1.5312-.6944,1.5312-1.5312s-.6944-1.5-1.5312-1.5h0Zm2.25-2.7812l-1,1,7,5-9,2v2c-1,0-1,2,0,2h2q1-2,3-2t3,2h3V5l-1.0132,1.2401L9,1Zm4.1562,12.922c0,1.1477-.9304,2.0781-2.0781,2.0781s-2.0781-.9304-2.0781-2.0781.9304-2.0781,2.0781-2.0781,2.0781.9304,2.0781,2.0781Z" fill="#747474"/></g></g></g></svg>