<?xml version="1.0" encoding="UTF-8"?><svg id="Layer_2" xmlns="http://www.w3.org/2000/svg" viewBox="0 0 17.6105 15.3805"><g id="svg2"><g id="car_parts-18"><g id="g6275"><path id="path6265" d="m3.2301,1v2.2301H1v11.1504h15.6105V3.2301h-2.2301V1h-2.2301v2.2301h-6.6902V1h-2.2301Zm1.115,4.4602h1.115v2.2301h2.2301v1.115h-2.2301v2.2301h-1.115v-2.2301h-2.2301v-1.115h2.2301v-2.2301Zm5.5752,2.2301h5.5752v1.115h-5.5752v-1.115Z" fill="#fff" isolation="isolate" opacity=".3" stroke="#fff" stroke-linejoin="round" stroke-width="2"/><path id="rect6248" d="m3.2301,1v2.2301H1v11.1504h15.6105V3.2301h-2.2301V1h-2.2301v2.2301h-6.6902V1h-2.2301Zm1.115,4.4602h1.115v2.2301h2.2301v1.115h-2.2301v2.2301h-1.115v-2.2301h-2.2301v-1.115h2.2301v-2.2301Zm5.5752,2.2301h5.5752v1.115h-5.5752v-1.115Z" fill="#747474"/></g></g></g></svg>