<?xml version="1.0" encoding="UTF-8"?><svg id="Layer_2" xmlns="http://www.w3.org/2000/svg" viewBox="0 0 16 14.5"><g id="svg6"><path id="path2" d="m7.9999,1c-1.1607,0-2.3352.5023-3.125,1.5-.6027.7614-.9595,1.7971-.9688,3-2.8962.0237-2.9062,1.0817-2.9062,8h14c0-6.9183-.0101-7.9762-2.9062-8-.0092-1.2029-.366-2.2386-.9688-3-.7898-.9977-1.9643-1.5-3.125-1.5h0Zm0,2c.5893,0,1.1648.2477,1.5625.75.3018.3812.5056.942.5,1.75h-4.125c-.0056-.808.1982-1.3688.5-1.75.3977-.5023.9732-.75,1.5625-.75Zm-1,3.5h2v2h2v2h-2v2h-2v-2h-2v-2h2v-2Z" fill="none" isolation="isolate" opacity=".3" stroke="#fff" stroke-linejoin="round" stroke-width="2"/><path id="path4" d="m7.9999,1c-1.1607,0-2.3352.5023-3.125,1.5-.6027.7614-.9595,1.7971-.9688,3-2.8962.0237-2.9062,1.0817-2.9062,8h14c0-6.9183-.0101-7.9762-2.9062-8-.0092-1.2029-.366-2.2386-.9688-3-.7898-.9977-1.9643-1.5-3.125-1.5h0Zm0,2c.5893,0,1.1648.2477,1.5625.75.3018.3812.5056.942.5,1.75h-4.125c-.0056-.808.1982-1.3688.5-1.75.3977-.5023.9732-.75,1.5625-.75Zm-1,3.5h2v2h2v2h-2v2h-2v-2h-2v-2h2v-2Z" fill="#747474"/></g></svg>