<?xml version="1.0" encoding="UTF-8"?><svg id="Layer_1" xmlns="http://www.w3.org/2000/svg" viewBox="0 0 18.7166 11.4843"><g opacity=".3"><path d="M2.2721,4.3463c0,.992-.2244,2.0015,.0638,2.8335,.2821,.8145,.1615,1.5729,.245,2.3516,.0398,.3719-.0889,.6674-.5209,.6999-.3647,.0274-.5934-.2299-.6041-.6907-.0122-.5233-.0047-1.047-.0011-1.5705,.0006-.0935-.0097-.2161,.042-.2759,.5085-.5875,.2605-1.2916,.3111-1.9475,.0195-.2523-.0048-.5077,.0049-.7612,.0184-.4828,.0773-.9772-.6237-1.0349-.0725-.006-.2038-.2033-.1877-.2258,.0832-.1161,.1894-.25,.3167-.295,1.1631-.4105,2.3314-.8065,3.5-1.2013,1.1687-.3948,2.3352-.7968,3.5127-1.1636,.2521-.0785,.5687-.0894,.819-.0124,2.464,.7582,4.9213,1.5382,7.3762,2.3251,.1749,.0561,.3168,.2153,.474,.3266-.1538,.1116-.2918,.2721-.4637,.3274-2.4843,.7984-4.9711,1.5895-7.4645,2.3591-.2335,.0721-.5343,.0437-.772-.0346-1.8323-.6031-3.6566-1.2306-5.484-1.8488-.1605-.0543-.3251-.0966-.5438-.161Z" fill="none" stroke="#fff" stroke-miterlimit="10" stroke-width="2"/><path d="M3.721,6.6317c1.5018,.5069,2.9704,.9893,4.428,1.5029,.4128,.1455,.7859,.145,1.1969,.0106,1.5014-.4909,3.0099-.96,4.5161-1.436,.1187-.0375,.2406-.0651,.4039-.1087,0,.8086,.0612,1.5895-.0315,2.3517-.0348,.2859-.3783,.6427-.6671,.7665-.6029,.2585-1.2525,.4544-1.9016,.5501-2.1453,.3164-4.2901,.3175-6.4101-.2196-.2438-.0618-.4811-.1552-.7147-.2506-.5668-.2315-.8873-.6018-.8308-1.2731,.0514-.6116,.0109-1.231,.0109-1.8937Z" fill="none" stroke="#fff" stroke-miterlimit="10" stroke-width="2"/></g><g><path d="M2.2721,4.3463c0,.992-.2244,2.0015,.0638,2.8335,.2821,.8145,.1615,1.5729,.245,2.3516,.0398,.3719-.0889,.6674-.5209,.6999-.3647,.0274-.5934-.2299-.6041-.6907-.0122-.5233-.0047-1.047-.0011-1.5705,.0006-.0935-.0097-.2161,.042-.2759,.5085-.5875,.2605-1.2916,.3111-1.9475,.0195-.2523-.0048-.5077,.0049-.7612,.0184-.4828,.0773-.9772-.6237-1.0349-.0725-.006-.2038-.2033-.1877-.2258,.0832-.1161,.1894-.25,.3167-.295,1.1631-.4105,2.3314-.8065,3.5-1.2013,1.1687-.3948,2.3352-.7968,3.5127-1.1636,.2521-.0785,.5687-.0894,.819-.0124,2.464,.7582,4.9213,1.5382,7.3762,2.3251,.1749,.0561,.3168,.2153,.474,.3266-.1538,.1116-.2918,.2721-.4637,.3274-2.4843,.7984-4.9711,1.5895-7.4645,2.3591-.2335,.0721-.5343,.0437-.772-.0346-1.8323-.6031-3.6566-1.2306-5.484-1.8488-.1605-.0543-.3251-.0966-.5438-.161Z" fill="#747474"/><path d="M3.721,6.6317c1.5018,.5069,2.9704,.9893,4.428,1.5029,.4128,.1455,.7859,.145,1.1969,.0106,1.5014-.4909,3.0099-.96,4.5161-1.436,.1187-.0375,.2406-.0651,.4039-.1087,0,.8086,.0612,1.5895-.0315,2.3517-.0348,.2859-.3783,.6427-.6671,.7665-.6029,.2585-1.2525,.4544-1.9016,.5501-2.1453,.3164-4.2901,.3175-6.4101-.2196-.2438-.0618-.4811-.1552-.7147-.2506-.5668-.2315-.8873-.6018-.8308-1.2731,.0514-.6116,.0109-1.231,.0109-1.8937Z" fill="#747474"/></g></svg>