<?xml version="1.0" encoding="UTF-8"?><svg id="Layer_2" xmlns="http://www.w3.org/2000/svg" viewBox="0 0 11.9013 10.2784"><g id="svg5369"><g id="layer1"><g id="university-12"><g id="g21628"><path id="path5396" d="m5.9506,1.0819L1.0819,3.7868l4.8687,2.7048,2.7048-1.6229v1.3524l-2.7048,1.3524-2.7048-1.3524v1.3524l2.7048,1.6229,2.7048-1.6229c0,.541,1.0819.541,1.0819.541v-.541s-.541-.0314-.541-.541v-2.1639l1.6229-1.0819L5.9506,1.0819Z" fill="none" isolation="isolate" opacity=".3" stroke="#fff" stroke-linecap="round" stroke-linejoin="round" stroke-width="2.1639"/><path id="path7442-3" d="m5.9506,1.0819L1.0819,3.7868l4.8687,2.7048,2.7048-1.6229v1.3524l-2.7048,1.3524-2.7048-1.3524v1.3524l2.7048,1.6229,2.7048-1.6229c0,.541,1.0819.541,1.0819.541v-.541s-.541-.0314-.541-.541v-2.1639l1.6229-1.0819L5.9506,1.0819Z" fill="#525252"/></g></g></g></g></svg>