<?xml version="1.0" encoding="UTF-8"?><svg id="Layer_2" xmlns="http://www.w3.org/2000/svg" viewBox="0 0 18.1432 18.068"><g id="svg6"><g id="community_centre-18"><path id="path4010" d="m9.0836,1.068L1.0836,4.068v1l8-2.875,8,2.875v-1L9.0836,1.068Zm-4,4.5c-.8284,0-1.5.6716-1.5,1.5,0,.7248.504,1.3288,1.1875,1.4688l-.0312.2188-2.6562,3.3125h1l1.3125-1.5625-1.3125,6.5625h1l1-3,1,3h1l-1.3125-6.625,1.3125,1.625h1l-2.6562-3.375-.0312-.1562c.6835-.1399,1.1875-.744,1.1875-1.4688,0-.8284-.6716-1.5-1.5-1.5h-.0001Zm8,0c-.8284,0-1.5.6716-1.5,1.5,0,.7249.504,1.3288,1.1875,1.4688l-.0312.2188-2.6562,3.3125h1l1.3125-1.5625-1.3125,6.5625h1l1-3,1,3h1l-1.3125-6.625,1.3125,1.625h1l-2.6562-3.375-.0312-.1562c.6835-.1399,1.1875-.7439,1.1875-1.4688,0-.8284-.6716-1.5-1.5-1.5h-.0001Z" fill="none" isolation="isolate" opacity=".3" stroke="#fff" stroke-width="2"/><path id="path3998" d="m9.0836,1.068L1.0836,4.068v1l8-2.875,8,2.875v-1L9.0836,1.068Zm-4,4.5c-.8284,0-1.5.6716-1.5,1.5,0,.7248.504,1.3288,1.1875,1.4688l-.0312.2188-2.6562,3.3125h1l1.3125-1.5625-1.3125,6.5625h1l1-3,1,3h1l-1.3125-6.625,1.3125,1.625h1l-2.6562-3.375-.0312-.1562c.6835-.1399,1.1875-.744,1.1875-1.4688,0-.8284-.6716-1.5-1.5-1.5h-.0001Zm8,0c-.8284,0-1.5.6716-1.5,1.5,0,.7249.504,1.3288,1.1875,1.4688l-.0312.2188-2.6562,3.3125h1l1.3125-1.5625-1.3125,6.5625h1l1-3,1,3h1l-1.3125-6.625,1.3125,1.625h1l-2.6562-3.375-.0312-.1562c.6835-.1399,1.1875-.7439,1.1875-1.4688,0-.8284-.6716-1.5-1.5-1.5h-.0001Z" fill="#747474"/></g></g></svg>