<?xml version="1.0" encoding="UTF-8"?><svg id="Layer_2" xmlns="http://www.w3.org/2000/svg" viewBox="0 0 17.4834 15.8245"><g id="svg6"><path id="path2" d="m8.7416,1c-1.2837,0-2.5826.5555-3.4561,1.6589-.6666.842-1.0612,1.9875-1.0714,3.3179-3.2031.0263-3.2141,1.1963-3.2141,8.8477h15.4834c0-7.6513-.0112-8.8213-3.2141-8.8477-.0102-1.3304-.4048-2.4758-1.0714-3.3179-.8735-1.1034-2.1724-1.6589-3.4561-1.6589h-.0001Zm0,2.2119c.6517,0,1.2882.2739,1.7281.8295.3338.4216.5591,1.0418.553,1.9354h-4.5621c-.0061-.8936.2192-1.5138.553-1.9354.4398-.5555,1.0763-.8295,1.7281-.8295Zm-1.106,3.8709h2.2119v2.2119h2.2119v2.2119h-2.2119v2.2119h-2.2119v-2.2119h-2.2119v-2.2119h2.2119v-2.2119Z" fill="none" isolation="isolate" opacity=".3" stroke="#fff" stroke-linejoin="round" stroke-width="2"/><path id="path4" d="m8.7416,1c-1.2837,0-2.5826.5555-3.4561,1.6589-.6666.842-1.0612,1.9875-1.0714,3.3179-3.2031.0263-3.2141,1.1963-3.2141,8.8477h15.4834c0-7.6513-.0112-8.8213-3.2141-8.8477-.0102-1.3304-.4048-2.4758-1.0714-3.3179-.8735-1.1034-2.1724-1.6589-3.4561-1.6589h-.0001Zm0,2.2119c.6517,0,1.2882.2739,1.7281.8295.3338.4216.5591,1.0418.553,1.9354h-4.5621c-.0062-.8936.2192-1.5138.553-1.9354.4398-.5555,1.0763-.8295,1.7281-.8295Zm-1.106,3.8709h2.2119v2.2119h2.2119v2.2119h-2.2119v2.2119h-2.2119v-2.2119h-2.2119v-2.2119h2.2119v-2.2119Z" fill="#747474"/></g></svg>