<?xml version="1.0" encoding="UTF-8"?><svg id="Layer_2" xmlns="http://www.w3.org/2000/svg" viewBox="0 0 13.4137 15.6571"><g id="svg6"><g id="dry_cleaning-18"><path id="path6675" d="m4.4712,10.068c0,1.2347,1.0009,2.2356,2.2356,2.2356s2.2356-1.0009,2.2356-2.2356h-4.4712ZM0,4.479v11.1781h13.4137V4.479H0Zm6.7068,2.2356c1.8521,0,3.3534,1.5014,3.3534,3.3534s-1.5013,3.3534-3.3534,3.3534-3.3534-1.5014-3.3534-3.3534,1.5013-3.3534,3.3534-3.3534ZM.489.0077C.0175.0602,0,.2872,0,1.1256v2.2356h13.4137V1.1256Q13.4137.0077,12.2959.0077C8.7028.0083,4.711.007,1.1178.0077.8384.0077.6462-.0097.489.0077Zm1.7466.5589c.6173,0,1.1178.5005,1.1178,1.1178s-.5005,1.1178-1.1178,1.1178-1.1178-.5005-1.1178-1.1178.5005-1.1178,1.1178-1.1178Zm3.3534,0c.6173,0,1.1178.5005,1.1178,1.1178s-.5005,1.1178-1.1178,1.1178-1.1178-.5005-1.1178-1.1178.5005-1.1178,1.1178-1.1178Z" fill="#747474"/></g></g></svg>