<?xml version="1.0" encoding="UTF-8"?><svg id="Layer_2" xmlns="http://www.w3.org/2000/svg" viewBox="0 0 16.6968 17.8273"><g id="svg5369"><g id="layer1"><g id="fire_station-18"><g id="g21510"><path id="path14455" d="m8.3484,1l-2.8263,4.5221-1.6958-2.261c-.6088,1.0702-2.8263,3.4622-2.8263,6.2179,0,4.0584,3.29,7.3484,7.3484,7.3484s7.3484-3.29,7.3484-7.3484c0-2.7556-2.2175-5.1476-2.8263-6.2179l-1.6958,2.261-2.8263-4.5221Z" fill="#fff" isolation="isolate" opacity=".3" stroke="#fff" stroke-linecap="round" stroke-linejoin="round" stroke-width="2"/><path id="path10041-3-3" d="m8.3484,1l-2.8263,4.5221-1.6958-2.261c-.6088,1.0702-2.8263,3.4622-2.8263,6.2179,0,4.0584,3.29,7.3484,7.3484,7.3484s7.3484-3.29,7.3484-7.3484c0-2.7556-2.2175-5.1476-2.8263-6.2179l-1.6958,2.261-2.8263-4.5221Zm0,7.3484s2.8263,2.6778,2.8263,4.8047c0,.9185-.9892,1.9784-2.8263,1.9784s-2.8263-1.0599-2.8263-1.9784c0-2.0539,2.8263-4.8047,2.8263-4.8047Z" fill="#747474"/></g></g></g></g></svg>