<?xml version="1.0" encoding="UTF-8"?><svg id="Layer_1" xmlns="http://www.w3.org/2000/svg" viewBox="0 0 14.0731 18"><g opacity=".3"><path d="M13.0731,17H1V5.5342h3.3433v1.7415h1.0562v-1.7436h3.3345v1.7477h1.0389v-1.7427h3.3003v11.4629Zm-4.6008-1.3207c0-1.6128,.021-3.1582-.0088-4.7026-.0151-.7801-.64-1.3264-1.4033-1.3247-.7628,.0017-1.3566,.5524-1.403,1.3313-.0264,.4429-.0126,.8884-.0131,1.3327-.0013,1.1136-.0004,2.2271-.0004,3.3633h2.8287Z" fill="none" stroke="#fff" stroke-miterlimit="10" stroke-width="2"/><path d="M11.171,1V3.5156h-3.6782v1.5381h-.7646V1h4.4428Z" fill="none" stroke="#fff" stroke-miterlimit="10" stroke-width="2"/></g><g><path d="M13.0731,17H1V5.5342h3.3433v1.7415h1.0562v-1.7436h3.3345v1.7477h1.0389v-1.7427h3.3003v11.4629Zm-4.6008-1.3207c0-1.6128,.021-3.1582-.0088-4.7026-.0151-.7801-.64-1.3264-1.4033-1.3247-.7628,.0017-1.3566,.5524-1.403,1.3313-.0264,.4429-.0126,.8884-.0131,1.3327-.0013,1.1136-.0004,2.2271-.0004,3.3633h2.8287Z" fill="#747474"/><path d="M11.171,1V3.5156h-3.6782v1.5381h-.7646V1h4.4428Z" fill="#747474"/></g></svg>