<?xml version="1.0" encoding="UTF-8"?><svg id="Layer_1" xmlns="http://www.w3.org/2000/svg" viewBox="0 0 17.9652 18"><g opacity=".3"><path d="M7.0291,14.6002c.203,0,.3678-.1645,.3687-.3674,.0024-.4826,.0063-.9451-.0129-1.4066-.0041-.0984-.147-.221-.2545-.2803-.7019-.3875-1.2752-.9091-1.6379-1.6252-.1324-.2614-.2858-.3469-.5584-.322-.113,.0103-.2268,.0113-.3448,.0097-.2019-.0027-.3644-.167-.3644-.3689v-.8002c0-.2037,.1651-.3688,.3688-.3688H13.3878c.2037,0,.3688,.1651,.3688,.3688v.7415c0,.2127-.1786,.3888-.3906,.3712-.6372-.0527-.9429,.4656-1.3119,.9704-.2981,.4077-.7703,.701-1.1994,.9945-.2017,.1379-.2924,.2548-.2845,.4963,.0128,.392,.0089,.7847,.0064,1.1946-.0012,.2045,.1643,.3713,.3688,.3713h5.3777c.2981,0,.4729,.3356,.3023,.5801-.3684,.5277-.7083,1.0202-1.1054,1.4612-.2121,.2355-.6594,.3603-1.0008,.3626-3.6938,.0249-7.3878,.0151-11.0818,.0156-.4507,0-.8644-.1418-1.134-.4927-.3236-.4212-.6203-.8631-.935-1.3302-.165-.245,.0101-.5753,.3055-.5753H7.0291Z" fill="none" stroke="#fff" stroke-miterlimit="10" stroke-width="2"/><path d="M12.2806,6.5189c-.0703,.0407-.1611,.0226-.2092-.0429-.4136-.5625-.8397-.7556-1.3532-.6381-.5271,.1206-.9061,.5716-.9274,1.1333-.013,.3436-.0055,.6881-.0034,1.0499,.0005,.0888-.0717,.1614-.1605,.1614h-1.2778c-.0887,0-.1607-.0724-.1605-.1611,.0005-.2911,.002-.5757-.0007-.8603-.0066-.6887-.3099-1.1393-.8739-1.305-.536-.1574-1.0302,.0598-1.4069,.6177l-.0007,.001c-.0461,.0679-.1384,.0864-.2094,.0453l-1.0688-.6186c-.0726-.042-.0995-.1324-.0643-.2085,.502-1.0839,1.6602-1.5943,3.0898-1.3881,.1204,.0174,.2197-.0998,.1749-.2129-.3263-.8236-1.4386-1.5105-2.4881-1.4843-1.5676,.039-2.4425,.9908-2.7866,3.0542-.0129,.0776-.0794,.1353-.1581,.1353H1.1942c-.0799,0-.1463-.059-.1591-.1379-.2385-1.4745,.7628-3.2944,2.2614-4.1079,1.4624-.7939,3.8192-.8911,5.5747,1.1532,.0597,.0695,.1642,.0766,.2319,.0148,1.9868-1.8119,3.6968-2.1711,5.559-1.175,1.5098,.8076,2.4626,2.5286,2.2809,4.1078-.0094,.082-.0773,.1449-.1599,.1449h-1.2135c-.0871,0-.1591-.0695-.1602-.1565-.0114-.9017-.2659-1.709-.9736-2.3284-.4749-.4156-1.03-.6393-1.6591-.6948-1.0509-.0928-2.0872,.4764-2.6191,1.4438-.0646,.1175,.0361,.2592,.168,.2355,.5777-.1042,1.1374-.1033,1.6875,.1238,.6097,.2517,1.0752,.6512,1.4106,1.2511,.0432,.0773,.0177,.1753-.059,.2197l-1.0842,.6278Z" fill="none" stroke="#fff" stroke-miterlimit="10" stroke-width="2"/></g><g><path d="M7.0291,14.6002c.203,0,.3678-.1645,.3687-.3674,.0024-.4826,.0063-.9451-.0129-1.4066-.0041-.0984-.147-.221-.2545-.2803-.7019-.3875-1.2752-.9091-1.6379-1.6252-.1324-.2614-.2858-.3469-.5584-.322-.113,.0103-.2268,.0113-.3448,.0097-.2019-.0027-.3644-.167-.3644-.3689v-.8002c0-.2037,.1651-.3688,.3688-.3688H13.3878c.2037,0,.3688,.1651,.3688,.3688v.7415c0,.2127-.1786,.3888-.3906,.3712-.6372-.0527-.9429,.4656-1.3119,.9704-.2981,.4077-.7703,.701-1.1994,.9945-.2017,.1379-.2924,.2548-.2845,.4963,.0128,.392,.0089,.7847,.0064,1.1946-.0012,.2045,.1643,.3713,.3688,.3713h5.3777c.2981,0,.4729,.3356,.3023,.5801-.3684,.5277-.7083,1.0202-1.1054,1.4612-.2121,.2355-.6594,.3603-1.0008,.3626-3.6938,.0249-7.3878,.0151-11.0818,.0156-.4507,0-.8644-.1418-1.134-.4927-.3236-.4212-.6203-.8631-.935-1.3302-.165-.245,.0101-.5753,.3055-.5753H7.0291Z" fill="#747474"/><path d="M12.2806,6.5189c-.0703,.0407-.1611,.0226-.2092-.0429-.4136-.5625-.8397-.7556-1.3532-.6381-.5271,.1206-.9061,.5716-.9274,1.1333-.013,.3436-.0055,.6881-.0034,1.0499,.0005,.0888-.0717,.1614-.1605,.1614h-1.2778c-.0887,0-.1607-.0724-.1605-.1611,.0005-.2911,.002-.5757-.0007-.8603-.0066-.6887-.3099-1.1393-.8739-1.305-.536-.1574-1.0302,.0598-1.4069,.6177l-.0007,.001c-.0461,.0679-.1384,.0864-.2094,.0453l-1.0688-.6186c-.0726-.042-.0995-.1324-.0643-.2085,.502-1.0839,1.6602-1.5943,3.0898-1.3881,.1204,.0174,.2197-.0998,.1749-.2129-.3263-.8236-1.4386-1.5105-2.4881-1.4843-1.5676,.039-2.4425,.9908-2.7866,3.0542-.0129,.0776-.0794,.1353-.1581,.1353H1.1942c-.0799,0-.1463-.059-.1591-.1379-.2385-1.4745,.7628-3.2944,2.2614-4.1079,1.4624-.7939,3.8192-.8911,5.5747,1.1532,.0597,.0695,.1642,.0766,.2319,.0148,1.9868-1.8119,3.6968-2.1711,5.559-1.175,1.5098,.8076,2.4626,2.5286,2.2809,4.1078-.0094,.082-.0773,.1449-.1599,.1449h-1.2135c-.0871,0-.1591-.0695-.1602-.1565-.0114-.9017-.2659-1.709-.9736-2.3284-.4749-.4156-1.03-.6393-1.6591-.6948-1.0509-.0928-2.0872,.4764-2.6191,1.4438-.0646,.1175,.0361,.2592,.168,.2355,.5777-.1042,1.1374-.1033,1.6875,.1238,.6097,.2517,1.0752,.6512,1.4106,1.2511,.0432,.0773,.0177,.1753-.059,.2197l-1.0842,.6278Z" fill="#747474"/></g></svg>