<?xml version="1.0" encoding="UTF-8"?><svg id="Layer_2" xmlns="http://www.w3.org/2000/svg" viewBox="0 0 21.5016 13.5142"><g id="Layer_1-2"><g opacity=".3"><path d="M20.7508,6.3882c-.2448,.4536-.5721,.8403-1.1622,1.0431-.0877,.0301-.1539,.1663-.1704,.2604-.0968,.5524-.1827,1.1063-.2594,1.6608-.123,.8889-.7533,1.3965-1.8577,1.4492-.5924,.0282-1.1878,.0215-1.7818,.0213-3.6243-.001-7.2486,.0062-10.8726-.0197-.4996-.0035-1.0162-.1337-1.4907-.2797-.4928-.1516-.7329-.5024-.7874-.9404-.0705-.5674-.1725-1.1323-.2499-1.6993-.0345-.2523-.1179-.4311-.441-.5636-.7175-.2943-1.0395-.9177-.8918-1.5678,.1296-.5704,.7511-1.0592,1.4495-1.1401,.821-.095,1.5508,.2131,1.9054,.8226,.3178,.5462,.6165,1.0998,.9349,1.6705,3.783-.882,7.5453-.9155,11.3318-.0011,.2602-.4669,.53-.9112,.758-1.3692,.343-.6893,.8712-1.1614,1.8535-1.132,.9553,.0286,1.4586,.5075,1.7318,1.2014v.5833h0v.0002h0v.0002h0Z" fill="none" stroke="#fff" stroke-miterlimit="10" stroke-width="1.5016"/><path d="M19.1599,3.8262c-1.521-.0333-2.3894,.6333-2.9218,1.6975-.2585,.5167-.2814,.5102-.9319,.4252-3.1352-.4095-6.2671-.4042-9.393,.0613-.2652,.0395-.4185-.0057-.5226-.2117-.1188-.2352-.2631-.462-.3994-.6912-.4701-.7901-1.2401-1.2263-2.3139-1.2674-.3231-.0124-.4038-.0908-.3574-.3501,.2912-1.6283,1.7568-2.7155,3.774-2.7261,3.1478-.0165,6.296-.0194,9.4438,.0048,1.9656,.0151,3.5837,1.3225,3.6373,2.8721,.0017,.048-.0074,.0962-.0149,.1857h-.0002Z" fill="none" stroke="#fff" stroke-miterlimit="10" stroke-width="1.5016"/><path d="M2.5571,11.3024l1.8844,.2657c-.0107,.2383,.0162,.508-.043,.7572-.0904,.3805-.5376,.506-1.3396,.4043-.3262-.0414-.4824-.2646-.4984-.576-.0155-.3017-.0034-.6048-.0034-.8512h0Z" fill="none" stroke="#fff" stroke-miterlimit="10" stroke-width="1.5016"/><path d="M17.0641,11.5663l1.8721-.2599c-.0547,.4024,.2613,1.0097-.2563,1.2854-.3526,.1878-.8848,.117-1.3181,.0468-.2846-.0461-.3535-.4496-.2978-1.0724h0Z" fill="none" stroke="#fff" stroke-miterlimit="10" stroke-width="1.5016"/></g><g><path d="M20.7508,6.3882c-.2448,.4536-.5721,.8403-1.1622,1.0431-.0877,.0301-.1539,.1663-.1704,.2604-.0968,.5524-.1827,1.1063-.2594,1.6608-.123,.8889-.7533,1.3965-1.8577,1.4492-.5924,.0282-1.1878,.0215-1.7818,.0213-3.6243-.001-7.2486,.0062-10.8726-.0197-.4996-.0035-1.0162-.1337-1.4907-.2797-.4928-.1516-.7329-.5024-.7874-.9404-.0705-.5674-.1725-1.1323-.2499-1.6993-.0345-.2523-.1179-.4311-.441-.5636-.7175-.2943-1.0395-.9177-.8918-1.5678,.1296-.5704,.7511-1.0592,1.4495-1.1401,.821-.095,1.5508,.2131,1.9054,.8226,.3178,.5462,.6165,1.0998,.9349,1.6705,3.783-.882,7.5453-.9155,11.3318-.0011,.2602-.4669,.53-.9112,.758-1.3692,.343-.6893,.8712-1.1614,1.8535-1.132,.9553,.0286,1.4586,.5075,1.7318,1.2014v.5833h0v.0002h0v.0002h0Z" fill="#747474"/><path d="M19.1599,3.8262c-1.521-.0333-2.3894,.6333-2.9218,1.6975-.2585,.5167-.2814,.5102-.9319,.4252-3.1352-.4095-6.2671-.4042-9.393,.0613-.2652,.0395-.4185-.0057-.5226-.2117-.1188-.2352-.2631-.462-.3994-.6912-.4701-.7901-1.2401-1.2263-2.3139-1.2674-.3231-.0124-.4038-.0908-.3574-.3501,.2912-1.6283,1.7568-2.7155,3.774-2.7261,3.1478-.0165,6.296-.0194,9.4438,.0048,1.9656,.0151,3.5837,1.3225,3.6373,2.8721,.0017,.048-.0074,.0962-.0149,.1857h-.0002Z" fill="#747474"/><path d="M2.5571,11.3024l1.8844,.2657c-.0107,.2383,.0162,.508-.043,.7572-.0904,.3805-.5376,.506-1.3396,.4043-.3262-.0414-.4824-.2646-.4984-.576-.0155-.3017-.0034-.6048-.0034-.8512h0Z" fill="#747474"/><path d="M17.0641,11.5663l1.8721-.2599c-.0547,.4024,.2613,1.0097-.2563,1.2854-.3526,.1878-.8848,.117-1.3181,.0468-.2846-.0461-.3535-.4496-.2978-1.0724h0Z" fill="#747474"/></g></g></svg>