<?xml version="1.0" encoding="UTF-8"?><svg id="Layer_2" xmlns="http://www.w3.org/2000/svg" viewBox="0 0 19.3514 12.1627"><g id="Layer_1-2"><g opacity=".3"><path d="M18.6757,5.7493c-.2203,.4082-.5149,.7563-1.046,.9388-.0789,.0271-.1385,.1497-.1534,.2344-.0871,.4972-.1644,.9957-.2335,1.4947-.1107,.8-.678,1.2568-1.6719,1.3043-.5332,.0254-1.069,.0193-1.6036,.0192-3.2619-.0009-6.5237,.0056-9.7853-.0177-.4496-.0031-.9146-.1203-1.3416-.2517-.4435-.1364-.6596-.4522-.7087-.8464-.0634-.5107-.1552-1.0191-.2249-1.5294-.031-.2271-.1061-.388-.3969-.5072-.6457-.2649-.9355-.8259-.8026-1.411,.1166-.5134,.676-.9533,1.3045-1.0261,.7389-.0855,1.3957,.1918,1.7149,.7403,.286,.4916,.5548,.9898,.8414,1.5034,3.4047-.7938,6.7907-.8239,10.1986-.001,.2342-.4202,.477-.8201,.6822-1.2323,.3087-.6204,.7841-1.0453,1.6681-1.0188,.8598,.0257,1.3127,.4567,1.5586,1.0813v.525h0v.0002h0v.0002h0Z" fill="none" stroke="#fff" stroke-miterlimit="10" stroke-width="1.3514"/><path d="M17.2439,3.4435c-1.3689-.03-2.1505,.57-2.6296,1.5277-.2326,.465-.2533,.4592-.8387,.3827-2.8217-.3685-5.6404-.3638-8.4537,.0552-.2387,.0356-.3766-.0051-.4703-.1905-.1069-.2117-.2368-.4158-.3595-.6221-.4231-.7111-1.1161-1.1037-2.0825-1.1407-.2908-.0112-.3634-.0817-.3217-.3151,.2621-1.4655,1.5811-2.4439,3.3966-2.4535,2.833-.0148,5.6664-.0175,8.4994,.0043,1.769,.0136,3.2253,1.1902,3.2736,2.5849,.0015,.0432-.0067,.0866-.0134,.1671h-.0002Z" fill="none" stroke="#fff" stroke-miterlimit="10" stroke-width="1.3514"/><path d="M2.3014,10.1721l1.696,.2391c-.0096,.2145,.0146,.4572-.0387,.6815-.0814,.3424-.4838,.4554-1.2056,.3639-.2936-.0373-.4342-.2381-.4486-.5184-.014-.2715-.0031-.5443-.0031-.7661h0Z" fill="none" stroke="#fff" stroke-miterlimit="10" stroke-width="1.3514"/><path d="M15.3577,10.4096l1.6849-.2339c-.0492,.3622,.2352,.9087-.2307,1.1569-.3173,.169-.7963,.1053-1.1863,.0421-.2561-.0415-.3181-.4046-.268-.9652h0Z" fill="none" stroke="#fff" stroke-miterlimit="10" stroke-width="1.3514"/></g><g><path d="M18.6757,5.7493c-.2203,.4082-.5149,.7563-1.046,.9388-.0789,.0271-.1385,.1497-.1534,.2344-.0871,.4972-.1644,.9957-.2335,1.4947-.1107,.8-.678,1.2568-1.6719,1.3043-.5332,.0254-1.069,.0193-1.6036,.0192-3.2619-.0009-6.5237,.0056-9.7853-.0177-.4496-.0031-.9146-.1203-1.3416-.2517-.4435-.1364-.6596-.4522-.7087-.8464-.0634-.5107-.1552-1.0191-.2249-1.5294-.031-.2271-.1061-.388-.3969-.5072-.6457-.2649-.9355-.8259-.8026-1.411,.1166-.5134,.676-.9533,1.3045-1.0261,.7389-.0855,1.3957,.1918,1.7149,.7403,.286,.4916,.5548,.9898,.8414,1.5034,3.4047-.7938,6.7907-.8239,10.1986-.001,.2342-.4202,.477-.8201,.6822-1.2323,.3087-.6204,.7841-1.0453,1.6681-1.0188,.8598,.0257,1.3127,.4567,1.5586,1.0813v.525h0v.0002h0v.0002h0Z" fill="#747474"/><path d="M17.2439,3.4435c-1.3689-.03-2.1505,.57-2.6296,1.5277-.2326,.465-.2533,.4592-.8387,.3827-2.8217-.3685-5.6404-.3638-8.4537,.0552-.2387,.0356-.3766-.0051-.4703-.1905-.1069-.2117-.2368-.4158-.3595-.6221-.4231-.7111-1.1161-1.1037-2.0825-1.1407-.2908-.0112-.3634-.0817-.3217-.3151,.2621-1.4655,1.5811-2.4439,3.3966-2.4535,2.833-.0148,5.6664-.0175,8.4994,.0043,1.769,.0136,3.2253,1.1902,3.2736,2.5849,.0015,.0432-.0067,.0866-.0134,.1671h-.0002Z" fill="#747474"/><path d="M2.3014,10.1721l1.696,.2391c-.0096,.2145,.0146,.4572-.0387,.6815-.0814,.3424-.4838,.4554-1.2056,.3639-.2936-.0373-.4342-.2381-.4486-.5184-.014-.2715-.0031-.5443-.0031-.7661h0Z" fill="#747474"/><path d="M15.3577,10.4096l1.6849-.2339c-.0492,.3622,.2352,.9087-.2307,1.1569-.3173,.169-.7963,.1053-1.1863,.0421-.2561-.0415-.3181-.4046-.268-.9652h0Z" fill="#747474"/></g></g></svg>