<?xml version="1.0" encoding="UTF-8"?><svg id="Layer_1" xmlns="http://www.w3.org/2000/svg" viewBox="0 0 28.6387 17.9999"><g opacity=".3"><path d="M27.6387,8.5085c-.326,.6042-.762,1.1192-1.548,1.3893-.1168,.0401-.205,.2215-.2269,.3469-.1289,.7358-.2433,1.4735-.3455,2.2121-.1638,1.184-1.0034,1.8601-2.4744,1.9302-.7891,.0376-1.5821,.0286-2.3733,.0284-4.8273-.0013-9.6547,.0082-14.4816-.0262-.6654-.0047-1.3535-.1781-1.9855-.3725-.6564-.2019-.9762-.6691-1.0487-1.2525-.0939-.7558-.2297-1.5081-.3328-2.2633-.0459-.336-.1571-.5742-.5874-.7507-.9556-.392-1.3845-1.2223-1.1878-2.0882,.1726-.7597,1.0004-1.4108,1.9306-1.5185,1.0935-.1266,2.0656,.2839,2.5379,1.0956,.4233,.7275,.8211,1.4649,1.2452,2.225,5.0387-1.1747,10.0498-1.2194,15.0932-.0014,.3466-.6219,.7059-1.2136,1.0096-1.8237,.4568-.9181,1.1604-1.5469,2.4688-1.5078,1.2724,.0381,1.9427,.6759,2.3066,1.6002v.7769h0v.0002Z" fill="none" stroke="#fff" stroke-miterlimit="10" stroke-width="2"/><path d="M25.5197,5.0961c-2.0259-.0444-3.1825,.8435-3.8917,2.261-.3443,.6882-.3748,.6795-1.2412,.5663-4.1759-.5454-8.3474-.5384-12.5108,.0817-.3532,.0526-.5574-.0076-.6961-.282-.1583-.3133-.3504-.6153-.532-.9206-.6261-1.0524-1.6517-1.6334-3.082-1.6881-.4304-.0165-.5378-.1209-.476-.4663,.3879-2.1688,2.3399-3.6169,5.0267-3.631,4.1927-.022,8.3859-.0258,12.5785,.0064,2.6181,.0201,4.7733,1.7615,4.8446,3.8254,.0022,.0639-.0099,.1281-.0199,.2473h-.0001Z" fill="none" stroke="#fff" stroke-miterlimit="10" stroke-width="2"/><path d="M3.4059,15.0538l2.5099,.3539c-.0142,.3174,.0216,.6766-.0573,1.0086-.1204,.5068-.716,.674-1.7842,.5385-.4345-.0551-.6425-.3524-.6639-.7672-.0207-.4018-.0045-.8056-.0045-1.1338h0Z" fill="none" stroke="#fff" stroke-miterlimit="10" stroke-width="2"/><path d="M22.7283,15.4053l2.4935-.3462c-.0728,.536,.348,1.3448-.3414,1.7121-.4696,.2502-1.1785,.1559-1.7556,.0624-.3791-.0614-.4709-.5988-.3966-1.4284h.0001Z" fill="none" stroke="#fff" stroke-miterlimit="10" stroke-width="2"/></g><g><path d="M27.6387,8.5085c-.326,.6042-.762,1.1192-1.548,1.3893-.1168,.0401-.205,.2215-.2269,.3469-.1289,.7358-.2433,1.4735-.3455,2.2121-.1638,1.184-1.0034,1.8601-2.4744,1.9302-.7891,.0376-1.5821,.0286-2.3733,.0284-4.8273-.0013-9.6547,.0082-14.4816-.0262-.6654-.0047-1.3535-.1781-1.9855-.3725-.6564-.2019-.9762-.6691-1.0487-1.2525-.0939-.7558-.2297-1.5081-.3328-2.2633-.0459-.336-.1571-.5742-.5874-.7507-.9556-.392-1.3845-1.2223-1.1878-2.0882,.1726-.7597,1.0004-1.4108,1.9306-1.5185,1.0935-.1266,2.0656,.2839,2.5379,1.0956,.4233,.7275,.8211,1.4649,1.2452,2.225,5.0387-1.1747,10.0498-1.2194,15.0932-.0014,.3466-.6219,.7059-1.2136,1.0096-1.8237,.4568-.9181,1.1604-1.5469,2.4688-1.5078,1.2724,.0381,1.9427,.6759,2.3066,1.6002v.7769h0v.0002Z" fill="#747474"/><path d="M25.5197,5.0961c-2.0259-.0444-3.1825,.8435-3.8917,2.261-.3443,.6882-.3748,.6795-1.2412,.5663-4.1759-.5454-8.3474-.5384-12.5108,.0817-.3532,.0526-.5574-.0076-.6961-.282-.1583-.3133-.3504-.6153-.532-.9206-.6261-1.0524-1.6517-1.6334-3.082-1.6881-.4304-.0165-.5378-.1209-.476-.4663,.3879-2.1688,2.3399-3.6169,5.0267-3.631,4.1927-.022,8.3859-.0258,12.5785,.0064,2.6181,.0201,4.7733,1.7615,4.8446,3.8254,.0022,.0639-.0099,.1281-.0199,.2473h-.0001Z" fill="#747474"/><path d="M3.4059,15.0538l2.5099,.3539c-.0142,.3174,.0216,.6766-.0573,1.0086-.1204,.5068-.716,.674-1.7842,.5385-.4345-.0551-.6425-.3524-.6639-.7672-.0207-.4018-.0045-.8056-.0045-1.1338h0Z" fill="#747474"/><path d="M22.7283,15.4053l2.4935-.3462c-.0728,.536,.348,1.3448-.3414,1.7121-.4696,.2502-1.1785,.1559-1.7556,.0624-.3791-.0614-.4709-.5988-.3966-1.4284h.0001Z" fill="#747474"/></g></svg>