<?xml version="1.0" encoding="UTF-8"?><svg id="Layer_1" xmlns="http://www.w3.org/2000/svg" viewBox="0 0 24.2508 41.2633"><g opacity=".3"><path d="M20.7508,34.1373c-.2448,.4536-.5721,.8403-1.1622,1.0431-.0877,.0301-.1539,.1663-.1704,.2604-.0968,.5524-.1827,1.1063-.2594,1.6608-.123,.8889-.7533,1.3965-1.8577,1.4492-.5924,.0282-1.1878,.0215-1.7818,.0213-3.6243-.001-7.2486,.0062-10.8726-.0197-.4996-.0035-1.0162-.1337-1.4907-.2797-.4928-.1516-.7329-.5024-.7874-.9404-.0705-.5674-.1725-1.1323-.2499-1.6993-.0345-.2523-.1179-.4311-.441-.5636-.7175-.2943-1.0395-.9177-.8918-1.5678,.1296-.5704,.7511-1.0592,1.4495-1.1401,.821-.095,1.5508,.2131,1.9054,.8226,.3178,.5462,.6165,1.0998,.9349,1.6705,3.783-.882,7.5453-.9155,11.3318-.0011,.2602-.4669,.53-.9112,.758-1.3692,.343-.6893,.8712-1.1614,1.8535-1.132,.9553,.0286,1.4586,.5075,1.7318,1.2014v.5833h0v.0002Z" fill="none" stroke="#fff" stroke-miterlimit="10" stroke-width="1.5016"/><path d="M19.1599,31.5753c-1.521-.0333-2.3894,.6333-2.9218,1.6975-.2585,.5167-.2814,.5102-.9319,.4252-3.1352-.4095-6.2671-.4042-9.393,.0613-.2652,.0395-.4185-.0057-.5226-.2117-.1188-.2352-.2631-.462-.3994-.6912-.4701-.7901-1.2401-1.2263-2.3139-1.2674-.3231-.0124-.4038-.0908-.3574-.3501,.2912-1.6283,1.7568-2.7155,3.774-2.7261,3.1478-.0165,6.296-.0194,9.4438,.0048,1.9656,.0151,3.5837,1.3225,3.6373,2.8721,.0017,.048-.0074,.0962-.0149,.1857h0Z" fill="none" stroke="#fff" stroke-miterlimit="10" stroke-width="1.5016"/><path d="M2.5571,39.0515l1.8844,.2657c-.0107,.2383,.0162,.508-.043,.7572-.0904,.3805-.5376,.506-1.3396,.4043-.3262-.0414-.4824-.2646-.4984-.576-.0155-.3017-.0034-.6048-.0034-.8512h0Z" fill="none" stroke="#fff" stroke-miterlimit="10" stroke-width="1.5016"/><path d="M17.0641,39.3154l1.8721-.2599c-.0547,.4024,.2613,1.0097-.2563,1.2854-.3526,.1878-.8848,.117-1.3181,.0468-.2846-.0461-.3535-.4496-.2978-1.0724h0Z" fill="none" stroke="#fff" stroke-miterlimit="10" stroke-width="1.5016"/></g><g><path d="M20.7508,34.1373c-.2448,.4536-.5721,.8403-1.1622,1.0431-.0877,.0301-.1539,.1663-.1704,.2604-.0968,.5524-.1827,1.1063-.2594,1.6608-.123,.8889-.7533,1.3965-1.8577,1.4492-.5924,.0282-1.1878,.0215-1.7818,.0213-3.6243-.001-7.2486,.0062-10.8726-.0197-.4996-.0035-1.0162-.1337-1.4907-.2797-.4928-.1516-.7329-.5024-.7874-.9404-.0705-.5674-.1725-1.1323-.2499-1.6993-.0345-.2523-.1179-.4311-.441-.5636-.7175-.2943-1.0395-.9177-.8918-1.5678,.1296-.5704,.7511-1.0592,1.4495-1.1401,.821-.095,1.5508,.2131,1.9054,.8226,.3178,.5462,.6165,1.0998,.9349,1.6705,3.783-.882,7.5453-.9155,11.3318-.0011,.2602-.4669,.53-.9112,.758-1.3692,.343-.6893,.8712-1.1614,1.8535-1.132,.9553,.0286,1.4586,.5075,1.7318,1.2014v.5833h0v.0002Z" fill="#747474"/><path d="M19.1599,31.5753c-1.521-.0333-2.3894,.6333-2.9218,1.6975-.2585,.5167-.2814,.5102-.9319,.4252-3.1352-.4095-6.2671-.4042-9.393,.0613-.2652,.0395-.4185-.0057-.5226-.2117-.1188-.2352-.2631-.462-.3994-.6912-.4701-.7901-1.2401-1.2263-2.3139-1.2674-.3231-.0124-.4038-.0908-.3574-.3501,.2912-1.6283,1.7568-2.7155,3.774-2.7261,3.1478-.0165,6.296-.0194,9.4438,.0048,1.9656,.0151,3.5837,1.3225,3.6373,2.8721,.0017,.048-.0074,.0962-.0149,.1857h0Z" fill="#747474"/><path d="M2.5571,39.0515l1.8844,.2657c-.0107,.2383,.0162,.508-.043,.7572-.0904,.3805-.5376,.506-1.3396,.4043-.3262-.0414-.4824-.2646-.4984-.576-.0155-.3017-.0034-.6048-.0034-.8512h0Z" fill="#747474"/><path d="M17.0641,39.3154l1.8721-.2599c-.0547,.4024,.2613,1.0097-.2563,1.2854-.3526,.1878-.8848,.117-1.3181,.0468-.2846-.0461-.3535-.4496-.2978-1.0724h0Z" fill="#747474"/></g><g id="car_repair-18" transform="translate(-36 -812.36)"><g id="g9271" opacity=".3"><path id="path9273" d="M13.0008,3.82c-.8369,0-1.5,.6631-1.5,1.5,0,.0735,.0211,.148,.0312,.2188l-2.2812,1.5-2,3v5h2v-5l2.7188-3.625c.2713,.2559,.6288,.4375,1.0312,.4375,.8369,0,1.5312-.6944,1.5312-1.5312s-.6944-1.5-1.5312-1.5h0Zm2.25-2.7812l-1,1,7,5-9,2v2c-1,0-1,2,0,2h2q1-2,3-2t3,2h3V5.0388l-1.0132,1.2401L15.2508,1.0388Zm4.1562,12.922c0,1.1477-.9304,2.0781-2.0781,2.0781s-2.0781-.9304-2.0781-2.0781,.9304-2.0781,2.0781-2.0781,2.0781,.9304,2.0781,2.0781Z" fill="#747474" stroke="#fff" stroke-linejoin="round" stroke-width="2"/></g><g id="g7621"><path id="path4902" d="M13.0008,3.82c-.8369,0-1.5,.6631-1.5,1.5,0,.0735,.0211,.148,.0312,.2188l-2.2812,1.5-2,3v5h2v-5l2.7188-3.625c.2713,.2559,.6288,.4375,1.0312,.4375,.8369,0,1.5312-.6944,1.5312-1.5312s-.6944-1.5-1.5312-1.5h0Zm2.25-2.7812l-1,1,7,5-9,2v2c-1,0-1,2,0,2h2q1-2,3-2t3,2h3V5.0388l-1.0132,1.2401L15.2508,1.0388Zm4.1562,12.922c0,1.1477-.9304,2.0781-2.0781,2.0781s-2.0781-.9304-2.0781-2.0781,.9304-2.0781,2.0781-2.0781,2.0781,.9304,2.0781,2.0781Z" fill="#747474"/></g><path id="rect7646" d="M6.748,0H23.7535c.2746,0,.4972,.0148,.4972,.033V17.967c0,.0182-.2226,.033-.4972,.033H6.748c-.2746,0-.4972-.0148-.4972-.033V.033c0-.0182,.2226-.033,.4972-.033Z" fill="none"/></g></svg>