<?xml version="1.0" encoding="UTF-8"?><svg id="Layer_1" xmlns="http://www.w3.org/2000/svg" viewBox="0 0 18 15.712"><g opacity=".3"><g><path d="M8.9213,14.7098c-.6801,.0129-1.4074-.1342-2.1171-.3646-.8776-.285-1.7405-.2633-2.603,.0568-.5267,.1955-1.0665,.3369-1.6361,.3056-.1658-.0091-.3331-.0231-.4954-.0564-.6346-.1303-.9464-.4857-1.0324-1.129-.0883-.6604-.025-1.3069,.2701-1.8982,.3496-.7004,.2979-1.3833,.0667-2.0919-.1287-.3944-.2485-.7948-.3285-1.2011-.1167-.5926,.0069-1.1687,.1874-1.7369,.1166-.3671,.2164-.7404,.3045-1.1155,.0974-.4149,.0189-.8116-.1576-1.1971-.2529-.5524-.4089-1.129-.372-1.744,.0092-.154,.0223-.3093,.0531-.4601,.1315-.6451,.4872-.9576,1.1389-1.0436,.6097-.0804,1.1929,.0139,1.7745,.1941,.4241,.1314,.8549,.2559,1.292,.3264,.5123,.0826,1.0205-.0222,1.5101-.1833,1.4782-.4862,2.9547-.4921,4.432-.0026,.85,.2816,1.692,.267,2.534-.0409,.5491-.2008,1.1099-.3589,1.7048-.3223,.1599,.0098,.3213,.0226,.4777,.0546,.6426,.1315,.9536,.4895,1.0388,1.143,.0861,.661,.0203,1.3071-.2766,1.8972-.3469,.6893-.2875,1.3622-.0692,2.0586,.1259,.4017,.2534,.8058,.3355,1.2177,.118,.5923-.0054,1.1687-.1847,1.7373-.1176,.373-.2185,.752-.3079,1.1328-.0961,.4091-.016,.8002,.1568,1.1797,.2439,.5358,.4042,1.0934,.3748,1.6901-.0082,.1656-.0254,.3329-.0602,.4947-.1372,.6378-.5257,.9779-1.1734,1.0677-.5984,.083-1.1725-.0086-1.737-.2004-.5413-.184-1.0862-.3889-1.6661-.3303-.4577,.0462-.9148,.1418-1.3597,.2616-.6583,.1771-1.3194,.306-2.0748,.3003ZM13.6624,3.2939H4.3434c-.5785,0-1.0475,.469-1.0475,1.0475v7.0297c0,.5785,.469,1.0475,1.0475,1.0475H13.6624c.5785,0,1.0475-.469,1.0475-1.0475V4.3415c0-.5785-.469-1.0475-1.0475-1.0475Z" fill="none" stroke="#fff" stroke-miterlimit="10" stroke-width="2"/><path d="M4.3625,11.3376H13.6938c.0311,0,.0563-.0226,.0563-.0505v-.4582c0-.0302-.0294-.0537-.0628-.0502-.2281,.0239-.4544,.0513-.6819,.0678-1.1718,.0847-2.2415-.1626-3.2367-.6467-.6727-.3272-1.2636-.7367-1.8368-1.165-.5321-.3975-1.0614-.7978-1.6079-1.1823-.3132-.2204-.6687-.396-1.0897-.463-.2894-.0461-.5675-.0171-.8278,.0925-.046,.0194-.097,.075-.0971,.1139-.0048,1.2315-.0037,2.4631-.0029,3.6946v.0004c.0003,.0264,.0267,.0466,.0562,.0466Z" fill="none" stroke="#fff" stroke-miterlimit="10" stroke-width="2"/><path d="M9.2935,9.2601c1.3125,.8843,2.7436,1.3402,4.4559,.9902,0-.0751,0-.1484,0-.2217,0-.449-.0035-.898,.003-1.3468,.0013-.0887-.036-.131-.1262-.1708-.7472-.3304-1.5081-.3627-2.2777-.0667-.4901,.1885-.9703,.3946-1.4565,.59-.1905,.0766-.3854,.1458-.5984,.2259Z" fill="none" stroke="#fff" stroke-miterlimit="10" stroke-width="2"/></g><circle cx="8.58" cy="6.1515" r="1.4704" fill="none" stroke="#fff" stroke-miterlimit="10" stroke-width="2"/></g><g><g><path d="M8.9213,14.7098c-.6801,.0129-1.4074-.1342-2.1171-.3646-.8776-.285-1.7405-.2633-2.603,.0568-.5267,.1955-1.0665,.3369-1.6361,.3056-.1658-.0091-.3331-.0231-.4954-.0564-.6346-.1303-.9464-.4857-1.0324-1.129-.0883-.6604-.025-1.3069,.2701-1.8982,.3496-.7004,.2979-1.3833,.0667-2.0919-.1287-.3944-.2485-.7948-.3285-1.2011-.1167-.5926,.0069-1.1687,.1874-1.7369,.1166-.3671,.2164-.7404,.3045-1.1155,.0974-.4149,.0189-.8116-.1576-1.1971-.2529-.5524-.4089-1.129-.372-1.744,.0092-.154,.0223-.3093,.0531-.4601,.1315-.6451,.4872-.9576,1.1389-1.0436,.6097-.0804,1.1929,.0139,1.7745,.1941,.4241,.1314,.8549,.2559,1.292,.3264,.5123,.0826,1.0205-.0222,1.5101-.1833,1.4782-.4862,2.9547-.4921,4.432-.0026,.85,.2816,1.692,.267,2.534-.0409,.5491-.2008,1.1099-.3589,1.7048-.3223,.1599,.0098,.3213,.0226,.4777,.0546,.6426,.1315,.9536,.4895,1.0388,1.143,.0861,.661,.0203,1.3071-.2766,1.8972-.3469,.6893-.2875,1.3622-.0692,2.0586,.1259,.4017,.2534,.8058,.3355,1.2177,.118,.5923-.0054,1.1687-.1847,1.7373-.1176,.373-.2185,.752-.3079,1.1328-.0961,.4091-.016,.8002,.1568,1.1797,.2439,.5358,.4042,1.0934,.3748,1.6901-.0082,.1656-.0254,.3329-.0602,.4947-.1372,.6378-.5257,.9779-1.1734,1.0677-.5984,.083-1.1725-.0086-1.737-.2004-.5413-.184-1.0862-.3889-1.6661-.3303-.4577,.0462-.9148,.1418-1.3597,.2616-.6583,.1771-1.3194,.306-2.0748,.3003ZM13.6624,3.2939H4.3434c-.5785,0-1.0475,.469-1.0475,1.0475v7.0297c0,.5785,.469,1.0475,1.0475,1.0475H13.6624c.5785,0,1.0475-.469,1.0475-1.0475V4.3415c0-.5785-.469-1.0475-1.0475-1.0475Z" fill="#747474"/><path d="M4.3625,11.3376H13.6938c.0311,0,.0563-.0226,.0563-.0505v-.4582c0-.0302-.0294-.0537-.0628-.0502-.2281,.0239-.4544,.0513-.6819,.0678-1.1718,.0847-2.2415-.1626-3.2367-.6467-.6727-.3272-1.2636-.7367-1.8368-1.165-.5321-.3975-1.0614-.7978-1.6079-1.1823-.3132-.2204-.6687-.396-1.0897-.463-.2894-.0461-.5675-.0171-.8278,.0925-.046,.0194-.097,.075-.0971,.1139-.0048,1.2315-.0037,2.4631-.0029,3.6946v.0004c.0003,.0264,.0267,.0466,.0562,.0466Z" fill="#747474"/><path d="M9.2935,9.2601c1.3125,.8843,2.7436,1.3402,4.4559,.9902,0-.0751,0-.1484,0-.2217,0-.449-.0035-.898,.003-1.3468,.0013-.0887-.036-.131-.1262-.1708-.7472-.3304-1.5081-.3627-2.2777-.0667-.4901,.1885-.9703,.3946-1.4565,.59-.1905,.0766-.3854,.1458-.5984,.2259Z" fill="#747474"/></g><circle cx="8.58" cy="6.1515" r="1.4704" fill="#747474"/></g></svg>