<?xml version="1.0" encoding="UTF-8"?><svg id="Layer_1" xmlns="http://www.w3.org/2000/svg" viewBox="0 0 17.1138 18.6449"><g opacity=".3"><g><path d="M8.4284,1.6449c.9673,1.1788,1.815,2.3477,2.2969,3.7383,.2686,.7749,.4004,1.5647,.1848,2.3802-.3495,1.3217-1.5931,1.9407-2.7273,1.805-1.5742-.1883-2.4745-1.413-2.2753-3.0286,.1367-1.1088,.5937-2.0925,1.1893-3.014,.41-.6344,.8718-1.2353,1.3315-1.8809Z" fill="none" stroke="#fff" stroke-miterlimit="10" stroke-width="2"/><path d="M6.0174,9.7412c-.4739-.1738-.9623-.3162-1.4186-.528-.9633-.4472-1.4495-1.2474-1.592-2.2819-.1272-.9227-.0487-1.8402,.0574-2.7563,.0685-.591,.1626-1.179,.2458-1.7682,.0078-.055,.0198-.1094,.0333-.183,.8972,.1431,1.7013,.4706,2.4329,1.0223-.0649,.1106-.1241,.2117-.1834,.3127-.4982,.8478-.9044,1.7321-1.0579,2.7138-.1468,.9387-.0356,1.825,.5521,2.6089,.2564,.342,.5876,.5957,.9659,.7928l-.0354,.0669Z" fill="none" stroke="#fff" stroke-miterlimit="10" stroke-width="2"/><path d="M10.9918,9.6079c.0749-.0514,.1515-.1003,.2243-.1545,.9649-.7173,1.2884-1.7059,1.187-2.8612-.1016-1.1575-.5822-2.18-1.169-3.1607-.048-.0803-.0975-.1598-.1579-.2586,.7008-.5089,1.4794-.8002,2.3437-.9561,.0514,.3465,.1023,.6783,.1497,1.0105,.1382,.9683,.2735,1.9383,.2389,2.9189-.0145,.4107-.0628,.8261-.1515,1.2271-.1757,.7949-.6404,1.3868-1.3605,1.7769-.4095,.2219-.8443,.3687-1.3049,.4577Z" fill="none" stroke="#fff" stroke-miterlimit="10" stroke-width="2"/><path d="M8.8704,14.5262v-4.3201h-.846v4.3065c-1.1301-1.9562-3.6393-3.1938-7.0206-2.9189,0,.0536-.0094,.1,.0015,.1431,.0966,.3812,.1699,.768,.3009,1.1415,.388,1.1053,1.0361,2.0958,2.0932,2.8835,1.3214,.9846,2.9254,1.4379,4.625,1.7092v.1739h.846v-.1629c.1021-.0161,.2037-.0336,.3043-.0541,.5034-.1026,1.0105-.2014,1.4998-.3393,1.4055-.3959,2.6412-1.0018,3.5591-1.9744,.8095-.8577,1.2977-1.8306,1.5572-2.8825,.0519-.2105,.0847-.4241,.1264-.6372-3.3802-.2775-5.9119,.9599-7.0469,2.9318Z" fill="none" stroke="#fff" stroke-miterlimit="10" stroke-width="2"/></g></g><g><path d="M8.4284,1.6449c.9673,1.1788,1.815,2.3477,2.2969,3.7383,.2686,.7749,.4004,1.5647,.1848,2.3802-.3495,1.3217-1.5931,1.9407-2.7273,1.805-1.5742-.1883-2.4745-1.413-2.2753-3.0286,.1367-1.1088,.5937-2.0925,1.1893-3.014,.41-.6344,.8718-1.2353,1.3315-1.8809Z" fill="#747474"/><path d="M6.0174,9.7412c-.4739-.1738-.9623-.3162-1.4186-.528-.9633-.4472-1.4495-1.2474-1.592-2.2819-.1272-.9227-.0487-1.8402,.0574-2.7563,.0685-.591,.1626-1.179,.2458-1.7682,.0078-.055,.0198-.1094,.0333-.183,.8972,.1431,1.7013,.4706,2.4329,1.0223-.0649,.1106-.1241,.2117-.1834,.3127-.4982,.8478-.9044,1.7321-1.0579,2.7138-.1468,.9387-.0356,1.825,.5521,2.6089,.2564,.342,.5876,.5957,.9659,.7928l-.0354,.0669Z" fill="#747474"/><path d="M10.9918,9.6079c.0749-.0514,.1515-.1003,.2243-.1545,.9649-.7173,1.2884-1.7059,1.187-2.8612-.1016-1.1575-.5822-2.18-1.169-3.1607-.048-.0803-.0975-.1598-.1579-.2586,.7008-.5089,1.4794-.8002,2.3437-.9561,.0514,.3465,.1023,.6783,.1497,1.0105,.1382,.9683,.2735,1.9383,.2389,2.9189-.0145,.4107-.0628,.8261-.1515,1.2271-.1757,.7949-.6404,1.3868-1.3605,1.7769-.4095,.2219-.8443,.3687-1.3049,.4577Z" fill="#747474"/><path d="M8.8704,14.5262v-4.3201h-.846v4.3065c-1.1301-1.9562-3.6393-3.1938-7.0206-2.9189,0,.0536-.0094,.1,.0015,.1431,.0966,.3812,.1699,.768,.3009,1.1415,.388,1.1053,1.0361,2.0958,2.0932,2.8835,1.3214,.9846,2.9254,1.4379,4.625,1.7092v.1739h.846v-.1629c.1021-.0161,.2037-.0336,.3043-.0541,.5034-.1026,1.0105-.2014,1.4998-.3393,1.4055-.3959,2.6412-1.0018,3.5591-1.9744,.8095-.8577,1.2977-1.8306,1.5572-2.8825,.0519-.2105,.0847-.4241,.1264-.6372-3.3802-.2775-5.9119,.9599-7.0469,2.9318Z" fill="#747474"/></g></svg>