<?xml version="1.0" encoding="UTF-8"?><svg id="Layer_2" xmlns="http://www.w3.org/2000/svg" viewBox="0 0 17.4867 17.4867"><g id="svg6"><g id="generator-18"><path id="path6583" d="m8.7434,1c-.2673,0-.5348.0079-.7951.0346l-.5877,1.6248c-.6948.1582-1.3507.4265-1.9359.7951l-1.5555-.7259c-.4096.3338-.807.7311-1.1407,1.1407l.7259,1.5555c-.3686.5852-.6369,1.2412-.7951,1.9359l-1.6248.5877c-.0264.2603-.0346.5278-.0346.7951s.0077.5348.0345.7951l1.6248.5877c.1582.6948.4265,1.3507.7951,1.9359l-.7259,1.5555c.3338.4096.7311.807,1.1407,1.1407l1.5555-.7259c.5852.3686,1.2412.6369,1.9359.7951l.5877,1.6248c.2603.0264.5278.0346.7951.0346s.5348-.0077.7951-.0346l.5877-1.6248c.6948-.1582,1.3507-.4265,1.9359-.7951l1.5555.7259c.4096-.3338.807-.7311,1.1407-1.1407l-.7259-1.5555c.3686-.5852.6369-1.2412.7951-1.9359l1.6248-.5877c.0264-.2603.0346-.5278.0346-.7951s-.0077-.5348-.0345-.7951l-1.6248-.5877c-.1582-.6948-.4265-1.3507-.7951-1.9359l.7259-1.5555c-.3338-.4096-.7311-.807-1.1407-1.1407l-1.5555.7259c-.5852-.3686-1.2412-.6368-1.9359-.7951l-.5877-1.6248c-.2603-.0264-.5278-.0346-.7951-.0346Zm0,2.7655c2.7493,0,4.9779,2.2287,4.9779,4.9779s-2.2287,4.9779-4.9779,4.9779-4.9779-2.2287-4.9779-4.9779,2.2287-4.9779,4.9779-4.9779Zm-1.1062,1.6593l-2.2124,3.3186h3.3186l-1.1062,4.4248,4.4248-5.531h-3.3186l1.1062-2.2124h-2.2124Z" fill="none" isolation="isolate" opacity=".3" stroke="#fff" stroke-linejoin="round" stroke-width="2"/><path id="path6574" d="m8.7434,1c-.2673,0-.5348.0079-.7951.0346l-.5877,1.6248c-.6948.1582-1.3507.4265-1.9359.7951l-1.5555-.7259c-.4096.3338-.807.7311-1.1407,1.1407l.7259,1.5555c-.3686.5852-.6369,1.2412-.7951,1.9359l-1.6248.5877c-.0264.2603-.0346.5278-.0346.7951s.0077.5348.0345.7951l1.6248.5877c.1582.6948.4265,1.3507.7951,1.9359l-.7259,1.5555c.3338.4096.7311.807,1.1407,1.1407l1.5555-.7259c.5852.3686,1.2412.6369,1.9359.7951l.5877,1.6248c.2603.0264.5278.0346.7951.0346s.5348-.0077.7951-.0346l.5877-1.6248c.6948-.1582,1.3507-.4265,1.9359-.7951l1.5555.7259c.4096-.3338.807-.7311,1.1407-1.1407l-.7259-1.5555c.3686-.5852.6369-1.2412.7951-1.9359l1.6248-.5877c.0264-.2603.0346-.5278.0346-.7951s-.0077-.5348-.0345-.7951l-1.6248-.5877c-.1582-.6948-.4265-1.3507-.7951-1.9359l.7259-1.5555c-.3338-.4096-.7311-.807-1.1407-1.1407l-1.5555.7259c-.5852-.3686-1.2412-.6368-1.9359-.7951l-.5877-1.6248c-.2603-.0264-.5278-.0346-.7951-.0346Zm0,2.7655c2.7493,0,4.9779,2.2287,4.9779,4.9779s-2.2287,4.9779-4.9779,4.9779-4.9779-2.2287-4.9779-4.9779,2.2287-4.9779,4.9779-4.9779Zm-1.1062,1.6593l-2.2124,3.3186h3.3186l-1.1062,4.4248,4.4248-5.531h-3.3186l1.1062-2.2124h-2.2124Z" fill="#747474"/></g></g></svg>