<?xml version="1.0" encoding="UTF-8"?><svg id="Layer_2" xmlns="http://www.w3.org/2000/svg" viewBox="0 0 13.8437 17.7188"><g id="svg6"><path id="path2" d="m12.8437,1c-1.9182.6394-3.2862,1.8917-5.0937,3.6875-.0402-.0032-.084,0-.125,0-.3509,0-.682.1107-.9375.3125-1.517-.3895-2.8187-.6618-4.0625-.6562-.5345.0024-1.0773.0442-1.625.1562,1.438,1.2751,3.1056,1.8431,5.375,2.4688.1686.2635.3979.4713.6875.5938.003.0097-.003.0216,0,.0312v7.125l-1,2h3l-1-2v-4.0938c.3819.8902.8509,1.6743,1.5,2.4062.4009-1.9591.0134-3.7351-.625-6.1562.1042-.2055.1875-.4403.1875-.6875,0-.0205.0008-.0422,0-.0625,1.8132-1.8237,3.0756-3.1955,3.7187-5.125Z" fill="none" isolation="isolate" opacity=".3" stroke="#fff" stroke-linejoin="round" stroke-width="2"/><path id="path4" d="m12.8437,1c-1.9182.6394-3.2862,1.8917-5.0937,3.6875-.0402-.0032-.084,0-.125,0-.3509,0-.682.1107-.9375.3125-1.517-.3895-2.8187-.6618-4.0625-.6562-.5345.0024-1.0773.0442-1.625.1562,1.438,1.2751,3.1056,1.8431,5.375,2.4688.1686.2635.3979.4713.6875.5938.003.0097-.003.0216,0,.0312v7.125l-1,2h3l-1-2v-4.0938c.3819.8902.8509,1.6743,1.5,2.4062.4009-1.9591.0134-3.7351-.625-6.1562.1042-.2055.1875-.4403.1875-.6875,0-.0205.0008-.0422,0-.0625,1.8132-1.8237,3.0756-3.1955,3.7187-5.125Z" fill="#747474"/></g></svg>