<?xml version="1.0" encoding="UTF-8"?><svg id="Layer_2" xmlns="http://www.w3.org/2000/svg" viewBox="0 0 17.6659 16.6172"><g id="svg6"><g id="generator_nuclear-18"><path id="path6513" d="m4.9165,1.0001c-2.4235,1.3992-3.9165,3.9854-3.9165,6.7839h5.0355c0-1.0354.5626-1.9291,1.3987-2.4128L4.9165,1.0001Zm7.833,0l-2.5177,4.371c.8362.4837,1.3987,1.3774,1.3987,2.4128h5.0355c0-2.7985-1.493-5.3847-3.9165-6.7839h0Zm-3.9165,5.1055c-.927,0-1.6785.7515-1.6785,1.6785s.7515,1.6785,1.6785,1.6785,1.6785-.7515,1.6785-1.6785-.7515-1.6785-1.6785-1.6785Zm-1.3987,4.0913l-2.5177,4.371c2.4235,1.3992,5.4094,1.3992,7.833,0l-2.5177-4.371c-.4115.238-.8892.3847-1.3987.3847s-.9873-.1466-1.3987-.3847Z" fill="none" isolation="isolate" opacity=".3" stroke="#fff" stroke-linejoin="round" stroke-width="2"/><path id="path6491" d="m4.9165,1.0001c-2.4235,1.3992-3.9165,3.9854-3.9165,6.7839h5.0355c0-1.0354.5626-1.9291,1.3987-2.4128L4.9165,1.0001Zm7.833,0l-2.5177,4.371c.8362.4837,1.3987,1.3774,1.3987,2.4128h5.0355c0-2.7985-1.493-5.3847-3.9165-6.7839h0Zm-3.9165,5.1055c-.927,0-1.6785.7515-1.6785,1.6785s.7515,1.6785,1.6785,1.6785,1.6785-.7515,1.6785-1.6785-.7515-1.6785-1.6785-1.6785Zm-1.3987,4.0913l-2.5177,4.371c2.4235,1.3992,5.4094,1.3992,7.833,0l-2.5177-4.371c-.4115.238-.8892.3847-1.3987.3847s-.9873-.1466-1.3987-.3847Z" fill="#747474"/></g></g></svg>