<?xml version="1.0" encoding="UTF-8"?><svg id="Layer_2" xmlns="http://www.w3.org/2000/svg" viewBox="0 0 16 18"><g id="svg8"><path id="path2" d="m7.5,1v5.5s-3.5.5-3.5,2.5c0,0-1,0-1,1h10c0-1-1-1-1-1,0-2-3.5-2.5-3.5-2.5v-1.5h4.5l-1.5-1.5,1.5-1.5h-4.5v-1h-1ZM1,10v1.0312h1v4.9688h-1v1h14v-1h-1v-5h1v-1H1Zm3,1h1v5h-1v-5Zm3,0h2v4h-2v-4Zm4,0h1v5h-1v-5Z" fill="none" isolation="isolate" opacity=".3" stroke="#fff" stroke-linejoin="round" stroke-width="2"/><path id="path4" d="m7.5,1v5.5s-3.5.5-3.5,2.5c0,0-1,0-1,1h10c0-1-1-1-1-1,0-2-3.5-2.5-3.5-2.5v-1.5h4.5l-1.5-1.5,1.5-1.5h-4.5v-1h-1ZM1,11v1.0312h1v3.9688h-1v1h5v-1h4v1h5v-1h-1v-4h1v-1H1Zm3,1h1v4h-1v-4Zm3,0h2v3h-2v-3Zm4,0h1v4h-1v-4Z" fill="none" isolation="isolate" opacity=".4" stroke="#fff" stroke-linejoin="round" stroke-width="2"/><path id="path6" d="m7.5,1v5.5s-3.5.5-3.5,2.5c0,0-1,0-1,1h10c0-1-1-1-1-1,0-2-3.5-2.5-3.5-2.5v-1.5h4.5l-1.5-1.5,1.5-1.5h-4.5v-1h-1ZM1,10v1.0312h1v4.9688h-1v1h14v-1h-1v-5h1v-1H1Zm3,1h1v5h-1v-5Zm3,0h2v4h-2v-4Zm4,0h1v5h-1v-5Z" fill="#747474"/></g></svg>