<?xml version="1.0" encoding="UTF-8"?><svg id="Layer_2" xmlns="http://www.w3.org/2000/svg" viewBox="0 0 17.9999 16"><g id="svg6"><path id="path2" d="m7.6467,2.5924s2.5668,2.9751,5.3116.2682c.1652.6895,1.1436,2.1323,1.1436,2.1323,0,0-4.6762,2.6814-6.4552-2.4005h0Zm-5.2464,2.3242c.4073.7102.8147,1.4205,1.222,2.1307.6734-.8486,1.6988-1.5575,2.8047-1.5313.6452.0151,1.2817.7469,1.126,1.349-.2754,1.0649-1.5629.9304-2.4574,1.0715,0,0,.2398,1.1648.3597,1.7472,1.4981-.2902,2.4048.9875,2.0386,1.8245-.6939,1.5859-4.7751,1.4392-6.4939-1.5086.003,1.6664.6392,3.4661,2.121,4.3573,1.538.9189,3.7631.9006,5.0452-.3638.9001-.8878.9543-2.3544.7215-3.5691.5952.6335,1.6856,1.2071,2.4229.5706,1.0341-.8928,1.4252-2.726,2.8165-3.0089,2.6311-.535,2.2455,3.6616,1.0966,4.5746-1.5171,1.2055-4.2683.2968-4.9882-1.0347.21,2.3294,2.4332,3.6854,4.3707,2.9741,2.5233-1.1618,2.7869-4.322,2.0019-6.4908-.7782-1.5985-2.4277-2.4006-4.0081-1.9008-1.2207.3861-1.6823,1.7167-2.4032,2.6703-.3765.4617-.7395,1.1042-1.4569.8835-.9778-.3008-.6741-.8327-1.4342-1.076,1.415-1.0323,1.7503-3.0216.5436-4.0867-1.5861-1.4001-4.1234-.6964-5.449.4174h0Zm6.8135-2.6025l1.3077-1.3141,1.3214,1.3278-1.3078,1.3141-1.3213-1.3278Z" fill="#747474" isolation="isolate" opacity=".3" stroke="#fff" stroke-linejoin="round" stroke-width="2"/><path id="path4" d="m7.6484,2.6028s2.5668,2.9751,5.3116.2682c.1652.6895,1.1436,2.1323,1.1436,2.1323,0,0-4.6762,2.6814-6.4552-2.4005h0Zm-5.2464,2.3242c.4073.7102.8147,1.4205,1.222,2.1307.6734-.8486,1.6988-1.5575,2.8047-1.5313.6452.0151,1.2817.7469,1.126,1.349-.2754,1.0649-1.5629.9304-2.4574,1.0715,0,0,.2398,1.1648.3597,1.7472,1.4981-.2902,2.4048.9875,2.0386,1.8245-.6939,1.5859-4.7751,1.4392-6.4939-1.5086.003,1.6664.6392,3.4661,2.121,4.3573,1.538.9189,3.7631.9006,5.0452-.3638.9001-.8878.9543-2.3544.7215-3.5691.5952.6335,1.6856,1.2071,2.4229.5706,1.0341-.8928,1.4252-2.726,2.8165-3.0089,2.6311-.535,2.2455,3.6616,1.0966,4.5746-1.5171,1.2055-4.2683.2968-4.9882-1.0347.21,2.3294,2.4332,3.6854,4.3707,2.9741,2.5233-1.1618,2.7869-4.322,2.0019-6.4908-.7782-1.5985-2.4277-2.4006-4.0081-1.9008-1.2207.3861-1.6823,1.7167-2.4032,2.6703-.3765.4617-.7395,1.1042-1.4569.8835-.9778-.3008-.6741-.8327-1.4342-1.076,1.415-1.0323,1.7503-3.0216.5436-4.0867-1.5861-1.4001-4.1234-.6964-5.449.4174h0Zm6.8135-2.6025l1.3077-1.3141,1.3214,1.3278-1.3078,1.3141-1.3213-1.3278Z" fill="#747474"/></g></svg>