<?xml version="1.0" encoding="UTF-8"?><svg id="Layer_2" xmlns="http://www.w3.org/2000/svg" viewBox="0 0 11.9322 11.9322"><g id="svg5369"><path id="path846" d="m5.9661.7458C3.1154.7458.7458,3.0493.7458,5.9661s2.3697,5.2203,5.2203,5.2203,5.2203-2.3036,5.2203-5.2203S8.8168.7458,5.9661.7458Zm0,.7889c2.5277,0,4.5181,2.0177,4.5181,4.4315s-1.9904,4.4315-4.5181,4.4315S1.4481,8.3799,1.4481,5.9661,3.4384,1.5346,5.9661,1.5346Zm-1.4982.7192v2.2273h-2.2473v2.9698h2.2473v2.2273h2.9964v-2.2273h2.2473v-2.9698h-2.2473v-2.2273h-2.9964Z" fill="#747474" isolation="isolate" opacity=".3" stroke="#fff" stroke-width="1.4915"/><path id="hospital" d="m5.9661.7458C3.1154.7458.7458,3.0493.7458,5.9661s2.3697,5.2203,5.2203,5.2203,5.2203-2.3036,5.2203-5.2203S8.8168.7458,5.9661.7458Zm0,.7889c2.5277,0,4.5181,2.0177,4.5181,4.4315s-1.9904,4.4315-4.5181,4.4315S1.4481,8.3799,1.4481,5.9661,3.4384,1.5346,5.9661,1.5346Zm-1.4982.7192v2.2273h-2.2473v2.9698h2.2473v2.2273h2.9964v-2.2273h2.2473v-2.9698h-2.2473v-2.2273h-2.9964Z" fill="#525252"/></g></svg>