<?xml version="1.0" encoding="UTF-8"?><svg id="Layer_1" xmlns="http://www.w3.org/2000/svg" viewBox="0 0 18 17.5673"><g opacity=".3"><path d="M17,9.487c-.0342,.1034-.0573,.2123-.1046,.3094-.2246,.4611-.7851,.689-1.267,.5135-.0888-.0324-.1767-.088-.2447-.1539-.6792-.6582-1.3585-1.3164-2.0293-1.9831-1.4322-1.4234-2.8593-2.8519-4.2887-4.2782-.0187-.0186-.0388-.0358-.0873-.0803-.0295,.0431-.0521,.0902-.0871,.1251-1.8584,1.8527-3.7174,3.7047-5.5777,5.5555-.2101,.2091-.4307,.4076-.6415,.616-.2913,.2879-.6347,.3127-.9972,.1903-.3764-.1271-.6581-.5044-.6741-.9177-.0104-.2689,.0673-.481,.2455-.6675,.4915-.5144,.9747-1.0371,1.4774-1.5404,1.9968-1.9994,3.9995-3.9929,6.0014-5.9872,.0703-.0701,.2824,1.0011,.3603,.9385,.0297,0-.0683-1.1271-.0387-1.1271,.0812,.0674,.1674,.1298,.2428,.2032,.3357,.3268,.67,.655,1.0017,.9858,1.3016,1.2982,2.6044,2.5952,3.9019,3.8975,.7784,.7813,1.5498,1.5697,2.3198,2.3594,.1894,.1943,.3802,.3916,.4871,.6497v.3914Z" fill="none" stroke="#fff" stroke-miterlimit="10" stroke-width="2"/><path d="M9.029,4.6506c.1418,.1513,.2794,.3068,.426,.4533,1.904,1.9033,3.8092,3.8055,5.7151,5.7068,.0434,.0433,.0613,.0863,.0613,.1476-.0014,1.782-.0011,3.564-.001,5.346,0,.1393-.1207,.2629-.2569,.2629-3.564,0-7.1279,0-10.6919,0-.421,0-.8421,0-1.2631,0-.1226,0-.2461-.1277-.2461-.256-.0003-.6167-.0002-1.2335-.0001-1.8502,0-1.1653,.0005-2.3306-.0011-3.4958,0-.064,.0164-.1101,.0627-.1562,1.9694-1.9637,3.9378-3.9285,5.9053-5.8942,.0836-.0836,.1577-.1767,.2362-.2654l.0536,.0012Zm-2.6584,6.732c0-.0582,.0003-.1108,0-.1633-.0039-.593-.008-1.1859-.0119-1.7789-.001-.1597-.0704-.2613-.2193-.3193-.1674-.0653-.3917,.0728-.3917,.2423,0,2.2266,.0002,4.4532,.0006,6.6798,0,.0312,.0033,.0624,.005,.0934h.5868c.0082-.0798,.0215-.1533,.022-.2269,.0012-.1658-.0024-.3317-.0071-.4975-.0017-.0599,.0211-.0872,.0811-.0892,.077-.0025,.1538-.0123,.2307-.0127,1.0821-.0048,2.1642-.0091,3.2464-.0122,.5426-.0015,1.0851,.001,1.6277-.0018,.0714-.0004,.0904,.0224,.0897,.0912-.0016,.1452,.0067,.2904,.0092,.4357,.0017,.0997,.0003,.1994,.0003,.3089h.6148c0-.0392,0-.0746,0-.11,.0002-.7471,.0007-1.4943,.0007-2.2414,0-1.097-.0003-2.194-.0013-3.291,0-.0314-.001-.0681-.0165-.0932-.0789-.1276-.2367-.1929-.3683-.1582-.1331,.0351-.2198,.1524-.2249,.3163-.0076,.2429-.0105,.486-.0152,.729-.0006,.0315,0,.0631,0,.099H6.3707Zm3.3628-.202v.016c.2697,0,.5396,.0039,.8092-.0014,.1775-.0035,.3549-.0177,.5319-.0322,.0991-.0081,.1728-.0626,.2398-.1374,.1276-.1424,.1206-.3075,.1018-.4781-.0166-.1502-.0863-.2746-.2269-.3255-.1251-.0453-.2634-.0724-.3964-.0744-.5779-.0088-1.1559-.0077-1.7339-.0052-.2102,.0009-.4219,.0018-.63,.0272-.367,.0447-.5447,.4811-.3334,.7853,.1082,.1557,.2537,.2254,.4379,.2256,.4,.0005,.8,.0001,1.2,.0001Zm-1.86-.6421c.0031-.3555-.2889-.6549-.645-.656-.2993-.001-.6695,.2058-.6685,.6682,.0007,.343,.3029,.6424,.6596,.6436,.3636,.0012,.6507-.2867,.654-.6558Z" fill="none" stroke="#fff" stroke-miterlimit="10" stroke-width="2"/><path d="M11.6258,11.987v2.7086H6.3784v-2.7086h5.2474Zm-1.8677,2.5223v.0064c.4238-.0099,.8475-.0166,1.271-.0311,.1741-.006,.3692-.1614,.3952-.3303,.0536-.3473-.0553-.6621-.4835-.6812-.5059-.0225-1.0132-.0175-1.5199-.0186-.3022-.0006-.6045,.0056-.9065,.017-.2302,.0087-.4136,.1533-.4796,.3611-.0649,.2043,.0013,.4183,.1668,.5622,.1145,.0995,.2509,.1135,.3916,.1139,.3883,.0012,.7765,.0004,1.1648,.0004Zm-2.5345-1.3083c-.3795-.0008-.6468,.2649-.6474,.6436-.0007,.3965,.2585,.6655,.6423,.6665,.3606,.001,.6514-.2864,.6531-.6454,.0018-.3599-.2947-.664-.648-.6647Z" fill="none" stroke="#fff" stroke-miterlimit="10" stroke-width="2"/></g><g><path d="M17,9.487c-.0342,.1034-.0573,.2123-.1046,.3094-.2246,.4611-.7851,.689-1.267,.5135-.0888-.0324-.1767-.088-.2447-.1539-.6792-.6582-1.3585-1.3164-2.0293-1.9831-1.4322-1.4234-2.8593-2.8519-4.2887-4.2782-.0187-.0186-.0388-.0358-.0873-.0803-.0295,.0431-.0521,.0902-.0871,.1251-1.8584,1.8527-3.7174,3.7047-5.5777,5.5555-.2101,.2091-.4307,.4076-.6415,.616-.2913,.2879-.6347,.3127-.9972,.1903-.3764-.1271-.6581-.5044-.6741-.9177-.0104-.2689,.0673-.481,.2455-.6675,.4915-.5144,.9747-1.0371,1.4774-1.5404,1.9968-1.9994,3.9995-3.9929,6.0014-5.9872,.0703-.0701,.1548-.126,.2326-.1885h.089c.0812,.0674,.1674,.1298,.2428,.2032,.3357,.3268,.67,.655,1.0017,.9858,1.3016,1.2982,2.6044,2.5952,3.9019,3.8975,.7784,.7813,1.5498,1.5697,2.3198,2.3594,.1894,.1943,.3802,.3916,.4871,.6497v.3914Z" fill="#747474"/><path d="M9.029,4.6506c.1418,.1513,.2794,.3068,.426,.4533,1.904,1.9033,3.8092,3.8055,5.7151,5.7068,.0434,.0433,.0613,.0863,.0613,.1476-.0014,1.782-.0011,3.564-.001,5.346,0,.1393-.1207,.2629-.2569,.2629-3.564,0-7.1279,0-10.6919,0-.421,0-.8421,0-1.2631,0-.1226,0-.2461-.1277-.2461-.256-.0003-.6167-.0002-1.2335-.0001-1.8502,0-1.1653,.0005-2.3306-.0011-3.4958,0-.064,.0164-.1101,.0627-.1562,1.9694-1.9637,3.9378-3.9285,5.9053-5.8942,.0836-.0836,.1577-.1767,.2362-.2654l.0536,.0012Zm-2.6584,6.732c0-.0582,.0003-.1108,0-.1633-.0039-.593-.008-1.1859-.0119-1.7789-.001-.1597-.0704-.2613-.2193-.3193-.1674-.0653-.3917,.0728-.3917,.2423,0,2.2266,.0002,4.4532,.0006,6.6798,0,.0312,.0033,.0624,.005,.0934h.5868c.0082-.0798,.0215-.1533,.022-.2269,.0012-.1658-.0024-.3317-.0071-.4975-.0017-.0599,.0211-.0872,.0811-.0892,.077-.0025,.1538-.0123,.2307-.0127,1.0821-.0048,2.1642-.0091,3.2464-.0122,.5426-.0015,1.0851,.001,1.6277-.0018,.0714-.0004,.0904,.0224,.0897,.0912-.0016,.1452,.0067,.2904,.0092,.4357,.0017,.0997,.0003,.1994,.0003,.3089h.6148c0-.0392,0-.0746,0-.11,.0002-.7471,.0007-1.4943,.0007-2.2414,0-1.097-.0003-2.194-.0013-3.291,0-.0314-.001-.0681-.0165-.0932-.0789-.1276-.2367-.1929-.3683-.1582-.1331,.0351-.2198,.1524-.2249,.3163-.0076,.2429-.0105,.486-.0152,.729-.0006,.0315,0,.0631,0,.099H6.3707Zm3.3628-.202v.016c.2697,0,.5396,.0039,.8092-.0014,.1775-.0035,.3549-.0177,.5319-.0322,.0991-.0081,.1728-.0626,.2398-.1374,.1276-.1424,.1206-.3075,.1018-.4781-.0166-.1502-.0863-.2746-.2269-.3255-.1251-.0453-.2634-.0724-.3964-.0744-.5779-.0088-1.1559-.0077-1.7339-.0052-.2102,.0009-.4219,.0018-.63,.0272-.367,.0447-.5447,.4811-.3334,.7853,.1082,.1557,.2537,.2254,.4379,.2256,.4,.0005,.8,.0001,1.2,.0001Zm-1.86-.6421c.0031-.3555-.2889-.6549-.645-.656-.2993-.001-.6695,.2058-.6685,.6682,.0007,.343,.3029,.6424,.6596,.6436,.3636,.0012,.6507-.2867,.654-.6558Z" fill="#747474"/><path d="M11.6258,11.987v2.7086H6.3784v-2.7086h5.2474Zm-1.8677,2.5223v.0064c.4238-.0099,.8475-.0166,1.271-.0311,.1741-.006,.3692-.1614,.3952-.3303,.0536-.3473-.0553-.6621-.4835-.6812-.5059-.0225-1.0132-.0175-1.5199-.0186-.3022-.0006-.6045,.0056-.9065,.017-.2302,.0087-.4136,.1533-.4796,.3611-.0649,.2043,.0013,.4183,.1668,.5622,.1145,.0995,.2509,.1135,.3916,.1139,.3883,.0012,.7765,.0004,1.1648,.0004Zm-2.5345-1.3083c-.3795-.0008-.6468,.2649-.6474,.6436-.0007,.3965,.2585,.6655,.6423,.6665,.3606,.001,.6514-.2864,.6531-.6454,.0018-.3599-.2947-.664-.648-.6647Z" fill="#747474"/></g></svg>