<?xml version="1.0" encoding="UTF-8"?><svg id="Layer_2" xmlns="http://www.w3.org/2000/svg" viewBox="0 0 17.2661 12.8622"><g id="svg5369"><g id="layer1"><g id="hotel-18"><g id="g21721"><path id="path17345" d="m2.7616,1c-.9728,0-1.7615.7886-1.7615,1.7615s.7886,1.7613,1.7615,1.7613,1.7615-.7886,1.7615-1.7613-.7886-1.7615-1.7615-1.7615Zm2.9358,1.4677c0,2.3486-1.1743,3.5229-2.9358,3.5229h-1.1743c-.5872,0-.5872.5872-.5872.5872,0,0,0,.5872.5872.5872h14.6789v-2.0552c0-.8807,0-2.6421-4.4037-2.6421h-6.1651Zm-3.8165,5.8715c-.4404,0-.8807.4404-.8807.8807-.0002.8726,0,1.008,0,1.7615,0,.4404.4404.8807.8807.8807s.8807-.4404.8807-.8807v-1.4679h11.7431v1.4679c0,.4404.4403.8807.8807.8807s.8807-.4404.8807-.8807v-1.7615c0-.4404-.4403-.8807-.8807-.8807H1.8808Z" fill="none" isolation="isolate" opacity=".3" stroke="#fff" stroke-linecap="round" stroke-linejoin="round" stroke-width="2"/><path id="path4536-7" d="m2.7616,1c-.9728,0-1.7615.7886-1.7615,1.7615s.7886,1.7613,1.7615,1.7613,1.7615-.7886,1.7615-1.7613-.7886-1.7615-1.7615-1.7615Zm2.9358,1.4677c0,2.3486-1.1743,3.5229-2.9358,3.5229h-1.1743c-.5872,0-.5872.5872-.5872.5872,0,0,0,.5872.5872.5872h14.6789v-2.0552c0-.8807,0-2.6421-4.4037-2.6421h-6.1651Zm-3.8165,5.8715c-.4404,0-.8807.4404-.8807.8807-.0002.8726,0,1.008,0,1.7615,0,.4404.4404.8807.8807.8807s.8807-.4404.8807-.8807v-1.4679h11.7431v1.4679c0,.4404.4403.8807.8807.8807s.8807-.4404.8807-.8807v-1.7615c0-.4404-.4403-.8807-.8807-.8807H1.8808Z" fill="#747474"/></g></g></g></g></svg>