<?xml version="1.0" encoding="UTF-8"?><svg id="Layer_1" xmlns="http://www.w3.org/2000/svg" viewBox="0 0 15.1158 17"><path d="M10.1711,3.6842c-.4704-.1999-.6868-.29-.8885-.2307,.8716-1.0226,.8745-1.0338,.086-2.1626-.0992-.142-.3271-.2692-.4985-.2733-1.048-.025-2.097-.0207-3.1453-.0031-.1444,.0024-.341,.0958-.42,.2111-.1768,.2583-.3356,.5289-.4974,.8087-.1532,.2648-.1187,.598,.0867,.8246l.6174,.681c-.0659-.0098-.1308-.0091-.1826,.0062C2.7294,4.3095,.7349,7.3333,1.0288,10.0415c.39,3.5945,3.167,6.0356,6.7766,5.9566,3.0444-.0666,5.6529-2.3063,6.2117-5.3334,.5274-2.8574-1.1017-5.8143-3.846-6.9805Zm2.4572,6.0042c-.0548,2.3575-1.8604,4.4219-4.1804,4.7915-2.5333,.4035-4.9066-.986-5.701-3.3484-.371-1.1031-.3566-2.2113,.0723-3.293,.6734-1.6983,1.9567-2.6964,3.7291-3.1554l.0327,.0361c.4389,.4841,1.2029,.4746,1.6303-.0197l.0564-.0654c3.2222,.668,4.4053,3.1358,4.3607,5.0542Z" fill="none" opacity=".3" stroke="#fff" stroke-miterlimit="10" stroke-width="2"/><path d="M10.1711,3.6842c-.4704-.1999-.6868-.29-.8885-.2307,.8716-1.0226,.8745-1.0338,.086-2.1626-.0992-.142-.3271-.2692-.4985-.2733-1.048-.025-2.097-.0207-3.1453-.0031-.1444,.0024-.341,.0958-.42,.2111-.1768,.2583-.3356,.5289-.4974,.8087-.1532,.2648-.1187,.598,.0867,.8246l.6174,.681c-.0659-.0098-.1308-.0091-.1826,.0062C2.7294,4.3095,.7349,7.3333,1.0288,10.0415c.39,3.5945,3.167,6.0356,6.7766,5.9566,3.0444-.0666,5.6529-2.3063,6.2117-5.3334,.5274-2.8574-1.1017-5.8143-3.846-6.9805Zm2.4572,6.0042c-.0548,2.3575-1.8604,4.4219-4.1804,4.7915-2.5333,.4035-4.9066-.986-5.701-3.3484-.371-1.1031-.3566-2.2113,.0723-3.293,.6734-1.6983,1.9567-2.6964,3.7291-3.1554l.0327,.0361c.4389,.4841,1.2029,.4746,1.6303-.0197l.0564-.0654c3.2222,.668,4.4053,3.1358,4.3607,5.0542Z" fill="#747474"/></svg>