<?xml version="1.0" encoding="UTF-8"?><svg id="Layer_1" xmlns="http://www.w3.org/2000/svg" viewBox="0 0 18.0025 18.0001"><path d="M15.1328,9.4984v.1806c0,2.2395-.0052,4.4791,.0048,6.7186,.0018,.4081-.2624,.603-.5982,.6025-4.0185-.0059-8.0369-.0037-12.0554-.0039-.7251,0-1.3071-.4599-1.4488-1.153-.0915-.4476,.0227-.8491,.3077-1.2106-.4504-.6188-.4564-1.2419-.0219-1.8464-.094-.2106-.2141-.4034-.2679-.6131-.2333-.9095,.4469-1.7725,1.3909-1.7783,.7147-.0044,1.4295-.0009,2.1442-.0009h.1446v-.8954h-.1561c-.3891,0-.7783,.0011-1.1674-.0003-.3304-.0011-.5354-.2045-.5357-.535-.0011-1.231-.0012-2.4619,0-3.6929,.0003-.3372,.205-.5377,.5446-.5378,1.4692-.0005,2.9384,.0007,4.4076-.0026,.0793-.0002,.1651-.0217,.2368-.0563,.3537-.1707,.704-.3485,1.0547-.5254,.0704-.0355,.1336-.0877,.2066-.1146,.0929-.0341,.0748-.1036,.0831-.1735,.0099-.0835-.0466-.0977-.1004-.1228-.811-.3777-1.0874-1.3816-.583-2.1166,.352-.513,.9983-.7395,1.5967-.5596,.5929,.1783,1.0097,.7256,1.0189,1.3379,.0045,.3007-.2002,.5268-.487,.5378-.2751,.0106-.4977-.2052-.5148-.499-.015-.2577-.201-.4403-.4422-.4342-.2248,.0057-.4089,.1849-.4188,.4076-.011,.246,.1615,.4326,.4203,.455,.3348,.029,.5097,.2168,.511,.5498,.0006,.1628,.0034,.3257-.0016,.4884-.002,.066,.0218,.0988,.0797,.1268,.4602,.2225,.9183,.4494,1.3792,.6706,.0506,.0243,.1145,.0292,.1722,.0293,1.4613,.0015,2.9225,.0012,4.3838,.0012,.3854,0,.5809,.1927,.5811,.5759,.0006,1.2111,.0006,2.4222,0,3.6333-.0002,.3527-.2022,.5559-.5528,.5566-.4325,.0009-.8651,.0002-1.3167,.0002h.0002ZM6.1791,15.9917c1.2268,0,2.4536,0,3.6803-.0003,.0475,0,.0955-.0009,.1425-.0075,.1993-.028,.3527-.1968,.3634-.3969,.0148-.2756-.1848-.4602-.4993-.4602-2.4496,0-4.8992,0-7.3488,.0006-.0513,0-.1036,.0014-.1538,.0108-.2519,.0473-.4044,.2905-.339,.5363,.0535,.201,.2247,.3168,.4743,.3169,1.2268,.0005,2.4536,.0002,3.6803,.0003h.0001Zm.0174-4.5939H2.8496c-.1469,0-.294-.0039-.4406,.0029-.2077,.0097-.3701,.1691-.3952,.3775-.0247,.2049,.0996,.402,.2983,.4586,.0673,.0192,.1409,.0227,.2116,.0227,2.4298,.0011,4.8596,.0009,7.2894,.0009,.0476,0,.0954,.0017,.1429-.0015,.2432-.0164,.4191-.2116,.4095-.4527-.0096-.2408-.1972-.4078-.4647-.408-1.2347-.0008-2.4695-.0004-3.7042-.0004h-.0001Zm-.0044,2.7266h3.597c.0595,0,.1193,.0023,.1786-.0017,.2248-.0153,.3975-.2015,.3981-.4266,.0006-.2616-.1927-.4337-.4889-.4337-2.4575-.0001-4.9151,0-7.3726,0-.0318,0-.0636-.001-.0952,.0015-.1977,.0152-.3591,.1626-.3918,.3569-.0469,.2782,.1561,.5031,.4588,.5033,1.2387,.0009,2.4774,.0004,3.7161,.0005v-.0002Zm2.4198-8.6004c.0965,.6096,.7178,1.1172,1.3398,1.1059,.6232-.0113,1.2411-.5318,1.3055-1.1074-.4226-.2113-.8475-.4248-1.2741-.6349-.0267-.0132-.0717-.0112-.0991,.0023-.4232,.2087-.8449,.4205-1.2721,.6341Z" fill="none" isolation="isolate" opacity=".3" stroke="#fff" stroke-miterlimit="10" stroke-width="2"/><path d="M15.1328,9.4984v.1806c0,2.2395-.0052,4.4791,.0048,6.7186,.0018,.4081-.2624,.603-.5982,.6025-4.0185-.0059-8.0369-.0037-12.0554-.0039-.7251,0-1.3071-.4599-1.4488-1.153-.0915-.4476,.0227-.8491,.3077-1.2106-.4504-.6188-.4564-1.2419-.0219-1.8464-.094-.2106-.2141-.4034-.2679-.6131-.2333-.9095,.4469-1.7725,1.3909-1.7783,.7147-.0044,1.4295-.0009,2.1442-.0009h.1446v-.8954h-.1561c-.3891,0-.7783,.0011-1.1674-.0003-.3304-.0011-.5354-.2045-.5357-.535-.0011-1.231-.0012-2.4619,0-3.6929,.0003-.3372,.205-.5377,.5446-.5378,1.4692-.0005,2.9384,.0007,4.4076-.0026,.0793-.0002,.1651-.0217,.2368-.0563,.3537-.1707,.704-.3485,1.0547-.5254,.0704-.0355,.1336-.0877,.2066-.1146,.0929-.0341,.0748-.1036,.0831-.1735,.0099-.0835-.0466-.0977-.1004-.1228-.811-.3777-1.0874-1.3816-.583-2.1166,.352-.513,.9983-.7395,1.5967-.5596,.5929,.1783,1.0097,.7256,1.0189,1.3379,.0045,.3007-.2002,.5268-.487,.5378-.2751,.0106-.4977-.2052-.5148-.499-.015-.2577-.201-.4403-.4422-.4342-.2248,.0057-.4089,.1849-.4188,.4076-.011,.246,.1615,.4326,.4203,.455,.3348,.029,.5097,.2168,.511,.5498,.0006,.1628,.0034,.3257-.0016,.4884-.002,.066,.0218,.0988,.0797,.1268,.4602,.2225,.9183,.4494,1.3792,.6706,.0506,.0243,.1145,.0292,.1722,.0293,1.4613,.0015,2.9225,.0012,4.3838,.0012,.3854,0,.5809,.1927,.5811,.5759,.0006,1.2111,.0006,2.4222,0,3.6333-.0002,.3527-.2022,.5559-.5528,.5566-.4325,.0009-.8651,.0002-1.3167,.0002h.0002ZM6.1791,15.9917c1.2268,0,2.4536,0,3.6803-.0003,.0475,0,.0955-.0009,.1425-.0075,.1993-.028,.3527-.1968,.3634-.3969,.0148-.2756-.1848-.4602-.4993-.4602-2.4496,0-4.8992,0-7.3488,.0006-.0513,0-.1036,.0014-.1538,.0108-.2519,.0473-.4044,.2905-.339,.5363,.0535,.201,.2247,.3168,.4743,.3169,1.2268,.0005,2.4536,.0002,3.6803,.0003h.0001Zm.0174-4.5939H2.8496c-.1469,0-.294-.0039-.4406,.0029-.2077,.0097-.3701,.1691-.3952,.3775-.0247,.2049,.0996,.402,.2983,.4586,.0673,.0192,.1409,.0227,.2116,.0227,2.4298,.0011,4.8596,.0009,7.2894,.0009,.0476,0,.0954,.0017,.1429-.0015,.2432-.0164,.4191-.2116,.4095-.4527-.0096-.2408-.1972-.4078-.4647-.408-1.2347-.0008-2.4695-.0004-3.7042-.0004h-.0001Zm-.0044,2.7266h3.597c.0595,0,.1193,.0023,.1786-.0017,.2248-.0153,.3975-.2015,.3981-.4266,.0006-.2616-.1927-.4337-.4889-.4337-2.4575-.0001-4.9151,0-7.3726,0-.0318,0-.0636-.001-.0952,.0015-.1977,.0152-.3591,.1626-.3918,.3569-.0469,.2782,.1561,.5031,.4588,.5033,1.2387,.0009,2.4774,.0004,3.7161,.0005v-.0002Zm2.4198-8.6004c.0965,.6096,.7178,1.1172,1.3398,1.1059,.6232-.0113,1.2411-.5318,1.3055-1.1074-.4226-.2113-.8475-.4248-1.2741-.6349-.0267-.0132-.0717-.0112-.0991,.0023-.4232,.2087-.8449,.4205-1.2721,.6341Z" fill="#747474"/></svg>