<?xml version="1.0" encoding="UTF-8"?><svg id="Layer_2" xmlns="http://www.w3.org/2000/svg" viewBox="0 0 17.4077 14.6077"><g id="svg5369"><g id="g21636"><path id="path14152" d="m1.1538,1.1538v8.8c2.3,2.9,5.8,1.7,5.8,3.5h1.2v-7.9c-.1-2.8-3.6-2-7-4.4Zm15,0c-3.5,2.5-6.9,1.7-6.9,4.3v7.9h1.2c0-1.8,3.5-.6,5.8-3.5V1.1538h-.1Z" fill="none" isolation="isolate" opacity=".3" stroke="#fff" stroke-linecap="round" stroke-linejoin="round" stroke-width="2.3077"/><path id="path7994-9-9-2-1" d="m1.1538,1.1538v8.8c2.3,2.9,5.8,1.7,5.8,3.5h1.2v-7.9c-.1-2.8-3.6-2-7-4.4Zm15,0c-3.5,2.5-6.9,1.7-6.9,4.3v7.9h1.2c0-1.8,3.5-.6,5.8-3.5V1.1538h-.1Z" fill="#747474"/></g></g></svg>