<?xml version="1.0" encoding="UTF-8"?><svg id="Layer_2" xmlns="http://www.w3.org/2000/svg" viewBox="0 0 10 18"><g id="svg10"><path id="path2" d="m7,3h-2V1h-2v2c-1.1.1-2,.9-2,2v10c0,1.1.8,2,2,2h4c1.2,0,2-.9,2-2V5c0-1.1-.8-2-2-2Zm1,9H2v-7h6v7Z" fill="#fff" isolation="isolate" opacity=".3" stroke="#fff" stroke-linejoin="round" stroke-width="2"/><path id="path4" d="m7,3h-2V1h-2v2c-1.1.1-2,.9-2,2v10c0,1.1.8,2,2,2h4c1.2,0,2-.9,2-2V5c0-1.1-.8-2-2-2Zm1,9H2v-7h6v7Z" fill="#747474"/><path id="path6" d="m7,3h-2V1h-2v2c-1.1.1-2,.9-2,2v10c0,1.1.8,2,2,2h4c1.2,0,2-.9,2-2V5c0-1.1-.8-2-2-2Zm1,9H2v-7h6v7Z" fill="#fff" isolation="isolate" opacity=".3" stroke="#fff" stroke-linejoin="round" stroke-width="2"/><path id="path8" d="m7,3h-2V1h-2v2c-1.1.1-2,.9-2,2v10c0,1.1.8,2,2,2h4c1.2,0,2-.9,2-2V5c0-1.1-.8-2-2-2Zm1,9H2v-7h6v7Z" fill="#747474"/></g></svg>