<?xml version="1.0" encoding="UTF-8"?><svg id="Layer_2" xmlns="http://www.w3.org/2000/svg" viewBox="0 0 18.0001 14"><g id="svg6"><g id="motorcycle-18"><path id="path6228" d="m7,1L3,5v2h1.5l-.5312,1.0625c-.153-.0296-.3075-.0625-.4688-.0625-1.3748,0-2.5,1.1252-2.5,2.5s1.1252,2.5,2.5,2.5,2.5-1.1252,2.5-2.5c0-.7286-.342-1.3544-.8438-1.8125l.8438-1.6875c1.3848,3.955,2.8595,4.0957,5.9688,4.0312.2453,1.1219,1.2761,1.9688,2.4688,1.9688,1.3748,0,2.5-1.1252,2.5-2.5,0-.6711-.2844-1.2684-.7188-1.7188l.7812-.7812v-1h-6c-1.5817-2.0842-2.5445-2-5-2l.9999-3.9999Zm-3.5,8l-.5,1,1,1,.6875-1.4062c.1923.2521.3125.5615.3125.9062,0,.8344-.6656,1.5-1.5,1.5s-1.5-.6656-1.5-1.5.6656-1.5,1.5-1.5h0Zm12.031.4687c.2526.2679.4062.63.4062,1.0312,0,.8344-.6656,1.5-1.5,1.5-.6613,0-1.2356-.4111-1.4375-1,.3498-.007.6099,0,1,0l1.5312-1.5312Z" fill="none" isolation="isolate" opacity=".3" stroke="#fff" stroke-linejoin="round" stroke-width="2"/><path id="path6209" d="m7,1L3,5v2h1.5l-.5312,1.0625c-.153-.0296-.3075-.0625-.4688-.0625-1.3748,0-2.5,1.1252-2.5,2.5s1.1252,2.5,2.5,2.5,2.5-1.1252,2.5-2.5c0-.7286-.342-1.3544-.8438-1.8125l.8438-1.6875c1.3848,3.955,2.8595,4.0957,5.9688,4.0312.2453,1.1219,1.2761,1.9688,2.4688,1.9688,1.3748,0,2.5-1.1252,2.5-2.5,0-.6711-.2844-1.2684-.7188-1.7188l.7812-.7812v-1h-6c-1.5817-2.0842-2.5445-2-5-2l.9999-3.9999Zm-3.5,8l-.5,1,1,1,.6875-1.4062c.1923.2521.3125.5615.3125.9062,0,.8344-.6656,1.5-1.5,1.5s-1.5-.6656-1.5-1.5.6656-1.5,1.5-1.5h0Zm12.031.4687c.2526.2679.4062.63.4062,1.0312,0,.8344-.6656,1.5-1.5,1.5-.6613,0-1.2356-.4111-1.4375-1,.3498-.007.6099,0,1,0l1.5312-1.5312Z" fill="#747474"/></g></g></svg>