<?xml version="1.0" encoding="UTF-8"?><svg id="Layer_2" xmlns="http://www.w3.org/2000/svg" viewBox="0 0 16.1303 17.4149"><g id="svg5369"><g id="layer1"><g id="museum-18"><g id="g21709"><path id="path14372" d="m13.8457,4.8537l-5.7806-3.8537-5.7806,3.8537v8.992l-1.2846,1.9269c0,.4638.3005.6423.6423.6423h12.8457c.3293,0,.6423-.1784.6423-.6423l-1.2846-1.9269V4.8537Z" fill="#fff" isolation="isolate" opacity=".3" stroke="#fff" stroke-linecap="round" stroke-linejoin="round" stroke-width="2"/><path id="rect7645-6-5-0-1" d="m8.0652,1l-5.7806,3.8537h11.5612l-5.7806-3.8537ZM3.5691,6.1383c-.6423,0-1.2846.6423-1.2846,1.2132v6.4942l-1.2846,1.9269c0,.4638.3005.6423.6423.6423h12.8457c.3293,0,.6423-.1784.6423-.6423l-1.2846-1.9269v-6.4942c0-.5709-.6423-1.2132-1.2846-1.2132H3.5691Zm2.5691,1.9269q.6423,0,1.2846,1.2846l.6423,1.2846.6423-1.2846q.6423-1.2846,1.2846-1.2846c.6423,0,1.2846.6423,1.2846,1.2846v4.496c0,.4638-.1784.6423-.6423.6423s-.6423-.1784-.6423-.6423v-3.711l-1.2846,2.4265c-.34.6423-.9446.6423-1.2846,0l-1.2846-2.4265v3.711c0,.4638-.1784.6423-.6423.6423s-.6423-.1784-.6423-.6423v-4.496c0-.6423.6423-1.2846,1.2846-1.2846Z" fill="#747474"/></g></g></g></g></svg>