<?xml version="1.0" encoding="UTF-8"?><svg id="Layer_2" xmlns="http://www.w3.org/2000/svg" viewBox="0 0 18 18"><g id="svg6"><path id="path2" d="m8.875,3.9688c-1.7544,0-3.2248,1.3372-3.4688,3.0312h2.0938c.1971-.5851.7098-1,1.375-1s1.2092.4149,1.4062,1h2.0938c-.244-1.694-1.7456-3.0312-3.5-3.0312Zm-3.4688,4.0312c.1561,1.0369.766,1.9322,1.625,2.4688-.8695.5423-1.4737,1.4809-1.625,2.5312h2.0938c.1971-.5851.7098-1,1.375-1s1.2092.4149,1.4062,1h2.0938c-.1504-1.0439-.7859-1.9565-1.6562-2.5.8771-.5353,1.4991-1.4562,1.6562-2.5h-2.0938c-.1971.5851-.741.9688-1.4062.9688s-1.1779-.3837-1.375-.9688h-2.0938Zm3.5938-7C4.5896,1,1,4.5897,1,9s3.5896,8,8,8,8-3.5896,8-8S13.4104,1,9,1Zm0,1.3334c3.6898,0,6.6667,2.9768,6.6667,6.6666s-2.9769,6.6667-6.6667,6.6667-6.6667-2.9769-6.6667-6.6667,2.9769-6.6666,6.6667-6.6666Z" fill="none" isolation="isolate" opacity=".3" stroke="#fff" stroke-linejoin="round" stroke-width="2"/><path id="path4" d="m8.875,3.9688c-1.7544,0-3.2248,1.3372-3.4688,3.0312h2.0938c.1971-.5851.7098-1,1.375-1s1.2092.4149,1.4062,1h2.0938c-.244-1.694-1.7456-3.0312-3.5-3.0312Zm-3.4688,4.0312c.1561,1.0369.766,1.9322,1.625,2.4688-.8695.5423-1.4737,1.4809-1.625,2.5312h2.0938c.1971-.5851.7098-1,1.375-1s1.2092.4149,1.4062,1h2.0938c-.1504-1.0439-.7859-1.9565-1.6562-2.5.8771-.5353,1.4991-1.4562,1.6562-2.5h-2.0938c-.1971.5851-.741.9688-1.4062.9688s-1.1779-.3837-1.375-.9688h-2.0938Zm3.5938-7C4.5896,1,1,4.5897,1,9s3.5896,8,8,8,8-3.5896,8-8S13.4104,1,9,1Zm0,1.3334c3.6898,0,6.6667,2.9768,6.6667,6.6666s-2.9769,6.6667-6.6667,6.6667-6.6667-2.9769-6.6667-6.6667,2.9769-6.6666,6.6667-6.6666Z" fill="#747474"/></g></svg>