<?xml version="1.0" encoding="UTF-8"?><svg id="Layer_1" xmlns="http://www.w3.org/2000/svg" viewBox="0 0 11.25 9.3883"><path d="M9.914,7.021c-.2588-.4367-.5162-.8743-.7762-1.3104-.9141-1.5331-1.8327-3.0635-2.7403-4.6004-.1589-.2691-.3814-.4167-.6734-.4853h-.2266c-.3561,.0726-.5657,.304-.7453,.6092C3.4263,3.4881,2.0879,5.7348,.7547,7.9845c-.0497,.0839-.0868,.1753-.1297,.2632v.1129c.1343,.3363,.2259,.398,.592,.398,2.4899,0,4.9797,0,7.4696,0,.4479,0,.8963-.0111,1.3437,.004,.2828,.0096,.4841-.0803,.5947-.3456v-.1976c-.237-.3995-.4742-.7988-.711-1.1984Zm-1.9594-1.1954c-.1522,.1331-.2894,.2831-.4338,.4252-.1097,.1079-.1633,.1086-.271,.0019-.3246-.3215-.6435-.6489-.974-.9643-.3533-.3371-.9306-.3784-1.3069-.0089-.2084,.2046-.4171,.409-.6213,.6177-.0797,.0815-.1407,.0558-.1705-.0301-.1201-.3456-.2227-.6974-.3493-1.0405-.0607-.1644,.0318-.2687,.1006-.3861,.2404-.4104,.4876-.817,.7267-1.2282,.3137-.5393,.6223-1.0815,.9544-1.6595,.1755,.2939,.3292,.5506,.4823,.8078,.257,.4319,.5154,.8629,.7699,1.2963,.2767,.4711,.5481,.9453,.8249,1.4164,.0966,.1644,.2011,.3243,.3041,.4849,.0647,.1008,.064,.1799-.036,.2673Z" fill="none" opacity=".3" stroke="#fff" stroke-miterlimit="10" stroke-width="1.25"/><path d="M9.914,7.021c-.2588-.4367-.5162-.8743-.7762-1.3104-.9141-1.5331-1.8327-3.0635-2.7403-4.6004-.1589-.2691-.3814-.4167-.6734-.4853h-.2266c-.3561,.0726-.5657,.304-.7453,.6092C3.4263,3.4881,2.0879,5.7348,.7547,7.9845c-.0497,.0839-.0868,.1753-.1297,.2632v.1129c.1343,.3363,.2259,.398,.592,.398,2.4899,0,4.9797,0,7.4696,0,.4479,0,.8963-.0111,1.3437,.004,.2828,.0096,.4841-.0803,.5947-.3456v-.1976c-.237-.3995-.4742-.7988-.711-1.1984Zm-1.9594-1.1954c-.1522,.1331-.2894,.2831-.4338,.4252-.1097,.1079-.1633,.1086-.271,.0019-.3246-.3215-.6435-.6489-.974-.9643-.3533-.3371-.9306-.3784-1.3069-.0089-.2084,.2046-.4171,.409-.6213,.6177-.0797,.0815-.1407,.0558-.1705-.0301-.1201-.3456-.2227-.6974-.3493-1.0405-.0607-.1644,.0318-.2687,.1006-.3861,.2404-.4104,.4876-.817,.7267-1.2282,.3137-.5393,.6223-1.0815,.9544-1.6595,.1755,.2939,.3292,.5506,.4823,.8078,.257,.4319,.5154,.8629,.7699,1.2963,.2767,.4711,.5481,.9453,.8249,1.4164,.0966,.1644,.2011,.3243,.3041,.4849,.0647,.1008,.064,.1799-.036,.2673Z" fill="#747474"/></svg>