<?xml version="1.0" encoding="UTF-8"?><svg id="Layer_2" xmlns="http://www.w3.org/2000/svg" viewBox="0 0 13.003 17.4043"><g id="svg6"><path id="path2" d="m3.2006,5.4012l-2.2006,2.1318v8.8712h11.003V7.3267l-2.2006-1.9255H3.2006Zm2.2006,2.2006h2.2006v2.2006h2.2006v2.2006h-2.2006v2.2006h-2.2006v-2.2006h-2.2006v-2.2006h2.2006v-2.2006ZM3.2006,1v3.3009h6.6018V1H3.2006Z" fill="none" isolation="isolate" opacity=".3" stroke="#fff" stroke-linejoin="round" stroke-width="2"/><path id="path4" d="m3.2006,5.4012l-2.2006,2.1318v8.8712h11.003V7.3267l-2.2006-1.9255H3.2006Zm2.2006,2.2006h2.2006v2.2006h2.2006v2.2006h-2.2006v2.2006h-2.2006v-2.2006h-2.2006v-2.2006h2.2006v-2.2006ZM3.2006,1v3.3009h6.6018V1H3.2006Z" fill="#747474"/></g></svg>