<?xml version="1.0" encoding="UTF-8"?><svg id="Layer_1" xmlns="http://www.w3.org/2000/svg" viewBox="0 0 17.9939 18"><path d="M1.8051,14.9091c-.5145-.0567-.8498-.2701-.7871-.7969,.0618-.5194-.2937-1.233,.6226-1.3964,.1008-.018,.2095-.2776,.227-.4349,.3356-3.0178,1.8935-5.1648,4.5816-6.5313,.1813-.0922,.3672-.3169,.4117-.5119,.1647-.7219-.2764-1.5252,.2766-2.2163,.0121-.0151-.2545-.3602-.4194-.389-.3635-.0634-.7469,0-1.1188-.0306-.4899-.0403-.8488-.2826-.8325-.8199,.0161-.531,.3707-.7736,.8719-.7755,2.0582-.0079,4.1165-.0097,6.1747,.0011,.553,.0029,.948,.3634,.9074,.814-.0469,.5203-.3895,.7601-.8858,.7849-.3526,.0176-.7094-.0213-1.0594,.0138-.4006,.0401-.6154,.1969-.2917,.624,.0995,.1313,.1138,.3458,.1217,.5242,.0172,.3893,.0053,.78,.0053,1.1876,.1351,.0199,.2134,.041,.2919,.0414,.5807,.0028,1.1615,.0015,1.7938,.0015,.0156-.9662,.7181-.7633,1.302-.7937,.547-.0285,.8826,.1764,.8906,.7958,.4689,0,.9036,.0071,1.338-.0018,.5167-.0106,.7693,.2257,.7663,.7502-.0063,1.1029-.0074,2.2059,.0004,3.3088,.0035,.4943-.2291,.7318-.7166,.7317-.4356,0-.8711,0-1.2934,0-.3335,.8217-.4462,.8692-1.5006,.8245-.5123-.0217-.7595-.272-.7769-.7459-1.1863,0-2.3538-.0873-3.5025,.0227-1.3505,.1293-2.3622,1.3192-2.543,2.7595,.7585,.2738,.7722,.3007,.7325,1.4434-.0199,.5736-.0683,.6283-.7787,.8341,0,.4386,.006,.8936-.0016,1.3484-.008,.4786-.2465,.724-.7388,.7214-1.1018-.0057-2.2038-.0098-3.3056,.0018-.5311,.0056-.7585-.2602-.7628-.7622-.0036-.4156-.0007-.8312-.0007-1.3286Zm-.2184-1.6286v1.0183H6.8313v-1.0183H1.5867Zm11.6863-3.2582h1.018V4.7933h-1.018v5.2291ZM7.4372,3.6823v1.6063l2.5811-.3625v-1.2438h-2.5811Zm2.3685-1.0202h-2.2062c.3899,.7997,1.0502,.3492,1.5482,.4596,.3217,.0713,.628,.0092,.658-.4596Z" fill="none" opacity=".3" stroke="#fff" stroke-miterlimit="10" stroke-width="2"/><path d="M1.8051,14.9091c-.5145-.0567-.8498-.2701-.7871-.7969,.0618-.5194-.2937-1.233,.6226-1.3964,.1008-.018,.2095-.2776,.227-.4349,.3356-3.0178,1.8935-5.1648,4.5816-6.5313,.1813-.0922,.3672-.3169,.4117-.5119,.1647-.7219-.2764-1.5252,.2766-2.2163,.0121-.0151-.2545-.3602-.4194-.389-.3635-.0634-.7469,0-1.1188-.0306-.4899-.0403-.8488-.2826-.8325-.8199,.0161-.531,.3707-.7736,.8719-.7755,2.0582-.0079,4.1165-.0097,6.1747,.0011,.553,.0029,.948,.3634,.9074,.814-.0469,.5203-.3895,.7601-.8858,.7849-.3526,.0176-.7094-.0213-1.0594,.0138-.4006,.0401-.6154,.1969-.2917,.624,.0995,.1313,.1138,.3458,.1217,.5242,.0172,.3893,.0053,.78,.0053,1.1876,.1351,.0199,.2134,.041,.2919,.0414,.5807,.0028,1.1615,.0015,1.7938,.0015,.0156-.9662,.7181-.7633,1.302-.7937,.547-.0285,.8826,.1764,.8906,.7958,.4689,0,.9036,.0071,1.338-.0018,.5167-.0106,.7693,.2257,.7663,.7502-.0063,1.1029-.0074,2.2059,.0004,3.3088,.0035,.4943-.2291,.7318-.7166,.7317-.4356,0-.8711,0-1.2934,0-.3335,.8217-.4462,.8692-1.5006,.8245-.5123-.0217-.7595-.272-.7769-.7459-1.1863,0-2.3538-.0873-3.5025,.0227-1.3505,.1293-2.3622,1.3192-2.543,2.7595,.7585,.2738,.7722,.3007,.7325,1.4434-.0199,.5736-.0683,.6283-.7787,.8341,0,.4386,.006,.8936-.0016,1.3484-.008,.4786-.2465,.724-.7388,.7214-1.1018-.0057-2.2038-.0098-3.3056,.0018-.5311,.0056-.7585-.2602-.7628-.7622-.0036-.4156-.0007-.8312-.0007-1.3286Zm-.2184-1.6286v1.0183H6.8313v-1.0183H1.5867Zm11.6863-3.2582h1.018V4.7933h-1.018v5.2291ZM7.4372,3.6823v1.6063l2.5811-.3625v-1.2438h-2.5811Zm2.3685-1.0202h-2.2062c.3899,.7997,1.0502,.3492,1.5482,.4596,.3217,.0713,.628,.0092,.658-.4596Z" fill="#747474"/></svg>