<?xml version="1.0" encoding="UTF-8"?><svg id="Layer_2" xmlns="http://www.w3.org/2000/svg" viewBox="0 0 12.4239 17.6358"><g id="svg5369"><g id="g21530"><path id="path15835" d="m4.4746,1l-1.1582.5791v1.1582h5.791v-1.1582l-1.1582-.5791h-3.4746Zm-1.1582,2.8955c-.0386.1885,0,.3792,0,.5791,0,1.5992,1.2964,2.8955,2.8955,2.8955s2.8955-1.2963,2.8955-2.8955v-.5791H3.3164Zm0,4.6328c-1.2547,0-2.3,2.0752-2.3164,3.3298v4.7776h1.7734l5.1758-8.1074H3.3164Zm6.3701,0l-5.1758,8.1074h6.9131v-4.7776c0-1.2548-.4826-3.3298-1.7373-3.3298Z" fill="#fff" isolation="isolate" opacity=".3" stroke="#fff" stroke-linecap="round" stroke-linejoin="round" stroke-width="2"/><path id="rect7805-5-4" d="m4.4746,1l-1.1582.5791v1.1582h5.791v-1.1582l-1.1582-.5791h-3.4746Zm-1.1582,2.8955c-.0386.1885,0,.3792,0,.5791,0,1.5992,1.2964,2.8955,2.8955,2.8955s2.8955-1.2963,2.8955-2.8955v-.5791H3.3164Zm0,4.6328c-1.2547,0-2.3,2.0752-2.3164,3.3298v4.7776h1.7734l5.1758-8.1074H3.3164Zm6.3701,0l-5.1758,8.1074h6.9131v-4.7776c0-1.2548-.4826-3.3298-1.7373-3.3298Z" fill="#747474"/></g></g></svg>