<?xml version="1.0" encoding="UTF-8"?><svg id="Layer_2" xmlns="http://www.w3.org/2000/svg" viewBox="0 0 17.2091 12.5294"><g id="svg5369"><path id="path15519" d="m2.1699,1c-.9506,0-.6946.3957-.2194.786l6.654,5.0636L15.2586,1.786c.4894-.3725.7312-.786-.2194-.786H2.1699Zm-1.1699,1.7549v7.6046c0,.585.585,1.1699,1.1699,1.1699h12.8693c.585,0,1.1699-.585,1.1699-1.1699V2.7549l-7.6046,5.8497L1,2.7549Z" fill="#fff" isolation="isolate" opacity=".3" stroke="#fff" stroke-linejoin="round" stroke-width="2"/><path id="path7085-23" d="m2.1699,1c-.9506,0-.6946.3957-.2194.786l6.654,5.0636L15.2586,1.786c.4894-.3725.7312-.786-.2194-.786H2.1699Zm-1.1699,1.7549v7.6046c0,.585.585,1.1699,1.1699,1.1699h12.8693c.585,0,1.1699-.585,1.1699-1.1699V2.7549l-7.6046,5.8497L1,2.7549Z" fill="#747474"/></g></svg>