<?xml version="1.0" encoding="UTF-8"?><svg id="Layer_2" xmlns="http://www.w3.org/2000/svg" viewBox="0 0 10 12"><g id="svg5369"><g id="power_tower-12"><path id="path4746" d="m1,1v2h1v-1h2v2H1v2h1v-1h2s-1.3596,3.9788-2,6h1l.6562-2h2.6875l.6562,2h1c-.9908-1.9817-2-6-2-6h2v1h1v-2h-3v-2h2v1h1V1H1Zm4,4l1,3h-2l1-3Z" fill="none" isolation="isolate" opacity=".3" stroke="#fff" stroke-linejoin="round" stroke-width="2"/><path id="path4737" d="m1,1v2h1v-1h2v2H1v2h1v-1h2s-1.3596,3.9788-2,6h1l.6562-2h2.6875l.6562,2h1c-.9908-1.9817-2-6-2-6h2v1h1v-2h-3v-2h2v1h1V1H1Zm4,4l1,3h-2l1-3Z" fill="#747474"/></g></g></svg>