<?xml version="1.0" encoding="UTF-8"?><svg id="Layer_1" xmlns="http://www.w3.org/2000/svg" viewBox="0 0 20 14.4233"><path d="M1.795,12.182V2.044c-.1469-.0218-.311,.0017-.397-.0694-.1514-.1251-.3696-.324-.3502-.4626,.0248-.1769,.2357-.3575,.4089-.4727,.1058-.0704,.2914-.0247,.4412-.0247,5.4157-.0007,10.8313-.0005,16.247-.0005,.0833,0,.1667-.0016,.2499,.0009,.3372,.01,.6098,.1291,.6051,.5104-.0044,.351-.2632,.4716-.5791,.4868-.1157,.0056-.2319,.0009-.3783,.0009V12.1895c.1477,.0094,.2938,.0061,.4352,.0302,.3441,.0587,.5861,.2901,.5063,.6145-.054,.2198-.3264,.3924-.5184,.5671-.0463,.0421-.1611,.0104-.2444,.0104-5.4657,.0002-10.9313,.0036-16.3969-.0113-.2355-.0006-.5466-.1052-.6906-.2739-.3347-.3923-.0146-.8391,.6613-.9447Zm3.1789,.0108V2.0422h-1.7282V12.1928h1.7282Zm5.8125-.0043V2.0465h-1.5375V12.1884h1.5375ZM16.79,2.0421h-1.5463V12.1752h1.5463V2.0421Zm-10.3428-.0042V12.1729h1.342V2.038h-1.342Zm5.9995-.0004V12.1725h1.3412V2.0376h-1.3412Z" fill="none" opacity=".3" stroke="#fff" stroke-miterlimit="10" stroke-width="2"/><path d="M1.795,12.182V2.044c-.1469-.0218-.311,.0017-.397-.0694-.1514-.1251-.3696-.324-.3502-.4626,.0248-.1769,.2357-.3575,.4089-.4727,.1058-.0704,.2914-.0247,.4412-.0247,5.4157-.0007,10.8313-.0005,16.247-.0005,.0833,0,.1667-.0016,.2499,.0009,.3372,.01,.6098,.1291,.6051,.5104-.0044,.351-.2632,.4716-.5791,.4868-.1157,.0056-.2319,.0009-.3783,.0009V12.1895c.1477,.0094,.2938,.0061,.4352,.0302,.3441,.0587,.5861,.2901,.5063,.6145-.054,.2198-.3264,.3924-.5184,.5671-.0463,.0421-.1611,.0104-.2444,.0104-5.4657,.0002-10.9313,.0036-16.3969-.0113-.2355-.0006-.5466-.1052-.6906-.2739-.3347-.3923-.0146-.8391,.6613-.9447Zm3.1789,.0108V2.0422h-1.7282V12.1928h1.7282Zm5.8125-.0043V2.0465h-1.5375V12.1884h1.5375ZM16.79,2.0421h-1.5463V12.1752h1.5463V2.0421Zm-10.3428-.0042V12.1729h1.342V2.038h-1.342Zm5.9995-.0004V12.1725h1.3412V2.0376h-1.3412Z" fill="#747474"/></svg>