<?xml version="1.0" encoding="UTF-8"?><svg id="Layer_2" xmlns="http://www.w3.org/2000/svg" viewBox="0 0 17.1489 17.1489"><g id="svg6"><path id="path4481" d="m4.2462,1c-1.0821,0-2.1641,1.0821-2.1641,2.1641v10.8207l-1.0821,2.1641h11.9027l-1.0821-2.1641h3.2462c1.0821,0,1.0821-1.0821,1.0821-1.0821v-6.4924c0-1.0821-1.0821-2.1641-2.1641-2.1641h-2.1641v-1.0821c0-1.0821-1.0821-2.1641-2.1641-2.1641h-5.4103Zm1.0821,1.0821h3.2462c2.1641,0,2.1641,1.0821,2.1641,1.0821-3.2462,0-5.5677.214-5.4103,3.2462,0,2.1641-2.1641,2.1641-2.1641,0v-2.1641c0-1.0821,1.0821-2.1641,2.1641-2.1641Zm6.4924,3.2462h1.0821c1.0821,0,2.1641,0,2.1641,2.1641v5.4103h-3.2462v-7.5745ZM3.1641,13.9848h7.5745v1.0821H3.1641v-1.0821Z" fill="none" isolation="isolate" opacity=".3" stroke="#fff" stroke-linejoin="round" stroke-width="2"/><path id="path4470" d="m4.2462,1c-1.0821,0-2.1641,1.0821-2.1641,2.1641v10.8207l-1.0821,2.1641h11.9027l-1.0821-2.1641h3.2462c1.0821,0,1.0821-1.0821,1.0821-1.0821v-6.4924c0-1.0821-1.0821-2.1641-2.1641-2.1641h-2.1641v-1.0821c0-1.0821-1.0821-2.1641-2.1641-2.1641h-5.4103Zm1.0821,1.0821h3.2462c2.1641,0,2.1641,1.0821,2.1641,1.0821-3.2462,0-5.5677.214-5.4103,3.2462,0,2.1641-2.1641,2.1641-2.1641,0v-2.1641c0-1.0821,1.0821-2.1641,2.1641-2.1641Zm6.4924,3.2462h1.0821c1.0821,0,2.1641,0,2.1641,2.1641v5.4103h-3.2462v-7.5745ZM3.1641,13.9848h7.5745v1.0821H3.1641v-1.0821Z" fill="#747474"/></g></svg>