<?xml version="1.0" encoding="UTF-8"?><svg id="Layer_2" xmlns="http://www.w3.org/2000/svg" viewBox="0 0 18 18.088"><g id="svg5369"><path id="path9988" d="m10,1.088c-2.4176-.566-3.217,1.7347-2,3l1,1v1h-5c-1,0-2,1-2,2v2h-1v1h4v-1h-1v-2h4v7l-2,1H1v1h16v-1h-5l-2-1V4.088l1-1s3,1,3,4,3,4,3,4v-1s-2,0-2-3c0-5-5-6-5-6Z" fill="none" isolation="isolate" opacity=".3" stroke="#fff" stroke-linejoin="round" stroke-width="2"/><path id="rect10180" d="m10,1.088c-2.4176-.566-3.217,1.7347-2,3l1,1v1h-5c-1,0-2,1-2,2v2h-1v1h4v-1h-1v-2h4v7l-2,1H1v1h16v-1h-5l-2-1V4.088l1-1s3,1,3,4,3,4,3,4v-1s-2,0-2-3c0-5-5-6-5-6Z" fill="#747474"/></g></svg>