<?xml version="1.0" encoding="UTF-8"?><svg id="Layer_2" xmlns="http://www.w3.org/2000/svg" viewBox="0 0 18 18"><g id="svg6"><path id="path2" d="m4,4c-1,0-2,1-2,2v2l-1,1v2h4v-2l-1-1v-2s4.6887,0,6,0v4c-3,1-3,5-1,6H1v1h16v-1h-4v-1h4s0-1,0-1h-4v-1h4v-1l-5-2v-4c0-1-1-2-2-2h-2v-2h2c1,0,1-1,0-1h-5c-1,0-1,1,0,1h2v2h-3Z" fill="none" isolation="isolate" opacity=".3" stroke="#fff" stroke-linejoin="round" stroke-width="2"/><path id="path4" d="m4,4c-1,0-2,1-2,2v2l-1,1v2h4v-2l-1-1v-2s4.6887,0,6,0v4c-3,1-3,5-1,6H1v1h16v-1h-4v-1h4s0-1,0-1h-4v-1h4v-1l-5-2v-4c0-1-1-2-2-2h-2v-2h2c1,0,1-1,0-1h-5c-1,0-1,1,0,1h2v2h-3Z" fill="#747474"/></g></svg>