<?xml version="1.0" encoding="UTF-8"?><svg id="railstation" xmlns="http://www.w3.org/2000/svg" width="18" height="18" viewBox="0 0 18 18"><path d="M10.3295,2.9201V1.4789c0-.2635-.2137-.4772-.4772-.4772h-2.0071c-.2815,0-.5097,.2282-.5097,.5097v1.444c-1.6155,.6252-2.7659,2.1838-2.7659,4.02,0,2.3858,1.9341,4.32,4.32,4.32s4.32-1.9341,4.32-4.32c0-1.8782-1.206-3.4603-2.88-4.0555Zm-1.44-1.3997c.3753,0,.6794,.3042,.6794,.6794s-.3042,.6795-.6794,.6795-.6794-.3042-.6794-.6795,.3042-.6794,.6794-.6794Zm0,7.2302c-.9803,0-1.775-.7947-1.775-1.775s.7947-1.775,1.775-1.775,1.775,.7947,1.775,1.775-.7947,1.775-1.775,1.775Zm4.3361,6.2563l-1.0426-2.6563c-.1634-.4355-.2809-.6273-.6273-.6273H6.2234c-.3701,0-.4803,.2304-.6701,.6701l-1.1048,2.6688c-.0894,.216,.0196,.4629,.2395,.5423l3.5081,1.2675c.3286,.1187,.6881,.1199,1.0174,.0034l3.7672-1.3323c.2186-.0773,.3296-.3204,.2449-.5362Zm-7.1468,.1745c-.1461-.0528-.2186-.2169-.1592-.3605l.7343-1.7739c.1262-.2922,.1994-.4454,.4454-.4454h.2911l-.6346,2.8244-.6771-.2446Zm2.4737,.8675c-.0473-.0097-.0961-.0085-.1419-.0251l-1.1178-.4039,.6781-3.0183h.5816v3.4473Zm.5663-.0342v-3.4131h.6139l.6652,2.9608-1.2791,.4523Zm2.472-.8742l-.6551,.2317-.6225-2.7706h.3304c.2303,0,.3084,.1275,.417,.417l.693,1.7655c.0563,.1435-.0175,.305-.1628,.3564Z" fill="none" opacity=".3" stroke="#fff" stroke-miterlimit="10" stroke-width="2"/><path d="M10.3295,2.9201V1.4789c0-.2635-.2137-.4772-.4772-.4772h-2.0071c-.2815,0-.5097,.2282-.5097,.5097v1.444c-1.6155,.6252-2.7659,2.1838-2.7659,4.02,0,2.3858,1.9341,4.32,4.32,4.32s4.32-1.9341,4.32-4.32c0-1.8782-1.206-3.4603-2.88-4.0555Zm-1.44-1.3997c.3753,0,.6794,.3042,.6794,.6794s-.3042,.6795-.6794,.6795-.6794-.3042-.6794-.6795,.3042-.6794,.6794-.6794Zm0,7.2302c-.9803,0-1.775-.7947-1.775-1.775s.7947-1.775,1.775-1.775,1.775,.7947,1.775,1.775-.7947,1.775-1.775,1.775Zm4.3361,6.2563l-1.0426-2.6563c-.1634-.4355-.2809-.6273-.6273-.6273H6.2234c-.3701,0-.4803,.2304-.6701,.6701l-1.1048,2.6688c-.0894,.216,.0196,.4629,.2395,.5423l3.5081,1.2675c.3286,.1187,.6881,.1199,1.0174,.0034l3.7672-1.3323c.2186-.0773,.3296-.3204,.2449-.5362Zm-7.1468,.1745c-.1461-.0528-.2186-.2169-.1592-.3605l.7343-1.7739c.1262-.2922,.1994-.4454,.4454-.4454h.2911l-.6346,2.8244-.6771-.2446Zm2.4737,.8675c-.0473-.0097-.0961-.0085-.1419-.0251l-1.1178-.4039,.6781-3.0183h.5816v3.4473Zm.5663-.0342v-3.4131h.6139l.6652,2.9608-1.2791,.4523Zm2.472-.8742l-.6551,.2317-.6225-2.7706h.3304c.2303,0,.3084,.1275,.417,.417l.693,1.7655c.0563,.1435-.0175,.305-.1628,.3564Z" fill="#757575"/></svg>