<?xml version="1.0" encoding="UTF-8"?><svg id="railstation" xmlns="http://www.w3.org/2000/svg" width="18" height="18" viewBox="0 0 18 18"><path d="M8.8895,.0084C6.028,.0084,3.7083,2.3281,3.7083,5.1896s2.3198,5.1813,5.1813,5.1813,5.1813-2.3198,5.1813-5.1813S11.7511,.0084,8.8895,.0084Zm0,7.249c-1.142,0-2.0677-.9257-2.0677-2.0677s.9258-2.0677,2.0677-2.0677,2.0677,.9258,2.0677,2.0677-.9258,2.0677-2.0677,2.0677Zm7.2118,8.1829l-1.7128-3.4261c-.2684-.5618-.4614-.8091-1.0306-.8091H4.5982c-.608,0-.789,.2972-1.1009,.8643l-1.8149,3.4423c-.1469,.2786,.0323,.597,.3934,.6994l5.7631,1.6348c.5397,.1531,1.1303,.1547,1.6714,.0044l6.1887-1.7184c.3591-.0997,.5414-.4132,.4023-.6915Zm-6.486-2.9971h.4341l1.1428,3.71-1.5768,.4171v-4.1271Zm-5.5187,2.7283l1.2069-2.1807c.2075-.3594,.3278-.5476,.7321-.5476h.1749l-1.0439,3.3898-.8084-.2184c-.2401-.0648-.3593-.2666-.2616-.4431Zm2.4722,1.0405l1.1607-3.7688h.4341l.0002,4.1998-1.595-.431Zm6.849-.6476l-.8212,.2172-1.0284-3.3384h.2928c.3785,0,.5068,.1567,.6854,.5126l1.139,2.1705c.0925,.1763-.0287,.375-.2676,.4381Z" fill="#757575"/></svg>