<?xml version="1.0" encoding="UTF-8"?><svg id="Layer_2" xmlns="http://www.w3.org/2000/svg" viewBox="0 0 12.0105 17.572"><g id="svg5369"><g id="layer1"><g id="restaurant-18"><g id="g21606"><path id="path14875" d="m2.1123,1h-1.1123v5.0053c0,.865,1.1123.8033,1.1123,1.6684v7.786c0,.4326.5561,1.1123,1.1123,1.1123s1.1123-.5561,1.1123-1.1123v-7.786c0-.8652,1.1123-.8034,1.1123-1.6684V1h-1.1123v3.3368h-.5561V1h-1.1123v3.3368h-.5561V1Zm8.8983,0c-.8651,0-2.2336.5742-2.7807,1.6684-.4326.865-.5561,2.7807-.5561,3.893v3.3368c0,.5561.6797,1.1123,1.1123,1.1123v4.4491c0,.5561.5561,1.1123,1.1123,1.1123s1.1123-.5561,1.1123-1.1123V1Z" fill="#fff" isolation="isolate" opacity=".3" stroke="#fff" stroke-linejoin="round" stroke-width="2"/><path id="rect6396-83" d="m2.1123,1h-1.1123v5.0053c0,.865,1.1123.8033,1.1123,1.6684v7.786c0,.4326.5561,1.1123,1.1123,1.1123s1.1123-.5561,1.1123-1.1123v-7.786c0-.8652,1.1123-.8034,1.1123-1.6684V1h-1.1123v3.3368h-.5561V1h-1.1123v3.3368h-.5561V1Zm8.8983,0c-.8651,0-2.2336.5742-2.7807,1.6684-.4326.865-.5561,2.7807-.5561,3.893v3.3368c0,.5561.6797,1.1123,1.1123,1.1123v4.4491c0,.5561.5561,1.1123,1.1123,1.1123s1.1123-.5561,1.1123-1.1123V1Z" fill="#747474"/></g></g></g></g></svg>