<?xml version="1.0" encoding="UTF-8"?><svg id="Layer_2" xmlns="http://www.w3.org/2000/svg" viewBox="0 0 17.6355 15.5507"><g id="svg5369"><path id="path12957" d="m10.1207,1c-.7196,0-1.3029.5833-1.3029,1.3029s.5833,1.3029,1.3029,1.3029,1.3029-.5833,1.3029-1.3029-.5833-1.3029-1.3029-1.3029Zm-5.9284,1.0424c-.7196,0-1.3029.5833-1.3029,1.3029s.5833,1.3029,1.3029,1.3029,1.3029-.5833,1.3029-1.3029-.5833-1.3029-1.3029-1.3029Zm6.9708,2.0847c-.2914,0-.7711.1052-1.1727.3909l-2.5408,1.8241c-.6894.4905-.0568,1.3376.5863.9121l1.6613-1.1075s.4551.3712.684,1.1075l-.0325,1.9219-1.6938,4.5277c-.1962.5232.173.8521.5538.8469.2496,0,.4966-.1672.6189-.456l2.1172-4.7558s.3909,2.0846,1.9544,2.0847c.9396.0001,1.6938,0,2.215,0s.5212-.5212.5212-.5212c0,0,0-.5212-.5212-.5212-.3909,0-1.6938-.0001-2.0847,0,0,0-.5212,0-.5212-1.0424,0-.7335-.8133-2.6042-1.0424-3.1271v-.5212l2.6059,1.4332c.7086.4724,1.3387-.364.6515-.8795l-2.7362-1.5961c-.5389-.3027-1.1281-.5212-1.8241-.5212h0Zm-7.4268,1.0424c-.3909,0-.5758.1849-.7818.3909l-1.6613,1.6613c-.2139.2139-.2932.4053-.2932.684,0,.3909.5812.5913.9121.2606l1.4332-1.4332c.3281,0,.7818.0406.7818.5212v2.215l-1.1727,3.1271c-.3248.8661.8945,1.1326,1.1727.3909l1.1727-3.1271s.3909.5212,1.1727.5212h2.2802c.7818,0,.7818-1.0424,0-1.0424h-2.0196s-.5212,0-.5212-.5212v-.7818c0-1.5635-.5212-2.8665-1.3029-2.8665h-1.1726Z" fill="none" isolation="isolate" opacity=".3" stroke="#fff" stroke-linecap="round" stroke-linejoin="round" stroke-width="2"/><path id="path17507" d="m10.1207,1c-.7196,0-1.3029.5833-1.3029,1.3029s.5833,1.3029,1.3029,1.3029,1.3029-.5833,1.3029-1.3029-.5833-1.3029-1.3029-1.3029Zm-5.9284,1.0424c-.7196,0-1.3029.5833-1.3029,1.3029s.5833,1.3029,1.3029,1.3029,1.3029-.5833,1.3029-1.3029-.5833-1.3029-1.3029-1.3029Zm6.9708,2.0847c-.2914,0-.7711.1052-1.1727.3909l-2.5408,1.8241c-.6894.4905-.0568,1.3376.5863.9121l1.6613-1.1075s.4551.3712.684,1.1075l-.0325,1.9219-1.6938,4.5277c-.1962.5232.173.8521.5538.8469.2496,0,.4966-.1672.6189-.456l2.1172-4.7558s.3909,2.0846,1.9544,2.0847c.9396.0001,1.6938,0,2.215,0s.5212-.5212.5212-.5212c0,0,0-.5212-.5212-.5212-.3909,0-1.6938-.0001-2.0847,0,0,0-.5212,0-.5212-1.0424,0-.7335-.8133-2.6042-1.0424-3.1271v-.5212l2.6059,1.4332c.7086.4724,1.3387-.364.6515-.8795l-2.7362-1.5961c-.5389-.3027-1.1281-.5212-1.8241-.5212h0Zm-7.4268,1.0424c-.3909,0-.5758.1849-.7818.3909l-1.6613,1.6613c-.2139.2139-.2932.4053-.2932.684,0,.3909.5812.5913.9121.2606l1.4332-1.4332c.3281,0,.7818.0406.7818.5212v2.215l-1.1727,3.1271c-.3248.8661.8945,1.1326,1.1727.3909l1.1727-3.1271s.3909.5212,1.1727.5212h2.2802c.7818,0,.7818-1.0424,0-1.0424h-2.0196s-.5212,0-.5212-.5212v-.7818c0-1.5635-.5212-2.8665-1.3029-2.8665h-1.1726Z" fill="#747474"/></g></svg>