<?xml version="1.0" encoding="UTF-8"?><svg id="Layer_2" xmlns="http://www.w3.org/2000/svg" viewBox="0 0 18 11.0001"><g id="svg6"><path id="path5796" d="m7,1l1,3c-3,1-3.4164,1.2082-5,2L1,3l1,3.5-1,3.5,2-3c1.3912.6956,3.3142.641,5,1,.3319.0707-.3014,2.0136,0,2,.3685-.0166,1.6651-2,2-2,2,0,6.6272-1,7-2-.5591-1-4.5675-2-7-2l-3-3Zm6.625,3.7812c.4142,0,.75.3358.75.75s-.3358.75-.75.75-.75-.3358-.75-.75.3358-.75.75-.75Z" fill="none" isolation="isolate" opacity=".3" stroke="#fff" stroke-linejoin="round" stroke-width="2"/><path id="path4359" d="m7,1l1,3c-3,1-3.4164,1.2082-5,2L1,3l1,3.5-1,3.5,2-3c1.3912.6956,3.3142.641,5,1,.3319.0707-.3014,2.0136,0,2,.3685-.0166,1.6651-2,2-2,2,0,6.6272-1,7-2-.5591-1-4.5675-2-7-2l-3-3Zm6.625,3.7812c.4142,0,.75.3358.75.75s-.3358.75-.75.75-.75-.3358-.75-.75.3358-.75.75-.75Z" fill="#747474"/></g></svg>