<?xml version="1.0" encoding="UTF-8"?><svg id="Layer_2" xmlns="http://www.w3.org/2000/svg" viewBox="0 0 18 18"><g id="svg6"><path id="path16620" d="m9,1L1,4v1l8-2.875,8,2.875v-1L9,1Zm-3,4.5c-.8284,0-1.5.6716-1.5,1.5,0,.7248.504,1.3289,1.1875,1.4688l-.0312.2187-3.6562,3.3125h1l2.3125-1.5625-1.3125,6.5625h1l1-3,1,3h1l-1.3125-6.625,1.75,1.2188.5625.4062.5625-.375,1.75-1.1875-1.3125,6.5625h1l1-3,1,3h1l-1.3125-6.625,2.3125,1.625h1l-3.6562-3.375-.0312-.1562c.6835-.1399,1.1875-.7439,1.1875-1.4688,0-.8284-.6716-1.5-1.5-1.5s-1.5.6716-1.5,1.5c0,.7249.504,1.3289,1.1875,1.4688l-.0312.2187-2.6562,2.4063-2.6562-2.4688-.0312-.1562c.6835-.1399,1.1875-.744,1.1875-1.4688,0-.8284-.6716-1.5-1.5-1.5h-.0002Z" fill="none" isolation="isolate" opacity=".3" stroke="#fff" stroke-linejoin="round" stroke-width="2"/><path id="path16581" d="m9,1L1,4v1l8-2.875,8,2.875v-1L9,1Zm-3,4.5c-.8284,0-1.5.6716-1.5,1.5,0,.7248.504,1.3289,1.1875,1.4688l-.0312.2187-3.6562,3.3125h1l2.3125-1.5625-1.3125,6.5625h1l1-3,1,3h1l-1.3125-6.625,1.75,1.2188.5625.4062.5625-.375,1.75-1.1875-1.3125,6.5625h1l1-3,1,3h1l-1.3125-6.625,2.3125,1.625h1l-3.6562-3.375-.0312-.1562c.6835-.1399,1.1875-.7439,1.1875-1.4688,0-.8284-.6716-1.5-1.5-1.5s-1.5.6716-1.5,1.5c0,.7249.504,1.3289,1.1875,1.4688l-.0312.2187-2.6562,2.4063-2.6562-2.4688-.0312-.1562c.6835-.1399,1.1875-.744,1.1875-1.4688,0-.8284-.6716-1.5-1.5-1.5h-.0002Z" fill="#747474"/></g></svg>