<?xml version="1.0" encoding="UTF-8"?><svg id="Layer_2" xmlns="http://www.w3.org/2000/svg" viewBox="0 0 8.3438 18.0001"><g id="Layer_1-2"><g opacity=".3"><path d="M4.375,1.0001c.2702,.0876,.5429,.1651,.7705,.3514,.3505,.2869,.5497,.6392,.5442,1.1032-.0073,.619,.0876,1.3908-.072,1.6939-.2234,.0957-.3577,.1851-.5748,.1851v.4541l2.0278,.3075v1.7042h-.6954c-.0638,.3205-.1524,.6227-.1776,.9302-.0283,.3462-.2134,.5644-.4651,.7644-.7777,.6181-1.6581,.9872-2.6446,1.0901-.2669,.0278-.5391,.0042-.8301,.0042,.0625-.1656,.1114-.3461,.1961-.5079,.1295-.2474,.1881-.501,.1658-.7789-.0119-.1488-.0021-.2993-.0021-.4681H1.2343c.0168-.5482-.0106-1.0824,.0607-1.603,.0808-.5906,.4696-.98,1.0223-1.1988,.1932-.0765,.3866-.1533,.5829-.2211,.0961-.0332,.1281-.0796,.1383-.1872,.036-.3796-.0414-.7192-.2889-1.0148-.1127-.1346-.1436-.2902-.1341-.4644,.0158-.2906-.0216-.5892,.0317-.8716,.1259-.6669,.5463-1.0772,1.2053-1.2418,.0291-.0073,.0567-.0202,.085-.0305h.4375v-.0002Z" fill="none" stroke="#fff" stroke-miterlimit="10" stroke-width="2"/><path d="M1,17.0001v-1.8546H7.3438v1.8546H1Z" fill="none" stroke="#fff" stroke-miterlimit="10" stroke-width="2"/><path d="M6.3174,9.2299c.1842,.5895,.1915,1.1567,.0367,1.7274-.0231,.0852-.0419,.1733-.0783,.2528-.2169,.4743-.2736,.9709-.2493,1.4882,.0207,.4413,.0043,.8844,.0043,1.3268v.1615H1.9425c-.0029-.0522-.0075-.0976-.0075-.1431-.0004-.8014-.0066-1.6028,.0029-2.4041,.0038-.3217,.046-.6428,.0636-.9646,.0066-.1202,.0745-.1252,.1669-.124,.5418,.0072,1.0816-.0128,1.6145-.1255,.8891-.188,1.6952-.5551,2.4149-1.1109,.0324-.025,.0669-.0473,.1197-.0845h0Z" fill="none" stroke="#fff" stroke-miterlimit="10" stroke-width="2"/></g><g><path d="M4.375,1.0001c.2702,.0876,.5429,.1651,.7705,.3514,.3505,.2869,.5497,.6392,.5442,1.1032-.0073,.619,.0876,1.3908-.072,1.6939-.2234,.0957-.3577,.1851-.5748,.1851v.4541l2.0278,.3075v1.7042h-.6954c-.0638,.3205-.1524,.6227-.1776,.9302-.0283,.3462-.2134,.5644-.4651,.7644-.7777,.6181-1.6581,.9872-2.6446,1.0901-.2669,.0278-.5391,.0042-.8301,.0042,.0625-.1656,.1114-.3461,.1961-.5079,.1295-.2474,.1881-.501,.1658-.7789-.0119-.1488-.0021-.2993-.0021-.4681H1.2343c.0168-.5482-.0106-1.0824,.0607-1.603,.0808-.5906,.4696-.98,1.0223-1.1988,.1932-.0765,.3866-.1533,.5829-.2211,.0961-.0332,.1281-.0796,.1383-.1872,.036-.3796-.0414-.7192-.2889-1.0148-.1127-.1346-.1436-.2902-.1341-.4644,.0158-.2906-.0216-.5892,.0317-.8716,.1259-.6669,.5463-1.0772,1.2053-1.2418,.0291-.0073,.0567-.0202,.085-.0305h.4375v-.0002Z" fill="#747474"/><path d="M1,17.0001v-1.8546H7.3438v1.8546H1Z" fill="#747474"/><path d="M6.3174,9.2299c.1842,.5895,.1915,1.1567,.0367,1.7274-.0231,.0852-.0419,.1733-.0783,.2528-.2169,.4743-.2736,.9709-.2493,1.4882,.0207,.4413,.0043,.8844,.0043,1.3268v.1615H1.9425c-.0029-.0522-.0075-.0976-.0075-.1431-.0004-.8014-.0066-1.6028,.0029-2.4041,.0038-.3217,.046-.6428,.0636-.9646,.0066-.1202,.0745-.1252,.1669-.124,.5418,.0072,1.0816-.0128,1.6145-.1255,.8891-.188,1.6952-.5551,2.4149-1.1109,.0324-.025,.0669-.0473,.1197-.0845h0Z" fill="#747474"/></g></g></svg>