<?xml version="1.0" encoding="UTF-8"?><svg id="Layer_2" xmlns="http://www.w3.org/2000/svg" viewBox="0 0 10 18"><g id="Layer_1-2"><path d="m5,1c-1,0-2,1.5-3,4h-1v1h1l1,4,1,1v1h-2v1h2v4h2v-4h2v-1h-2v-1l1-1,1-4h1v-1h-1c-1-2.5-2-4-3-4Zm-2,5h4l-1,4h-2l-1-4Z" fill="none" isolation="isolate" opacity=".3" stroke="#fff" stroke-linejoin="round" stroke-width="2"/><path d="m5,1c-1,0-2,1.5-3,4h-1v1h1l1,4,1,1v1h-2v1h2v4h2v-4h2v-1h-2v-1l1-1,1-4h1v-1h-1c-1-2.5-2-4-3-4Zm-2,5h4l-1,4h-2l-1-4Z" fill="#747474"/></g></svg>