<?xml version="1.0" encoding="UTF-8"?><svg id="Layer_2" xmlns="http://www.w3.org/2000/svg" viewBox="0 0 17.6146 17.6146"><g id="svg6"><path id="path15628" d="m8.8073,3.2306c-3.0799,0-5.5766,2.4968-5.5766,5.5766s2.4968,5.5766,5.5766,5.5766,5.5766-2.4968,5.5766-5.5766-2.4968-5.5766-5.5766-5.5766Zm-2.2307,2.2307c.616,0,1.1153.4994,1.1153,1.1153s-.4994,1.1153-1.1153,1.1153-1.1153-.4994-1.1153-1.1153.4994-1.1153,1.1153-1.1153Zm4.4613,0c.616,0,1.1153.4994,1.1153,1.1153s-.4994,1.1153-1.1153,1.1153-1.1153-.4994-1.1153-1.1153.4994-1.1153,1.1153-1.1153Zm-.1394,4.2871c.616,0,1.1153.4994,1.1153,1.1153s-.4994,1.1153-1.1153,1.1153-1.1153-.4994-1.1153-1.1153.4994-1.1153,1.1153-1.1153Zm-4.3219.1743c.616,0,1.1153.4994,1.1153,1.1153s-.4994,1.1153-1.1153,1.1153-1.1153-.4994-1.1153-1.1153.4994-1.1153,1.1153-1.1153ZM8.8073,1C4.502,1,1,4.502,1,8.8073s3.502,7.8073,7.8073,7.8073,7.8073-3.502,7.8073-7.8073S13.1125,1,8.8073,1Zm0,1.1153c3.7024,0,6.692,2.9895,6.692,6.692s-2.9895,6.692-6.692,6.692-6.692-2.9895-6.692-6.692,2.9895-6.692,6.692-6.692Z" fill="none" isolation="isolate" opacity=".3" stroke="#fff" stroke-linejoin="round" stroke-width="2"/><path id="path15589" d="m8.8073,3.2306c-3.0799,0-5.5766,2.4968-5.5766,5.5766s2.4968,5.5766,5.5766,5.5766,5.5766-2.4968,5.5766-5.5766-2.4968-5.5766-5.5766-5.5766Zm-2.2307,2.2307c.616,0,1.1153.4994,1.1153,1.1153s-.4994,1.1153-1.1153,1.1153-1.1153-.4994-1.1153-1.1153.4994-1.1153,1.1153-1.1153Zm4.4613,0c.616,0,1.1153.4994,1.1153,1.1153s-.4994,1.1153-1.1153,1.1153-1.1153-.4994-1.1153-1.1153.4994-1.1153,1.1153-1.1153Zm-.1394,4.2871c.616,0,1.1153.4994,1.1153,1.1153s-.4994,1.1153-1.1153,1.1153-1.1153-.4994-1.1153-1.1153.4994-1.1153,1.1153-1.1153Zm-4.3219.1743c.616,0,1.1153.4994,1.1153,1.1153s-.4994,1.1153-1.1153,1.1153-1.1153-.4994-1.1153-1.1153.4994-1.1153,1.1153-1.1153ZM8.8073,1C4.502,1,1,4.502,1,8.8073s3.502,7.8073,7.8073,7.8073,7.8073-3.502,7.8073-7.8073S13.1125,1,8.8073,1Zm0,1.1153c3.7024,0,6.692,2.9895,6.692,6.692s-2.9895,6.692-6.692,6.692-6.692-2.9895-6.692-6.692,2.9895-6.692,6.692-6.692Z" fill="#747474"/></g></svg>