<?xml version="1.0" encoding="UTF-8"?><svg id="Layer_1" xmlns="http://www.w3.org/2000/svg" viewBox="0 0 17.1929 10.7365"><g opacity=".3"><path d="M.5965,8.1087c.0709-.1672,.2037-.2173,.3764-.2172,4.9882,.0016,9.9765,.0012,14.9647,.0016,.28,0,.377,.0972,.3774,.375,.0008,.4999-.0035,.9998,.0022,1.4996,.002,.1757-.0531,.3039-.2208,.3723H.5965v-2.0312Z" fill="none" stroke="#fff" stroke-miterlimit="10" stroke-width="1.1929"/><path d="M16.5965,1.8275c-.1138,.3426-.3595,.4626-.7088,.4567-.6768-.0115-1.3548,.0176-2.0309-.0086-.8754-.034-1.7174,.1205-2.5565,.3442-.5823,.1552-1.1734,.2788-1.7631,.4043-.2124,.0452-.4325,.0545-.6629,.0818,.1339,.1709,.2635,.3252,.381,.4882,.4321,.5995,.8408,1.2168,1.2943,1.7995,.6528,.8386,1.4497,1.5048,2.4608,1.883,.018,.0067,.0344,.0177,.0844,.0439h-4.0702c-.0027-.0528-.0073-.1075-.008-.1622-.0031-.2447,.0039-.4899-.0097-.7339-.0166-.298-.1663-.5256-.429-.6627-.1019-.0532-.1169-.1157-.1266-.2171-.018-.1887-.0309-.3874-.1014-.5592-.1048-.2555-.3262-.402-.6022-.4399-.108-.0149-.1415-.0566-.1342-.159,.0047-.0665-.0022-.1356-.0153-.2013-.0286-.1438-.1306-.2095-.2681-.2158-.1335-.0061-.2483,.0972-.2663,.2364-.0126,.097-.0113,.1957-.0168,.3054h-.8355c.0362-.5565-.1089-1.0485-.5782-1.3976-.2838-.2111-.6088-.2894-.9574-.261-.4124,.0337-.7385,.2289-.9905,.5541-.2503,.3231-.301,.6989-.2778,1.1039h-1.1256v-1.3915c-.1029,0-.1904,.0041-.2773-.0007-.3126-.0172-.5398-.2293-.5628-.5215-.023-.2929,.1697-.5267,.4846-.5884,.0198-.0039,.0389-.0113,.0656-.0192v-.8322c-.09,0-.1768,.0063-.2625-.0013-.1778-.0157-.2935-.1347-.2883-.2868,.0053-.156,.1213-.2659,.305-.2684,.3593-.005,.7187-.0053,1.078,.0008,.1789,.003,.2978,.1231,.297,.2773-.0007,.1466-.1131,.26-.2841,.2765-.0823,.0079-.166,.0014-.2617,.0014v.8346H7.0408v-.8346c-.0879,0-.1749,.0066-.2606-.0014-.1842-.0171-.288-.1272-.2824-.2888,.0055-.1557,.1103-.2615,.2886-.2646,.3644-.0063,.7291-.0063,1.0936-.0003,.1769,.0029,.2831,.1099,.2889,.265,.006,.1605-.0993,.2717-.2828,.2888-.0817,.0076-.1648,.0013-.2588,.0013v.8358c.32,0,.6357-.0005,.9515,.0001,.6587,.0013,1.2819-.2002,1.9165-.336,.7116-.1523,1.421-.3159,2.1348-.4572,.2172-.043,.4459-.0373,.6694-.0384,.8489-.004,1.698,.0089,2.5466-.0067,.3492-.0064,.6065,.0936,.7504,.4235v.25Z" fill="none" stroke="#fff" stroke-miterlimit="10" stroke-width="1.1929"/><path d="M1.16,7.3247c0-.2892-.0053-.5643,.0021-.839,.004-.147,.0904-.241,.2385-.266,.061-.0103,.124-.0116,.1862-.0116,2.1445-.0005,4.2889-.0005,6.4334-.0004,.3597,0,.4358,.0771,.4357,.4429,0,.2082-.0013,.4163-.0031,.6245-.0001,.0146-.0089,.0292-.0156,.0496H1.16Z" fill="none" stroke="#fff" stroke-miterlimit="10" stroke-width="1.1929"/><path d="M5.6329,5.6404h-1.6472c-.0061-.0199-.0169-.0388-.0169-.0576-.0004-.458-.0065-.9161,.0032-1.3739,.0077-.3597,.2472-.6576,.588-.7624,.3419-.1051,.7091,.0063,.914,.2992,.0748,.107,.1475,.2423,.1518,.3671,.0171,.5028,.0071,1.0065,.0071,1.5276Zm-.5472-1.3918c.002-.1479-.1262-.278-.2756-.2799-.1511-.0019-.2765,.1211-.2785,.2734-.002,.1531,.1186,.2762,.2719,.2776,.1532,.0014,.2802-.1206,.2822-.271Z" fill="none" stroke="#fff" stroke-miterlimit="10" stroke-width="1.1929"/><path d="M3.3972,5.0856v.5512H1.7253c0-.1019-.0095-.2048,.0022-.3051,.0174-.1485,.1235-.2414,.2956-.2439,.4517-.0065,.9036-.0022,1.374-.0022Z" fill="none" stroke="#fff" stroke-miterlimit="10" stroke-width="1.1929"/><path d="M7.8736,5.6392h-1.647v-.5548h.6079c.203,0,.4059,0,.6089,0,.3965,.0001,.5163,.1521,.4303,.5547Z" fill="none" stroke="#fff" stroke-miterlimit="10" stroke-width="1.1929"/></g><g><path d="M.5965,8.1087c.0709-.1672,.2037-.2173,.3764-.2172,4.9882,.0016,9.9765,.0012,14.9647,.0016,.28,0,.377,.0972,.3774,.375,.0008,.4999-.0035,.9998,.0022,1.4996,.002,.1757-.0531,.3039-.2208,.3723H.5965v-2.0312Z" fill="#747474"/><path d="M16.5965,1.8275c-.1138,.3426-.3595,.4626-.7088,.4567-.6768-.0115-1.3548,.0176-2.0309-.0086-.8754-.034-1.7174,.1205-2.5565,.3442-.5823,.1552-1.1734,.2788-1.7631,.4043-.2124,.0452-.4325,.0545-.6629,.0818,.1339,.1709,.2635,.3252,.381,.4882,.4321,.5995,.8408,1.2168,1.2943,1.7995,.6528,.8386,1.4497,1.5048,2.4608,1.883,.018,.0067,.0344,.0177,.0844,.0439h-4.0702c-.0027-.0528-.0073-.1075-.008-.1622-.0031-.2447,.0039-.4899-.0097-.7339-.0166-.298-.1663-.5256-.429-.6627-.1019-.0532-.1169-.1157-.1266-.2171-.018-.1887-.0309-.3874-.1014-.5592-.1048-.2555-.3262-.402-.6022-.4399-.108-.0149-.1415-.0566-.1342-.159,.0047-.0665-.0022-.1356-.0153-.2013-.0286-.1438-.1306-.2095-.2681-.2158-.1335-.0061-.2483,.0972-.2663,.2364-.0126,.097-.0113,.1957-.0168,.3054h-.8355c.0362-.5565-.1089-1.0485-.5782-1.3976-.2838-.2111-.6088-.2894-.9574-.261-.4124,.0337-.7385,.2289-.9905,.5541-.2503,.3231-.301,.6989-.2778,1.1039h-1.1256v-1.3915c-.1029,0-.1904,.0041-.2773-.0007-.3126-.0172-.5398-.2293-.5628-.5215-.023-.2929,.1697-.5267,.4846-.5884,.0198-.0039,.0389-.0113,.0656-.0192v-.8322c-.09,0-.1768,.0063-.2625-.0013-.1778-.0157-.2935-.1347-.2883-.2868,.0053-.156,.1213-.2659,.305-.2684,.3593-.005,.7187-.0053,1.078,.0008,.1789,.003,.2978,.1231,.297,.2773-.0007,.1466-.1131,.26-.2841,.2765-.0823,.0079-.166,.0014-.2617,.0014v.8346H7.0408v-.8346c-.0879,0-.1749,.0066-.2606-.0014-.1842-.0171-.288-.1272-.2824-.2888,.0055-.1557,.1103-.2615,.2886-.2646,.3644-.0063,.7291-.0063,1.0936-.0003,.1769,.0029,.2831,.1099,.2889,.265,.006,.1605-.0993,.2717-.2828,.2888-.0817,.0076-.1648,.0013-.2588,.0013v.8358c.32,0,.6357-.0005,.9515,.0001,.6587,.0013,1.2819-.2002,1.9165-.336,.7116-.1523,1.421-.3159,2.1348-.4572,.2172-.043,.4459-.0373,.6694-.0384,.8489-.004,1.698,.0089,2.5466-.0067,.3492-.0064,.6065,.0936,.7504,.4235v.25Z" fill="#747474"/><path d="M1.16,7.3247c0-.2892-.0053-.5643,.0021-.839,.004-.147,.0904-.241,.2385-.266,.061-.0103,.124-.0116,.1862-.0116,2.1445-.0005,4.2889-.0005,6.4334-.0004,.3597,0,.4358,.0771,.4357,.4429,0,.2082-.0013,.4163-.0031,.6245-.0001,.0146-.0089,.0292-.0156,.0496H1.16Z" fill="#747474"/><path d="M5.6329,5.6404h-1.6472c-.0061-.0199-.0169-.0388-.0169-.0576-.0004-.458-.0065-.9161,.0032-1.3739,.0077-.3597,.2472-.6576,.588-.7624,.3419-.1051,.7091,.0063,.914,.2992,.0748,.107,.1475,.2423,.1518,.3671,.0171,.5028,.0071,1.0065,.0071,1.5276Zm-.5472-1.3918c.002-.1479-.1262-.278-.2756-.2799-.1511-.0019-.2765,.1211-.2785,.2734-.002,.1531,.1186,.2762,.2719,.2776,.1532,.0014,.2802-.1206,.2822-.271Z" fill="#747474"/><path d="M3.3972,5.0856v.5512H1.7253c0-.1019-.0095-.2048,.0022-.3051,.0174-.1485,.1235-.2414,.2956-.2439,.4517-.0065,.9036-.0022,1.374-.0022Z" fill="#747474"/><path d="M7.8736,5.6392h-1.647v-.5548h.6079c.203,0,.4059,0,.6089,0,.3965,.0001,.5163,.1521,.4303,.5547Z" fill="#747474"/></g></svg>