<?xml version="1.0" encoding="UTF-8"?><svg id="Layer_2" xmlns="http://www.w3.org/2000/svg" viewBox="0 0 17.8279 15.2627"><g id="svg6"><path id="path5463" d="m7.8219,4.0958v1.1258l-1.1258.0351c-1.2551,1.6094-2.7351,2.4582-4.503,3.3421l-1.1258,5.6639h15.7605l-1.1258-5.6639c-1.9124-.6543-3.1023-1.9633-4.503-3.3421l-1.1258-.0351v-1.1258h-2.2515Zm1.1258,4.0457c1.2154,0,2.2164.9658,2.2164,2.1811s-1.0009,2.2164-2.2164,2.2164-2.2164-1.0009-2.2164-2.2164,1.0009-2.1811,2.2164-2.1811ZM2.1931,1.8443c3.3773-1.1258,10.1318-1.1258,13.509,0,1.0636,1.5183,1.1258,2.7399,1.1258,4.503h-3.3773l-1.1258-2.2515h-6.7545l-1.1258,2.2515H1.0673c-.2769-1.8174.3399-2.9314,1.1258-4.503Z" fill="none" isolation="isolate" opacity=".3" stroke="#fff" stroke-linejoin="round" stroke-width="2"/><path id="path5453" d="m7.8219,4.0958v1.1258l-1.1258.0351c-1.2551,1.6094-2.7351,2.4582-4.503,3.3421l-1.1258,5.6639h15.7605l-1.1258-5.6639c-1.9124-.6543-3.1023-1.9633-4.503-3.3421l-1.1258-.0351v-1.1258h-2.2515Zm1.1258,4.0457c1.2154,0,2.2164.9658,2.2164,2.1811s-1.0009,2.2164-2.2164,2.2164-2.2164-1.0009-2.2164-2.2164,1.0009-2.1811,2.2164-2.1811ZM2.1931,1.8443c3.3773-1.1258,10.1318-1.1258,13.509,0,1.0636,1.5183,1.1258,2.7399,1.1258,4.503h-3.3773l-1.1258-2.2515h-6.7545l-1.1258,2.2515H1.0673c-.2769-1.8174.3399-2.9314,1.1258-4.503Z" fill="#747474"/></g></svg>