<?xml version="1.0" encoding="UTF-8"?><svg id="Layer_2" xmlns="http://www.w3.org/2000/svg" viewBox="0 0 15.8424 17.3805"><g id="svg5369"><path id="path7719" d="m4.5888,1c-1.1326,0-2.0507.9181-2.0507,2.0507s.9181,2.0507,2.0507,2.0507,2.0507-.9181,2.0507-2.0507-.9181-2.0507-2.0507-2.0507Zm7.1776,0c-1.1326,0-2.0507.9181-2.0507,2.0507s.9181,2.0507,2.0507,2.0507,2.0507-.9181,2.0507-2.0507-.9181-2.0507-2.0507-2.0507Zm-7.6902,5.1268l-1.538,1.538v2.5634l-1.538,2.5634.5127.5127h2.0507v3.0761h2.0507v-3.0761h2.0507l.5127-.5127-1.538-2.5634v-2.5634l-1.538-1.538h-1.0254Zm5.6395,0l-1.0254,1.0254,2.0507,4.6141v4.6141h2.0507v-4.6141l2.0507-4.6141-1.0254-1.0254h-4.1015Z" fill="none" isolation="isolate" opacity=".3" stroke="#fff" stroke-linecap="round" stroke-linejoin="round" stroke-width="2"/><path id="path7660" d="m4.5888,1c-1.1326,0-2.0507.9181-2.0507,2.0507s.9181,2.0507,2.0507,2.0507,2.0507-.9181,2.0507-2.0507-.9181-2.0507-2.0507-2.0507Zm7.1776,0c-1.1326,0-2.0507.9181-2.0507,2.0507s.9181,2.0507,2.0507,2.0507,2.0507-.9181,2.0507-2.0507-.9181-2.0507-2.0507-2.0507Zm-7.6902,5.1268l-1.538,1.538v2.5634l-1.538,2.5634.5127.5127h2.0507v3.0761h2.0507v-3.0761h2.0507l.5127-.5127-1.538-2.5634v-2.5634l-1.538-1.538h-1.0254Zm5.6395,0l-1.0254,1.0254,2.0507,4.6141v4.6141h2.0507v-4.6141l2.0507-4.6141-1.0254-1.0254h-4.1015Z" fill="#747474"/></g></svg>