<?xml version="1.0" encoding="UTF-8"?><svg id="Layer_2" xmlns="http://www.w3.org/2000/svg" viewBox="0 0 11.6039 11.6039"><g id="svg5369"><path id="path15745" d="m9.5368,3.1342l-3.7348-2.1342-3.7348,2.1342v6.4026l-1.0671,1.0671h9.6039l-1.0671-1.0671V3.1342Zm-6.4026,2.6677l.5335-.5335.5335.5335v2.6677h-1.0671v-2.6677Zm2.1342,0l.5335-.5335.5335.5335v2.6677h-1.0671v-2.6677Zm2.1342,0l.5335-.5335.5335.5335v2.6677h-1.0671v-2.6677Z" fill="#fff" isolation="isolate" opacity=".3" stroke="#fff" stroke-linecap="round" stroke-linejoin="round" stroke-width="2"/><path id="rect7645-6-5-0-0-5" d="m5.8019,1l-3.7348,2.1342h7.4697l-3.7348-2.1342Zm-3.2013,3.2013c-.2956,0-.5335.238-.5335.5335v4.8019l-1.0671,1.0671h9.6039l-1.0671-1.0671v-4.8019c0-.2956-.238-.5335-.5335-.5335H2.6006Zm.5335,1.6006l.5335-.5335.5335.5335v2.6677h-1.0671v-2.6677Zm2.1342,0l.5335-.5335.5335.5335v2.6677h-1.0671v-2.6677Zm2.1342,0l.5335-.5335.5335.5335v2.6677h-1.0671v-2.6677Z" fill="#525252"/></g></svg>