<?xml version="1.0" encoding="UTF-8"?><svg id="svg2" xmlns="http://www.w3.org/2000/svg" viewBox="0 0 7.8667 18"><g id="layer1" transform="translate(0,-302.36218)"><g><path d="M6.2267,1H1.64c-.3535,0-.64,.2865-.64,.64v14.72c0,.3535,.2865,.64,.64,.64H6.2267c.3535,0,.64-.2865,.64-.64V1.64c0-.3535-.2865-.64-.64-.64ZM3.9333,15.8053c-1.0309,0-1.8667-.8357-1.8667-1.8667s.8357-1.8667,1.8667-1.8667,1.8667,.8357,1.8667,1.8667-.8357,1.8667-1.8667,1.8667Zm-1.8667-6.7936c0-1.0303,.8353-1.8656,1.8656-1.8656s1.8656,.8353,1.8656,1.8656-.8353,1.8656-1.8656,1.8656-1.8656-.8353-1.8656-1.8656Zm1.8667-3.0624c-1.0309,0-1.8667-.8357-1.8667-1.8667s.8357-1.8667,1.8667-1.8667,1.8667,.8357,1.8667,1.8667-.8357,1.8667-1.8667,1.8667Z" fill="none" opacity=".3" stroke="#fff" stroke-miterlimit="10" stroke-width="2"/><path d="M6.2267,1H1.64c-.3535,0-.64,.2865-.64,.64v14.72c0,.3535,.2865,.64,.64,.64H6.2267c.3535,0,.64-.2865,.64-.64V1.64c0-.3535-.2865-.64-.64-.64ZM3.9333,15.8053c-1.0309,0-1.8667-.8357-1.8667-1.8667s.8357-1.8667,1.8667-1.8667,1.8667,.8357,1.8667,1.8667-.8357,1.8667-1.8667,1.8667Zm-1.8667-6.7936c0-1.0303,.8353-1.8656,1.8656-1.8656s1.8656,.8353,1.8656,1.8656-.8353,1.8656-1.8656,1.8656-1.8656-.8353-1.8656-1.8656Zm1.8667-3.0624c-1.0309,0-1.8667-.8357-1.8667-1.8667s.8357-1.8667,1.8667-1.8667,1.8667,.8357,1.8667,1.8667-.8357,1.8667-1.8667,1.8667Z" fill="#747474"/></g></g></svg>