<?xml version="1.0" encoding="UTF-8"?><svg id="Layer_2" xmlns="http://www.w3.org/2000/svg" viewBox="0 0 12 18"><g id="svg6"><path id="path2" d="m5.9999,1L1.9688,3l.0312,5-1,9h1l.25-2h7.5l.25,2h1l-1-9-.0312-5-3.9688-2Zm-3,8.125c1.7672,1.5031,4.2332,1.4999,6,0l.5312,3.875H2.5468l.4531-3.875Z" fill="none" isolation="isolate" opacity=".3" stroke="#fff" stroke-linejoin="round" stroke-width="2"/><path id="path4" d="m5.9999,1L1.9688,3l.0312,5-1,9h1l.25-2h7.5l.25,2h1l-1-9-.0312-5-3.9688-2Zm-3,8.125c1.7672,1.5031,4.2332,1.4999,6,0l.5312,3.875H2.5468l.4531-3.875Z" fill="#747474"/></g></svg>