<?xml version="1.0" encoding="UTF-8"?><svg id="Layer_1" xmlns="http://www.w3.org/2000/svg" viewBox="0 0 35.8298 31.5745"><polygon points="23.1915 3.468 23.1915 2.468 22.1915 2.468 22.1915 3.468 20.2447 3.468 20.2447 2.468 19.2447 2.468 19.2447 3.468 17.2234 3.468 17.2234 2.468 16.2234 2.468 16.2234 3.468 14.3085 3.468 14.3085 4.468 16.2234 4.468 17.2234 4.468 19.2447 4.468 20.2447 4.468 22.1915 4.468 23.1915 4.468 25.3085 4.468 25.3085 3.468 23.1915 3.468" fill="#99daf1"/><polygon points="20.1489 11.4894 20.1489 10.4894 19.1489 10.4894 19.1489 11.4894 17.2021 11.4894 17.2021 10.4894 16.2021 10.4894 16.2021 11.4894 14.1808 11.4894 14.1808 10.4894 13.1808 10.4894 13.1808 11.4894 11.266 11.4894 11.266 12.4894 13.1808 12.4894 14.1808 12.4894 16.2021 12.4894 17.2021 12.4894 19.1489 12.4894 20.1489 12.4894 22.266 12.4894 22.266 11.4894 20.1489 11.4894" fill="#99daf1"/><polygon points="11.2127 7.4043 11.2127 8.4043 10.2127 8.4043 10.2127 7.4043 8.2659 7.4043 8.2659 8.4043 7.2659 8.4043 7.2659 7.4043 5.2446 7.4043 5.2446 8.4043 4.2446 8.4043 4.2446 7.4043 2.3298 7.4043 2.3298 6.4043 4.2446 6.4043 5.2446 6.4043 7.2659 6.4043 8.2659 6.4043 10.2127 6.4043 11.2127 6.4043 13.3298 6.4043 13.3298 7.4043 11.2127 7.4043" fill="#99daf1"/><polygon points="31.2872 20.468 31.2872 19.468 30.2872 19.468 30.2872 20.468 28.3405 20.468 28.3405 19.468 27.3405 19.468 27.3405 20.468 25.3192 20.468 25.3192 19.468 24.3192 19.468 24.3192 20.468 22.4043 20.468 22.4043 21.468 24.3192 21.468 25.3192 21.468 27.3405 21.468 28.3405 21.468 30.2872 21.468 31.2872 21.468 33.4043 21.468 33.4043 20.468 31.2872 20.468" fill="#99daf1"/><polygon points="28.2446 28.4894 28.2446 27.4894 27.2446 27.4894 27.2446 28.4894 25.2979 28.4894 25.2979 27.4894 24.2979 27.4894 24.2979 28.4894 22.2766 28.4894 22.2766 27.4894 21.2766 27.4894 21.2766 28.4894 19.3617 28.4894 19.3617 29.4894 21.2766 29.4894 22.2766 29.4894 24.2979 29.4894 25.2979 29.4894 27.2446 29.4894 28.2446 29.4894 30.3617 29.4894 30.3617 28.4894 28.2446 28.4894" fill="#99daf1"/><polygon points="19.3085 24.4043 19.3085 25.4043 18.3085 25.4043 18.3085 24.4043 16.3617 24.4043 16.3617 25.4043 15.3617 25.4043 15.3617 24.4043 13.3404 24.4043 13.3404 25.4043 12.3404 25.4043 12.3404 24.4043 10.4255 24.4043 10.4255 23.4043 12.3404 23.4043 13.3404 23.4043 15.3617 23.4043 16.3617 23.4043 18.3085 23.4043 19.3085 23.4043 21.4255 23.4043 21.4255 24.4043 19.3085 24.4043" fill="#99daf1"/></svg>