<?xml version="1.0" encoding="UTF-8"?><svg id="Layer_1" xmlns="http://www.w3.org/2000/svg" viewBox="0 0 32 30"><polygon points="21.2766 2.6808 21.2766 1.6808 20.2766 1.6808 20.2766 2.6808 18.3298 2.6808 18.3298 1.6808 17.3298 1.6808 17.3298 2.6808 15.3085 2.6808 15.3085 1.6808 14.3085 1.6808 14.3085 2.6808 12.3936 2.6808 12.3936 3.6808 14.3085 3.6808 15.3085 3.6808 17.3298 3.6808 18.3298 3.6808 20.2766 3.6808 21.2766 3.6808 23.3936 3.6808 23.3936 2.6808 21.2766 2.6808" fill="#99daf1"/><polygon points="18.234 10.7021 18.234 9.7021 17.234 9.7021 17.234 10.7021 15.2872 10.7021 15.2872 9.7021 14.2872 9.7021 14.2872 10.7021 12.2659 10.7021 12.2659 9.7021 11.2659 9.7021 11.2659 10.7021 9.3511 10.7021 9.3511 11.7021 11.2659 11.7021 12.2659 11.7021 14.2872 11.7021 15.2872 11.7021 17.234 11.7021 18.234 11.7021 20.3511 11.7021 20.3511 10.7021 18.234 10.7021" fill="#99daf1"/><polygon points="9.2978 6.617 9.2978 7.617 8.2978 7.617 8.2978 6.617 6.3511 6.617 6.3511 7.617 5.3511 7.617 5.3511 6.617 3.3297 6.617 3.3297 7.617 2.3297 7.617 2.3297 6.617 .4149 6.617 .4149 5.617 2.3297 5.617 3.3297 5.617 5.3511 5.617 6.3511 5.617 8.2978 5.617 9.2978 5.617 11.4149 5.617 11.4149 6.617 9.2978 6.617" fill="#99daf1"/><polygon points="29.3723 19.6808 29.3723 18.6808 28.3723 18.6808 28.3723 19.6808 26.4256 19.6808 26.4256 18.6808 25.4256 18.6808 25.4256 19.6808 23.4043 19.6808 23.4043 18.6808 22.4043 18.6808 22.4043 19.6808 20.4894 19.6808 20.4894 20.6808 22.4043 20.6808 23.4043 20.6808 25.4256 20.6808 26.4256 20.6808 28.3723 20.6808 29.3723 20.6808 31.4894 20.6808 31.4894 19.6808 29.3723 19.6808" fill="#99daf1"/><polygon points="26.3298 27.7021 26.3298 26.7021 25.3298 26.7021 25.3298 27.7021 23.383 27.7021 23.383 26.7021 22.383 26.7021 22.383 27.7021 20.3617 27.7021 20.3617 26.7021 19.3617 26.7021 19.3617 27.7021 17.4468 27.7021 17.4468 28.7021 19.3617 28.7021 20.3617 28.7021 22.383 28.7021 23.383 28.7021 25.3298 28.7021 26.3298 28.7021 28.4468 28.7021 28.4468 27.7021 26.3298 27.7021" fill="#99daf1"/><polygon points="17.3936 23.617 17.3936 24.617 16.3936 24.617 16.3936 23.617 14.4468 23.617 14.4468 24.617 13.4468 24.617 13.4468 23.617 11.4255 23.617 11.4255 24.617 10.4255 24.617 10.4255 23.617 8.5107 23.617 8.5107 22.617 10.4255 22.617 11.4255 22.617 13.4468 22.617 14.4468 22.617 16.3936 22.617 17.3936 22.617 19.5107 22.617 19.5107 23.617 17.3936 23.617" fill="#99daf1"/></svg>