<?xml version="1.0" encoding="UTF-8"?><svg id="Layer_1" xmlns="http://www.w3.org/2000/svg" viewBox="0 0 17.9779 17.9999"><g opacity=".3"><path d="M10.2622,2.8105c.6938,.3123,1.3314,.6076,1.9784,.8807,.0865,.0365,.243-.0076,.3283-.0687,.3551-.2542,.698-.5258,1.0398-.798,.1839-.1464,.3397-.137,.503,.0328,.3296,.3426,.6613,.6836,1.0023,1.0148,.1704,.1655,.186,.31,.0334,.4974-.2676,.3287-.5142,.6747-.7813,1.0038-.1302,.1604-.1331,.2853-.0402,.4807,.2418,.5084,.4626,1.0299,.645,1.5621,.085,.2481,.2002,.343,.4507,.3615,.3838,.0284,.7638,.1067,1.1476,.1358,.2989,.0226,.4003,.1772,.399,.451-.0021,.4372-.0083,.8748,.0091,1.3114,.0111,.2783-.1158,.4019-.3736,.432-.3831,.0447-.765,.113-1.1492,.1305-.2977,.0136-.4271,.1445-.4925,.4222-.0639,.2712-.1779,.5305-.3031,.8907-.4673-.4522-.8947-.8461-1.2913-1.2689-.066-.0704-.014-.2697,.0107-.4044,.4527-2.4667-1.0874-4.8178-3.5443-5.2719-3.2343-.5977-5.1911,2.0286-5.3185,4.1003-.1745,2.8382,2.3723,5.3376,5.445,4.7012,.1229-.0254,.304-.0267,.3846,.0441,.421,.3701,.8182,.7671,1.2868,1.2152-.4208,.1445-.7747,.249-1.1126,.3916-.113,.0477-.2431,.1813-.2653,.2952-.0836,.428-.137,.8631-.1794,1.2976-.0237,.243-.1369,.3377-.3704,.3369-.4757-.0016-.9515-.0003-1.427,.0116-.2378,.0059-.3486-.0888-.375-.3292-.0477-.4341-.0998-.8695-.189-1.2963-.026-.1243-.1629-.2667-.2849-.3227-.535-.2454-1.0794-.4722-1.6296-.6813-.1159-.044-.3035-.0331-.4018,.0345-.349,.2397-.6793,.5081-1.0056,.779-.2101,.1744-.3758,.1607-.5625-.0375-.317-.3368-.6468-.6619-.978-.9849-.1693-.1651-.177-.3175-.0295-.5023,.2646-.3313,.5078-.6801,.7792-1.0055,.135-.1619,.1402-.2765,.0457-.473-.2438-.5074-.4611-1.03-.6492-1.5607-.0852-.2403-.1903-.3582-.4498-.3765-.397-.028-.7906-.1022-1.1874-.1362-.2414-.0207-.3476-.139-.3494-.3677-.0037-.4885-.0259-.9787,.009-1.4646,.0088-.1229,.1875-.3067,.3158-.3346,.4127-.0897,.8426-.0989,1.2566-.184,.1379-.0283,.3004-.1672,.3617-.2978,.2555-.5446,.487-1.1015,.702-1.6635,.0429-.1121,.0185-.2964-.0497-.3963-.2388-.3497-.504-.6822-.7719-1.0108-.1619-.1986-.1457-.3567,.0336-.5328,.33-.3241,.6546-.6544,.9694-.9933,.1801-.1939,.3445-.1774,.5349-.0265,.3323,.2635,.6762,.5128,1.002,.7839,.1496,.1245,.2535,.1288,.4374,.0409,.5196-.2485,1.0547-.468,1.5952-.668,.2084-.0771,.3088-.164,.3279-.3953,.0339-.4091,.1177-.8138,.1623-1.2223,.0269-.2466,.1282-.371,.3885-.3675,.4627,.0063,.9258,.0029,1.3885-.0067,.2563-.0053,.3707,.1135,.3996,.3614,.0592,.5094,.132,1.0172,.1891,1.449h-.0001Z" fill="none" stroke="#fff" stroke-miterlimit="10" stroke-width="2"/><path d="M9.5583,6.4229c.9023,.0174,1.7264,.2047,2.3404,.939,.2451,.2931,.3939,.6154,.3963,1.0019,.0017,.2782,.0214,.5567,.0157,.8347-.016,.778,.2708,1.4294,.7947,1.9927,.4775,.5134,.938,1.0427,1.4199,1.5518,.1584,.1674,.2112,.3062,.0309,.4764-.451,.426-.9015,.8525-1.3558,1.2749-.2002,.1861-.3644,.1643-.556-.0526-.3755-.4249-.7884-.8166-1.1767-1.2306-.4696-.5005-1.0559-.7227-1.7271-.7554-.1112-.0055-.223-.0119-.3338-.0056-.7513,.0419-1.3545-.2414-1.7818-.8541-.3301-.4732-.6404-.9625-.9208-1.4662-.0743-.1334-.0057-.3463-.0028-.5227,.1721,.019,.3707-.0105,.5112,.0662,.3898,.2129,.7635,.4586,1.1281,.7133,.2815,.1967,.5427,.1679,.8041-.0093,.615-.4168,.8968-1.0494,.9981-1.7431,.03-.2055-.1667-.5091-.3476-.6667-.3495-.3047-.7677-.5292-1.1446-.8045-.1439-.1051-.2527-.2585-.3775-.3898,.163-.0957,.3156-.2347,.4914-.2766,.2559-.0612,.5285-.0525,.7939-.0736h-.0002Z" fill="none" stroke="#fff" stroke-miterlimit="10" stroke-width="2"/></g><g><path d="M10.2622,2.8105c.6938,.3123,1.3314,.6076,1.9784,.8807,.0865,.0365,.243-.0076,.3283-.0687,.3551-.2542,.698-.5258,1.0398-.798,.1839-.1464,.3397-.137,.503,.0328,.3296,.3426,.6613,.6836,1.0023,1.0148,.1704,.1655,.186,.31,.0334,.4974-.2676,.3287-.5142,.6747-.7813,1.0038-.1302,.1604-.1331,.2853-.0402,.4807,.2418,.5084,.4626,1.0299,.645,1.5621,.085,.2481,.2002,.343,.4507,.3615,.3838,.0284,.7638,.1067,1.1476,.1358,.2989,.0226,.4003,.1772,.399,.451-.0021,.4372-.0083,.8748,.0091,1.3114,.0111,.2783-.1158,.4019-.3736,.432-.3831,.0447-.765,.113-1.1492,.1305-.2977,.0136-.4271,.1445-.4925,.4222-.0639,.2712-.1779,.5305-.3031,.8907-.4673-.4522-.8947-.8461-1.2913-1.2689-.066-.0704-.014-.2697,.0107-.4044,.4527-2.4667-1.0874-4.8178-3.5443-5.2719-3.2343-.5977-5.1911,2.0286-5.3185,4.1003-.1745,2.8382,2.3723,5.3376,5.445,4.7012,.1229-.0254,.304-.0267,.3846,.0441,.421,.3701,.8182,.7671,1.2868,1.2152-.4208,.1445-.7747,.249-1.1126,.3916-.113,.0477-.2431,.1813-.2653,.2952-.0836,.428-.137,.8631-.1794,1.2976-.0237,.243-.1369,.3377-.3704,.3369-.4757-.0016-.9515-.0003-1.427,.0116-.2378,.0059-.3486-.0888-.375-.3292-.0477-.4341-.0998-.8695-.189-1.2963-.026-.1243-.1629-.2667-.2849-.3227-.535-.2454-1.0794-.4722-1.6296-.6813-.1159-.044-.3035-.0331-.4018,.0345-.349,.2397-.6793,.5081-1.0056,.779-.2101,.1744-.3758,.1607-.5625-.0375-.317-.3368-.6468-.6619-.978-.9849-.1693-.1651-.177-.3175-.0295-.5023,.2646-.3313,.5078-.6801,.7792-1.0055,.135-.1619,.1402-.2765,.0457-.473-.2438-.5074-.4611-1.03-.6492-1.5607-.0852-.2403-.1903-.3582-.4498-.3765-.397-.028-.7906-.1022-1.1874-.1362-.2414-.0207-.3476-.139-.3494-.3677-.0037-.4885-.0259-.9787,.009-1.4646,.0088-.1229,.1875-.3067,.3158-.3346,.4127-.0897,.8426-.0989,1.2566-.184,.1379-.0283,.3004-.1672,.3617-.2978,.2555-.5446,.487-1.1015,.702-1.6635,.0429-.1121,.0185-.2964-.0497-.3963-.2388-.3497-.504-.6822-.7719-1.0108-.1619-.1986-.1457-.3567,.0336-.5328,.33-.3241,.6546-.6544,.9694-.9933,.1801-.1939,.3445-.1774,.5349-.0265,.3323,.2635,.6762,.5128,1.002,.7839,.1496,.1245,.2535,.1288,.4374,.0409,.5196-.2485,1.0547-.468,1.5952-.668,.2084-.0771,.3088-.164,.3279-.3953,.0339-.4091,.1177-.8138,.1623-1.2223,.0269-.2466,.1282-.371,.3885-.3675,.4627,.0063,.9258,.0029,1.3885-.0067,.2563-.0053,.3707,.1135,.3996,.3614,.0592,.5094,.132,1.0172,.1891,1.449h-.0001Z" fill="#747474"/><path d="M9.5583,6.4229c.9023,.0174,1.7264,.2047,2.3404,.939,.2451,.2931,.3939,.6154,.3963,1.0019,.0017,.2782,.0214,.5567,.0157,.8347-.016,.778,.2708,1.4294,.7947,1.9927,.4775,.5134,.938,1.0427,1.4199,1.5518,.1584,.1674,.2112,.3062,.0309,.4764-.451,.426-.9015,.8525-1.3558,1.2749-.2002,.1861-.3644,.1643-.556-.0526-.3755-.4249-.7884-.8166-1.1767-1.2306-.4696-.5005-1.0559-.7227-1.7271-.7554-.1112-.0055-.223-.0119-.3338-.0056-.7513,.0419-1.3545-.2414-1.7818-.8541-.3301-.4732-.6404-.9625-.9208-1.4662-.0743-.1334-.0057-.3463-.0028-.5227,.1721,.019,.3707-.0105,.5112,.0662,.3898,.2129,.7635,.4586,1.1281,.7133,.2815,.1967,.5427,.1679,.8041-.0093,.615-.4168,.8968-1.0494,.9981-1.7431,.03-.2055-.1667-.5091-.3476-.6667-.3495-.3047-.7677-.5292-1.1446-.8045-.1439-.1051-.2527-.2585-.3775-.3898,.163-.0957,.3156-.2347,.4914-.2766,.2559-.0612,.5285-.0525,.7939-.0736h-.0002Z" fill="#747474"/></g></svg>