<?xml version="1.0" encoding="UTF-8"?><svg id="Layer_2" xmlns="http://www.w3.org/2000/svg" viewBox="0 0 18 9.8205"><g id="svg2"><path id="path4698" d="m9,1.0206v3.7686c0,.0183-.2245.0312-.5.0312s-.5-.013-.5-.0312V1.1143c-.6296.0991-1.3114.0732-2,.3311v3.3438c0,.0183-.2245.0312-.5.0312s-.5-.013-.5-.0312V1.8517c-3,.9688-3.9944,1.778-4,3.9688v3h16v-3c0-2.2148-2-4-5-4.4062v3.375c0,.0183-.2245.0312-.5.0312s-.5-.013-.5-.0312V1.1018c-.6631-.1675-1.3337-.0767-2-.0811h0Z" fill="#747474" opacity=".5" stroke="#fff" stroke-linejoin="round" stroke-width="2"/><path id="path15002-7" d="m9,1.0206v3.7686c0,.0183-.2245.0312-.5.0312s-.5-.013-.5-.0312V1.1143c-.6296.0991-1.3114.0732-2,.3311v3.3438c0,.0183-.2245.0312-.5.0312s-.5-.013-.5-.0312V1.8517c-3,.9688-3.9944,1.778-4,3.9688v3h16v-3c0-2.2148-2-4-5-4.4062v3.375c0,.0183-.2245.0312-.5.0312s-.5-.013-.5-.0312V1.1018c-.6631-.1675-1.3337-.0767-2-.0811h0Z" fill="#747474"/></g></svg>