<?xml version="1.0" encoding="UTF-8"?><svg id="Layer_1" xmlns="http://www.w3.org/2000/svg" width="70" height="70" viewBox="0 0 70 70"><rect width="70" height="70" fill="none"/><path d="M14.2454,59.589c.9349,.023,1.9294,.3215,3.1342,.715,0,0,.0138-.1125,.0138-.1124-3.5193-3.5585-7.1573-1.6737-10.4938,3.1988-.077,.1124,1.1348-7.0195,5.7754-7.8752,.6891-.1271,2.7468-.2742,3.9005-.3141,0,0-.0031-.1137-.0031-.1136-3.1595-.8906-7.5601-2.4419-10.2155,7.9262,.0597-1.1021,.2178-3.3082,.2178-3.3082,.0633-2.3744,.6965-6.2019-.104-9.5486,0,0-.0906-.0158-.0907-.0158-1.0084,3.1725-.6285,6.2086-.4702,9.4695,.0539,1.1103,.0154,3.922-.0353,3.5452-.751-5.5774-2.7969-8.9765-5.8745-9.4509v1.1557c3.2475,.9188,4.2475,2.5043,5.5127,8.6868,.0454,.1979-.6432-1.6473-1.2462-2.7378-1.0827-2.1187-2.6574-3.0629-4.2666-3.2242v1.2354c1.7604,.2491,2.9454,1.1141,4.2465,3.2417,.2814,.5104,.6432,1.2993,1.1859,2.5058-.0085-.0079-2.5367-3.0715-5.4323-3.3332v1.0727c.9409,.0968,1.6352,.3691,2.2638,.6364,1.0245,.4357,2.8623,1.6807,3.1082,2.5289-2.4262-1.5559-4.1409-1.3421-5.372-.6178v.7194c1.8229-.5991,3.9124-.9092,5.4662,.6141l.3306,.6115,.8927,.0128,.1901-.4815c2.5761-1.9407,4.6028-.9745,6.2187-.3048,.0213-.0606,.0155-.0441,.0367-.1047-1.6101-1.6119-2.517-1.9107-6.155-.3794,2.1273-3.5262,7.4096-2.4015,8.6197-1.7984,0,0,.0194-.1112,.0195-.1111-1.2449-1.7891-4.6394-2.6613-8.7397,.935,3.5575-5.7809,6.1622-5.0087,7.3659-4.9792Z" fill="#749b6c"/><path d="M18.2495,44.7927l-.5875,1.0498h-1.184l-.7172-1.0251c-2.0431-1.6884-5.1317-3.2814-10.3607-2.0632,0,0-.0547-.1284-.0546-.1286,3.5001-2.2586,7.2103-.9012,10.6172,1.1601-2.6209-4.2721-3.238-5.9994-9.4339-6.963,0,0-.0183-.1383-.0184-.1381,6.3219-.6264,7.5071,2.7005,9.9201,6.3143-.9116-5.8321-1.0033-9.7168-7.8431-11.9177,0,0,.0311-.136,.0309-.1359,6.207,.3144,7.5311,3.7813,8.2534,10.2577l.0924,.7391c.0713-2.4469,.5075-6.3895,2.3723-9.415-.2291-.3749,.2408-1.3339,1.1051-2.219,.9147-.9366,1.9236-1.4348,2.2535-1.1126s-.1442,1.3426-1.0588,2.2793c-.756,.7741-1.5752,1.2472-2.0234,1.2067-1.8742,3.0207-2.2806,7.0123-2.3363,9.4141,1.6197-4.7723,4.7436-9.555,10.5041-8.3869,0,0,.004,.1394,.0041,.1395-4.1351,.4773-6.483,1.8655-8.4332,5.3565-.6682,1.1962-1.0593,2.1187-1.5556,3.8095,3.1499-3.728,6.5351-5.554,10.4849-4.1962l-.0325,.1357c-2.7887,.1094-4.6876-.0335-7.6248,2.3216-.6442,.5165-1.8304,1.7698-2.3105,2.5759,3.0541-1.9113,6.9706-2.6601,9.7889-.8622,0,0-.0599,.126-.0599,.1261-3.3922-.6585-5.9924-.6581-9.7924,1.6777Z" fill="#749b6c"/><path d="M31.9116,22.1882c-3.2053-6.1717-6.5245-6.7039-10.4543-6.4333l-.0446-.2134c5.4164-2.1362,7.3713-.0358,10.732,5.5188-.4856-2.1495-.6605-2.8943-1.4181-4.831-.9283-2.3729-1.8071-5.2255-7.7267-5.6249,0-.0001,.0056-.2195,.0056-.2195,7.4302-2.1772,8.3965,4.8825,9.645,9.3107-.0749-2.5926-.24-6.1019-.9701-9.5596l-.0199-.0342c-.4203-.1472-.9386-.9624-1.2501-2.0262-.3679-1.2564-.3074-2.38,.1351-2.5096,.4425-.1296,1.0995,.7839,1.4674,2.0403,.3343,1.1418,.3138,2.1712-.0247,2.4473,.7014,3.314,.8865,6.6662,.9679,9.2296,.8801-7.5028,2.5868-11.9071,7.8107-11.1747-.0002-.0002,.0424,.2138,.0424,.2138-4.7211,1.6501-6.5113,4.5699-7.2104,12.1735,2.7366-4.8958,4.632-8.7397,11.2348-5.8279-.0001-.0002-.0253,.2173-.0253,.2173-6.0968-.7694-7.9759,.8037-10.8163,6.6593,3.9435-1.8302,7.8657-3.8455,9.9761,.8168,0,.0003-.1096,.146-.1096,.146-2.0008-1.4872-3.5756-3.9317-9.9102,.2607l-.2947,1.0097-1.328-.0159-.111-.4638c-2.2201-2.3311-6.8011-4.0058-10.8429-2.6514,0-.0001-.0822-.1984-.0822-.1984,3.6569-2.5745,6.6284-1.482,10.6219,1.7398Z" fill="#749b6c"/><path d="M.1761,17.9843c.0541,.2679,.1047,.5373,.1548,.807-.0324-.9238-.0617-1.8056-.0786-2.6017C.1165,12.6474-.1134,8.7586,.6643,5.4699h.2232c.4044,3.52,.0901,7.1492-.021,10.712,0,0-.0103,.973-.0222,2.1033,.3309-1.7378,.6506-3.4816,1.4255-5.1011,1.3792-3.3281,4.6183-5.2534,7.7773-4.502,0,0,.0026,.0814,.0026,.0814-.755,.1561-1.497,.3053-2.2085,.54-4.0603,1.2599-5.6278,4.5505-6.5652,8.6704-.0987,.3668-.1912,.7378-.285,1.1093,.0245-.0478,.0484-.0959,.0731-.1436,2.4332-4.9756,6.4273-9.0933,11.5439-7.142,0,0-.0116,.0805-.0116,.0805-.8017-.0038-1.5887,.0114-2.3615,.0992-4.2548,.4744-6.7877,3.4146-8.8385,7.1668-.0736,.1323-.0786,.1428-.2195,.3921,2.678-3.0543,5.2986-6.103,9.7421-4.3951,0,0-.0164,.0796-.0164,.0796-3.6009-.2239-6.4535,1.4365-8.9198,4.0279,2.8292-1.5084,5.7688-2.419,8.6739-.824,0,.0001-.0276,.0762-.0276,.0762-3.0839-.6749-6.0782,.2524-8.9001,1.5682,1.864-.4672,3.724-.4216,5.5091,.6134,0,.0001-.0294,.0755-.0294,.0755-1.7888-.4273-4.1722-.3237-5.9048,.0891l-.4465,.6854-.8575-.0083v-4.4573c.0631,.3028,.1221,.6086,.1761,.9175Z" fill="#749b6c"/><path d="M42.5075,66.3423c3.4584-2.5513,6.48-4.2315,10.033-1.4359,0,.0002-.0554,.1591-.0554,.1591-5.3081-1.5077-7.8762,.3245-9.7726,2.5537l-.7281,1.1072h-1.2019l-.5964-1.1377c-3.8574-2.8911-6.4969-2.8916-9.9405-2.0766,0-.0001-.0609-.1561-.0609-.1561,2.8609-2.2253,6.8366-1.2984,9.9369,1.0672-.4874-.9978-1.6916-2.5491-2.3455-3.1883-2.9816-2.915-4.9093-2.7381-7.7401-2.8735l-.033-.1679c4.0095-1.6806,7.4459,.5795,10.6434,5.1938-.5802-2.4605-.895-3.4005-1.6038-4.8597-1.8433-3.9881-4.3383-5.8948-8.536-6.4856,0-.0001,.0041-.1727,.0041-.1727,5.8769-1.49,8.8841,3.8759,10.5179,9.7149l-.1494-3.2292c-.0017-.0311-.0568-.9009-.0888-1.4061l-.0225-.3551c-.0137-.2181-.0251-.4356-.0365-.6527-.0829-1.5803-.1612-3.0731-1.0596-4.9179l-.7887-1.2782c-.5089,.0035-1.3878-.6061-2.1674-1.5489-.9434-1.141-1.3825-2.3354-.9806-2.6676,.4019-.3323,1.4925,.3233,2.4359,1.4643,.9152,1.1069,1.3533,2.2615,1.012,2.6331l.7672,1.2442c.9345,1.9168,1.018,3.5118,1.0989,5.0542,.0113,.2163,.0227,.4325,.0363,.6498l.0225,.3546c.0322,.5098,.0879,1.3896,.089,1.4115l.1496,3.2327c.2196-2.0133,.5801-3.7486,.8079-5.2703,.7091-3.713,3.4779-5.8685,7.5756-6.6636-.0001-.0002,.0314,.1682,.0314,.1682-6.4717,3.2389-7.136,5.8412-7.7289,13.5609,2.4495-4.473,4.1492-9.4237,10.5666-8.6484,0-.0002-.0187,.171-.0187,.171-6.2897,1.1927-7.4126,4.1635-10.0731,9.4513Z" fill="#749b6c"/><path d="M55.1557,42.7882c3.7587-2.1123,5.9575-.8228,7.3009,.4421,0,0-.0155,.0453-.0383,.1007-2.2374-.7725-5.8033-1.3776-7.3656,.1431l-.3615,.5861-.9764,.0123-.2079-.4616c-2.1766-1.0064-5.0342-.934-6.8016-.2921-.0233-.0581-.0169-.0422-.0402-.1004,1.761-1.5449,2.7529-1.8314,6.7318-.3636-1.9565-2.8243-8.104-2.3017-9.4275-1.7237,0,0-.0213-.1066-.0213-.1065,1.3616-1.7148,5.0742-2.5507,9.5588,.8962-3.5679-4.4235-6.7397-4.8007-8.0563-4.7724-1.0225,.022-2.1103,.3081-3.4279,.6853,0,0-.0151-.1078-.0151-.1077,3.8491-3.4107,7.8281-1.6041,11.4773,3.0659,.0842,.1078-1.2412-6.7279-6.3167-7.548-.7537-.1218-3.0042-.2629-4.266-.3011,0,0,.0034-.109,.0034-.1089,2.9758-.8509,8.6448-2.9662,11.1729,7.5969-.0653-1.0564-.2638-3.358-.2638-3.358-.1088-3.4552-.2517-5.0308,.1393-10.6442,0,0,.0991-.0151,.0992-.0151,1.0451,4.8551,.901,5.8409,.7168,10.7792-.022,1.0653-.2194,3.7353-.1639,3.3741,1.1211-7.2968,4.3966-11.8111,10.547-9.2162l.0034,.109c-1.1856,.0759-2.0748,.0847-3.0342,.2759-4.3527,.8673-5.8999,3.6941-7.1205,9.2067-.0497,.1897,.7035-1.5789,1.363-2.6241,2.3082-3.9584,6.6609-3.6471,9.3519-1.8159l-.0169,.1075c-1.355-.1596-1.8606-.2485-2.762-.2708-3.0725-.0758-4.7044,.5337-6.551,3.1801-.3078,.4892-.7035,1.2453-1.297,2.4017,.0129-.0105,5.3199-5.6485,9.6534-1.9618,0,0-.0256,.1054-.0256,.1055-3.2678-.7076-4.8424-.1922-6.1623,.2997-1.1205,.4176-3.1305,1.6108-3.3995,2.4239Z" fill="#749b6c"/><path d="M66.6295,62.6314s-.0234-.11-.0234-.11c1.1035-1.0713,2.2761-1.3874,3.3939-1.2864v1.0727c-.8654-.089-1.9391-.03-3.3705,.3237Z" fill="#749b6c"/><path d="M70,17.0669v4.4573l-.0962-.0009-.2774-.6394c-1.7341-.4238-3.9183-.588-5.7071-.126,0,0-.0294-.0753-.0294-.0753,1.8055-1.0787,3.7131-1.0816,5.5939-.5834-.3656-.1732-.7332-.3407-1.1058-.4948-2.5423-.9998-5.1662-1.7343-7.879-1.1036,0,0-.0277-.076-.0277-.076,2.9809-1.7236,6.1929-.5241,9.0764,1.0541-.9059-.8428-1.8102-1.6849-2.8266-2.3517-2.026-1.339-4.2444-1.8351-6.6328-1.6188,0,0-.0196-.0788-.0196-.0788,3.8598-1.8313,7.1402,.8827,9.7079,3.7181,.0442,.0476,.0652,.0658,.0751,.0737-.0346-.0761-.0618-.1259-.0832-.1562-2.1291-3.7069-4.7267-6.5999-8.9894-6.9909-.7752-.0723-1.5635-.0723-2.3661-.052l-.013-.0803c5.5041-2.0246,8.9948,1.8184,11.514,6.5644-.0367-.1428-.0733-.2856-.1114-.4274-.9366-4.1198-2.5081-7.4126-6.5654-8.6703-.7115-.2347-1.4535-.384-2.2085-.5401l.0026-.0815c5.5387-.875,7.9152,3.2232,8.9686,8.2797Z" fill="#749b6c"/><path d="M68.7317,66.0394c-.0208-.0579-.035-.1051-.035-.1051,.3612-.388,.7906-.7775,1.3033-1.0791v.7194c-.4422,.1453-.869,.3074-1.2683,.4648Z" fill="#749b6c"/><path d="M65.7315,59.0269l-.0155-.1121c1.1982-.9304,2.7565-1.4826,4.284-1.3295v1.2354c-.5241-.0742-1.0987-.0943-1.7432-.0762-.8241,.0232-1.2864,.116-2.5253,.2825Z" fill="#749b6c"/><path d="M70,53.7047v1.1557c-.2838-.0803-.5829-.156-.9027-.2288-.8772-.1994-1.7852-.0504-2.8692-.1295l.0031-.1137c1.3859-.6438,2.6454-.8568,3.7687-.6837Z" fill="#749b6c"/></svg>