<?xml version="1.0" encoding="UTF-8"?><svg id="Layer_1" xmlns="http://www.w3.org/2000/svg" width="60" height="60" viewBox="0 0 60 60"><rect width="60" height="60" fill="none"/><path d="M12.2104,51.0763c.8013,.0197,1.6538,.2755,2.6864,.6129,0,0,.0118-.0964,.0119-.0963-3.0165-3.0502-6.1348-1.4346-8.9947,2.7418-.066,.0964,.9727-6.0167,4.9504-6.7501,.5907-.1089,2.3544-.2351,3.3433-.2693,0,0-.0027-.0975-.0026-.0974-2.7082-.7634-6.48-2.093-8.7561,6.7939,.0511-.9447,.1867-2.8356,.1867-2.8356,.0543-2.0352,.597-5.3159-.0891-8.1845,0,0-.0777-.0135-.0777-.0135-.8643,2.7193-.5387,5.3217-.403,8.1167,.0462,.9517,.0132,3.3617-.0303,3.0387-.6437-4.7806-2.3973-7.6941-5.0353-8.1007v.9906c2.7836,.7875,3.6407,2.1465,4.7252,7.4458,.0389,.1696-.5513-1.412-1.0681-2.3467-.928-1.8161-2.2778-2.6254-3.657-2.7636v1.0589c1.5089,.2135,2.5247,.955,3.6398,2.7786,.2412,.4375,.5513,1.1137,1.0165,2.1478-.0073-.0068-2.1743-2.6327-4.6563-2.857v.9195c.8065,.083,1.4016,.3163,1.9404,.5455,.8782,.3735,2.4534,1.4406,2.6642,2.1676-2.0796-1.3337-3.5493-1.1503-4.6046-.5296v.6166c1.5625-.5135,3.3535-.7793,4.6853,.5264l.2833,.5241,.7652,.011,.1629-.4128c2.2081-1.6635,3.9453-.8353,5.3304-.2612,.0182-.052,.0133-.0378,.0315-.0898-1.3801-1.3816-2.1574-1.6378-5.2757-.3252,1.8234-3.0225,6.3511-2.0584,7.3883-1.5415,0,0,.0167-.0953,.0167-.0953-1.0671-1.5335-3.9766-2.2811-7.4912,.8015,3.0493-4.955,5.2819-4.2932,6.3137-4.2679Z" fill="#749b6c"/><path d="M15.6424,38.3937l-.5036,.8999h-1.0148l-.6148-.8787c-1.7512-1.4472-4.3986-2.8126-8.8806-1.7685,0,0-.0469-.11-.0468-.1102,3.0001-1.936,6.1803-.7724,9.1005,.9944-2.2465-3.6618-2.7754-5.1424-8.0862-5.9683,0,0-.0157-.1185-.0158-.1184,5.4187-.5369,6.4346,2.3147,8.5029,5.4123-.7814-4.9989-.86-8.3287-6.7226-10.2152,0,0,.0266-.1166,.0265-.1165,5.3202,.2695,6.4552,3.2411,7.0743,8.7923l.0792,.6335c.0611-2.0973,.435-5.4767,2.0334-8.07-.1964-.3213,.2064-1.1434,.9473-1.902,.784-.8028,1.6488-1.2298,1.9316-.9537s-.1236,1.1508-.9076,1.9537c-.648,.6635-1.3502,1.069-1.7343,1.0343-1.6065,2.5892-1.9548,6.0105-2.0025,8.0693,1.3883-4.0905,4.066-8.19,9.0035-7.1887,0,0,.0034,.1195,.0035,.1196-3.5444,.4091-5.5569,1.599-7.2284,4.5913-.5727,1.0253-.908,1.816-1.3334,3.2653,2.6999-3.1954,5.6015-4.7605,8.987-3.5967l-.0279,.1163c-2.3903,.0937-4.018-.0287-6.5356,1.9899-.5521,.4427-1.5689,1.517-1.9804,2.208,2.6178-1.6382,5.9748-2.2801,8.3905-.739,0,0-.0514,.108-.0514,.1081-2.9076-.5645-5.1364-.5641-8.3935,1.438Z" fill="#749b6c"/><path d="M27.3528,19.0184c-2.7474-5.2901-5.5925-5.7462-8.9609-5.5142l-.0382-.183c4.6426-1.831,6.3183-.0307,9.1989,4.7304-.4163-1.8424-.5661-2.4809-1.2155-4.1408-.7957-2.0339-1.549-4.479-6.6229-4.8214,0-.0001,.0048-.1881,.0048-.1881,6.3687-1.8662,7.197,4.185,8.2672,7.9806-.0642-2.2222-.2058-5.2302-.8315-8.194l-.0171-.0293c-.3603-.1262-.8046-.8249-1.0715-1.7367-.3154-1.0769-.2635-2.04,.1158-2.1511,.3793-.1111,.9424,.6719,1.2578,1.7489,.2866,.9787,.2689,1.861-.0212,2.0977,.6012,2.8405,.7599,5.7138,.8297,7.9111,.7544-6.431,2.2173-10.2061,6.6949-9.5783-.0001-.0002,.0364,.1832,.0364,.1832-4.0466,1.4143-5.5811,3.9171-6.1804,10.4344,2.3456-4.1964,3.9703-7.4912,9.6299-4.9953,0-.0002-.0217,.1863-.0217,.1863-5.2259-.6595-6.8365,.6889-9.2711,5.708,3.3801-1.5688,6.7421-3.2961,8.5509,.7002,0,.0002-.0939,.1251-.0939,.1251-1.7149-1.2748-3.0648-3.37-8.4944,.2235l-.2526,.8654-1.1383-.0136-.0951-.3975c-1.9029-1.9981-5.8295-3.4336-9.2939-2.2726,0-.0001-.0705-.17-.0705-.17,3.1345-2.2067,5.6815-1.2703,9.1045,1.4913Z" fill="#749b6c"/><path d="M.1509,15.4151c.0464,.2296,.0897,.4606,.1326,.6917-.0278-.7918-.0529-1.5477-.0674-2.2301C.0999,10.8406-.0972,7.5074,.5694,4.6885h.1914c.3467,3.0172,.0772,6.1279-.018,9.1817,0,0-.0088,.834-.019,1.8028,.2836-1.4896,.5576-2.9843,1.2219-4.3724,1.1822-2.8527,3.9586-4.5029,6.6662-3.8589,0,0,.0022,.0698,.0022,.0698-.6472,.1338-1.2831,.2617-1.893,.4629-3.4802,1.0799-4.8238,3.9004-5.6273,7.4317-.0846,.3144-.1639,.6324-.2443,.9508,.021-.0409,.0415-.0822,.0626-.123,2.0856-4.2648,5.5091-7.7942,9.8948-6.1217,0,0-.0099,.069-.0099,.069-.6872-.0032-1.3618,.0098-2.0241,.085-3.647,.4066-5.818,2.9268-7.5759,6.143-.0631,.1134-.0673,.1224-.1881,.336,2.2954-2.618,4.5416-5.2311,8.3504-3.7672,0,0-.014,.0682-.014,.0682-3.0865-.1919-5.5316,1.2313-7.6455,3.4525,2.425-1.2929,4.9447-2.0734,7.4348-.7063,0,0-.0237,.0653-.0237,.0653-2.6433-.5785-5.2099,.2163-7.6286,1.3442,1.5978-.4005,3.192-.3613,4.7221,.5258,0,.0001-.0252,.0647-.0252,.0647-1.5332-.3662-3.5761-.2775-5.0613,.0764l-.3827,.5875-.735-.0071v-3.8205c.0541,.2596,.1046,.5217,.1509,.7864Z" fill="#749b6c"/><path d="M36.435,56.8649c2.9644-2.1868,5.5543-3.627,8.5997-1.2308,0,.0002-.0475,.1364-.0475,.1364-4.5498-1.2923-6.751,.2781-8.3765,2.1889l-.624,.949h-1.0302l-.5112-.9752c-3.3064-2.4781-5.5688-2.4785-8.5204-1.7799,0,0-.0522-.1338-.0522-.1338,2.4522-1.9074,5.86-1.1129,8.5174,.9148-.4178-.8552-1.4499-2.1849-2.0104-2.7329-2.5557-2.4985-4.2079-2.347-6.6344-2.463l-.0283-.1439c3.4367-1.4405,6.3822,.4967,9.1229,4.4518-.4973-2.109-.7671-2.9148-1.3747-4.1654-1.58-3.4184-3.7186-5.0527-7.3165-5.559,0,0,.0035-.148,.0035-.148,5.0373-1.2772,7.6149,3.3222,9.0153,8.3271l-.1281-2.7679c-.0014-.0266-.0487-.7722-.0761-1.2053l-.0193-.3043c-.0117-.187-.0215-.3734-.0312-.5595-.071-1.3546-.1381-2.6341-.9082-4.2154l-.676-1.0956c-.4362,.003-1.1896-.5195-1.8577-1.3276-.8087-.978-1.185-2.0017-.8405-2.2866,.3445-.2848,1.2793,.2771,2.0879,1.2551,.7845,.9488,1.16,1.9385,.8674,2.257l.6576,1.0665c.801,1.6429,.8726,3.0101,.9419,4.3322,.0097,.1854,.0194,.3707,.0311,.557l.0193,.304c.0276,.437,.0754,1.1911,.0763,1.2099l.1282,2.7709c.1882-1.7257,.4972-3.2131,.6924-4.5174,.6078-3.1826,2.9811-5.0301,6.4934-5.7117-.0001-.0001,.0269,.1442,.0269,.1442-5.5471,2.7762-6.1166,5.0068-6.6247,11.6236,2.0996-3.834,3.5564-8.0775,9.0571-7.4129,0-.0001-.016,.1466-.016,.1466-5.3911,1.0223-6.3537,3.5687-8.6341,8.1011Z" fill="#749b6c"/><path d="M47.2763,36.6756c3.2217-1.8106,5.1064-.7053,6.258,.379,0,0-.0133,.0388-.0328,.0863-1.9178-.6621-4.9743-1.1808-6.3134,.1227l-.3099,.5024-.8369,.0106-.1782-.3956c-1.8656-.8626-4.315-.8006-5.8299-.2504-.0199-.0498-.0145-.0362-.0344-.086,1.5094-1.3242,2.3596-1.5697,5.7701-.3117-1.677-2.4208-6.9463-1.9729-8.0807-1.4775,0,0-.0182-.0914-.0183-.0913,1.1671-1.4698,4.3493-2.1863,8.1932,.7682-3.0582-3.7916-5.7769-4.1149-6.9054-4.0906-.8764,.0189-1.8088,.2641-2.9382,.5874,0,0-.0129-.0924-.013-.0923,3.2992-2.9235,6.7098-1.375,9.8377,2.6279,.0722,.0924-1.0639-5.7667-5.4143-6.4697-.6461-.1044-2.575-.2253-3.6566-.2581,0,0,.0029-.0934,.0029-.0934,2.5506-.7294,7.4098-2.5425,9.5768,6.5116-.0559-.9055-.2261-2.8783-.2261-2.8783-.0932-2.9616-.2158-4.3122,.1194-9.1236,0,0,.085-.013,.085-.013,.8958,4.1615,.7723,5.0065,.6144,9.2393-.0189,.9131-.1881,3.2017-.1405,2.8921,.961-6.2544,3.7686-10.1238,9.0403-7.8996l.0029,.0934c-1.0162,.065-1.7784,.0726-2.6008,.2365-3.7309,.7434-5.0571,3.1663-6.1033,7.8915-.0426,.1626,.603-1.3533,1.1682-2.2492,1.9785-3.3929,5.7094-3.1261,8.0159-1.5565l-.0145,.0921c-1.1614-.1368-1.5948-.213-2.3674-.2321-2.6336-.065-4.0323,.4575-5.6151,2.7258-.2638,.4194-.603,1.0674-1.1117,2.0586,.011-.009,4.5599-4.8416,8.2743-1.6815,0,0-.0219,.0904-.0219,.0904-2.801-.6065-4.1506-.1648-5.282,.2569-.9604,.358-2.6833,1.3807-2.9139,2.0776Z" fill="#749b6c"/><path d="M57.111,53.6841s-.0201-.0943-.0201-.0943c.9459-.9183,1.9509-1.1892,2.909-1.1026v.9195c-.7418-.0763-1.6621-.0257-2.889,.2775Z" fill="#749b6c"/><path d="M60,14.6287v3.8205l-.0824-.0008-.2378-.5481c-1.4864-.3633-3.3585-.504-4.8918-.108,0,0-.0252-.0645-.0252-.0645,1.5475-.9246,3.1827-.9271,4.7947-.5001-.3134-.1484-.6285-.2921-.9478-.4241-2.1791-.857-4.4282-1.4866-6.7534-.946,0,0-.0237-.0652-.0237-.0652,2.5551-1.4774,5.3082-.4493,7.7798,.9035-.7765-.7224-1.5516-1.4442-2.4228-2.0157-1.7366-1.1477-3.638-1.5729-5.6852-1.3875,0,0-.0168-.0676-.0168-.0676,3.3084-1.5697,6.1201,.7566,8.321,3.187,.0379,.0408,.0559,.0564,.0644,.0632-.0297-.0652-.053-.108-.0713-.1339-1.825-3.1773-4.0515-5.6571-7.7052-5.9922-.6645-.0619-1.3401-.062-2.0281-.0446l-.0112-.0688c4.7178-1.7354,7.7098,1.5586,9.8692,5.6266-.0315-.1224-.0628-.2448-.0955-.3663-.8028-3.5313-2.1498-6.3537-5.6275-7.4317-.6098-.2012-1.2458-.3291-1.893-.4629l.0023-.0698c4.7474-.75,6.7845,2.7627,7.6874,7.0969Z" fill="#749b6c"/><path d="M58.9129,56.6052c-.0178-.0496-.03-.0901-.03-.0901,.3096-.3326,.6777-.6664,1.1171-.925v.6166c-.379,.1246-.7448,.2635-1.0871,.3984Z" fill="#749b6c"/><path d="M56.3413,50.5945l-.0133-.0961c1.027-.7975,2.3627-1.2708,3.672-1.1396v1.0589c-.4493-.0636-.9417-.0809-1.4942-.0653-.7064,.0199-1.1026,.0994-2.1645,.2421Z" fill="#749b6c"/><path d="M60,46.0326v.9906c-.2433-.0688-.4996-.1338-.7737-.1961-.7519-.171-1.5302-.0432-2.4593-.111l.0027-.0975c1.1879-.5518,2.2675-.7344,3.2303-.586Z" fill="#749b6c"/></svg>