<?xml version="1.0" encoding="UTF-8"?><svg id="Layer_2" xmlns="http://www.w3.org/2000/svg" viewBox="0 0 17.9323 14.3459"><g id="svg5369"><g id="layer1"><g id="university-18"><g id="g21624"><path id="path13130" d="m8.9662,1.1955L1.1955,5.3797l7.7707,4.1842,5.3797-2.8019v4.2589c0,2.1295,1.7932,1.8306,1.7932,1.8306v-.8966s-.934,0-.934-.934v-4.7446l1.5317-.8966L8.9662,1.1955Zm-4.1842,7.7707v1.7185c0,.4289.6128.9788,1.1955,1.2702l2.9887,1.1955,2.9887-1.1955c.5827-.2914,1.1955-.8413,1.1955-1.2702v-1.7185l-4.1842,1.7932-4.1842-1.7932Z" fill="none" isolation="isolate" opacity=".3" stroke="#fff" stroke-linecap="round" stroke-linejoin="round" stroke-width="2.391"/><path id="path7442-0" d="m8.9662,1.1955L1.1955,5.3797l7.7707,4.1842,5.3797-2.8019v4.2589c0,2.1295,1.7932,1.8306,1.7932,1.8306v-.8966s-.934,0-.934-.934v-4.7446l1.5317-.8966L8.9662,1.1955Zm-4.1842,7.7707v1.7185c0,.4289.6128.9788,1.1955,1.2702l2.9887,1.1955,2.9887-1.1955c.5827-.2914,1.1955-.8413,1.1955-1.2702v-1.7185l-4.1842,1.7932-4.1842-1.7932Z" fill="#747474"/></g></g></g></g></svg>