<?xml version="1.0" encoding="UTF-8"?><svg id="Layer_1" xmlns="http://www.w3.org/2000/svg" viewBox="0 0 12.6081 17"><path d="M7.5607,4.7581c.0861,0,.1511,0,.2161,0,1.0441,0,2.0881-.0004,3.1322,.0002,.4709,.0003,.6974,.2251,.6986,.692,.0009,.361,.0007,.722,0,1.0829-.0008,.4597-.2271,.6892-.6837,.6897-1.0552,.0011-2.1104,.0039-3.1655-.0033-.1637-.0011-.2013,.0499-.201,.2067,.0046,2.6157,.0034,5.2314,.0032,7.8471,0,.5126-.2148,.7256-.7311,.726-.3554,.0003-.7109,.001-1.0663-.0002-.4331-.0016-.6673-.2358-.6675-.6721-.0008-2.0381-.0003-4.0763-.0002-6.1144,0-.6053-.0041-1.2107,.003-1.816,.0017-.1412-.0445-.1767-.1803-.1761-1.0663,.0049-2.1325,.003-3.1988,.0026-.503-.0002-.7182-.2168-.7185-.7218-.0002-.3665-.0025-.7331,.0008-1.0996,.0036-.4024,.2423-.6417,.6464-.6427,1.0829-.0025,2.1659-.0043,3.2488,.0027,.1624,.001,.2033-.0469,.2021-.2053-.0072-.9496-.0038-1.8993-.0036-2.8489,0-.4823,.2219-.7065,.6996-.7071,.3554-.0005,.7109-.0005,1.0663,0,.4776,.0007,.6989,.2242,.6992,.7077,.0006,.9441,.0002,1.8882,.0002,2.8323v.2178Z" fill="none" opacity=".3" stroke="#fff" stroke-miterlimit="10" stroke-width="2"/><path d="M7.5607,4.7581c.0861,0,.1511,0,.2161,0,1.0441,0,2.0881-.0004,3.1322,.0002,.4709,.0003,.6974,.2251,.6986,.692,.0009,.361,.0007,.722,0,1.0829-.0008,.4597-.2271,.6892-.6837,.6897-1.0552,.0011-2.1104,.0039-3.1655-.0033-.1637-.0011-.2013,.0499-.201,.2067,.0046,2.6157,.0034,5.2314,.0032,7.8471,0,.5126-.2148,.7256-.7311,.726-.3554,.0003-.7109,.001-1.0663-.0002-.4331-.0016-.6673-.2358-.6675-.6721-.0008-2.0381-.0003-4.0763-.0002-6.1144,0-.6053-.0041-1.2107,.003-1.816,.0017-.1412-.0445-.1767-.1803-.1761-1.0663,.0049-2.1325,.003-3.1988,.0026-.503-.0002-.7182-.2168-.7185-.7218-.0002-.3665-.0025-.7331,.0008-1.0996,.0036-.4024,.2423-.6417,.6464-.6427,1.0829-.0025,2.1659-.0043,3.2488,.0027,.1624,.001,.2033-.0469,.2021-.2053-.0072-.9496-.0038-1.8993-.0036-2.8489,0-.4823,.2219-.7065,.6996-.7071,.3554-.0005,.7109-.0005,1.0663,0,.4776,.0007,.6989,.2242,.6992,.7077,.0006,.9441,.0002,1.8882,.0002,2.8323v.2178Z" fill="#747474"/></svg>