<?xml version="1.0" encoding="UTF-8"?><svg id="Layer_2" xmlns="http://www.w3.org/2000/svg" viewBox="0 0 16 17.9998"><g id="svg6"><g id="drinking_water_well-18"><path id="path9776" d="m2,9l1,7h4l1-7H2Zm1,1h4l-.3,2h-3.4m.7-3.9805v-2c0-1,1-2,2-2h3v-2.0195h-2c-1,0-1-1,0-1h5c1,0,1,1,0,1h-2v2.0195s3-.0195,3-.0195v11.951l2,.0293v1l-14,.0195v-1h10V5.9997s-.9334.0195-4.0001.0195c-.5189,0-.9397.3005-.9397.8196l-.0602,1.1804-2,.0003Z" fill="none" isolation="isolate" opacity=".3" stroke="#fff" stroke-linejoin="round" stroke-width="2"/><path id="path9690" d="m2,9l1,7h4l1-7H2Zm1,1h4l-.3,2h-3.4m.7-3.9805v-2c0-1,1-2,2-2h3v-2.0195h-2c-1,0-1-1,0-1h5c1,0,1,1,0,1h-2v2.0195s3-.0195,3-.0195v11.951l2,.0293v1l-14,.0195v-1h10V5.9997s-.9334.0195-4.0001.0195c-.5189,0-.9397.3005-.9397.8196l-.0602,1.1804-2,.0003Z" fill="#747474"/></g></g></svg>