<?xml version="1.0" encoding="UTF-8"?><svg id="Layer_2" xmlns="http://www.w3.org/2000/svg" viewBox="0 0 16 18"><g id="svg6"><path id="path2" d="m12,9c0-2-3.5-2.5-3.5-2.5v-1.5h4.5l-1.5-1.5,1.5-1.5h-4.5v-1h-1v5.5s-3.5.5-3.5,2.5c0,0-1,0-1,1h10c0-1-1-1-1-1ZM1,11h14v6h-5v-1h-4v1H1v-6Z" fill="none" isolation="isolate" opacity=".3" stroke="#fff" stroke-linejoin="round" stroke-width="2"/><path id="path4" d="m12,9c0-2-3.5-2.5-3.5-2.5v-1.5h4.5l-1.5-1.5,1.5-1.5h-4.5v-1h-1v5.5s-3.5.5-3.5,2.5c0,0-1,0-1,1h10c0-1-1-1-1-1ZM1,11h14v6h-5v-1h-4v1H1v-6Z" fill="#747474"/></g></svg>