<?xml version="1.0" encoding="UTF-8"?><svg id="Layer_2" xmlns="http://www.w3.org/2000/svg" viewBox="0 0 12 17.5"><g id="svg6"><path id="path2" d="m4,2.5q0,1,0,1h-1q-1,1,0,2h1v2q-1,0-2,1h-1v2h1q1,1,2,1c0,4,0,3,0,3l-2,1v1h8s0-1,0-1l-2-1s-.0155-1.283,0-3q1,0,2-1h1v-2h-1q-1-1-2-1v-2h1q1-1,0-2h-1v-1c-1-2-3-2-4,0h0Z" fill="none" isolation="isolate" opacity=".3" stroke="#fff" stroke-linejoin="round" stroke-width="2"/><path id="path4" d="m4,2.5q0,1,0,1h-1q-1,1,0,2h1v2q-1,0-2,1h-1v2h1q1,1,2,1c0,4,0,3,0,3l-2,1v1h8s0-1,0-1l-2-1s-.0155-1.283,0-3q1,0,2-1h1v-2h-1q-1-1-2-1v-2h1q1-1,0-2h-1v-1c-1-2-3-2-4,0h0Z" fill="#747474" stroke="#000" stroke-width=".0045"/></g></svg>