<?xml version="1.0" encoding="UTF-8"?><svg id="Layer_2" xmlns="http://www.w3.org/2000/svg" viewBox="0 0 11.8511 11.8511"><g id="svg5369"><g id="layer1"><g id="fire_station-12"><g id="g21514"><path id="path5434" d="m5.9255,1l-1.6418,3.2837-1.6418-1.6418c-.3627.6377-1.6418,2.1891-1.6418,3.831,0,2.4181,2.5075,4.3783,4.9255,4.3783s4.9255-1.9601,4.9255-4.3783c0-1.6418-1.2791-3.1932-1.6418-3.831l-1.6418,1.6418-1.6418-3.2837Z" fill="#fff" isolation="isolate" opacity=".3" stroke="#fff" stroke-linecap="round" stroke-linejoin="round" stroke-width="2"/><path id="path10041-3-2" d="m5.9255,1l-1.6418,3.2837-1.6418-1.6418c-.3627.6377-1.6418,2.1891-1.6418,3.831,0,2.4181,2.5075,4.3783,4.9255,4.3783s4.9255-1.9601,4.9255-4.3783c0-1.6418-1.2791-3.1932-1.6418-3.831l-1.6418,1.6418-1.6418-3.2837Zm0,4.9255s1.6418,1.4692,1.6418,2.7364c0,.5473-.5473,1.0946-1.6418,1.0946s-1.6418-.5473-1.6418-1.0946c0-1.2238,1.6418-2.7364,1.6418-2.7364Z" fill="#525252"/></g></g></g></g></svg>