<?xml version="1.0" encoding="UTF-8"?><svg id="Layer_2" xmlns="http://www.w3.org/2000/svg" viewBox="0 0 17.5721 17.572"><g id="svg6"><g id="generator_solar-18"><path id="path6562" d="m8.786,1l-.9037,2.607c.2916-.0501.598-.1042.9037-.1042s.6121.0542.9037.1042l-.9037-2.607ZM3.2941,3.2941l1.1818,2.4679c.3518-.5001.7859-.9343,1.286-1.286l-2.4678-1.1819Zm10.9838,0l-2.4679,1.1818c.5001.3518.9343.7859,1.286,1.286l1.1819-2.4678Zm-5.4919,1.3208c-2.3102,0-4.1711,1.8608-4.1711,4.1711s1.8609,4.1711,4.1711,4.1711,4.1711-1.8608,4.1711-4.1711-1.8609-4.1711-4.1711-4.1711Zm-1.1123.8342h2.2246l-1.1123,2.2246h3.3368l-4.4491,4.4491,1.1123-3.3368h-2.2246l1.1123-3.3368Zm-4.0667,2.4331l-2.607.9037,2.607.9037c-.0501-.2916-.1042-.598-.1042-.9037s.0542-.6121.1042-.9037Zm10.3581,0c.0501.2916.1042.598.1042.9037s-.0542.6121-.1042.9037l2.607-.9037-2.607-.9037Zm-9.4891,3.9277l-1.1818,2.4679,2.4679-1.1818c-.5001-.3518-.9343-.7859-1.286-1.286h-.0001Zm8.6202-.0001c-.3518.5001-.7859.9343-1.286,1.286l2.4679,1.1818-1.1819-2.4678Zm-5.2138,2.155l.9037,2.607.9037-2.607c-.2916.0501-.598.1042-.9037.1042s-.6121-.0542-.9037-.1042Z" fill="none" isolation="isolate" opacity=".3" stroke="#fff" stroke-linejoin="round" stroke-width="2"/><path id="path6526" d="m8.786,1l-.9037,2.607c.2916-.0501.598-.1042.9037-.1042s.6121.0542.9037.1042l-.9037-2.607ZM3.2941,3.2941l1.1818,2.4679c.3518-.5001.7859-.9343,1.286-1.286l-2.4678-1.1819Zm10.9838,0l-2.4679,1.1818c.5001.3518.9343.7859,1.286,1.286l1.1819-2.4678Zm-5.4919,1.3208c-2.3102,0-4.1711,1.8608-4.1711,4.1711s1.8609,4.1711,4.1711,4.1711,4.1711-1.8608,4.1711-4.1711-1.8609-4.1711-4.1711-4.1711Zm-1.1123.8342h2.2246l-1.1123,2.2246h3.3368l-4.4491,4.4491,1.1123-3.3368h-2.2246l1.1123-3.3368Zm-4.0667,2.4331l-2.607.9037,2.607.9037c-.0501-.2916-.1042-.598-.1042-.9037s.0542-.6121.1042-.9037Zm10.3581,0c.0501.2916.1042.598.1042.9037s-.0542.6121-.1042.9037l2.607-.9037-2.607-.9037Zm-9.4891,3.9277l-1.1818,2.4679,2.4679-1.1818c-.5001-.3518-.9343-.7859-1.286-1.286h-.0001Zm8.6202-.0001c-.3518.5001-.7859.9343-1.286,1.286l2.4679,1.1818-1.1819-2.4678Zm-5.2138,2.155l.9037,2.607.9037-2.607c-.2916.0501-.598.1042-.9037.1042s-.6121-.0542-.9037-.1042Z" fill="#747474"/></g></g></svg>