<?xml version="1.0" encoding="UTF-8"?><svg id="Layer_2" xmlns="http://www.w3.org/2000/svg" viewBox="0 0 14.2361 12"><g id="svg5369"><path id="path5329" d="m5.5,1v3s-2.5,0-2.5,2H1v1h1v3h-1v1h10v-1h-1v-3h1v-1h-2c0-2-2.5-2-2.5-2v-1h3.5l-2-1,2-1h-4.5Zm-2.5,6h1v3h-1v-3Zm2,0h2v3h-2v-3Zm3,0h1v3h-1v-3Z" fill="#525252" opacity=".5" stroke="#fff" stroke-miterlimit="10" stroke-width="2"/><path id="path5329-2" d="m5.5,1v3s-2.5,0-2.5,2H1v1h1v3h-1v1h10v-1h-1v-3h1v-1h-2c0-2-2.5-2-2.5-2v-1h3.5l-2-1,2-1h-4.5Zm-2.5,6h1v3h-1v-3Zm2,0h2v3h-2v-3Zm3,0h1v3h-1v-3Z" fill="#525252"/></g></svg>