<?xml version="1.0" encoding="UTF-8"?><svg id="Layer_2" xmlns="http://www.w3.org/2000/svg" viewBox="0 0 17.6068 15.806"><g id="svg5369"><g id="layer1"><g id="supermarket-18"><g id="g21554"><path id="path15344" d="m14.806,1c-1.2005,0-1.8008.6003-1.8008,1.8008H1l1.2711,7.2031h11.0166v1.2005H3.1892c-.9181,0-.9176.8897,0,.918h10.0986c.459,0,.9181-.4591.9181-.918V2.8008c0-.6003.2862-.8828.9181-.8828h1.483v-.918h-1.8008Zm-3.0013,11.0519c-.7605,0-1.3771.6165-1.3771,1.377s.6165,1.3771,1.3771,1.3771,1.3771-.6165,1.3771-1.3771-.6165-1.377-1.3771-1.377Zm-7.2031,0c-.7605,0-1.3771.6165-1.3771,1.377s.6165,1.3771,1.3771,1.3771,1.3771-.6165,1.3771-1.3771-.6165-1.377-1.3771-1.377Z" fill="#fff" isolation="isolate" opacity=".3" stroke="#fff" stroke-linecap="round" stroke-linejoin="round" stroke-width="2"/><path id="rect7842-0" d="m14.806,1c-1.2005,0-1.8008.6003-1.8008,1.8008H1l1.2711,7.2031h11.0166v1.2005H3.1892c-.9181,0-.9176.8897,0,.918h10.0986c.459,0,.9181-.4591.9181-.918V2.8008c0-.6003.2862-.8828.9181-.8828h1.483v-.918h-1.8008Zm-3.0013,11.0519c-.7605,0-1.3771.6165-1.3771,1.377s.6165,1.3771,1.3771,1.3771,1.3771-.6165,1.3771-1.3771-.6165-1.377-1.3771-1.377Zm-7.2031,0c-.7605,0-1.3771.6165-1.3771,1.377s.6165,1.3771,1.3771,1.3771,1.3771-.6165,1.3771-1.3771-.6165-1.377-1.3771-1.377Z" fill="#747474"/></g></g></g></g></svg>