<?xml version="1.0" encoding="UTF-8"?><svg id="Layer_2" xmlns="http://www.w3.org/2000/svg" viewBox="0 0 15.551 17.6358"><g id="svg6"><g id="hardware-18"><path id="path4730" d="m1,1v3.1272h2.0848v1.0424l3.1272,1.0424v-2.0848h2.0848V1H1Zm10.4239,0l-1.0424,2.0848v11.4662l-2.0848,2.0848h6.2543l-2.0848-2.0848V3.0848l-1.0424-2.0848ZM3.0848,6.2119v2.0848l3.1272,1.0424v-2.0848l-3.1272-1.0424Zm0,3.1272v2.0848l3.1272,1.0424v-2.0848l-3.1272-1.0424Zm0,3.1272v3.1272l1.0424,1.0424h1.0424l1.0424-1.0424v-2.0848l-3.1272-1.0424Z" fill="none" isolation="isolate" opacity=".3" stroke="#fff" stroke-linejoin="round" stroke-width="2"/><path id="path4488" d="m1,1v3.1272h2.0848v1.0424l3.1272,1.0424v-2.0848h2.0848V1H1Zm10.4239,0l-1.0424,2.0848v11.4662l-2.0848,2.0848h6.2543l-2.0848-2.0848V3.0848l-1.0424-2.0848ZM3.0848,6.2119v2.0848l3.1272,1.0424v-2.0848l-3.1272-1.0424Zm0,3.1272v2.0848l3.1272,1.0424v-2.0848l-3.1272-1.0424Zm0,3.1272v3.1272l1.0424,1.0424h1.0424l1.0424-1.0424v-2.0848l-3.1272-1.0424Z" fill="#747474"/></g></g></svg>