<?xml version="1.0" encoding="UTF-8"?><svg id="Layer_2" xmlns="http://www.w3.org/2000/svg" viewBox="0 0 17.2869 17.2869"><g id="svg6"><path id="path2" d="m8.6435,1C4.4221,1,1,4.4221,1,8.6435s3.4221,7.6435,7.6435,7.6435,7.6435-3.4221,7.6435-7.6435S12.8648,1,8.6435,1Zm-1.2739,2.5478h2.5478v2.5478h-2.5478v-2.5478Zm-1.2739,3.8217h3.8217v5.0956h1.2739v1.2739h-5.0956v-1.2739h1.2739v-3.8217h-1.2739v-1.2739Z" fill="none" isolation="isolate" opacity=".3" stroke="#fff" stroke-linejoin="round" stroke-width="2"/><path id="path4" d="m8.6435,1C4.4221,1,1,4.4221,1,8.6435s3.4221,7.6435,7.6435,7.6435,7.6435-3.4221,7.6435-7.6435S12.8648,1,8.6435,1Zm-1.2739,2.5478h2.5478v2.5478h-2.5478v-2.5478Zm-1.2739,3.8217h3.8217v5.0956h1.2739v1.2739h-5.0956v-1.2739h1.2739v-3.8217h-1.2739v-1.2739Z" fill="#747474"/></g></svg>