<?xml version="1.0" encoding="UTF-8"?><svg id="Layer_2" xmlns="http://www.w3.org/2000/svg" viewBox="0 0 17.7402 16.5294"><g id="svg5369"><g id="layer1"><g id="muslim-18"><g id="g21852"><path id="path16930" d="m8.2647,1C4.1597,1,1,4.1597,1,8.2647s3.1597,7.2647,7.2647,7.2647c2.2953,0,4.6905-.7866,6.0539-2.4216-.8909.58-2.4901,1.2108-3.6324,1.2108-3.1392,0-5.4822-3.0828-5.4822-6.2221s2.343-5.8857,5.4822-5.8857c1.1423,0,2.7415.631,3.6324,1.2108-1.3635-1.6348-3.7586-2.4216-6.0539-2.4216Zm4.3723,3.1615l-.8745,2.8925h-3.4978l3.0606,1.4798-1.8498,3.3634,3.1615-2.0516,2.8924,2.0516-1.5808-3.3634,2.7916-1.4798h-3.2288l-.8744-2.8925Z" fill="#fff" isolation="isolate" opacity=".3" stroke="#fff" stroke-linejoin="round" stroke-width="2"/><path id="path7552-2-1" d="m8.2647,1C4.1597,1,1,4.1597,1,8.2647s3.1597,7.2647,7.2647,7.2647c2.2953,0,4.6905-.7866,6.0539-2.4216-.8909.58-2.4901,1.2108-3.6324,1.2108-3.1392,0-5.4822-3.0828-5.4822-6.2221s2.343-5.8857,5.4822-5.8857c1.1423,0,2.7415.631,3.6324,1.2108-1.3635-1.6348-3.7586-2.4216-6.0539-2.4216Zm4.3723,3.1615l-.8745,2.8925h-3.4978l3.0606,1.4798-1.8498,3.3634,3.1615-2.0516,2.8924,2.0516-1.5808-3.3634,2.7916-1.4798h-3.2288l-.8744-2.8925Z" fill="#747474"/></g></g></g></g></svg>