<?xml version="1.0" encoding="UTF-8"?><svg id="Layer_2" xmlns="http://www.w3.org/2000/svg" viewBox="0 0 16 18"><g id="svg2"><g id="ngo-18"><g id="g4287" opacity=".3"><g id="g4289"><path id="path4291" d="m7,1v6h-3v1H1v9h5v-1h4v1h5v-9h-3v-1h-4v-2h4l-2-1.5,2-1.5h-4l.0312-1h-1.0312Zm.9375,9.0312c.475,0,.8562.0823,1.125.2812.2667.2.423.4916.5.8438l-.75.125c-.0542-.1887-.1626-.3283-.3125-.4375-.1478-.1084-.3395-.1562-.5625-.1562-.3374,0-.6146.0978-.8125.3125-.2021.2135-.2812.5469-.2812.9688,0,.4552.1104.7739.3125,1,.2021.2282.4521.3438.7812.3438.1605,0,.3355-.0287.5-.0938.1626-.062.2896-.1292.4062-.2188v-.5h-.875v-.625h1.6562v1.5312c-.1626.1573-.4125.2875-.7188.4062-.3083.1187-.5917.1875-.9062.1875-.4,0-.7646-.081-1.0625-.25-.2979-.1677-.5063-.4375-.6562-.75s-.25-.6332-.25-1c0-.4.0834-.7521.25-1.0625.1667-.3104.4271-.553.75-.7188.2459-.127.5397-.1875.9062-.1875h0Zm4.0938,0c.5646,0,1.0353.1814,1.375.5312.3374.3511.5.8134.5,1.4375-.0002.6188-.1626,1.1198-.5,1.4688-.3355.3501-.8124.5312-1.375.5312-.5707,0-1.0086-.1821-1.3438-.5312-.3374-.3469-.5-.8281-.5-1.4375,0-.3906.0396-.7353.1562-1,.0875-.1947.223-.3448.375-.5.1501-.1552.3208-.2689.5-.3438.2395-.1022.5-.1562.8125-.1562h0Zm-9.7188.0625h.75l1.5625,2.5625v-2.5625h.7188v3.8125h-.75l-1.5625-2.4688v2.4688h-.7188v-3.8125Zm9.7188.5938c-.3187,0-.5562.0949-.75.3125-.1958.2198-.3125.5584-.3125,1,0,.4333.1125.7771.3125,1,.2.2249.4415.3125.75.3125.3083,0,.5833-.0915.7812-.3125.1979-.2228.2812-.5563.2812-1,0-.4395-.0894-.7843-.2812-1-.1936-.2155-.4624-.3125-.7812-.3125Z" fill="#fff" stroke="#fff" stroke-linejoin="round" stroke-width="2"/></g></g><g id="g3511"><g id="g3506"><path id="path3462" d="m7,1v6h-3v1H1v9h5v-1h4v1h5v-9h-3v-1h-4v-2h4l-2-1.5,2-1.5h-4l.0312-1h-1.0312Zm.9375,9.0312c.475,0,.8562.0823,1.125.2812.2667.2.423.4916.5.8438l-.75.125c-.0542-.1887-.1626-.3283-.3125-.4375-.1478-.1084-.3395-.1562-.5625-.1562-.3374,0-.6146.0978-.8125.3125-.2021.2135-.2812.5469-.2812.9688,0,.4552.1104.7739.3125,1,.2021.2282.4521.3438.7812.3438.1605,0,.3355-.0287.5-.0938.1626-.062.2896-.1292.4062-.2188v-.5h-.875v-.625h1.6562v1.5312c-.1626.1573-.4125.2875-.7188.4062-.3083.1187-.5917.1875-.9062.1875-.4,0-.7646-.081-1.0625-.25-.2979-.1677-.5063-.4375-.6562-.75s-.25-.6332-.25-1c0-.4.0834-.7521.25-1.0625.1667-.3104.4271-.553.75-.7188.2459-.127.5397-.1875.9062-.1875h0Zm4.0938,0c.5646,0,1.0353.1814,1.375.5312.3374.3511.5.8134.5,1.4375-.0002.6188-.1626,1.1198-.5,1.4688-.3355.3501-.8124.5312-1.375.5312-.5707,0-1.0086-.1821-1.3438-.5312-.3374-.3469-.5-.8281-.5-1.4375,0-.3906.0396-.7353.1562-1,.0875-.1947.223-.3448.375-.5.1501-.1552.3208-.2689.5-.3438.2395-.1022.5-.1562.8125-.1562h0Zm-9.7188.0625h.75l1.5625,2.5625v-2.5625h.7188v3.8125h-.75l-1.5625-2.4688v2.4688h-.7188v-3.8125Zm9.7188.5938c-.3187,0-.5562.0949-.75.3125-.1958.2198-.3125.5584-.3125,1,0,.4333.1125.7771.3125,1,.2.2249.4415.3125.75.3125.3083,0,.5833-.0915.7812-.3125.1979-.2228.2812-.5563.2812-1,0-.4395-.0894-.7843-.2812-1-.1936-.2155-.4624-.3125-.7812-.3125Z" fill="#747474"/></g></g></g></g></svg>