<?xml version="1.0" encoding="UTF-8"?><svg id="Layer_2" xmlns="http://www.w3.org/2000/svg" viewBox="0 0 16.7719 17.8272"><g id="svg6"><g id="playground-18"><path id="path4979" d="m13.6618,1.0001c-.8741,0-1.5827.7086-1.5827,1.5827,0,.6811.4187,1.2606,1.0222,1.4837l-1.4179,4.913-6.8584,3.693-1.3189-3.2973c.6853-.1739,1.187-.7774,1.187-1.5168,0-.8741-.7086-1.5827-1.5827-1.5827s-1.5827.7086-1.5827,1.5827c0,.7649.5318,1.4022,1.253,1.5498l-1.7806,5.3087,1.0551,1.0551,7.1551-3.8578-.8243,4.913h3.1654l-.9562-5.6714,5.1768-2.7698-1.4508-4.3525c.553-.2468.9233-.8062.9233-1.4508,0-.8741-.7086-1.5827-1.5827-1.5827h.0002Z" fill="none" isolation="isolate" opacity=".3" stroke="#fff" stroke-linejoin="round" stroke-width="2"/><path id="path4949" d="m13.6618,1.0001c-.8741,0-1.5827.7086-1.5827,1.5827,0,.6811.4187,1.2606,1.0222,1.4837l-1.4179,4.913-6.8584,3.693-1.3189-3.2973c.6853-.1739,1.187-.7774,1.187-1.5168,0-.8741-.7086-1.5827-1.5827-1.5827s-1.5827.7086-1.5827,1.5827c0,.7649.5318,1.4022,1.253,1.5498l-1.7806,5.3087,1.0551,1.0551,7.1551-3.8578-.8243,4.913h3.1654l-.9562-5.6714,5.1768-2.7698-1.4508-4.3525c.553-.2468.9233-.8062.9233-1.4508,0-.8741-.7086-1.5827-1.5827-1.5827h.0002Z" fill="#747474"/></g></g></svg>