<?xml version="1.0" encoding="UTF-8"?><svg id="railstation" xmlns="http://www.w3.org/2000/svg" width="18" height="18" viewBox="0 0 18 18"><path d="M8.9183,1.0209c-2.5501,0-4.6174,2.0673-4.6174,4.6174s2.0673,4.6174,4.6174,4.6174,4.6174-2.0673,4.6174-4.6174S11.4684,1.0209,8.9183,1.0209Zm0,6.4601c-1.0177,0-1.8427-.825-1.8427-1.8427s.825-1.8427,1.8427-1.8427,1.8427,.825,1.8427,1.8427-.825,1.8427-1.8427,1.8427Zm6.4269,7.2923l-1.5264-3.0532c-.2392-.5006-.4112-.7211-.9184-.7211H5.094c-.5419,0-.7031,.2648-.9811,.7702l-1.6174,3.0676c-.1309,.2482,.0288,.5321,.3506,.6233l5.1358,1.4569c.481,.1364,1.0073,.1378,1.4895,.0039l5.5152-1.5314c.32-.0888,.4825-.3682,.3586-.6163Zm-5.7801-2.6709h.3869l1.0184,3.3062-1.4052,.3717v-3.6779Zm-4.9181,2.4314l1.0756-1.9434c.1849-.3203,.2921-.488,.6524-.488h.1559l-.9303,3.0209-.7204-.1947c-.214-.0578-.3202-.2376-.2331-.3948Zm2.2032,.9272l1.0344-3.3586h.3868l.0002,3.7427-1.4214-.3841Zm6.1036-.5771l-.7318,.1936-.9165-2.9751h.2609c.3373,0,.4517,.1397,.6108,.4568l1.0151,1.9342c.0825,.1571-.0256,.3342-.2385,.3904Z" fill="none" opacity=".3" stroke="#fff" stroke-miterlimit="10" stroke-width="2"/><path d="M8.9183,1.0209c-2.5501,0-4.6174,2.0673-4.6174,4.6174s2.0673,4.6174,4.6174,4.6174,4.6174-2.0673,4.6174-4.6174S11.4684,1.0209,8.9183,1.0209Zm0,6.4601c-1.0177,0-1.8427-.825-1.8427-1.8427s.825-1.8427,1.8427-1.8427,1.8427,.825,1.8427,1.8427-.825,1.8427-1.8427,1.8427Zm6.4269,7.2923l-1.5264-3.0532c-.2392-.5006-.4112-.7211-.9184-.7211H5.094c-.5419,0-.7031,.2648-.9811,.7702l-1.6174,3.0676c-.1309,.2482,.0288,.5321,.3506,.6233l5.1358,1.4569c.481,.1364,1.0073,.1378,1.4895,.0039l5.5152-1.5314c.32-.0888,.4825-.3682,.3586-.6163Zm-5.7801-2.6709h.3869l1.0184,3.3062-1.4052,.3717v-3.6779Zm-4.9181,2.4314l1.0756-1.9434c.1849-.3203,.2921-.488,.6524-.488h.1559l-.9303,3.0209-.7204-.1947c-.214-.0578-.3202-.2376-.2331-.3948Zm2.2032,.9272l1.0344-3.3586h.3868l.0002,3.7427-1.4214-.3841Zm6.1036-.5771l-.7318,.1936-.9165-2.9751h.2609c.3373,0,.4517,.1397,.6108,.4568l1.0151,1.9342c.0825,.1571-.0256,.3342-.2385,.3904Z" fill="#757575"/></svg>