<?xml version="1.0" encoding="UTF-8"?><svg id="Layer_2" xmlns="http://www.w3.org/2000/svg" viewBox="0 0 17.9999 17.4016"><g id="svg6"><g id="recycling-18"><path id="path5097" d="m13.4728,10.6298h1.6355c.3915,0,.7976-.1709,1.2182-.5128.449-.3561.6734-.7339.6734-1.1333,0-.1846-.0611-.3666-.1819-.545l-1.9449-2.9712-3.3459,1.9456,1.9456,3.2167Zm1.0686,4.0296l2.4584-4.4676c-.3634.4136-.7589.6915-1.1862.8337-.3421.1143-.8309.171-1.4646.171h-2.736v-.5667c0-.2206-.0536-.3314-.1605-.3314-.0786,0-.1358.0291-.1709.0856l-1.7312,3.0033,1.7955,2.7577c.1355.2067.2526.2885.3526.2454.0994-.0283.1498-.0814.1498-.16v-.9408h1.5176c.5558,0,.9475-.2099,1.1755-.6304h0Zm-1.6883-8.3901l1.6885-2.8432c.0568-.0994.0854-.2031.0854-.3098,0-.1283-.0427-.1924-.128-.1924.0134,0-.0429.0214-.171.0642l-.7696.3526-.7053-1.4c-.3139-.6269-.9406-.9406-1.8813-.9406h-4.3926c.5342.1641.8974.3243,1.0899.481.4491.3565.9085,1.0261,1.3787,2.0093l.8766,1.8385-.6523.3101c-.064.0288-.096.0854-.096.1709,0,.1069.0674.168.203.1818l3.4739.2778h0Zm-7.813,8.9777h3.7942v-3.9436h-3.6553c-.449.6411-.7306,1.0765-.8443,1.304-.1856.3632-.2778.7343-.2778,1.1112,0,1.0194.3274,1.5285.9832,1.5285h0Zm1.6032-8.2509l1.9665-3.046c-.7344-1.6742-1.5145-2.512-2.3408-2.512-.499,0-.8333.1393-1.0043.4168l-1.8601,2.9716,3.2387,2.1696Zm-.9192,2.426l.716.4381c.1208,0,.1817-.0499.1817-.1498,0-.0638-.0291-.1526-.0854-.267l-1.5819-2.9713-3.5059.0858c-.1568.007-.235.0891-.235.2458,0,.0357.0498.0854.1496.1496l.7269.438-.7696,1.1968c-.2136.3422-.3205.6241-.3205.8447,0,.2.0707.4243.2136.6734l2.3835,4.1574c-.0571-.2634-.0854-.5129-.0854-.7483,0-.4197.1314-.8334.3952-1.2397l1.8173-2.8536h0Z" fill="none" isolation="isolate" opacity=".3" stroke="#fff" stroke-linejoin="round" stroke-width="2"/><path id="path4239" d="m13.4728,10.6298h1.6355c.3915,0,.7976-.1709,1.2182-.5128.449-.3561.6734-.7339.6734-1.1333,0-.1846-.0611-.3666-.1819-.545l-1.9449-2.9712-3.3459,1.9456,1.9456,3.2167Zm1.0686,4.0296l2.4584-4.4676c-.3634.4136-.7589.6915-1.1862.8337-.3421.1143-.8309.171-1.4646.171h-2.736v-.5667c0-.2206-.0536-.3314-.1605-.3314-.0786,0-.1358.0291-.1709.0856l-1.7312,3.0033,1.7955,2.7577c.1355.2067.2526.2885.3526.2454.0994-.0283.1498-.0814.1498-.16v-.9408h1.5176c.5558,0,.9475-.2099,1.1755-.6304h0Zm-1.6883-8.3901l1.6885-2.8432c.0568-.0994.0854-.2031.0854-.3098,0-.1283-.0427-.1924-.128-.1924.0134,0-.0429.0214-.171.0642l-.7696.3526-.7053-1.4c-.3139-.6269-.9406-.9406-1.8813-.9406h-4.3926c.5342.1641.8974.3243,1.0899.481.4491.3565.9085,1.0261,1.3787,2.0093l.8766,1.8385-.6523.3101c-.064.0288-.096.0854-.096.1709,0,.1069.0674.168.203.1818l3.4739.2778h0Zm-7.813,8.9777h3.7942v-3.9436h-3.6553c-.449.6411-.7306,1.0765-.8443,1.304-.1856.3632-.2778.7343-.2778,1.1112,0,1.0194.3274,1.5285.9832,1.5285h0Zm1.6032-8.2509l1.9665-3.046c-.7344-1.6742-1.5145-2.512-2.3408-2.512-.499,0-.8333.1393-1.0043.4168l-1.8601,2.9716,3.2387,2.1696Zm-.9192,2.426l.716.4381c.1208,0,.1817-.0499.1817-.1498,0-.0638-.0291-.1526-.0854-.267l-1.5819-2.9713-3.5059.0858c-.1568.007-.235.0891-.235.2458,0,.0357.0498.0854.1496.1496l.7269.438-.7696,1.1968c-.2136.3422-.3205.6241-.3205.8447,0,.2.0707.4243.2136.6734l2.3835,4.1574c-.0571-.2634-.0854-.5129-.0854-.7483,0-.4197.1314-.8334.3952-1.2397l1.8173-2.8536h0Z" fill="#747474"/></g></g></svg>