<?xml version="1.0" encoding="UTF-8"?><svg id="Layer_2" xmlns="http://www.w3.org/2000/svg" viewBox="0 0 17.5696 16.4574"><g id="svg6"><path id="path2" d="m8.7848,1c-3.1889,0-5.3985,3.5956-5.5606,7.7848H1l3.3363,6.6727h8.8969l3.3363-6.6727h-2.2242c-.018-4.1017-2.3717-7.7848-5.5606-7.7848Zm0,1.4596c2.5127,0,3.966,3.0208,4.1009,6.3251H4.6839c.0988-3.1879,1.5882-6.3251,4.1009-6.3251Z" fill="none" isolation="isolate" opacity=".3" stroke="#fff" stroke-linejoin="round" stroke-width="2"/><path id="path4" d="m8.7848,1c-3.1889,0-5.3985,3.5956-5.5606,7.7848H1l3.3363,6.6727h8.8969l3.3363-6.6727h-2.2242c-.018-4.1017-2.3717-7.7848-5.5606-7.7848Zm0,1.4596c2.5127,0,3.966,3.0208,4.1009,6.3251H4.6839c.0988-3.1879,1.5882-6.3251,4.1009-6.3251Z" fill="#747474"/></g></svg>