<?xml version="1.0" encoding="UTF-8"?><svg id="Layer_2" xmlns="http://www.w3.org/2000/svg" viewBox="0 0 17.2845 17.9999"><g id="svg2"><g id="g7122" opacity=".3"><path id="path7124" d="m9.489,9.85c1.0181,0,1.8421-.824,1.8421-1.8421s-.8238-1.8419-1.8421-1.8419-1.8438.824-1.8438,1.8421c-.0002,1.0181.8256,1.8419,1.8438,1.8419Z" fill="none" stroke="#fff" stroke-linejoin="round" stroke-width="2"/><path id="path7126" d="m9,15q1,0,1-1v-1q0-1-1-1t-.9901.7559c.8864.1906.8764,1.3684-.0163,1.5477q.0064.6964,1.0064.6964h0Zm-2.0197-4.5629c.1978-.1902.7266-.4371,1.0197-.4371h3l4-3c.7821-.7874,1.7837.2126,1,1l-4,3,.045,6h-5.045v-2.6661h-1.9366c-.4523,0-.8203-.3662-.8203-.8203,0-.1941.0659-.3699.1776-.5128l2.5597-2.5637Z" fill="none" stroke="#fff" stroke-linejoin="round" stroke-width="2"/><path id="path7128" d="m4,2l-1-1H1v2l1,1,2-2Z" fill="none" stroke="#fff" stroke-linejoin="round" stroke-width="2"/><path id="path7130" d="m4.492,10.29c-.0422.2709.1446.5163.4101.553.2674.0438.52-.1501.553-.4101.0403-.2709-.1429-.5165-.412-.5531-.2654-.0402-.5162.1431-.551.4102Z" fill="none" stroke="#fff" stroke-linejoin="round" stroke-width="2"/><path id="path7132" d="m4.915,9.18c.0366-.2563-.1373-.4907-.3918-.5273-.2546-.0366-.489.1392-.5256.3918-.0366.26.1392.4869.3918.5239.2528.0403.4909-.139.5256-.3883h0Z" fill="none" stroke="#fff" stroke-linejoin="round" stroke-width="2"/><path id="path7134" d="m4.375,7.92c.033-.2418-.1299-.4651-.3717-.5018-.2418-.033-.4634.1318-.4981.3734-.0347.2454.1299.4614.3699.4981.2418.0405.4669-.1354.4998-.3698Z" fill="none" stroke="#fff" stroke-linejoin="round" stroke-width="2"/><path id="path7136" d="m3.835,6.66c.033-.2271-.1227-.4395-.3517-.4725-.2307-.033-.4395.1245-.4725.3515-.033.2307.1245.4359.3515.4725s.4414-.1282.4726-.3515Z" fill="none" stroke="#fff" stroke-linejoin="round" stroke-width="2"/><path id="path7138" d="m3.294,5.41c.0312-.216-.1171-.4174-.3314-.4467-.2179-.0293-.4138.1171-.445.3333-.0312.2198.1154.4101.3296.4467.216.033.4174-.121.4467-.3333Z" fill="none" stroke="#fff" stroke-linejoin="round" stroke-width="2"/><path id="path7140" d="m2.223,4.25c-.031.2051.1099.3845.3114.4174.2014.033.3901-.1135.4194-.3112.0293-.2014-.1099-.3918-.3114-.4174-.207-.0293-.3918.1097-.4194.3112Z" fill="none" stroke="#fff" stroke-linejoin="round" stroke-width="2"/><path id="path7142" d="m6.31,8.52c.013-.2637.24-.4725.5054-.4578.2674.0147.4706.2381.4578.5091-.0093.2673-.2381.4688-.5054.4541-.2656-.007-.4725-.2344-.4578-.5054Z" fill="none" stroke="#fff" stroke-linejoin="round" stroke-width="2"/><path id="path7144" d="m6.006,7.99c-.2526-.0109-.4504-.2234-.4358-.4833.0128-.2528.229-.4467.4816-.4359.2546.0146.4469.2271.4358.4833-.011.2565-.227.4469-.4816.4359Z" fill="none" stroke="#fff" stroke-linejoin="round" stroke-width="2"/><path id="path7146" d="m5.246,6.96c-.2398-.011-.4267-.2125-.4138-.4541s.216-.4285.4578-.4138c.2398.011.4248.2162.4139.4578-.0094.2379-.2162.4246-.4579.4101Z" fill="none" stroke="#fff" stroke-linejoin="round" stroke-width="2"/><path id="path7148" d="m4.484,5.93c-.227-.0109-.4046-.2014-.3918-.4322.0128-.2271.2051-.4029.4339-.3918.227.011.4029.2051.3918.4322-.0091.2271-.205.4064-.4339.3918Z" fill="none" stroke="#fff" stroke-linejoin="round" stroke-width="2"/><path id="path7150" d="m3.725,4.9c-.2142-.0109-.3827-.1941-.3699-.4101.011-.2125.1923-.3771.4083-.3699.2142.0109.3808.1941.3699.4101-.0093.2125-.1942.381-.4083.3699Z" fill="none" stroke="#fff" stroke-linejoin="round" stroke-width="2"/><path id="path7152" d="m2.815,3.69c.0109-.2014.1813-.3589.3845-.3478.2014.007.3589.1795.3478.3808-.0091.2014-.1832.3625-.3845.3478-.2014-.0109-.3587-.1794-.3478-.3808Z" fill="none" stroke="#fff" stroke-linejoin="round" stroke-width="2"/><path id="path7154" d="m7.63,6.44c-.2674.0147-.4998-.1904-.5091-.4578-.0147-.2711.196-.4981.4634-.5091.2619-.011.4907.1904.5018.4651.0165.2601-.1886.4907-.456.5018h0Z" fill="none" stroke="#fff" stroke-linejoin="round" stroke-width="2"/><path id="path7156" d="m7.05,5.18c.0128.2454-.1776.4578-.4285.4688-.2509.011-.4669-.1795-.4779-.4285-.0109-.2528.1832-.4614.4339-.4761.2472-.011.4595.1795.4725.4359h0Z" fill="none" stroke="#fff" stroke-linejoin="round" stroke-width="2"/><path id="path7158" d="m6.013,4.42c.011.2307-.1685.4285-.4029.4395-.2344.0109-.4376-.1685-.4467-.3992-.011-.2381.1722-.4359.4066-.4467.2307-.011.4302.1683.443.4064Z" fill="none" stroke="#fff" stroke-linejoin="round" stroke-width="2"/><path id="path7160" d="m4.977,3.66c.0093.216-.1574.4029-.3754.4101-.2179.0109-.4066-.1574-.4157-.3736-.0093-.2197.1611-.4029.379-.4138.2142-.0109.4011.1576.412.3773Z" fill="none" stroke="#fff" stroke-linejoin="round" stroke-width="2"/><path id="path7162" d="m3.408,3.13c-.011-.2051.1483-.3771.3498-.3845.1997-.0109.3736.1465.3827.3478.0093.2014-.1464.3736-.3478.381-.2014.0109-.3773-.1465-.3846-.3443h0Z" fill="none" stroke="#fff" stroke-linejoin="round" stroke-width="2"/><path id="path7164" d="m4.314,2.15c.1997-.0293.3901.1101.4194.3113.0294.2014-.1099.3918-.3131.4174-.2014.033-.3901-.1099-.4192-.3113-.0275-.2014.1133-.3882.313-.4174Z" fill="none" stroke="#fff" stroke-linejoin="round" stroke-width="2"/><path id="path7166" d="m5.856,2.8c.0312.2123-.1171.4101-.3296.4395-.2125.033-.412-.1171-.4413-.3259-.0294-.2125.119-.4138.3296-.4434.2107-.0291.4102.1174.4413.3298Z" fill="none" stroke="#fff" stroke-linejoin="round" stroke-width="2"/><path id="path7168" d="m7.178,3.34c.033.2271-.1227.4322-.3461.4651-.2234.033-.4339-.1245-.4651-.3443-.031-.2234.1245-.4322.3461-.4651.2216-.033.4322.121.4651.3443Z" fill="none" stroke="#fff" stroke-linejoin="round" stroke-width="2"/><path id="path7170" d="m8.498,3.88c.0347.2344-.1282.4504-.3626.4871-.2326.033-.4541-.1282-.4853-.3625-.033-.2344.1282-.4541.3606-.4871.2344-.0365.4542.1283.4872.3625Z" fill="none" stroke="#fff" stroke-linejoin="round" stroke-width="2"/><path id="path7172" d="m9.82,4.42c.0347.2454-.1357.4725-.379.5091-.2435.0366-.4744-.1355-.5072-.3773-.035-.2453.1334-.476.377-.5126.2454-.033.4725.1354.5093.3808Z" fill="none" stroke="#fff" stroke-linejoin="round" stroke-width="2"/><path id="path7174" d="m11.142,4.95c.0384.2563-.141.4944-.3957.5311-.2544.0366-.4962-.1429-.5309-.3955-.0366-.2563.139-.4981.3938-.5347.2562-.0366.496.1427.5328.3992Z" fill="none" stroke="#fff" stroke-linejoin="round" stroke-width="2"/><path id="path7176" d="m11.91,5.07c.2674-.0366.5165.1501.5549.4174.0403.2637-.1483.5128-.412.5531-.2653.0402-.5181-.1465-.553-.4138-.0384-.2675.1445-.5165.4101-.5568h0Z" fill="none" stroke="#fff" stroke-linejoin="round" stroke-width="2"/></g><g id="g7093"><path id="path3" d="m9.489,9.85c1.0181,0,1.8421-.824,1.8421-1.8421s-.8238-1.8419-1.8421-1.8419-1.8438.824-1.8438,1.8421c-.0002,1.0181.8256,1.8419,1.8438,1.8419Z" fill="#747474"/><path id="path5" d="m9,15q1,0,1-1v-1q0-1-1-1t-.9901.7559c.8864.1906.8764,1.3684-.0163,1.5477q.0064.6964,1.0064.6964h0Zm-2.0197-4.5629c.1978-.1902.7266-.4371,1.0197-.4371h3l4-3c.7821-.7874,1.7837.2126,1,1l-4,3,.045,6h-5.045v-2.6661h-1.9366c-.4523,0-.8203-.3662-.8203-.8203,0-.1941.0659-.3699.1776-.5128l2.5597-2.5637Z" fill="#747474"/><path id="polygon7" d="m4,2l-1-1H1v2l1,1,2-2Z" fill="#747474"/><path id="path9" d="m4.492,10.29c-.0422.2709.1446.5163.4101.553.2674.0438.52-.1501.553-.4101.0403-.2709-.1429-.5165-.412-.5531-.2654-.0402-.5162.1431-.551.4102Z" fill="#747474"/><path id="path11" d="m4.915,9.18c.0366-.2563-.1373-.4907-.3918-.5273-.2546-.0366-.489.1392-.5256.3918-.0366.26.1392.4869.3918.5239.2528.0403.4909-.139.5256-.3883h0Z" fill="#747474"/><path id="path13" d="m4.375,7.92c.033-.2418-.1299-.4651-.3717-.5018-.2418-.033-.4634.1318-.4981.3734-.0347.2454.1299.4614.3699.4981.2418.0405.4669-.1354.4998-.3698Z" fill="#747474"/><path id="path15" d="m3.835,6.66c.033-.2271-.1227-.4395-.3517-.4725-.2307-.033-.4395.1245-.4725.3515-.033.2307.1245.4359.3515.4725s.4414-.1282.4726-.3515Z" fill="#747474"/><path id="path17" d="m3.294,5.41c.0312-.216-.1171-.4174-.3314-.4467-.2179-.0293-.4138.1171-.445.3333-.0312.2198.1154.4101.3296.4467.216.033.4174-.121.4467-.3333Z" fill="#747474"/><path id="path19" d="m2.223,4.25c-.031.2051.1099.3845.3114.4174.2014.033.3901-.1135.4194-.3112.0293-.2014-.1099-.3918-.3114-.4174-.207-.0293-.3918.1097-.4194.3112Z" fill="#747474"/><path id="path21" d="m6.31,8.52c.013-.2637.24-.4725.5054-.4578.2674.0147.4706.2381.4578.5091-.0093.2673-.2381.4688-.5054.4541-.2656-.007-.4725-.2344-.4578-.5054Z" fill="#747474"/><path id="path23" d="m6.006,7.99c-.2526-.0109-.4504-.2234-.4358-.4833.0128-.2528.229-.4467.4816-.4359.2546.0146.4469.2271.4358.4833-.011.2565-.227.4469-.4816.4359Z" fill="#747474"/><path id="path25" d="m5.246,6.96c-.2398-.011-.4267-.2125-.4138-.4541s.216-.4285.4578-.4138c.2398.011.4248.2162.4139.4578-.0094.2379-.2162.4246-.4579.4101Z" fill="#747474"/><path id="path27" d="m4.484,5.93c-.227-.0109-.4046-.2014-.3918-.4322.0128-.2271.2051-.4029.4339-.3918.227.011.4029.2051.3918.4322-.0091.2271-.205.4064-.4339.3918Z" fill="#747474"/><path id="path29" d="m3.725,4.9c-.2142-.0109-.3827-.1941-.3699-.4101.011-.2125.1923-.3771.4083-.3699.2142.0109.3808.1941.3699.4101-.0093.2125-.1942.381-.4083.3699Z" fill="#747474"/><path id="path31" d="m2.815,3.69c.0109-.2014.1813-.3589.3845-.3478.2014.007.3589.1795.3478.3808-.0091.2014-.1832.3625-.3845.3478-.2014-.0109-.3587-.1794-.3478-.3808Z" fill="#747474"/><path id="path33" d="m7.63,6.44c-.2674.0147-.4998-.1904-.5091-.4578-.0147-.2711.196-.4981.4634-.5091.2619-.011.4907.1904.5018.4651.0165.2601-.1886.4907-.456.5018h0Z" fill="#747474"/><path id="path35" d="m7.05,5.18c.0128.2454-.1776.4578-.4285.4688-.2509.011-.4669-.1795-.4779-.4285-.0109-.2528.1832-.4614.4339-.4761.2472-.011.4595.1795.4725.4359h0Z" fill="#747474"/><path id="path37" d="m6.013,4.42c.011.2307-.1685.4285-.4029.4395-.2344.0109-.4376-.1685-.4467-.3992-.011-.2381.1722-.4359.4066-.4467.2307-.011.4302.1683.443.4064Z" fill="#747474"/><path id="path39" d="m4.977,3.66c.0093.216-.1574.4029-.3754.4101-.2179.0109-.4066-.1574-.4157-.3736-.0093-.2197.1611-.4029.379-.4138.2142-.0109.4011.1576.412.3773Z" fill="#747474"/><path id="path41" d="m3.408,3.13c-.011-.2051.1483-.3771.3498-.3845.1997-.0109.3736.1465.3827.3478.0093.2014-.1464.3736-.3478.381-.2014.0109-.3773-.1465-.3846-.3443h0Z" fill="#747474"/><path id="path43" d="m4.314,2.15c.1997-.0293.3901.1101.4194.3113.0294.2014-.1099.3918-.3131.4174-.2014.033-.3901-.1099-.4192-.3113-.0275-.2014.1133-.3882.313-.4174Z" fill="#747474"/><path id="path45" d="m5.856,2.8c.0312.2123-.1171.4101-.3296.4395-.2125.033-.412-.1171-.4413-.3259-.0294-.2125.119-.4138.3296-.4434.2107-.0291.4102.1174.4413.3298Z" fill="#747474"/><path id="path47" d="m7.178,3.34c.033.2271-.1227.4322-.3461.4651-.2234.033-.4339-.1245-.4651-.3443-.031-.2234.1245-.4322.3461-.4651.2216-.033.4322.121.4651.3443Z" fill="#747474"/><path id="path49" d="m8.498,3.88c.0347.2344-.1282.4504-.3626.4871-.2326.033-.4541-.1282-.4853-.3625-.033-.2344.1282-.4541.3606-.4871.2344-.0365.4542.1283.4872.3625Z" fill="#747474"/><path id="path51" d="m9.82,4.42c.0347.2454-.1357.4725-.379.5091-.2435.0366-.4744-.1355-.5072-.3773-.035-.2453.1334-.476.377-.5126.2454-.033.4725.1354.5093.3808Z" fill="#747474"/><path id="path53" d="m11.142,4.95c.0384.2563-.141.4944-.3957.5311-.2544.0366-.4962-.1429-.5309-.3955-.0366-.2563.139-.4981.3938-.5347.2562-.0366.496.1427.5328.3992Z" fill="#747474"/><path id="path55" d="m11.91,5.07c.2674-.0366.5165.1501.5549.4174.0403.2637-.1483.5128-.412.5531-.2653.0402-.5181-.1465-.553-.4138-.0384-.2675.1445-.5165.4101-.5568h0Z" fill="#747474"/></g></g></svg>