<?xml version="1.0" encoding="UTF-8"?><svg id="Layer_2" xmlns="http://www.w3.org/2000/svg" viewBox="0 0 17.4676 13.734"><g id="svg6"><path id="path2" d="m14.0675,3.1335c3.2002,1.0667,3.2002,6.4004,0,7.4671h-1.0667v2.1335h-2.1335v-2.1335h-4.2669v2.1335h-2.1335v-2.1335h-1.0667C.2,9.5338.2,4.2002,3.4001,3.1335h2.1335v-1.0667h-1.0667v-1.0667h5.3337v1.0667h-1.0667v1.0667h5.3337Z" fill="none" isolation="isolate" opacity=".3" stroke="#fff" stroke-linejoin="round" stroke-width="2"/><path id="path4" d="m14.0675,3.1335c3.2002,1.0667,3.2002,6.4004,0,7.4671h-1.0667v2.1335h-2.1335v-2.1335h-4.2669v2.1335h-2.1335v-2.1335h-1.0667C.2,9.5338.2,4.2002,3.4001,3.1335h2.1335v-1.0667h-1.0667v-1.0667h5.3337v1.0667h-1.0667v1.0667h5.3337Z" fill="#747474"/></g></svg>