<?xml version="1.0" encoding="UTF-8"?><svg id="Layer_2" xmlns="http://www.w3.org/2000/svg" viewBox="0 0 17.423 17.423"><g id="svg5369"><path id="path14391" d="m1.9269,1c-.4614,0-.9269.4656-.9269.9269v6.5251c0,2.0449.9063,4.486,4.5972,4.486.331,0-.1413-.032.1483-.0736v-2.3728h-2.966s.6591-2.3728,2.966-2.3728v-1.965c0-.8459.1302-1.725.5932-2.1881.463-.463,1.0301-1.5031,2.966-.5938l1.1864.5938V1.9274c0-.4614-.4655-.9269-.9269-.9269-.8568,0-2.6324,1.1864-3.8188,1.1864S2.7837,1.0006,1.9267,1.0006v-.0006Zm1.4461,2.3728c.6552,0,1.1864.5312,1.1864,1.1864s-.5312,1.1864-1.1864,1.1864-1.1864-.5312-1.1864-1.1864.5312-1.1864,1.1864-1.1864Zm4.4859,1.1864c-.435,0-.9269.4656-.9269.9269v6.1915c0,2.0449,1.0546,4.7455,4.7455,4.7455s4.7455-2.7007,4.7455-4.7455v-6.1915c0-.4614-.4919-.9269-.9269-.9269-.8568,0-2.6324,1.1864-3.8188,1.1864s-2.9618-1.1864-3.8188-1.1864h.0001Zm1.446,2.3728c.6552,0,1.1864.5312,1.1864,1.1864s-.5312,1.1864-1.1864,1.1864-1.1864-.5312-1.1864-1.1864.5312-1.1864,1.1864-1.1864Zm4.7455,0c.6552,0,1.1864.5312,1.1864,1.1864s-.5312,1.1864-1.1864,1.1864-1.1864-.5312-1.1864-1.1864.5312-1.1864,1.1864-1.1864Zm-5.3387,4.7455h5.9319s-.6591,2.3728-2.966,2.3728-2.966-2.3728-2.966-2.3728Z" fill="#fff" isolation="isolate" opacity=".3" stroke="#fff" stroke-linecap="round" stroke-linejoin="round" stroke-width="2"/><path id="path6342-3" d="m1.9269,1c-.4614,0-.9269.4656-.9269.9269v6.5251c0,2.0449.9063,4.486,4.5972,4.486.331,0-.1413-.032.1483-.0736v-2.3728h-2.966s.6591-2.3728,2.966-2.3728v-1.965c0-.8459.1302-1.725.5932-2.1881.463-.463,1.0537-1.5518,2.966-.5938l1.1864.5938V1.9274c0-.4614-.4655-.9269-.9269-.9269-.8568,0-2.6324,1.1864-3.8188,1.1864S2.7837,1.0006,1.9267,1.0006v-.0006Zm1.4461,2.3728c.6552,0,1.1864.5312,1.1864,1.1864s-.5312,1.1864-1.1864,1.1864-1.1864-.5312-1.1864-1.1864.5312-1.1864,1.1864-1.1864Zm4.4859,1.1864c-.435,0-.9269.4656-.9269.9269v6.1915c0,2.0449,1.0546,4.7455,4.7455,4.7455s4.7455-2.7007,4.7455-4.7455v-6.1915c0-.4614-.4919-.9269-.9269-.9269-.8568,0-2.6324,1.1864-3.8188,1.1864s-2.9618-1.1864-3.8188-1.1864h.0001Zm1.446,2.3728c.6552,0,1.1864.5312,1.1864,1.1864s-.5312,1.1864-1.1864,1.1864-1.1864-.5312-1.1864-1.1864.5312-1.1864,1.1864-1.1864Zm4.7455,0c.6552,0,1.1864.5312,1.1864,1.1864s-.5312,1.1864-1.1864,1.1864-1.1864-.5312-1.1864-1.1864.5312-1.1864,1.1864-1.1864Zm-5.3387,4.7455h5.9319s-.6591,2.3728-2.966,2.3728-2.966-2.3728-2.966-2.3728Z" fill="#747474"/></g></svg>