<?xml version="1.0" encoding="UTF-8"?><svg id="Layer_1" xmlns="http://www.w3.org/2000/svg" viewBox="0 0 18.2415 18.2415"><path d="M1.1342,1.1208h1.8589c0,.3252-.0062,.6435,.0017,.9617,.0086,.3507,.2599,.6224,.6423,.7126,.576,.1358,1.1426-.1714,1.1795-.6512,.0198-.2575,.0073-.5165,.0091-.7749,.0005-.0756,0-.1512,0-.2413h1.6419c0,.3361-.0146,.6633,.0034,.9895,.0275,.4972,.5897,.8153,1.1749,.6789,.3619-.0843,.6238-.3353,.6433-.645,.0167-.2647,.0071-.5305,.0089-.7958,.0005-.0748,0-.1496,0-.2333h1.6449c0,.3418-.0157,.6757,.0037,1.0084,.0287,.4913,.6095,.8077,1.1883,.6624,.376-.0944,.6236-.3595,.6346-.6963,.01-.307,.0066-.6143,.0105-.9214,.0002-.0124,.0137-.0248,.0284-.0496h1.604c0,.3123-.0047,.6233,.0012,.9342,.0072,.3836,.2685,.6591,.6941,.7436,.56,.1112,1.1026-.1962,1.129-.6564,.0191-.3332,.0037-.6677,.0037-1.0177h1.8776v.2332c0,.8449-.0055,1.6899,.0028,2.5348,.0032,.3216-.1433,.5614-.4871,.7373-.4645,.2378-.9144,.4934-1.3765,.7342-.1303,.0679-.1871,.1413-.1869,.2696,.0047,2.3323,.0017,4.6646,.0099,6.9969,.0003,.0779,.0767,.1831,.1588,.2287,.4817,.2674,.9754,.5209,1.4653,.7789,.269,.1417,.4108,.3412,.4115,.5972,.0025,.9217,.001,1.8435,.0005,2.7652,0,.0337-.0058,.0674-.0103,.1155H1.1224c0-.0676,0-.1346,0-.2016-.0001-.8799,.0017-1.7597-.0016-2.6396-.001-.2815,.139-.4965,.4332-.6528,.4813-.2557,.9573-.5178,1.4409-.7707,.1217-.0636,.175-.1299,.1748-.2516-.0049-2.3323-.0043-4.6646,.0004-6.9969,.0002-.1187-.0457-.1889-.1714-.2528-.4876-.2479-.9671-.5058-1.4512-.7581-.2693-.1403-.422-.3361-.4233-.5918-.0046-.9217-.0017-1.8435-.0011-2.7652,0-.0335,.0061-.067,.0111-.119ZM7.246,11.2991h3.72c.0095-.0413,.024-.0748,.024-.1083,.0005-.887,.0055-1.774-.004-2.661-.0039-.3699-.1803-.6939-.4968-.9663-.5075-.4369-1.3005-.5892-2.0025-.3867-.7489,.216-1.2115,.7367-1.2362,1.419-.0156,.4327-.0042,.866-.0045,1.299-.0003,.46,0,.92,0,1.4044Z" fill="none" opacity=".3" stroke="#fff" stroke-miterlimit="10" stroke-width="2.2415"/><path d="M1.1342,1.1208h1.8589c0,.3252-.0062,.6435,.0017,.9617,.0086,.3507,.2599,.6224,.6423,.7126,.576,.1358,1.1426-.1714,1.1795-.6512,.0198-.2575,.0073-.5165,.0091-.7749,.0005-.0756,0-.1512,0-.2413h1.6419c0,.3361-.0146,.6633,.0034,.9895,.0275,.4972,.5897,.8153,1.1749,.6789,.3619-.0843,.6238-.3353,.6433-.645,.0167-.2647,.0071-.5305,.0089-.7958,.0005-.0748,0-.1496,0-.2333h1.6449c0,.3418-.0157,.6757,.0037,1.0084,.0287,.4913,.6095,.8077,1.1883,.6624,.376-.0944,.6236-.3595,.6346-.6963,.01-.307,.0066-.6143,.0105-.9214,.0002-.0124,.0137-.0248,.0284-.0496h1.604c0,.3123-.0047,.6233,.0012,.9342,.0072,.3836,.2685,.6591,.6941,.7436,.56,.1112,1.1026-.1962,1.129-.6564,.0191-.3332,.0037-.6677,.0037-1.0177h1.8776v.2332c0,.8449-.0055,1.6899,.0028,2.5348,.0032,.3216-.1433,.5614-.4871,.7373-.4645,.2378-.9144,.4934-1.3765,.7342-.1303,.0679-.1871,.1413-.1869,.2696,.0047,2.3323,.0017,4.6646,.0099,6.9969,.0003,.0779,.0767,.1831,.1588,.2287,.4817,.2674,.9754,.5209,1.4653,.7789,.269,.1417,.4108,.3412,.4115,.5972,.0025,.9217,.001,1.8435,.0005,2.7652,0,.0337-.0058,.0674-.0103,.1155H1.1224c0-.0676,0-.1346,0-.2016-.0001-.8799,.0017-1.7597-.0016-2.6396-.001-.2815,.139-.4965,.4332-.6528,.4813-.2557,.9573-.5178,1.4409-.7707,.1217-.0636,.175-.1299,.1748-.2516-.0049-2.3323-.0043-4.6646,.0004-6.9969,.0002-.1187-.0457-.1889-.1714-.2528-.4876-.2479-.9671-.5058-1.4512-.7581-.2693-.1403-.422-.3361-.4233-.5918-.0046-.9217-.0017-1.8435-.0011-2.7652,0-.0335,.0061-.067,.0111-.119ZM7.246,11.2991h3.72c.0095-.0413,.024-.0748,.024-.1083,.0005-.887,.0055-1.774-.004-2.661-.0039-.3699-.1803-.6939-.4968-.9663-.5075-.4369-1.3005-.5892-2.0025-.3867-.7489,.216-1.2115,.7367-1.2362,1.419-.0156,.4327-.0042,.866-.0045,1.299-.0003,.46,0,.92,0,1.4044Z" fill="#747474"/></svg>