<?xml version="1.0" encoding="UTF-8"?><svg id="Layer_1" xmlns="http://www.w3.org/2000/svg" viewBox="0 0 12.505 18.0002"><g opacity=".3"><path d="M9.2522,10.5812c-.5762,.0043-1.0449,.4784-1.0425,1.0547,.0024,.5744,.4828,1.0527,1.0519,1.0473,.5757-.0055,1.0436-.4805,1.0411-1.0567h0c-.0026-.5776-.477-1.0496-1.0505-1.0453Z" fill="none" stroke="#fff" stroke-miterlimit="10" stroke-width="2"/><path d="M8.6018,14.0279c-1.5534-.0027-3.1068-.0027-4.6603-.0003-.0473,0-.1206,.0154-.1379,.0474-.1872,.3467-.3656,.6981-.5545,1.0639h6.0389c-.1902-.368-.3667-.7152-.5516-1.0578-.0179-.0331-.0885-.0531-.1346-.0532Z" fill="none" stroke="#fff" stroke-miterlimit="10" stroke-width="2"/><path d="M4.3634,11.5878c-.0041-.5749-.4877-1.0538-1.0544-1.044-.5799,.01-1.042,.481-1.0383,1.0583,.0037,.5761,.4835,1.0519,1.0527,1.0441,.5767-.0079,1.0441-.4837,1.04-1.0585Z" fill="none" stroke="#fff" stroke-miterlimit="10" stroke-width="2"/><path d="M8.4171,4.4287c-1.3742-.0221-2.7492-.0222-4.1234-.0037-1.1624,.0156-1.9773,.8715-1.9899,2.0363-.006,.5546-.0215,1.1091-.03,1.6637-.0012,.0806,.0014,.1645,.0218,.2417,.0854,.3222,.354,.5048,.7452,.5055,1.0866,.0019,2.1732,.0006,3.2598,.0005h0c1.0975-.0001,2.195,.0025,3.2924-.0013,.4545-.0016,.7405-.2689,.7458-.7054,.0074-.6144,.0158-1.2296-.0061-1.8434-.0369-1.0325-.8792-1.8771-1.9156-1.8938Z" fill="none" stroke="#fff" stroke-miterlimit="10" stroke-width="2"/><path d="M11.1986,4.5818c-.4678-.9723-1.2601-1.5483-2.323-1.7122-.4041-.0623-.8221-.0367-1.2338-.0457-.2595-.0057-.5193-.0011-.7939-.0011v-.735h1.9175V1H2.1447v1.0959h3.5826v.6821c-.0578,.0027-.1147,.0074-.1716,.0077-.5109,.0031-1.0221-.0056-1.5325,.0102-1.4886,.0461-2.7991,1.2439-2.9863,2.7221-.0219,.1721-.0349,.3466-.035,.52-.0023,2.1274-.0022,4.2547-.0011,6.3821,.0003,.6955,.3189,1.1959,.9159,1.4427,.0933,.0386,.1928,.062,.3023,.0964-.0297,.0623-.0528,.1156-.0798,.1668-.3061,.5817-.6122,1.1634-.9194,1.7444-.0968,.1831-.1497,.3712-.0961,.5798,.069,.2689,.226,.467,.4965,.5297,.2782,.0645,.5269-.0276,.7205-.2422,.0539-.0598,.113-.128,.1336-.2024,.0899-.3242,.2992-.3824,.6164-.3802,2.1903,.0154,4.3807,.0094,6.571,.0049,.1342-.0003,.1942,.0476,.259,.1609,.1087,.1898,.2245,.3892,.3836,.5333,.2308,.2091,.6196,.1795,.8594-.0169,.2542-.2082,.3336-.537,.1797-.8379-.3141-.6141-.6393-1.2227-.9598-1.8336-.0326-.0622-.0647-.1247-.0974-.1879,.178-.08,.3585-.1398,.5166-.2364,.3767-.2302,.5993-.5734,.677-1.0095,.0046-.0262,.0166-.0512,.0252-.0767V5.6034h.0001c-.0994-.3419-.1542-.7052-.3064-1.0216ZM2.2707,11.6022h0c-.0037-.5774,.4584-1.0483,1.0383-1.0583,.5667-.0098,1.0504,.4691,1.0544,1.044,.0041,.5748-.4633,1.0506-1.04,1.0585-.5692,.0078-1.049-.468-1.0527-1.0441Zm7.0173,3.5367H3.2492c.1889-.3658,.3673-.7172,.5545-1.0639,.0173-.032,.0906-.0474,.1379-.0474,1.5535-.0024,3.1069-.0024,4.6603,.0003,.0461,.0001,.1167,.0201,.1346,.0532,.1849,.3426,.3614,.6898,.5516,1.0578h-.0001Zm1.0148-3.5123c.0025,.5762-.4654,1.0512-1.0411,1.0567-.5691,.0054-1.0495-.4729-1.0519-1.0473-.0024-.5764,.4663-1.0505,1.0425-1.0547,.5735-.0042,1.0479,.4678,1.0505,1.0453h0Zm-.7097-2.7552c-1.0974,.0038-2.1949,.0012-3.2924,.0012h0c-1.0866,.0002-2.1732,.0015-3.2598-.0004-.3912-.0007-.6598-.1833-.7452-.5055-.0204-.0772-.023-.1611-.0218-.2417,.0085-.5546,.024-1.1091,.03-1.6637,.0126-1.1647,.8275-2.0206,1.9899-2.0363,1.3742-.0185,2.7492-.0184,4.1234,.0037,1.0365,.0167,1.8788,.8613,1.9156,1.8938,.0219,.6138,.0135,1.229,.0061,1.8434-.0053,.4365-.2913,.7038-.7458,.7054Z" fill="#747474" stroke="#fff" stroke-miterlimit="10" stroke-width="2"/></g><g><path d="M9.2522,10.5812c-.5762,.0043-1.0449,.4784-1.0425,1.0547,.0024,.5744,.4828,1.0527,1.0519,1.0473,.5757-.0055,1.0436-.4805,1.0411-1.0567h0c-.0026-.5776-.477-1.0496-1.0505-1.0453Z" fill="none"/><path d="M8.6018,14.0279c-1.5534-.0027-3.1068-.0027-4.6603-.0003-.0473,0-.1206,.0154-.1379,.0474-.1872,.3467-.3656,.6981-.5545,1.0639h6.0389c-.1902-.368-.3667-.7152-.5516-1.0578-.0179-.0331-.0885-.0531-.1346-.0532Z" fill="none"/><path d="M4.3634,11.5878c-.0041-.5749-.4877-1.0538-1.0544-1.044-.5799,.01-1.042,.481-1.0383,1.0583,.0037,.5761,.4835,1.0519,1.0527,1.0441,.5767-.0079,1.0441-.4837,1.04-1.0585Z" fill="none"/><path d="M8.4171,4.4287c-1.3742-.0221-2.7492-.0222-4.1234-.0037-1.1624,.0156-1.9773,.8715-1.9899,2.0363-.006,.5546-.0215,1.1091-.03,1.6637-.0012,.0806,.0014,.1645,.0218,.2417,.0854,.3222,.354,.5048,.7452,.5055,1.0866,.0019,2.1732,.0006,3.2598,.0005h0c1.0975-.0001,2.195,.0025,3.2924-.0013,.4545-.0016,.7405-.2689,.7458-.7054,.0074-.6144,.0158-1.2296-.0061-1.8434-.0369-1.0325-.8792-1.8771-1.9156-1.8938Z" fill="none"/><path d="M11.1986,4.5818c-.4678-.9723-1.2601-1.5483-2.323-1.7122-.4041-.0623-.8221-.0367-1.2338-.0457-.2595-.0057-.5193-.0011-.7939-.0011v-.735h1.9175V1H2.1447v1.0959h3.5826v.6821c-.0578,.0027-.1147,.0074-.1716,.0077-.5109,.0031-1.0221-.0056-1.5325,.0102-1.4886,.0461-2.7991,1.2439-2.9863,2.7221-.0219,.1721-.0349,.3466-.035,.52-.0023,2.1274-.0022,4.2547-.0011,6.3821,.0003,.6955,.3189,1.1959,.9159,1.4427,.0933,.0386,.1928,.062,.3023,.0964-.0297,.0623-.0528,.1156-.0798,.1668-.3061,.5817-.6122,1.1634-.9194,1.7444-.0968,.1831-.1497,.3712-.0961,.5798,.069,.2689,.226,.467,.4965,.5297,.2782,.0645,.5269-.0276,.7205-.2422,.0539-.0598,.113-.128,.1336-.2024,.0899-.3242,.2992-.3824,.6164-.3802,2.1903,.0154,4.3807,.0094,6.571,.0049,.1342-.0003,.1942,.0476,.259,.1609,.1087,.1898,.2245,.3892,.3836,.5333,.2308,.2091,.6196,.1795,.8594-.0169,.2542-.2082,.3336-.537,.1797-.8379-.3141-.6141-.6393-1.2227-.9598-1.8336-.0326-.0622-.0647-.1247-.0974-.1879,.178-.08,.3585-.1398,.5166-.2364,.3767-.2302,.5993-.5734,.677-1.0095,.0046-.0262,.0166-.0512,.0252-.0767V5.6034h.0001c-.0994-.3419-.1542-.7052-.3064-1.0216ZM2.2707,11.6022h0c-.0037-.5774,.4584-1.0483,1.0383-1.0583,.5667-.0098,1.0504,.4691,1.0544,1.044,.0041,.5748-.4633,1.0506-1.04,1.0585-.5692,.0078-1.049-.468-1.0527-1.0441Zm7.0173,3.5367H3.2492c.1889-.3658,.3673-.7172,.5545-1.0639,.0173-.032,.0906-.0474,.1379-.0474,1.5535-.0024,3.1069-.0024,4.6603,.0003,.0461,.0001,.1167,.0201,.1346,.0532,.1849,.3426,.3614,.6898,.5516,1.0578h-.0001Zm1.0148-3.5123c.0025,.5762-.4654,1.0512-1.0411,1.0567-.5691,.0054-1.0495-.4729-1.0519-1.0473-.0024-.5764,.4663-1.0505,1.0425-1.0547,.5735-.0042,1.0479,.4678,1.0505,1.0453h0Zm-.7097-2.7552c-1.0974,.0038-2.1949,.0012-3.2924,.0012h0c-1.0866,.0002-2.1732,.0015-3.2598-.0004-.3912-.0007-.6598-.1833-.7452-.5055-.0204-.0772-.023-.1611-.0218-.2417,.0085-.5546,.024-1.1091,.03-1.6637,.0126-1.1647,.8275-2.0206,1.9899-2.0363,1.3742-.0185,2.7492-.0184,4.1234,.0037,1.0365,.0167,1.8788,.8613,1.9156,1.8938,.0219,.6138,.0135,1.229,.0061,1.8434-.0053,.4365-.2913,.7038-.7458,.7054Z" fill="#747474"/></g></svg>