<?xml version="1.0" encoding="UTF-8"?><svg id="Layer_1" xmlns="http://www.w3.org/2000/svg" viewBox="0 0 11.9742 18"><path d="M3.2045,1.6407c-.2219-.6233,.1539-.6431,.6027-.6395,1.4474,.0117,2.895,.0129,4.3424-.0009,.4567-.0044,.8197,.03,.6193,.6288,2.0177,.3129,2.573,1.2168,1.8764,3.1066-.1889,.5125-.1916,.9009,.0274,1.4153,.459,1.0778,.326,2.2156,.0504,3.3286-.5279,2.1322-1.602,4.011-3.5392,6.155,.6613-.1513,.9215,.2547,1.1793,.6402,.2329,.3482,.0721,.7026-.3457,.7091-1.3589,.0211-2.7185,.0217-4.0774,.0005-.4155-.0065-.5769-.3675-.3418-.7114,.2565-.3751,.5098-.7833,1.181-.6392-.1897-.2078-.3041-.3323-.4175-.4577-1.6442-1.8178-2.7907-3.8973-3.2405-6.3207-.2022-1.0894-.1981-2.1764,.376-3.1925,.0675-.1195,.0151-.3289-.0272-.4843-.1202-.4414-.3075-.8684-.3898-1.3156-.2118-1.1518,.3966-1.9682,1.5562-2.1476,.1723-.0267,.3458-.0458,.5679-.0748h.0001Zm-1.0446,3.2793c.5819-.1214,1.061-.2172,1.5375-.3245,.0929-.0209,.2315-.0679,.2544-.1351,.2077-.61,.2148-1.2681-.1465-1.7698-.1594-.2214-.7254-.2238-1.0991-.2007-.6382,.0393-.9855,.4937-.8886,1.1222,.0684,.4437,.2254,.8737,.3423,1.3079Zm7.6626,.008c.1088-.4833,.2573-.9794,.3239-1.4862,.0605-.4609-.2193-.7573-.6426-.9094-1.0147-.3647-1.5522-.0094-1.5938,1.0582-.0088,.2264-.0136,.4653,.0495,.6777,.0389,.1308,.193,.2836,.3248,.3202,.4676,.1297,.9478,.2137,1.5382,.3396h0Z" fill="none" isolation="isolate" opacity=".3" stroke="#fff" stroke-miterlimit="10" stroke-width="2"/><path d="M3.2045,1.6407c-.2219-.6233,.1539-.6431,.6027-.6395,1.4474,.0117,2.895,.0129,4.3424-.0009,.4567-.0044,.8197,.03,.6193,.6288,2.0177,.3129,2.573,1.2168,1.8764,3.1066-.1889,.5125-.1916,.9009,.0274,1.4153,.459,1.0778,.326,2.2156,.0504,3.3286-.5279,2.1322-1.602,4.011-3.5392,6.155,.6613-.1513,.9215,.2547,1.1793,.6402,.2329,.3482,.0721,.7026-.3457,.7091-1.3589,.0211-2.7185,.0217-4.0774,.0005-.4155-.0065-.5769-.3675-.3418-.7114,.2565-.3751,.5098-.7833,1.181-.6392-.1897-.2078-.3041-.3323-.4175-.4577-1.6442-1.8178-2.7907-3.8973-3.2405-6.3207-.2022-1.0894-.1981-2.1764,.376-3.1925,.0675-.1195,.0151-.3289-.0272-.4843-.1202-.4414-.3075-.8684-.3898-1.3156-.2118-1.1518,.3966-1.9682,1.5562-2.1476,.1723-.0267,.3458-.0458,.5679-.0748h.0001Zm-1.0446,3.2793c.5819-.1214,1.061-.2172,1.5375-.3245,.0929-.0209,.2315-.0679,.2544-.1351,.2077-.61,.2148-1.2681-.1465-1.7698-.1594-.2214-.7254-.2238-1.0991-.2007-.6382,.0393-.9855,.4937-.8886,1.1222,.0684,.4437,.2254,.8737,.3423,1.3079Zm7.6626,.008c.1088-.4833,.2573-.9794,.3239-1.4862,.0605-.4609-.2193-.7573-.6426-.9094-1.0147-.3647-1.5522-.0094-1.5938,1.0582-.0088,.2264-.0136,.4653,.0495,.6777,.0389,.1308,.193,.2836,.3248,.3202,.4676,.1297,.9478,.2137,1.5382,.3396h0Z" fill="#747474"/></svg>