<?xml version="1.0" encoding="UTF-8"?><svg id="Layer_2" xmlns="http://www.w3.org/2000/svg" viewBox="0 0 14.9123 18"><g id="svg2"><g id="g6387" opacity=".3"><path id="path6389" d="m10.4656,14.8104l-5.6506-3.9944.5029-.8747,6.2792,2.9096-1.1315,1.9595Zm-4.4723,2.1896l-2.3746-5.3562.873-.5064,3.4594,4.731-1.9578,1.1315ZM10.4656,3.1886l-5.6506,3.9947.5029.8755,6.2792-2.9098-1.1315-1.9605ZM5.9933,1l-2.3746,5.3552.873.5066,3.4594-4.7302-1.9578-1.1315Zm7.919,6.8685l-8.4778.6259v1.0112l8.4778.6259v-2.263Zm-9.5698,1.1315c0,.9214-.749,1.6704-1.6722,1.6704-.9214,0-1.6704-.749-1.6704-1.6704,0-.9232.749-1.6712,1.6704-1.6712.9232,0,1.6722.748,1.6722,1.6712Z" fill="none" stroke="#fff" stroke-linejoin="round" stroke-width="2"/></g><g id="g5773"><path id="polygon5775" d="m10.4656,14.8104l-5.6506-3.9944.5029-.8747,6.2792,2.9096-1.1315,1.9595Zm-4.4723,2.1896l-2.3746-5.3562.873-.5064,3.4594,4.731-1.9578,1.1315ZM10.4656,3.1886l-5.6506,3.9947.5029.8755,6.2792-2.9098-1.1315-1.9605ZM5.9933,1l-2.3746,5.3552.873.5066,3.4594-4.7302-1.9578-1.1315Zm7.919,6.8685l-8.4778.6259v1.0112l8.4778.6259v-2.263Zm-9.5698,1.1315c0,.9214-.749,1.6704-1.6722,1.6704-.9214,0-1.6704-.749-1.6704-1.6704,0-.9232.749-1.6712,1.6704-1.6712.9232,0,1.6722.748,1.6722,1.6712Z" fill="#747474"/></g></g></svg>