<?xml version="1.0" encoding="UTF-8"?><svg id="Layer_2" xmlns="http://www.w3.org/2000/svg" viewBox="0 0 12 17.9998"><g id="svg6"><path id="path2" d="m6,1.0001c-.6266,0-1.1542.5113-1.1562,1.1562h-.5c-2.7588,0-3.3444,1.2702-3.3438,1.8438h10c-.0026-.5753-.5872-1.8446-3.3438-1.8438h-.5312c-.0006-.3121-.1292-.5916-.3438-.8125-.2167-.2214-.474-.3404-.7812-.3438h0ZM1.0312,5.0001l.8438,10.781c0,.6668,1.8446,1.2188,4.125,1.2188s4.125-.552,4.125-1.2188l.875-10.781H1.0312Zm2.1562.8125c.3972-.019.7914.1315.8125.3125l.9062,9.1875c.0155.1808-.3211.3362-.75.3438-.413,0-.8279-.1377-.8438-.3125l-.9062-9.1875c-.016-.1807.3577-.3359.7812-.3438Zm5.2187.0312c.0976-.0141.2245-.0062.3438,0,.429.011.7714.1642.75.3438l-.9375,9.1562c-.0214.1752-.3629.3125-.7812.3125h-.0625c-.429-.011-.7402-.163-.7188-.3438l.9062-9.1562c.016-.1355.2072-.2703.5-.3125Z" fill="#fff" isolation="isolate" opacity=".3" stroke="#fff" stroke-linejoin="round" stroke-width="2"/><path id="path4" d="m6,1.0001c-.6266,0-1.1542.5113-1.1562,1.1562h-.5c-2.7588,0-3.3444,1.2702-3.3438,1.8438h10c-.0026-.5753-.5872-1.8446-3.3438-1.8438h-.5312c-.0006-.3121-.1292-.5916-.3438-.8125-.2167-.2214-.474-.3404-.7812-.3438h0ZM1.0312,5.0001l.8438,10.781c0,.6668,1.8446,1.2188,4.125,1.2188s4.125-.552,4.125-1.2188l.875-10.781H1.0312Zm2.1562.8125c.3972-.019.7914.1315.8125.3125l.9062,9.1875c.0155.1808-.3211.3362-.75.3438-.413,0-.8279-.1377-.8438-.3125l-.9062-9.1875c-.016-.1807.3577-.3359.7812-.3438Zm5.2187.0312c.0976-.0141.2245-.0062.3438,0,.429.011.7714.1642.75.3438l-.9375,9.1562c-.0214.1752-.3629.3125-.7812.3125h-.0625c-.429-.011-.7402-.163-.7188-.3438l.9062-9.1562c.016-.1355.2072-.2703.5-.3125Z" fill="#747474"/></g></svg>