<?xml version="1.0" encoding="UTF-8" standalone="no"?>
<!-- Created with Inkscape (http://www.inkscape.org/) -->

<svg
   width="4.8683357mm"
   height="5.3187294mm"
   viewBox="0 0 4.8683357 5.3187294"
   version="1.1"
   id="svg5"
   xml:space="preserve"
   inkscape:version="1.2.2 (732a01da63, 2022-12-09)"
   sodipodi:docname="bell_tower-18.svg"
   xmlns:inkscape="http://www.inkscape.org/namespaces/inkscape"
   xmlns:sodipodi="http://sodipodi.sourceforge.net/DTD/sodipodi-0.dtd"
   xmlns="http://www.w3.org/2000/svg"
   xmlns:svg="http://www.w3.org/2000/svg"><sodipodi:namedview
     id="namedview7"
     pagecolor="#ffffff"
     bordercolor="#999999"
     borderopacity="1"
     inkscape:showpageshadow="0"
     inkscape:pageopacity="0"
     inkscape:pagecheckerboard="0"
     inkscape:deskcolor="#d1d1d1"
     inkscape:document-units="mm"
     showgrid="false"
     inkscape:zoom="0.74564394"
     inkscape:cx="338.63348"
     inkscape:cy="562.60097"
     inkscape:window-width="958"
     inkscape:window-height="1008"
     inkscape:window-x="-7"
     inkscape:window-y="0"
     inkscape:window-maximized="0"
     inkscape:current-layer="layer1" /><defs
     id="defs2" /><g
     inkscape:label="Layer 1"
     inkscape:groupmode="layer"
     id="layer1"
     transform="translate(-46.888414,-63.695475)"><g
       id="Layer_1-2"
       transform="matrix(0.26458333,0,0,0.26458333,46.888414,63.695473)"
       inkscape:export-filename="..\..\..\..\..\Desktop\Layer_1-2.svg"
       inkscape:export-xdpi="96"
       inkscape:export-ydpi="96"><g
         fill="none"
         opacity="0.3"
         id="g186"><path
           d="m 17.4,13.9 v 1 H 1.1 Q 1,14.9 1,14.8 v -1 C 1.2,13.6 1.4,13.4 1.6,13.2 2,12.8 2.4,12.3 2.9,11.9 Q 3,11.8 3,11.7 V 7.9 C 3.1,7.5 3.1,7.1 3.3,6.8 3.5,6.2 3.9,5.6 4.3,5.1 4.6,4.8 4.9,4.5 5.2,4.2 5.8,3.7 6.5,3.4 7.3,3.3 Q 7.6,3.2 7.6,3 c 0,-0.3 0,-0.7 0.1,-1 0.2,-0.5 0.5,-0.8 1,-0.9 0,0 0.1,0 0.1,-0.1 h 0.5 c 0.1,0 0.2,0.1 0.3,0.1 0.3,0.1 0.5,0.2 0.7,0.4 0.3,0.3 0.4,0.7 0.4,1.2 v 0.4 c 0,0.1 0.1,0.1 0.1,0.2 0.2,0 0.4,0.1 0.6,0.1 0.6,0.2 1.1,0.4 1.6,0.8 0.5,0.4 0.9,0.8 1.2,1.2 0.3,0.4 0.5,0.8 0.7,1.3 0.2,0.6 0.3,1.1 0.3,1.7 v 3.3 q 0,0.1 0.1,0.2 c 0.7,0.7 1.4,1.3 2.1,2 -0.1,0 0,0 0,0 z"
           fill="#ffffff"
           stroke="#ffffff"
           stroke-linecap="round"
           stroke-linejoin="round"
           stroke-width="2"
           id="path182" /><path
           d="m 9.2,16 h 3 q 0.1,0 0.1,0.1 c 0,0.2 0,0.5 -0.1,0.7 -0.1,0.4 -0.3,0.8 -0.6,1.2 -0.4,0.5 -0.9,0.8 -1.5,1 -0.2,0.1 -0.4,0.1 -0.6,0.1 -0.4,0 -0.8,0 -1.1,-0.1 C 7.8,18.8 7.4,18.5 7,18 6.7,17.6 6.4,17.1 6.4,16.5 c 0,-0.1 0,-0.2 -0.1,-0.4 Q 6.3,16 6.4,16 c 0.8,0 1.8,0 2.8,0 z"
           fill="#ffffff"
           stroke="#ffffff"
           stroke-linecap="round"
           stroke-linejoin="round"
           stroke-width="2"
           id="path184" /></g><path
         d="m 17.4,13.9 v 1 H 1.1 Q 1,14.9 1,14.8 v -1 C 1.2,13.6 1.4,13.4 1.6,13.2 2,12.8 2.4,12.3 2.9,11.9 Q 3,11.8 3,11.7 V 7.9 C 3.1,7.5 3.1,7.1 3.3,6.8 3.5,6.2 3.9,5.6 4.3,5.1 4.6,4.8 4.9,4.5 5.2,4.2 5.8,3.7 6.5,3.4 7.3,3.3 Q 7.6,3.2 7.6,3 c 0,-0.3 0,-0.7 0.1,-1 0.2,-0.5 0.5,-0.8 1,-0.9 0,0 0.1,0 0.1,-0.1 h 0.5 c 0.1,0 0.2,0.1 0.3,0.1 0.3,0.1 0.5,0.2 0.7,0.4 0.3,0.3 0.4,0.7 0.4,1.2 v 0.4 c 0,0.1 0.1,0.1 0.1,0.2 0.2,0 0.4,0.1 0.6,0.1 0.6,0.2 1.1,0.4 1.6,0.8 0.5,0.4 0.9,0.8 1.2,1.2 0.3,0.4 0.5,0.8 0.7,1.3 0.2,0.6 0.3,1.1 0.3,1.7 v 3.3 q 0,0.1 0.1,0.2 c 0.7,0.7 1.4,1.3 2.1,2 -0.1,0 0,0 0,0 z"
         fill="#747474"
         id="path188" /><path
         d="m 9.2,16 h 3 q 0.1,0 0.1,0.1 c 0,0.2 0,0.5 -0.1,0.7 -0.1,0.4 -0.3,0.8 -0.6,1.2 -0.4,0.5 -0.9,0.8 -1.5,1 -0.2,0.1 -0.4,0.1 -0.6,0.1 -0.4,0 -0.8,0 -1.1,-0.1 C 7.8,18.8 7.4,18.5 7,18 6.7,17.6 6.4,17.1 6.4,16.5 c 0,-0.1 0,-0.2 -0.1,-0.4 Q 6.3,16 6.4,16 c 0.8,0 1.8,0 2.8,0 z"
         fill="#747474"
         id="path190" /></g></g></svg>
