<?xml version="1.0" encoding="UTF-8"?><svg id="Layer_2" xmlns="http://www.w3.org/2000/svg" viewBox="0 0 17.5868 15.189"><g id="svg5369"><g id="layer1"><g id="cafe-18"><g id="g21594"><path id="path14891" d="m3.398,1.0001c-.5995,0-1.199.5995-1.199,1.199v7.1939c0,.5995.5995,1.199,1.199,1.199h8.3929c.4797,0,1.199-.5995,1.199-1.199v-.5329h.433c.433,0,.433-.4329.433-.4329v-.4329h.5329c.8659,0,2.1981-.3997,2.1981-1.7319v-2.2649c0-.5995-.2997-1.199-.8992-1.199h-2.6977v-.5995c0-.5995-.5995-1.199-1.199-1.199H3.398Zm9.5919,2.6646h2.2647c.433,0,.433.333.433.333v2.2649c0,.6858-.866.7271-1.2989.7325h-1.3988v-3.3304ZM1,11.791l2.398,2.398h8.3929l2.398-2.398H1Z" fill="#fff" isolation="isolate" opacity=".3" stroke="#fff" stroke-linejoin="round" stroke-width="2"/><path id="rect9826-2-1-5-9" d="m3.398,1.0001c-.5995,0-1.199.5995-1.199,1.199v7.1939c0,.5995.5995,1.199,1.199,1.199h8.3929c.4797,0,1.199-.5995,1.199-1.199v-.5329h.433c.433,0,.433-.4329.433-.4329v-.4329h.5329c.8659,0,2.1981-.3997,2.1981-1.7319v-2.2649c0-.5995-.2997-1.199-.8992-1.199h-2.6977v-.5995c0-.5995-.5995-1.199-1.199-1.199H3.398Zm9.5919,2.6646h2.2647c.433,0,.433.333.433.333v2.2649c0,.6858-.866.7271-1.2989.7325h-1.3988v-3.3304ZM1,11.791l2.398,2.398h8.3929l2.398-2.398H1Z" fill="#747474"/></g></g></g></g></svg>