<?xml version="1.0" encoding="UTF-8"?><svg id="Layer_2" xmlns="http://www.w3.org/2000/svg" viewBox="0 0 14 18.0053"><g id="svg10"><g id="car_rental-18"><g id="g8268" opacity=".3"><path id="path8270" d="m4.1928,1c-1.3642-.003-2.4657,1.1251-2.4688,2.5.003,1.3779,1.1046,2.4978,2.4688,2.5.9023-.001,1.6957-.5179,2.125-1.25h1.0312l.7812-.8125.5938.625.5938-.5938.5938.5938.5938-.5938.625.5938,1.0312-1.0312c.1496-.1558.1533-.2513,0-.4062l-.8438-.875h-5c-.427-.74-1.2159-1.2519-2.125-1.25h0Zm-1.0625,1.8124c.3586-.002.6535.2886.6562.6562-.0026.3625-.2975.6841-.6562.6875-.3646-.003-.6596-.325-.6562-.6875-.0034-.3677.2916-.658.6562-.6562Z" fill="#747474" stroke="#fff" stroke-linejoin="round" stroke-width="2"/><path id="path8272" d="m11.911,10.4l-.9839-2.5445c-.1837-.4871-.5859-.9014-1.3468-.905h-5.1691c-.7573.003-1.1593.4178-1.3467.905l-.9839,2.5445c-.3905.0504-1.0818.5103-1.0806,1.3813v3.2395h.9596v1.0339c-.0022,1.275,1.7987,1.2598,1.7982,0v-1.0339h6.4757v1.0339c.004,1.2598,1.8051,1.275,1.8062,0v-1.0339h.9603v-3.2395c-.0032-.871-.6951-1.3309-1.089-1.3813h0Zm-9.024,2.6656c-.46.002-.8327-.3831-.8306-.8558-.0021-.476.3706-.8607.8306-.8568.4587-.004.8312.381.8306.8568.0008.4728-.3719.8573-.8306.8558Zm4.1128-2.6898h-3.8952l.7419-2.0035c.0894-.2843.2286-.4879.5565-.4928h5.1934c.3233.005.4626.2085.5562.4928l.7423,2.0035h-3.895Zm4.1128,2.6898c-.4634.002-.836-.3831-.8389-.8558.0029-.476.3755-.8607.8389-.8568.4552-.004.8277.381.8304.8568-.0027.4728-.3752.8573-.8304.8558Z" fill="#747474" stroke="#fff" stroke-linejoin="round" stroke-width="2"/></g><g id="g8258"><path id="path8203" d="m4.1928,1c-1.3642-.003-2.4657,1.1251-2.4688,2.5.003,1.3779,1.1046,2.4978,2.4688,2.5.9023-.001,1.6957-.5179,2.125-1.25h1.0312l.7812-.8125.5938.625.5938-.5938.5938.5938.5938-.5938.625.5938,1.0312-1.0312c.1496-.1558.1533-.2513,0-.4062l-.8438-.875h-5c-.427-.74-1.2159-1.2519-2.125-1.25h0Zm-1.0625,1.8124c.3586-.002.6535.2886.6562.6562-.0026.3625-.2975.6841-.6562.6875-.3646-.003-.6596-.325-.6562-.6875-.0034-.3677.2916-.658.6562-.6562Z" fill="#747474"/><path id="path8207" d="m11.911,10.4l-.9839-2.5445c-.1837-.4871-.5859-.9014-1.3468-.905h-5.1691c-.7573.003-1.1593.4178-1.3467.905l-.9839,2.5445c-.3905.0504-1.0818.5103-1.0806,1.3813v3.2395h.9596v1.0339c-.0022,1.275,1.7987,1.2598,1.7982,0v-1.0339h6.4757v1.0339c.004,1.2598,1.8051,1.275,1.8062,0v-1.0339h.9603v-3.2395c-.0032-.871-.6951-1.3309-1.089-1.3813h0Zm-9.024,2.6656c-.46.002-.8327-.3831-.8306-.8558-.0021-.476.3706-.8607.8306-.8568.4587-.004.8312.381.8306.8568.0008.4728-.3719.8573-.8306.8558Zm4.1128-2.6898h-3.8952l.7419-2.0035c.0894-.2843.2286-.4879.5565-.4928h5.1934c.3233.005.4626.2085.5562.4928l.7423,2.0035h-3.895Zm4.1128,2.6898c-.4634.002-.836-.3831-.8389-.8558.0029-.476.3755-.8607.8389-.8568.4552-.004.8277.381.8304.8568-.0027.4728-.3752.8573-.8304.8558Z" fill="#747474"/></g></g></g></svg>