<?xml version="1.0" encoding="UTF-8"?><svg id="Layer_2" xmlns="http://www.w3.org/2000/svg" viewBox="0 0 18.2979 18.2979"><g id="Layer_1-2"><circle cx="9.1489" cy="9.1489" r="8.0339" fill="#fff" opacity=".3" stroke="#fff" stroke-miterlimit="10" stroke-width="2.23"/><g><circle cx="9.1489" cy="9.1489" r="7.5" fill="none" stroke="#747475" stroke-miterlimit="10" stroke-width=".7143"/><rect x="8.8161" y="2.9491" width=".6657" height="1.6505" rx=".1854" ry=".1854" fill="#747475" stroke="#747475" stroke-miterlimit="10" stroke-width=".0267"/><rect x="11.0365" y="4.1684" width="1.6505" height=".6657" rx=".1854" ry=".1854" transform="translate(2.0327 12.5232) rotate(-60)" fill="#747475" stroke="#747475" stroke-miterlimit="10" stroke-width=".0267"/><rect x="13.0225" y="6.1543" width="1.6505" height=".6657" rx=".1854" ry=".1854" transform="translate(-1.3883 7.793) rotate(-30)" fill="#747475" stroke="#747475" stroke-miterlimit="10" stroke-width=".0267"/><rect x="13.7494" y="8.8672" width="1.6505" height=".6657" rx=".1854" ry=".1854" fill="#747475" stroke="#747475" stroke-miterlimit="10" stroke-width=".0267"/><rect x="13.5149" y="11.0876" width=".6657" height="1.6505" rx=".1854" ry=".1854" transform="translate(-3.393 17.9489) rotate(-60)" fill="#747475" stroke="#747475" stroke-miterlimit="10" stroke-width=".0267"/><rect x="11.5289" y="13.0735" width=".6657" height="1.6505" rx=".1854" ry=".1854" transform="translate(-5.3602 7.793) rotate(-30)" fill="#747475" stroke="#747475" stroke-miterlimit="10" stroke-width=".0267"/><rect x="8.8161" y="13.8004" width=".6657" height="1.6505" rx=".1854" ry=".1854" fill="#747475" stroke="#747475" stroke-miterlimit="10" stroke-width=".0267"/><rect x="5.6109" y="13.5659" width="1.6505" height=".6657" rx=".1854" ry=".1854" transform="translate(-8.8186 12.5232) rotate(-60)" fill="#747475" stroke="#747475" stroke-miterlimit="10" stroke-width=".0267"/><rect x="3.6249" y="11.58" width="1.6505" height=".6657" rx=".1854" ry=".1854" transform="translate(-5.3602 3.8211) rotate(-30)" fill="#747475" stroke="#747475" stroke-miterlimit="10" stroke-width=".0267"/><rect x="2.898" y="8.8672" width="1.6505" height=".6657" rx=".1854" ry=".1854" fill="#747475" stroke="#747475" stroke-miterlimit="10" stroke-width=".0267"/><rect x="4.1173" y="5.6619" width=".6657" height="1.6505" rx=".1854" ry=".1854" transform="translate(-3.393 7.0975) rotate(-60)" fill="#747475" stroke="#747475" stroke-miterlimit="10" stroke-width=".0267"/><rect x="6.1033" y="3.676" width=".6657" height="1.6505" rx=".1854" ry=".1854" transform="translate(-1.3883 3.8211) rotate(-30)" fill="#747475" stroke="#747475" stroke-miterlimit="10" stroke-width=".0267"/><rect x="8.8161" y="5.8997" width=".6657" height="3.285" rx=".3217" ry=".3217" fill="#747475" stroke="#747475" stroke-miterlimit="10" stroke-width=".0376"/><rect x="9.9217" y="8.3565" width=".6657" height="2.4426" rx=".3217" ry=".3217" transform="translate(-1.4083 17.3796) rotate(-76.8259)" fill="#747475" stroke="#747475" stroke-miterlimit="10" stroke-width=".0324"/><ellipse cx="9.1695" cy="9.2246" rx=".3143" ry=".4498" transform="translate(-2.7618 4.046) rotate(-21.7089)" fill="#747475" stroke="#747475" stroke-miterlimit="10" stroke-width=".08"/></g></g></svg>