<?xml version="1.0" encoding="UTF-8"?><svg id="Layer_2" xmlns="http://www.w3.org/2000/svg" viewBox="0 0 13.9749 17.625"><g id="svg6"><g id="communication-tower-18"><path id="path9259" d="m4.8864,1c-.7806.288-1.4965.7512-2.125,1.375C.7072,4.4139.4538,7.6013,1.9801,9.9375l.8438-.5625c-1.282-1.9511-1.0936-4.6067.625-6.3125.5236-.5197,1.1306-.8839,1.7812-1.125l-.3437-.9375Zm4.1875.0312l-.3438.9375c.6589.2455,1.2856.5942,1.8125,1.125,1.7058,1.7186,1.8921,4.3709.5938,6.3125l.8438.5625c1.5435-2.3247,1.2889-5.5083-.75-7.5625-.6311-.6358-1.3676-1.0817-2.1562-1.375h0Zm-.6875,1.8438l-.3438.9688c.4011.1516.7755.3856,1.0938.7188.9875,1.0338,1.0968,2.5747.3438,3.7188l.8125.5625c1.0199-1.5293.9084-3.6238-.4062-5-.4286-.4486-.9518-.7675-1.5-.9688h0Zm-2.8125.0312c-.4981.1858-.9691.456-1.375.8438-1.4219,1.3583-1.6189,3.5156-.5625,5.0938l.875-.5625c-.7997-1.1868-.6678-2.7865.4062-3.8125.3006-.2871.6363-.4839,1-.625l-.3438-.9375Zm1.4062,1.7188c-1.1046,0-2,.8954-2,2,0,.9982.7315,1.8186,1.6875,1.9688l-2.6875,8.0312h1l1-2h2l1.1562,2h.8438l-2.6875-8.0312c.956-.1501,1.6875-.9706,1.6875-1.9688,0-1.1046-.8954-2-2-2h0Z" fill="#747474" isolation="isolate" opacity=".3" stroke="#fff" stroke-linejoin="round" stroke-width="2"/><path id="path8801" d="m4.8864,1c-.7806.288-1.4965.7512-2.125,1.375C.7072,4.4139.4538,7.6013,1.9801,9.9375l.8438-.5625c-1.282-1.9511-1.0936-4.6067.625-6.3125.5236-.5197,1.1306-.8839,1.7812-1.125l-.3437-.9375Zm4.1875.0312l-.3438.9375c.6589.2455,1.2856.5942,1.8125,1.125,1.7058,1.7186,1.8921,4.3709.5938,6.3125l.8438.5625c1.5435-2.3247,1.2889-5.5083-.75-7.5625-.6311-.6358-1.3676-1.0817-2.1562-1.375h0Zm-.6875,1.8438l-.3438.9688c.4011.1516.7755.3856,1.0938.7188.9875,1.0338,1.0968,2.5747.3438,3.7188l.8125.5625c1.0199-1.5293.9084-3.6238-.4062-5-.4286-.4486-.9518-.7675-1.5-.9688h0Zm-2.8125.0312c-.4981.1858-.9691.456-1.375.8438-1.4219,1.3583-1.6189,3.5156-.5625,5.0938l.875-.5625c-.7997-1.1868-.6678-2.7865.4062-3.8125.3006-.2871.6363-.4839,1-.625l-.3438-.9375Zm1.4062,1.7188c-1.1046,0-2,.8954-2,2,0,.9982.7315,1.8186,1.6875,1.9688l-2.6875,8.0312h1l1-2h2l1.1562,2h.8438l-2.6875-8.0312c.956-.1501,1.6875-.9706,1.6875-1.9688,0-1.1046-.8954-2-2-2h0Z" fill="#747474"/></g></g></svg>