<?xml version="1.0" encoding="UTF-8"?><svg id="Layer_2" xmlns="http://www.w3.org/2000/svg" viewBox="0 0 18 17"><g id="svg2"><g id="courthouse-18"><g id="g9103" opacity=".3"><path id="path9105" d="m13.9998,4h-4v11h4v1H3.9998v-1h4V4h-4v-1h4V1h2v2h4v1Z" fill="none" stroke="#fff" stroke-linejoin="round" stroke-width="2"/><path id="path9107" d="m4,3.996l-3,6c0,.8022,1.6166,2,3,2,1.3843,0,3-1.1978,3-2l-3-6Zm-2.5843,6l2.5843-5.0291,2.5843,5.0291H1.4157Z" fill="none" stroke="#fff" stroke-linejoin="round" stroke-width="2"/><path id="path9109" d="m14,3.996l-3,6c0,.8022,1.6157,2,3,2,1.3834,0,3-1.1978,3-2l-3-6Zm-2.5845,6l2.5843-5.0291,2.5845,5.0291h-5.1688Z" fill="none" stroke="#fff" stroke-linejoin="round" stroke-width="2"/></g><g id="g9098"><path id="polygon9055" d="m13.9998,4h-4v11h4v1H3.9998v-1h4V4h-4v-1h4V1h2v2h4v1Z" fill="#747474"/><path id="path9057" d="m4,3.996l-3,6c0,.8022,1.6166,2,3,2,1.3843,0,3-1.1978,3-2l-3-6Zm-2.5843,6l2.5843-5.0291,2.5843,5.0291H1.4157Z" fill="#747474"/><path id="path9059" d="m14,3.996l-3,6c0,.8022,1.6157,2,3,2,1.3834,0,3-1.1978,3-2l-3-6Zm-2.5845,6l2.5843-5.0291,2.5845,5.0291h-5.1688Z" fill="#747474"/></g></g></g></svg>