<?xml version="1.0" encoding="UTF-8"?><svg id="Layer_2" xmlns="http://www.w3.org/2000/svg" viewBox="0 0 14 18"><g id="svg2"><g id="drinking_water-18"><g id="g3894"><path id="path3124" d="m1,9l1,8h4l1-8H1Zm1,1h4l-.3,2h-3.4m.7-4v-2c0-1,1-2,2-2h3v-2h-2c-1,0-1-1,0-1h5c1,0,1,1,0,1h-2v2h4v2h-7c-.5189,0-.9397.3005-.9397.8196l-.0603,1.1804h-2Z" fill="#fff" isolation="isolate" opacity=".3" stroke="#fff" stroke-linejoin="round" stroke-width="2"/><path id="path6977" d="m1,9l1,8h4l1-8H1Zm1,1h4l-.3,2h-3.4m.7-4v-2c0-1,1-2,2-2h3v-2h-2c-1,0-1-1,0-1h5c1,0,1,1,0,1h-2v2h4v2h-7c-.5189,0-.9397.3005-.9397.8196l-.0603,1.1804h-2Z" fill="#747474"/></g></g></g></svg>