<?xml version="1.0" encoding="UTF-8"?><svg id="Layer_2" xmlns="http://www.w3.org/2000/svg" viewBox="0 0 12 12"><g id="svg5369"><g id="layer1"><g id="embassy-12"><path id="path6849" d="m6.5,4v-1h3.5l-2-1,2-1h-4.5v3s-2.5,0-2.5,2h6c0-2-2.5-2-2.5-2ZM1,7h10v4h-3v-1h-4v1H1v-4Z" fill="none" isolation="isolate" opacity=".3" stroke="#fff" stroke-linejoin="round" stroke-width="2"/><path id="path6840" d="m6.5,4v-1h3.5l-2-1,2-1h-4.5v3s-2.5,0-2.5,2h6c0-2-2.5-2-2.5-2ZM1,7h10v4h-3v-1h-4v1H1v-4Z" fill="#525252"/></g></g></g></svg>