<?xml version="1.0" encoding="UTF-8"?><svg id="Layer_2" xmlns="http://www.w3.org/2000/svg" viewBox="0 0 16.8903 13.1677"><g id="svg5369"><g id="layer1"><g id="fast_food-18"><g id="g21574"><path id="path15098" d="m5.9634,1C3.4164,1,1.6204,1.9797,1.6204,4.1021v1.8613h13.6494v-1.8613c0-2.1224-1.796-3.1021-4.343-3.1021h-4.9634Zm0,1.396c.257,0,.4653.2083.4653.4653s-.2083.4653-.4653.4653-.4653-.2083-.4653-.4653.2083-.4653.4653-.4653Zm4.9634,0c.257,0,.4653.2083.4653.4653s-.2083.4653-.4653.4653-.4653-.2083-.4653-.4653.2083-.4653.4653-.4653Zm-7.4451,1.2409c.257,0,.4653.2083.4653.4653s-.2083.4653-.4653.4653-.4653-.2083-.4653-.4653.2083-.4653.4653-.4653Zm4.9634,0c.257,0,.4653.2083.4653.4653s-.2083.4653-.4653.4653-.4653-.2083-.4653-.4653.2083-.4653.4653-.4653Zm4.9634,0c.257,0,.4653.2083.4653.4653s-.2083.4653-.4653.4653-.4653-.2083-.4653-.4653.2083-.4653.4653-.4653ZM1.6204,7.2043c-.4245,0-.6204.196-.6204.6204s.1959.6204.6204.6204h13.6494c.4245,0,.6204-.1959.6204-.6204s-.1959-.6204-.6204-.6204H1.6204Zm0,2.4817v.7755c0,.849.8572,1.7062,1.7062,1.7062h10.2371c.849,0,1.7062-.8572,1.7062-1.7062v-.7755H1.6204Z" fill="none" isolation="isolate" opacity=".3" stroke="#fff" stroke-linecap="round" stroke-linejoin="round" stroke-width="2"/><path id="rect13326-2-5-2-3-6" d="m5.9634,1C3.4164,1,1.6204,1.9797,1.6204,4.1021v1.8613h13.6494v-1.8613c0-2.1224-1.796-3.1021-4.343-3.1021h-4.9634Zm0,1.396c.257,0,.4653.2083.4653.4653s-.2083.4653-.4653.4653-.4653-.2083-.4653-.4653.2083-.4653.4653-.4653Zm4.9634,0c.257,0,.4653.2083.4653.4653s-.2083.4653-.4653.4653-.4653-.2083-.4653-.4653.2083-.4653.4653-.4653Zm-7.4451,1.2409c.257,0,.4653.2083.4653.4653s-.2083.4653-.4653.4653-.4653-.2083-.4653-.4653.2083-.4653.4653-.4653Zm4.9634,0c.257,0,.4653.2083.4653.4653s-.2083.4653-.4653.4653-.4653-.2083-.4653-.4653.2083-.4653.4653-.4653Zm4.9634,0c.257,0,.4653.2083.4653.4653s-.2083.4653-.4653.4653-.4653-.2083-.4653-.4653.2083-.4653.4653-.4653ZM1.6204,7.2043c-.4245,0-.6204.196-.6204.6204s.1959.6204.6204.6204h13.6494c.4245,0,.6204-.1959.6204-.6204s-.1959-.6204-.6204-.6204H1.6204Zm0,2.4817v.7755c0,.849.8572,1.7062,1.7062,1.7062h10.2371c.849,0,1.7062-.8572,1.7062-1.7062v-.7755H1.6204Z" fill="#747474"/></g></g></g></g></svg>