<?xml version="1.0" encoding="UTF-8"?><svg id="Layer_2" xmlns="http://www.w3.org/2000/svg" viewBox="0 0 17 14"><g id="svg6"><g id="money_transfer-18"><path id="path8531" d="m1,1v12h11l-4-6L12,1H1Zm11,0v12l4-6L12,1ZM4,3h2v1c.3046.3836.8318.6848,1,1.125v.875c-.3837-.3046-.6848-.8319-1.125-1h-1.875l3,3v1c-.3046.3836-.8318.6848-1,1.125v.875h-2v-1c-.3046-.3836-.8318-.6848-1-1.125v-.875c.3837.3046.6848.8319,1.125,1h1.875l-3-3v-1c.3046-.3836.8318-.6848,1-1.125v-.875Z" fill="none" isolation="isolate" opacity=".3" stroke="#fff" stroke-linejoin="round" stroke-width="2"/><path id="path4505" d="m1,1v12h11l-4-6L12,1H1Zm11,0v12l4-6L12,1ZM4,3h2v1c.3046.3836.8318.6848,1,1.125v.875c-.3837-.3046-.6848-.8319-1.125-1h-1.875v1l2,1,1,1v1c-.3046.3836-.8318.6848-1,1.125v.875h-2v-1c-.3046-.3836-.8318-.6848-1-1.125v-.875c.3837.3046.6848.8319,1.125,1h1.875v-1l-2-1-1-1v-1c.3046-.3836.8318-.6848,1-1.125v-.875Z" fill="#747474"/></g></g></svg>