<?xml version="1.0" encoding="UTF-8"?><svg id="Layer_2" xmlns="http://www.w3.org/2000/svg" viewBox="0 0 17.28 18"><g id="svg2"><g id="g4931" opacity=".3"><path id="path4933" d="m1.28,9l-.0003-4c1.4142-1.4142,1.2929-1.8787,2-4h1v4h11l-.0003,2H4.2795v2H1.28Z" fill="none" stroke="#fff" stroke-linejoin="round" stroke-width="2"/><path id="path4935" d="m5.28,11v2c2-1,3.9587-2.0164,5-2,3.9969-.0235,6,1,6,1,0,0,0,2-1,2-4.025-.0277-6,2-7,3-2-1-4-1-6,0,0,0-2-3-1-6h4Z" fill="none" stroke="#fff" stroke-linejoin="round" stroke-width="2"/></g><g id="g4927"><path id="path4874" d="m1.28,9l-.0003-4c1.4142-1.4142,1.2929-1.8787,2-4h1v4h11l-.0003,2H4.2795v2H1.28Z" fill="#747474"/><path id="path4895" d="m5.28,11v2c2-1,3.9587-2.0164,5-2,3.9969-.0235,6,1,6,1,0,0,0,2-1,2-4.025-.0277-6,2-7,3-2-1-4-1-6,0,0,0-2-3-1-6h4Z" fill="#747474"/></g></g></svg>