<?xml version="1.0" encoding="UTF-8"?><svg id="Layer_1" xmlns="http://www.w3.org/2000/svg" viewBox="0 0 18.6161 8.9075"><g opacity=".3"><path d="M17.1322,4.9495c-1.6824,.8381-3.4288,1.2373-5.2308,1.1463-2.2723-.1148-4.5342-.4139-6.8023-.6155-1.2221-.1086-2.4478-.1798-3.7471-.2733-.2309-1.1591,.1042-2.2017,.6996-3.1718,.0784-.1277,.5152-.1202,.7617-.0681,.7913,.1671,1.5626,.4953,2.3578,.5533,.9018,.0658,1.6705-.3898,2.2883-1.0422,.6036-.6374,.6108-.634,1.1401-.011-.084,.447,.0679-.3615,0,0,.3302-.1683,.901,.5988,.901,.5988-.0114,.1391-.021,.3071-.0398,.4742-.0285,.2538,.3713-.239,.3392,.0144,.237-.1415,.0437,.4691,.274,.318,.0782-.0513,.1283-.1425,.1912-.2155l.2369,.0637c-.0519,.1996-.1225,.3969-.1505,.5996-.0289,.2096,.4432-.3401,.4377-.1274,.1933-.0756-.0649,.6277,.1166,.5313,.0804-.0427,.1038-.1807,.1832-.2316,.1088-.0697-.1251,.0458,0,0,.012,.1285,.4316,.1229,.4001,.2405-.0771,.2871-.6391,.5504-.1019,.8334,.1113,.0586,.4865-.3479,.7373-.5432,.0387-.0301,.0628-.0778,.1561-.1972,.1676,.0558,.3622,.1567,.567,.1823,.7685,.0963,1.5406,.2333,2.3108,.2303,.7392-.0029,1.4405-.0527,1.9738,.7108Z" fill="none" stroke="#fff" stroke-miterlimit="10" stroke-width="2"/><path d="M17.2161,5.7246c.2316,.7114-.2181,1.0278-.7338,1.1459-1.273,.2915-2.5576,.6292-3.8518,.7052-1.3962,.082-2.8099-.0943-4.2134-.1949-.6207-.0445-1.218-.1837-1.7243,.367-.1308,.1422-.4536,.1755-.6777,.1533-1.3297-.132-2.6563-.2951-3.9839-.4476-1.0778-.1238-.4711-.913-.6629-1.548,1.0312,.0526,1.9636,.0658,2.8887,.1545,1.8469,.1772,3.6904,.3907,5.5342,.5986,2.4464,.2759,4.8443,.1642,7.1363-.8504,.086-.0381,.182-.0534,.2886-.0837Z" fill="none" stroke="#fff" stroke-miterlimit="10" stroke-width="2"/></g><g><path d="M17.1322,4.9495c-1.6824,.8381-3.4288,1.2373-5.2308,1.1463-2.2723-.1148-4.5342-.4139-6.8023-.6155-1.2221-.1086-2.4478-.1798-3.7471-.2733-.2309-1.1591,.1042-2.2017,.6996-3.1718,.0784-.1277,.5152-.1202,.7617-.0681,.7913,.1671,1.5626,.4953,2.3578,.5533,.9018,.0658,1.6705-.3898,2.2883-1.0422,.6036-.6374,.6108-.634,1.1401-.011l-.2198,1.17,1.1208-.5712c-.0114,.1391-.021,.3071-.0398,.4742-.0285,.2538-.0633,.5069-.0954,.7604,.237-.1415,.4783-.2768,.7086-.428,.0782-.0513,.1283-.1425,.1912-.2155l.2369,.0637c-.0519,.1996-.1225,.3969-.1505,.5996-.0289,.2096-.0163,.4246-.0218,.6373,.1933-.0756,.3946-.137,.5761-.2334,.0804-.0427,.1038-.1807,.1832-.2316,.1088-.0697,.2462-.0975,.3713-.1433,.012,.1285,.0603,.2662,.0287,.3837-.0771,.2871-.6391,.5504-.1019,.8334,.1113,.0586,.4865-.3479,.7373-.5432,.0387-.0301,.0628-.0778,.1561-.1972,.1676,.0558,.3622,.1567,.567,.1823,.7685,.0963,1.5406,.2333,2.3108,.2303,.7392-.0029,1.4405-.0527,1.9738,.7108Z" fill="#747474"/><path d="M17.2161,5.7246c.2316,.7114-.2181,1.0278-.7338,1.1459-1.273,.2915-2.5576,.6292-3.8518,.7052-1.3962,.082-2.8099-.0943-4.2134-.1949-.6207-.0445-1.218-.1837-1.7243,.367-.1308,.1422-.4536,.1755-.6777,.1533-1.3297-.132-2.6563-.2951-3.9839-.4476-1.0778-.1238-.4711-.913-.6629-1.548,1.0312,.0526,1.9636,.0658,2.8887,.1545,1.8469,.1772,3.6904,.3907,5.5342,.5986,2.4464,.2759,4.8443,.1642,7.1363-.8504,.086-.0381,.182-.0534,.2886-.0837Z" fill="#747474"/></g></svg>