<?xml version="1.0" encoding="UTF-8"?><svg id="Layer_2" xmlns="http://www.w3.org/2000/svg" viewBox="0 0 11.9423 17.9999"><g id="svg6"><path id="path6072" d="m9.8748,7.928v1.086c0,2.1528-1.751,3.9038-3.9038,3.9038s-3.9038-1.751-3.9038-3.9038v-1.086h-1.0672v1.086c0,2.5608,1.9464,4.6749,4.4374,4.9421v1.9765l-3.4374.0674v1h8v-1l-3.4951-.0674v-1.9765c2.4911-.2671,4.4374-2.3811,4.4374-4.9421v-1.086h-1.0675Zm-3.8749,4.072c2,0,3-1.5294,3-3v-5c-.0002-1.4701-1-3-3-3s-3,1.5299-3,3v5c-.0002,1.4706,1,3,3,3Z" fill="#747474" isolation="isolate" opacity=".3" stroke="#fff" stroke-linejoin="round" stroke-width="2"/><path id="path6039" d="m9.8748,7.928v1.086c0,2.1528-1.751,3.9038-3.9038,3.9038s-3.9038-1.751-3.9038-3.9038v-1.086h-1.0672v1.086c0,2.5608,1.9464,4.6749,4.4374,4.9421v1.9765l-3.4374.0674v1h8v-1l-3.4951-.0674v-1.9765c2.4911-.2671,4.4374-2.3811,4.4374-4.9421v-1.086h-1.0675Zm-3.8749,4.072c2,0,3-1.5294,3-3v-5c-.0002-1.4701-1-3-3-3s-3,1.5299-3,3v5c-.0002,1.4706,1,3,3,3Z" fill="#747474"/></g></svg>