<?xml version="1.0" encoding="UTF-8"?><svg id="Layer_2" xmlns="http://www.w3.org/2000/svg" viewBox="0 0 18 17"><g id="svg10"><path id="path7883" d="m15.5552,7.3002l-1.316-3.3643c-.2429-.635-.779-1.1599-1.7909-1.1569h-1.4483v-1.779h-4v1.779h-1.4483c-1.007-.003-1.543.5219-1.7909,1.1569l-1.3162,3.3643c-.5182.0624-1.44.6675-1.4446,1.811v3.8888h1.2861v1.7511c-.0034,1.675,2.3976,1.6554,2.3949,0v-1.7511h8.6379v1.7511c.0029,1.6554,2.404,1.675,2.4046,0v-1.7511h1.2765v-3.8888c.001-1.1435-.9218-1.7486-1.4448-1.811Zm-12.032,3.4733c-.6142-.0002-1.111-.5065-1.1083-1.1278-.0029-.6293.4939-1.136,1.1083-1.1381.6106.002,1.107.509,1.1082,1.1381-.0011.6213-.4976,1.1277-1.1082,1.1278Zm.4768-3.7735l.7994-2.3812c.1213-.3696.3069-.6375.7422-.6432,7.4584.0244.4584.0244,6.9264,0,.4304.006.616.2736.7422.6432l.7898,2.3812H4Zm10.487,3.7735c-.6157-.0002-1.1125-.5065-1.1085-1.1278-.004-.6293.4928-1.136,1.1085-1.1381.6094.002,1.1056.509,1.1086,1.1381-.003.6213-.4994,1.1277-1.1086,1.1278Z" fill="#fff" isolation="isolate" opacity=".3" stroke="#fff" stroke-linejoin="round" stroke-width="2"/><path id="path7849" d="m15.5552,7.3002l-1.316-3.3643c-.2429-.635-.779-1.1599-1.7909-1.1569h-1.4483v-1.779h-4v1.779h-1.4483c-1.007-.003-1.543.5219-1.7909,1.1569l-1.3162,3.3643c-.5182.0624-1.44.6675-1.4446,1.811v3.8888h1.2861v1.7511c-.0034,1.675,2.3976,1.6554,2.3949,0v-1.7511h8.6379v1.7511c.0029,1.6554,2.404,1.675,2.4046,0v-1.7511h1.2765v-3.8888c.001-1.1435-.9218-1.7486-1.4448-1.811Zm-12.032,3.4733c-.6142-.0002-1.111-.5065-1.1083-1.1278-.0029-.6293.4939-1.136,1.1083-1.1381.6106.002,1.107.509,1.1082,1.1381-.0011.6213-.4976,1.1277-1.1082,1.1278Zm.4768-3.7735l.7994-2.3812c.1213-.3696.3069-.6375.7422-.6432,7.4584.0244.4584.0244,6.9264,0,.4304.006.616.2736.7422.6432l.7898,2.3812H4Zm10.487,3.7735c-.6157-.0002-1.1125-.5065-1.1085-1.1278-.004-.6293.4928-1.136,1.1085-1.1381.6094.002,1.1056.509,1.1086,1.1381-.003.6213-.4994,1.1277-1.1086,1.1278Z" fill="#747474"/></g></svg>