<?xml version="1.0" encoding="UTF-8"?><svg id="Layer_2" xmlns="http://www.w3.org/2000/svg" viewBox="0 0 17.4656 17.4656"><g id="svg5369"><path id="path14474" d="m15.2759,4.569l-6.5431-3.569-6.5431,3.569v8.3276l-1.1897,2.9741c0,.4296.2784.5948.5948.5948h14.2759c.305,0,.5948-.1653.5948-.5948l-1.1897-2.9741V4.569Z" fill="#fff" isolation="isolate" opacity=".3" stroke="#fff" stroke-linecap="round" stroke-linejoin="round" stroke-width="2"/><path id="rect7645-6-5-0-1-2" d="m8.7328,1l-6.5431,3.569h13.0863l-6.5431-3.569ZM3.3793,5.7586c-.5948,0-1.1897.5866-1.1897,1.1153v6.0227l-1.1897,2.9741c0,.4296.2784.5948.5948.5948h14.2759c.305,0,.5948-.1653.5948-.5948l-1.1897-2.9741v-6.0227c0-.5288-.5948-1.1153-1.1897-1.1153H3.3793Zm1.7845,1.1897l.5948.5948v5.3535h-1.1897v-5.3535l.5948-.5948Zm3.569,0l.5948.5948v5.3535h-1.1897v-5.3535l.5948-.5948Zm3.569,0l.5948.5948v5.3535h-1.1897v-5.3535l.5948-.5948Z" fill="#747474"/></g></svg>