<?xml version="1.0" encoding="UTF-8"?><svg id="Layer_2" xmlns="http://www.w3.org/2000/svg" viewBox="0 0 17.5745 17.5745"><g id="svg6"><path id="path4473" d="m8.7872,1C4.5063,1,1,4.5063,1,8.7872s3.5063,7.7872,7.7872,7.7872,7.7872-3.5063,7.7872-7.7872S13.0682,1,8.7872,1Zm-.5215,3.3722l-.591,1.8773c-.4171.1846-.7985.4459-1.0777.7995l-1.8773-.0345c.618-1.4266,1.9362-2.4554,3.546-2.6421v-.0002Zm1.0429,0c1.6152.1873,2.9656,1.2079,3.5808,2.6421l-1.9121.069c-.2814-.3635-.6518-.6453-1.0777-.8338l-.591-1.8773Zm-.5215,3.3026c.6144,0,1.1125.498,1.1125,1.1125s-.4981,1.1125-1.1125,1.1125-1.1125-.498-1.1125-1.1125.4981-1.1125,1.1125-1.1125Zm-4.4151.5215l1.6687,1.0081c.0452.2975.1465.5757.2781.8343l-.7648,1.8078c-.7549-.798-1.2168-1.8653-1.2168-3.0593,0-.2021.0089-.3961.0347-.5909h.0001Zm8.8302,0c.0256.1948.0347.3888.0347.5909,0,1.2036-.4511,2.2942-1.2168,3.0941l-.7648-1.8426c.1317-.2586.2329-.5369.2781-.8343l1.6687-1.0081h.0001Zm-5.1451,3.2679c.2346.0645.4751.1046.7301.1046s.4955-.0401.7301-.1046l1.5992,1.1125c-.6795.417-1.4678.6605-2.3293.6605-.8727,0-1.6789-.2333-2.364-.6605l1.634-1.1125Z" fill="none" isolation="isolate" opacity=".3" stroke="#fff" stroke-linejoin="round" stroke-width="2"/><path id="path4263" d="m8.7872,1C4.5063,1,1,4.5063,1,8.7872s3.5063,7.7872,7.7872,7.7872,7.7872-3.5063,7.7872-7.7872S13.0682,1,8.7872,1Zm-.5215,3.3722l-.591,1.8773c-.4171.1846-.7985.4459-1.0777.7995l-1.8773-.0345c.618-1.4266,1.9362-2.4554,3.546-2.6421v-.0002Zm1.0429,0c1.6152.1873,2.9656,1.2079,3.5808,2.6421l-1.9121.069c-.2814-.3635-.6518-.6453-1.0777-.8338l-.591-1.8773Zm-.5215,3.3026c.6144,0,1.1125.498,1.1125,1.1125s-.4981,1.1125-1.1125,1.1125-1.1125-.498-1.1125-1.1125.4981-1.1125,1.1125-1.1125Zm-4.4151.5215l1.6687,1.0081c.0452.2975.1465.5757.2781.8343l-.7648,1.8078c-.7549-.798-1.2168-1.8653-1.2168-3.0593,0-.2021.0089-.3961.0347-.5909h.0001Zm8.8302,0c.0256.1948.0347.3888.0347.5909,0,1.2036-.4511,2.2942-1.2168,3.0941l-.7648-1.8426c.1317-.2586.2329-.5369.2781-.8343l1.6687-1.0081h.0001Zm-5.1451,3.2679c.2346.0645.4751.1046.7301.1046s.4955-.0401.7301-.1046l1.5992,1.1125c-.6795.417-1.4678.6605-2.3293.6605-.8727,0-1.6789-.2333-2.364-.6605l1.634-1.1125Z" fill="#747474"/></g></svg>