<?xml version="1.0" encoding="UTF-8"?><svg id="Layer_2" xmlns="http://www.w3.org/2000/svg" viewBox="0 0 17.4063 13.8511"><g id="svg5369"><g id="g21624"><path id="path13130" d="m8.7032,1L1,5.1479l7.7032,4.1479,5.333-2.7776v4.2219c0,2.111,1.7777,1.8147,1.7777,1.8147v-.8888s-.9259,0-.9259-.9259v-4.7034l1.5183-.8888L8.7032,1Zm-4.1479,7.7032v1.7036c0,.4252.6075.9703,1.1851,1.2592l2.9628,1.1851,2.9628-1.1851c.5777-.2889,1.1851-.834,1.1851-1.2592v-1.7036l-4.1479,1.7777-4.1479-1.7777Z" fill="none" isolation="isolate" opacity=".3" stroke="#fff" stroke-linecap="round" stroke-linejoin="round" stroke-width="2"/><path id="path7442-0" d="m8.7032,1L1,5.1479l7.7032,4.1479,5.333-2.7776v4.2219c0,2.111,1.7777,1.8147,1.7777,1.8147v-.8888s-.9259,0-.9259-.9259v-4.7034l1.5183-.8888L8.7032,1Zm-4.1479,7.7032v1.7036c0,.4252.6075.9703,1.1851,1.2592l2.9628,1.1851,2.9628-1.1851c.5777-.2889,1.1851-.834,1.1851-1.2592v-1.7036l-4.1479,1.7777-4.1479-1.7777Z" fill="#747474"/></g></g></svg>