<?xml version="1.0" encoding="UTF-8"?><svg id="Layer_2" xmlns="http://www.w3.org/2000/svg" viewBox="0 0 17.9834 17.7516"><g id="svg4"><g opacity=".5"><path d="m10.7708,9.7275c-.555.9221.2225,2.2294,1.298,2.1799,1.0861.0376,1.8475-1.2435,1.2981-2.1799-.4894-1.015-2.1066-1.015-2.5961,0Z" fill="none" stroke="#fff" stroke-miterlimit="10" stroke-width="2"/><path d="m15.1337,14.3132c-.1128.3855-.3386.2512-.5789.0507-.2329-.2562-.4842.1025-.7271.1833-.2437.1348-.0873.5198-.1576.7631-1.2095-.0638-2.419-.1278-3.6284-.1916-.4012.1049-.2352-.3282-.2665-.5742.0494-.3048-.3639-.3714-.5375-.5615-.2299.0398-.4619.3001-.6926.4249-.3902-.7677-.7804-1.5354-1.1706-2.3032-.3025-.5311-1.103-.4521-1.6415-.5698-1.7219-.2571-3.3627.5575-4.7327,1.5199h-.0001s0,2.3555,0,2.3555c0,.1655.2128.2296.3023.0904.5758-.8954,1.4555-1.5971,2.4665-1.9356.8985-.2488,1.9899-.5046,2.8163.0715.9201.7771,1.4582,1.9729,2.585,2.516,1.3514.6717,2.9874.7736,4.4263.3302,1.939-.6308,2.9703-2.6939,3.1084-4.6167-.5237.8157-1.0474,1.6314-1.5711,2.4471Z" fill="#747474" stroke="#fff" stroke-miterlimit="10" stroke-width="2"/><path d="m13.0589,7.9075l.0118-1.2008c-.5914-.0165-1.1828-.033-1.7742-.0495-.0924-.0026-.1694.0702-.1721.1627-.0145.5081-.029,1.0162-.0435,1.5243-.3314.2799-.6471.1798-.9443-.3759l-.9506-.0422c-.2562.429-.5124.8581-.7687,1.2871-.0467.0782-.0224.1793.0547.2277.4117.2587.8234.5173,1.2351.7759.0832.3369-.2038.4347-.4534.5568-.34.1831-.6799.3662-1.0198.5493.2677.5371.5354,1.0743.8031,1.6115.0424.0851.1471.1179.2304.0722l1.2525-.6868c.2333.2116.6982.3109.2675.8447l.4728,1.1261c.4818.0216.9637.0431,1.4455.0647.0923.0041.1705-.0673.1748-.1596.0224-.4833.0448-.9665.067-1.4497.3006-.1687.6036-.503.8905.1938l1.1413.1023c.2569-.4177.5139-.8355.7709-1.2533.0488-.0793.0235-.1832-.0563-.2313-.4106-.2471-.8212-.4942-1.2318-.7414.0059-.2021.0118-.4042.0177-.6062h0c.4224-.2292.8448-.4582,1.2672-.6873.0831-.0451.1125-.1499.0649-.2316-.2751-.472-.5502-.9439-.8253-1.4159-.0451-.0774-.1431-.1056-.2224-.064-.4415.2311-.883.4623-1.3245.6934-.3087-.0891-.4651-.2703-.3808-.5971Zm-.9901,4c-1.0755.0495-1.853-1.2578-1.298-2.1799.4895-1.015,2.1067-1.015,2.5961,0,.5495.9364-.212,2.2175-1.2981,2.1799Z" fill="#747474" stroke="#fff" stroke-miterlimit="10" stroke-width="2"/><path d="m2.9718,10.6065c.0007.1111.1068.1912.2134.1602.9237-.2684,1.8931-.5616,2.8457-.2692.4607-.0602,1.3398.6829,1.481.1008.1379-.2911-.3589-.3367-.5215-.5116-.3527-.113.1004-.4222.1556-.6344.5893-.9707,1.1786-1.9414,1.7679-2.912.2745.1439.5403.3997.8203.4745.3544-.0265.2455-.3881.2921-.6371-.0458-.3452.0881-.4958.4363-.4143.9965-.0077,1.993-.0157,2.9895-.0237.156-.0012.2257-.1963.1059-.2962-1.8574-1.5479-3.7148-3.0958-5.5721-4.6436h-.9841L1.0001,5.9666v1.0244c.5925-.0164,1.1849-.0329,1.7774-.0494.0939-.0026.1715.0725.1721.1664.0072,1.1662.0148,2.3323.0222,3.4985Z" fill="#747474" stroke="#fff" stroke-miterlimit="10" stroke-width="2"/></g><g><path d="m10.7708,9.7275c-.555.9221.2225,2.2294,1.298,2.1799,1.0861.0376,1.8475-1.2435,1.2981-2.1799-.4894-1.015-2.1066-1.015-2.5961,0Z" fill="none"/><path d="m15.1337,14.3132c-.1128.3855-.3386.2512-.5789.0507-.2329-.2562-.4842.1025-.7271.1833-.2437.1348-.0873.5198-.1576.7631-1.2095-.0638-2.419-.1278-3.6284-.1916-.4012.1049-.2352-.3282-.2665-.5742.0494-.3048-.3639-.3714-.5375-.5615-.2299.0398-.4619.3001-.6926.4249-.3902-.7677-.7804-1.5354-1.1706-2.3032-.3025-.5311-1.103-.4521-1.6415-.5698-1.7219-.2571-3.3627.5575-4.7327,1.5199h-.0001s0,1.1811,0,1.1811c0,.5236.6239.7785.9998.414.501-.4857,1.1068-.8632,1.7689-1.0848.8985-.2488,1.9899-.5046,2.8163.0715.9201.7771,1.4582,1.9729,2.585,2.516,1.3514.6717,2.9874.7736,4.4263.3302,1.939-.6308,2.9703-2.6939,3.1084-4.6167-.5237.8157-1.0474,1.6314-1.5711,2.4471Z" fill="#747474"/><path d="m13.0589,7.9075l.0118-1.2008c-.6472-.018-1.2944-.0361-1.9415-.0541-.016.5639-.0322,1.1277-.0482,1.6916-.2418.2043-.4753.2061-.6994-.0237-.3452-.2207-.6904-.4414-1.0355-.6621-.3376.5652-.675,1.1304-1.0126,1.6955.4579.2877.9158.5754,1.3738.863.0832.3369-.2038.4347-.4534.5568-.34.1831-.6799.3662-1.0198.5493.2936.5891.5872,1.1782.8808,1.7674l1.4052-.7705c.1902.1724.5341.2703.4218.5896-.0088.4553-.0181.9105-.0271,1.3658.6528.0293,1.3056.0584,1.9583.0876.0249-.539.0499-1.0779.0748-1.6168.243-.1364.4876-.3811.7241-.1014.3744.2326.7487.4652,1.1231.6977.348-.5658.6961-1.1316,1.0441-1.6975-.4589-.2762-.9178-.5524-1.3767-.8286.0059-.2021.0118-.4042.0177-.6062h0c.4731-.2566.946-.5131,1.419-.7696-.3309-.5678-.662-1.1356-.9929-1.7034-.4888.2559-.9775.5117-1.4663.7676-.3087-.0891-.4651-.2703-.3808-.5971Zm-.9901,4c-1.0755.0495-1.853-1.2578-1.298-2.1799.4895-1.015,2.1067-1.015,2.5961,0,.5495.9364-.212,2.2175-1.2981,2.1799Z" fill="#747474"/><path d="m2.9732,10.8279c.9867-.281,2.032-.6452,3.0577-.3303.4607-.0602,1.3398.6829,1.481.1008.1379-.2911-.3589-.3367-.5215-.5116-.3527-.113.1004-.4222.1556-.6344.5893-.9707,1.1786-1.9414,1.7679-2.912.2745.1439.5403.3997.8203.4745.3544-.0265.2455-.3881.2921-.6371-.0458-.3452.0881-.4958.4363-.4143,1.1488-.0088,2.2976-.0182,3.4465-.0273-1.9744-1.6454-3.9488-3.2908-5.9231-4.9361h-.9841L1.0001,5.9666v1.0244c.6495-.018,1.299-.0361,1.9484-.0541.0079,1.297.0165,2.594.0246,3.891Z" fill="#747474"/></g></g></svg>